<svg width="327" height="177" viewBox="0 0 327 177" fill="none" xmlns="http://www.w3.org/2000/svg">
<g clip-path="url(#clip0_2999_1555)">
<path d="M324.349 66.3493C321.371 57.2225 316.399 49.9253 309.573 44.668C303.534 40.0121 296.22 37.1857 288.418 36.5002C282.126 35.945 275.842 36.7778 270.084 38.9144V23.2937C283.821 24.1938 303.058 23.8405 325.951 19.071L322.305 1.5662C280.671 10.2429 252.176 2.82376 251.919 2.75226L244.189 0.649321L241.236 8.09372C241.207 8.16522 238.364 15.2731 233.022 23.3442C230.259 27.5206 226.457 32.4962 221.797 36.7357C212.498 15.147 196.33 6.33566 184.276 2.74805C169.278 -1.71438 155.941 0.207705 150.419 2.04988C144.026 4.18226 136.636 9.37651 132.161 16.8251C127.661 21.645 118.585 30.6877 107.729 37.783C98.5142 15.4203 82.0229 6.38193 69.7754 2.73543C54.7815 -1.727 41.4405 0.199293 35.9224 2.03726C27.8639 4.72481 18.2198 12.2701 14.8299 23.0708C12.9583 29.0432 12.298 38.2709 19.7928 48.3187C27.0522 58.0511 38.8286 64.3136 53.8478 66.4334C66.2425 68.183 80.4079 66.9717 95.2126 62.9299C95.2673 69.4406 93.7279 75.6064 90.5987 81.3853C84.3067 92.9977 74.0528 98.8817 71.0582 100.408C65.1195 103.437 54.2558 105.674 43.3752 103.845C30.8501 101.737 21.614 95.0207 15.9234 83.8709L0 92.0009C4.40776 100.64 10.481 107.609 18.0474 112.719C24.5875 117.135 32.1118 120.084 40.4142 121.476C44.2248 122.115 47.9596 122.397 51.5472 122.397C62.9367 122.397 72.8668 119.554 79.1882 116.332C90.2791 110.675 100.424 100.791 106.324 89.898C110.614 81.9825 114.459 70.3869 112.612 55.7589C119.363 51.8432 125.537 47.1368 130.803 42.5735C131.694 44.4451 132.838 46.3672 134.294 48.3187C141.553 58.0511 153.329 64.3136 168.349 66.4334C180.743 68.183 194.909 66.9717 209.713 62.9299C209.768 69.4406 208.229 75.6064 205.099 81.3853C198.807 92.9977 188.554 98.8817 185.559 100.408C179.62 103.437 168.756 105.674 157.876 103.845C145.351 101.737 136.115 95.0207 130.424 83.8709L114.501 92.0009C118.908 100.64 124.982 107.609 132.548 112.719C139.088 117.135 146.613 120.084 154.915 121.476C158.725 122.115 162.46 122.397 166.048 122.397C177.437 122.397 187.367 119.554 193.689 116.332C204.78 110.675 214.924 100.791 220.825 89.898C225.153 81.9068 229.035 70.1682 227.058 55.3383C238.877 47.1789 247.289 34.9524 252.31 26.0191V53.3279H252.512C252.487 53.3741 252.458 53.4204 252.432 53.4667L268.196 61.9037C270.888 56.8692 278.908 53.6055 286.849 54.3036C292.527 54.8041 302.739 57.7567 307.353 71.8926C311.516 84.6532 300.379 97.0858 293.78 100.615C286.012 104.766 276.259 105.641 267.691 102.953C261.681 101.069 253.353 96.539 247.802 85.6626L231.878 93.7926C238.41 106.591 249.227 115.903 262.337 120.016C267.422 121.61 272.696 122.401 277.949 122.401C286.382 122.401 294.756 120.37 302.209 116.387C309.388 112.551 316.311 105.502 320.723 97.5358C326.405 87.2693 327.663 76.4854 324.353 66.3493H324.349ZM56.3461 48.7309C46.2983 47.3135 38.4038 43.3684 34.1223 37.6316C32.5745 35.5581 30.6608 32.3448 31.8889 28.4249C33.2474 24.0971 37.8823 20.2361 41.5793 18.9995C43.1817 18.4654 46.5506 17.9018 50.849 17.9018C54.874 17.9018 59.7108 18.3981 64.6779 19.8744C77.1357 23.5839 86.1027 31.9999 91.339 44.8993C91.4063 45.0675 91.4735 45.2316 91.5408 45.3998C78.7045 49.0337 66.6421 50.1861 56.3545 48.7351L56.3461 48.7309ZM170.847 48.7309C160.799 47.3135 152.905 43.3684 148.623 37.6316C147.075 35.5581 145.162 32.3448 146.39 28.4249C147.748 24.0971 152.383 20.2361 156.08 18.9995C157.682 18.4654 161.051 17.9018 165.35 17.9018C169.375 17.9018 174.212 18.3981 179.179 19.8744C191.636 23.5839 200.603 31.9999 205.84 44.8993C205.907 45.0675 205.974 45.2316 206.042 45.3998C193.205 49.0337 181.143 50.1861 170.855 48.7351L170.847 48.7309Z" fill="white"/>
<path d="M60.1609 157.724V160.394H55.7489V170.648H52.7417V157.724H60.1567H60.1609Z" fill="white"/>
<path d="M62.2388 176.827V157.724H65.3006V176.827H62.2388ZM75.134 167.851C74.5536 168.873 73.7839 169.647 72.8292 170.181C71.8744 170.715 70.8356 170.98 69.7126 170.98C68.5896 170.98 67.6475 170.703 66.8316 170.152C66.0156 169.601 65.389 168.814 64.9516 167.792C64.5099 166.77 64.2912 165.567 64.2912 164.184C64.2912 162.8 64.5099 161.572 64.9516 160.558C65.3932 159.545 66.0198 158.767 66.8316 158.211C67.6475 157.66 68.6065 157.383 69.7126 157.383C70.8188 157.383 71.8744 157.648 72.8292 158.182C73.7839 158.716 74.5536 159.49 75.134 160.499C75.7144 161.509 76.0046 162.737 76.0046 164.18C76.0046 165.622 75.7144 166.825 75.134 167.847V167.851ZM72.3245 161.98C71.967 161.37 71.4959 160.912 70.9071 160.605C70.3183 160.297 69.6663 160.142 68.9556 160.142C68.3751 160.142 67.8031 160.297 67.2438 160.605C66.6802 160.916 66.2175 161.37 65.8516 161.967C65.4857 162.569 65.3049 163.305 65.3049 164.188C65.3049 165.071 65.4857 165.807 65.8516 166.409C66.2175 167.01 66.6802 167.46 67.2438 167.771C67.8074 168.078 68.3751 168.234 68.9556 168.234C69.6663 168.234 70.3183 168.078 70.9071 167.771C71.4959 167.46 71.9712 167.002 72.3245 166.396C72.682 165.786 72.8586 165.054 72.8586 164.192C72.8586 163.33 72.682 162.594 72.3245 161.988V161.98Z" fill="white"/>
<path d="M81.6233 176.827H78.3932L81.7663 169.13L76.5679 157.724H80.0503L84.1805 167.948L82.7463 167.864L86.7923 157.724H90.0519L81.6233 176.827Z" fill="white"/>
<path d="M93.4337 169.677C92.4706 168.845 91.9112 167.764 91.7598 166.435H94.7375C94.8679 167.036 95.1371 167.536 95.5366 167.936C95.9404 168.34 96.5418 168.542 97.3494 168.542C97.8709 168.542 98.3209 168.466 98.6995 168.319C99.0738 168.167 99.3598 167.957 99.5575 167.688C99.7551 167.419 99.8519 167.095 99.8519 166.721C99.8519 166.325 99.7509 165.989 99.5448 165.707C99.3387 165.425 99.0359 165.211 98.6322 165.059C98.2284 164.908 97.7363 164.836 97.1559 164.836V163.347C98.8971 163.31 100.268 163.587 101.269 164.176C102.27 164.765 102.771 165.661 102.771 166.859C102.771 167.701 102.531 168.428 102.056 169.038C101.576 169.648 100.929 170.115 100.104 170.443C99.2799 170.771 98.363 170.935 97.3494 170.935C95.7007 170.935 94.3926 170.518 93.4295 169.686L93.4337 169.677ZM97.1559 162.839C97.9045 162.839 98.4429 162.696 98.771 162.401C99.099 162.111 99.263 161.749 99.263 161.32C99.263 160.891 99.099 160.542 98.771 160.281C98.4429 160.021 97.9971 159.89 97.4377 159.89C96.9708 159.89 96.5755 159.979 96.26 160.155C95.9404 160.332 95.7007 160.559 95.5451 160.828C95.3852 161.101 95.3053 161.387 95.3053 161.686H92.3822C92.3822 160.883 92.5967 160.159 93.0299 159.524C93.4631 158.889 94.0562 158.38 94.8132 158.006C95.5703 157.632 96.4367 157.442 97.4125 157.442C98.3293 157.442 99.1537 157.602 99.8855 157.922C100.617 158.242 101.189 158.67 101.597 159.213C102.009 159.756 102.216 160.357 102.216 161.013C102.216 161.951 101.782 162.721 100.924 163.331C100.062 163.94 98.8088 164.226 97.1601 164.189V162.839H97.1559Z" fill="white"/>
<path d="M106.232 171.632L106.375 167.838L117.975 156.743L117.836 160.537L106.232 171.632ZM109.21 168.204L106.232 171.632V157.727H109.21V168.204ZM117.975 170.648H114.997V160.171L117.975 156.743V170.648Z" fill="white"/>
<path d="M125.083 157.724V170.648H122.105V157.724H125.083ZM123.426 162.586H133.314V165.084H123.426V162.586ZM134.664 157.724V170.648H131.686V157.724H134.664Z" fill="white"/>
<path d="M141.233 166.338C141.591 166.947 142.07 167.427 142.68 167.784C143.29 168.142 143.967 168.318 144.715 168.318C145.334 168.318 145.923 168.226 146.486 168.037C147.05 167.852 147.546 167.587 147.975 167.25C148.404 166.914 148.724 166.539 148.93 166.127V169.471C148.48 169.921 147.87 170.278 147.104 170.539C146.335 170.8 145.494 170.935 144.577 170.935C143.248 170.935 142.053 170.649 140.993 170.077C139.933 169.505 139.101 168.71 138.491 167.688C137.881 166.666 137.578 165.501 137.578 164.188C137.578 162.876 137.881 161.686 138.491 160.676C139.101 159.663 139.933 158.872 140.993 158.304C142.049 157.732 143.243 157.446 144.577 157.446C145.494 157.446 146.339 157.577 147.104 157.842C147.87 158.102 148.48 158.46 148.93 158.91V162.254C148.724 161.825 148.4 161.442 147.958 161.114C147.517 160.786 147.016 160.529 146.457 160.34C145.893 160.155 145.313 160.058 144.715 160.058C143.967 160.058 143.285 160.235 142.68 160.592C142.07 160.95 141.591 161.433 141.233 162.052C140.876 162.67 140.699 163.381 140.699 164.188C140.699 164.996 140.876 165.728 141.233 166.338Z" fill="white"/>
<path d="M155.281 157.724V170.648H152.303V157.724H155.281ZM163.735 157.724L158.175 163.061L164.298 170.644H160.618L154.436 163.061L160.025 157.724H163.735Z" fill="white"/>
<path d="M168.694 167.809C168.908 168.069 169.194 168.271 169.552 168.414C169.909 168.553 170.309 168.625 170.759 168.625C171.415 168.625 172.004 168.524 172.529 168.318C173.055 168.112 173.467 167.783 173.766 167.333C174.064 166.883 174.216 166.286 174.216 165.533L174.666 166.993C174.666 167.817 174.451 168.524 174.018 169.113C173.585 169.701 173.009 170.151 172.277 170.463C171.545 170.774 170.733 170.925 169.833 170.925C168.992 170.925 168.227 170.774 167.545 170.475C166.86 170.177 166.317 169.731 165.918 169.142C165.518 168.553 165.312 167.817 165.312 166.938C165.312 166.059 165.535 165.298 165.985 164.663C166.435 164.028 167.074 163.54 167.911 163.203C168.744 162.867 169.724 162.699 170.847 162.699C171.596 162.699 172.264 162.791 172.857 162.98C173.446 163.17 173.938 163.384 174.334 163.628C174.729 163.872 174.998 164.087 175.15 164.276V165.878C174.569 165.449 173.98 165.134 173.379 164.936C172.777 164.738 172.088 164.642 171.301 164.642C170.666 164.642 170.128 164.73 169.686 164.907C169.245 165.083 168.916 165.34 168.702 165.664C168.487 165.988 168.378 166.379 168.378 166.829C168.378 167.22 168.487 167.548 168.702 167.813L168.694 167.809ZM166.49 158.96C167.07 158.602 167.81 158.257 168.71 157.921C169.61 157.584 170.641 157.416 171.802 157.416C172.87 157.416 173.804 157.576 174.611 157.891C175.415 158.211 176.05 158.665 176.508 159.254C176.966 159.843 177.198 160.57 177.198 161.433V170.648H174.22V161.769C174.22 161.172 173.972 160.705 173.476 160.377C172.979 160.049 172.374 159.885 171.663 159.885C171.045 159.885 170.473 159.961 169.951 160.108C169.425 160.259 168.971 160.432 168.588 160.629C168.206 160.827 167.911 160.991 167.705 161.121L166.498 158.96H166.49Z" fill="white"/>
<path d="M180.31 170.648L184.747 164.243H187.839L183.54 170.648H180.31ZM190 165.677H185.984C185.105 165.677 184.289 165.542 183.54 165.269C182.792 165 182.19 164.567 181.74 163.978C181.29 163.389 181.067 162.615 181.067 161.66C181.067 160.706 181.29 159.944 181.74 159.372C182.19 158.8 182.787 158.384 183.54 158.123C184.289 157.862 185.105 157.728 185.984 157.728H190V160.256H186.236C185.769 160.256 185.374 160.31 185.054 160.424C184.735 160.537 184.491 160.706 184.322 160.929C184.154 161.151 184.07 161.446 184.07 161.799C184.07 162.173 184.154 162.472 184.322 162.699C184.491 162.922 184.735 163.09 185.054 163.204C185.374 163.317 185.765 163.372 186.236 163.372H190V165.677ZM188.877 170.648V157.724H191.939V170.648H188.877Z" fill="white"/>
<path d="M206.744 157.724V170.648H203.766V157.724H206.744ZM215.198 157.724L209.638 163.061L215.761 170.644H212.081L205.898 163.061L211.488 157.724H215.198Z" fill="white"/>
<path d="M221.355 176.827H218.125L221.498 169.13L216.299 157.724H219.782L223.912 167.948L222.478 167.864L226.524 157.724H229.783L221.355 176.827Z" fill="white"/>
<path d="M243.436 157.724L238.801 163.99L243.718 170.648H240.32L237.203 166.211L234.141 170.648H230.659L235.605 163.99L230.941 157.724H234.423L237.203 161.77L240.042 157.724H243.44H243.436Z" fill="white"/>
<path d="M248.773 157.724V170.648H245.795V157.724H248.773ZM247.116 162.586H257.004V165.084H247.116V162.586ZM258.354 157.724V170.648H255.376V157.724H258.354Z" fill="white"/>
<path d="M261.778 170.648L266.215 164.243H269.306L265.008 170.648H261.778ZM271.468 165.677H267.452C266.573 165.677 265.757 165.542 265.008 165.269C264.259 165 263.658 164.567 263.208 163.978C262.758 163.389 262.535 162.615 262.535 161.66C262.535 160.706 262.758 159.944 263.208 159.372C263.658 158.8 264.255 158.384 265.008 158.123C265.757 157.862 266.573 157.728 267.452 157.728H271.468V160.256H267.704C267.237 160.256 266.842 160.31 266.522 160.424C266.202 160.537 265.958 160.706 265.79 160.929C265.622 161.151 265.538 161.446 265.538 161.799C265.538 162.173 265.622 162.472 265.79 162.699C265.958 162.922 266.202 163.09 266.522 163.204C266.842 163.317 267.233 163.372 267.704 163.372H271.468V165.677ZM270.345 170.648V157.724H273.407V170.648H270.345Z" fill="white"/>
</g>
<defs>
<clipPath id="clip0_2999_1555">
<rect width="326.153" height="177" fill="white"/>
</clipPath>
</defs>
</svg>
