<svg width="362" height="196" viewBox="0 0 362 196" fill="none" xmlns="http://www.w3.org/2000/svg">
<g clip-path="url(#clip0_3020_1803)">
<path d="M359.66 73.4713C356.362 63.3648 350.857 55.2843 343.299 49.4626C336.611 44.307 328.511 41.1772 319.872 40.4181C312.905 39.8033 305.947 40.7255 299.571 43.0914V25.794C314.782 26.7907 336.084 26.3994 361.434 21.118L357.396 1.73412C311.293 11.3422 279.74 3.12666 279.456 3.04749L270.895 0.718813L267.626 8.96232C267.593 9.0415 264.445 16.9124 258.53 25.8499C255.47 30.4746 251.26 35.9843 246.1 40.6789C235.802 16.7727 217.899 7.01555 204.551 3.04283C187.943 -1.89862 173.175 0.229791 167.06 2.26971C159.98 4.63099 151.798 10.3828 146.842 18.631C141.859 23.9683 131.808 33.9816 119.788 41.8386C109.583 17.0754 91.3218 7.06678 77.7596 3.02886C61.1561 -1.91259 46.383 0.220477 40.2726 2.25574C31.3491 5.23179 20.6698 13.5871 16.916 25.5471C14.8434 32.1606 14.1122 42.3788 22.4116 53.5052C30.4502 64.2823 43.4908 71.2171 60.1222 73.5644C73.8474 75.5019 89.5334 74.1606 105.927 69.6849C105.988 76.8944 104.283 83.7221 100.818 90.1213C93.8508 102.98 82.4961 109.496 79.1801 111.187C72.6039 114.54 60.574 117.018 48.5254 114.992C34.6558 112.658 24.4283 105.22 18.1269 92.8738L0.494141 101.876C5.37504 111.443 12.1003 119.16 20.4788 124.819C27.721 129.709 36.053 132.974 45.2466 134.515C49.4662 135.223 53.6019 135.535 57.5746 135.535C70.1867 135.535 81.1828 132.387 88.1828 128.819C100.464 122.555 111.698 111.61 118.232 99.5478C122.982 90.7827 127.239 77.9424 125.195 61.7441C132.67 57.4081 139.507 52.1965 145.338 47.1433C146.325 49.2158 147.592 51.3442 149.203 53.5052C157.242 64.2823 170.283 71.2171 186.914 73.5644C200.639 75.5019 216.325 74.1606 232.719 69.6849C232.78 76.8944 231.075 83.7221 227.61 90.1213C220.642 102.98 209.288 109.496 205.972 111.187C199.396 114.54 187.366 117.018 175.317 114.992C161.448 112.658 151.22 105.22 144.919 92.8738L127.286 101.876C132.167 111.443 138.892 119.16 147.271 124.819C154.513 129.709 162.845 132.974 172.038 134.515C176.258 135.223 180.394 135.535 184.366 135.535C196.978 135.535 207.974 132.387 214.974 128.819C227.256 122.555 238.489 111.61 245.024 99.5478C249.816 90.6988 254.115 77.7002 251.926 61.2784C265.013 52.2431 274.328 38.7042 279.889 28.812V59.0521H280.112C280.084 59.1034 280.052 59.1546 280.024 59.2058L297.479 68.5485C300.46 62.9736 309.342 59.3595 318.135 60.1326C324.422 60.6869 335.73 63.9563 340.839 79.6097C345.45 93.7401 333.118 107.507 325.81 111.415C317.208 116.012 306.408 116.98 296.921 114.004C290.265 111.918 281.044 106.902 274.896 94.8579L257.263 103.861C264.496 118.033 276.475 128.344 290.992 132.899C296.623 134.664 302.463 135.54 308.28 135.54C317.618 135.54 326.891 133.29 335.143 128.88C343.094 124.632 350.76 116.827 355.645 108.006C361.937 96.637 363.33 84.6955 359.664 73.4713H359.66ZM62.8887 53.9616C51.7623 52.3921 43.0204 48.0235 38.2792 41.6709C36.5653 39.3748 34.4462 35.8166 35.8062 31.476C37.3105 26.6835 42.4429 22.4081 46.5367 21.0388C48.3112 20.4474 52.0417 19.8233 56.8015 19.8233C61.2586 19.8233 66.6146 20.3728 72.1149 22.0076C85.91 26.1153 95.8394 35.4347 101.638 49.7188C101.712 49.9051 101.787 50.0867 101.861 50.273C87.6472 54.297 74.2899 55.5731 62.898 53.9663L62.8887 53.9616ZM189.68 53.9616C178.554 52.3921 169.812 48.0235 165.071 41.6709C163.357 39.3748 161.238 35.8166 162.598 31.476C164.102 26.6835 169.235 22.4081 173.328 21.0388C175.103 20.4474 178.833 19.8233 183.593 19.8233C188.05 19.8233 193.406 20.3728 198.907 22.0076C212.702 26.1153 222.631 35.4347 228.43 49.7188C228.504 49.9051 228.579 50.0867 228.653 50.273C214.439 54.297 201.082 55.5731 189.69 53.9663L189.68 53.9616Z" fill="white"/>
<path d="M67.113 174.654V177.612H62.2275V188.966H58.8975V174.654H67.1084H67.113Z" fill="white"/>
<path d="M69.4141 195.808V174.655H72.8046V195.808H69.4141ZM83.6935 185.87C83.0508 187.001 82.1985 187.858 81.1413 188.45C80.0841 189.041 78.9337 189.335 77.6902 189.335C76.4467 189.335 75.4034 189.027 74.4999 188.417C73.5964 187.807 72.9024 186.936 72.4181 185.804C71.929 184.673 71.6869 183.341 71.6869 181.808C71.6869 180.276 71.929 178.916 72.4181 177.794C72.9071 176.671 73.601 175.81 74.4999 175.195C75.4034 174.585 76.4653 174.277 77.6902 174.277C78.9151 174.277 80.0841 174.571 81.1413 175.162C82.1985 175.754 83.0508 176.611 83.6935 177.728C84.3362 178.846 84.6576 180.206 84.6576 181.804C84.6576 183.401 84.3362 184.733 83.6935 185.865V185.87ZM80.5824 179.368C80.1865 178.693 79.6649 178.185 79.0129 177.845C78.3608 177.505 77.6389 177.333 76.8519 177.333C76.2091 177.333 75.5757 177.505 74.9563 177.845C74.3322 178.19 73.8199 178.693 73.4147 179.354C73.0095 180.02 72.8093 180.835 72.8093 181.813C72.8093 182.791 73.0095 183.606 73.4147 184.272C73.8199 184.938 74.3322 185.436 74.9563 185.781C75.5804 186.121 76.2091 186.293 76.8519 186.293C77.6389 186.293 78.3608 186.121 79.0129 185.781C79.6649 185.436 80.1912 184.929 80.5824 184.258C80.9783 183.583 81.1739 182.772 81.1739 181.818C81.1739 180.863 80.9783 180.048 80.5824 179.377V179.368Z" fill="white"/>
<path d="M90.8794 195.808H87.3025L91.0377 187.285L85.2812 174.654H89.1375L93.7111 185.976L92.1229 185.883L96.6033 174.654H100.213L90.8794 195.808Z" fill="white"/>
<path d="M103.957 187.89C102.891 186.968 102.271 185.771 102.104 184.299H105.401C105.545 184.965 105.843 185.519 106.286 185.962C106.733 186.409 107.399 186.633 108.293 186.633C108.871 186.633 109.369 186.549 109.788 186.386C110.203 186.218 110.519 185.985 110.738 185.687C110.957 185.389 111.064 185.03 111.064 184.616C111.064 184.178 110.952 183.806 110.724 183.493C110.496 183.181 110.161 182.944 109.714 182.776C109.267 182.609 108.722 182.529 108.079 182.529V180.881C110.007 180.839 111.525 181.146 112.634 181.798C113.742 182.45 114.296 183.442 114.296 184.77C114.296 185.701 114.031 186.507 113.505 187.182C112.974 187.857 112.257 188.374 111.344 188.738C110.431 189.101 109.416 189.283 108.293 189.283C106.467 189.283 105.019 188.822 103.952 187.899L103.957 187.89ZM108.079 180.317C108.908 180.317 109.504 180.159 109.867 179.833C110.231 179.511 110.412 179.111 110.412 178.636C110.412 178.161 110.231 177.774 109.867 177.486C109.504 177.197 109.01 177.052 108.391 177.052C107.874 177.052 107.436 177.15 107.087 177.346C106.733 177.541 106.467 177.793 106.295 178.091C106.118 178.394 106.03 178.71 106.03 179.041H102.793C102.793 178.152 103.03 177.35 103.51 176.647C103.99 175.944 104.646 175.38 105.485 174.966C106.323 174.551 107.282 174.342 108.363 174.342C109.378 174.342 110.291 174.519 111.102 174.873C111.912 175.227 112.545 175.702 112.997 176.303C113.453 176.903 113.682 177.569 113.682 178.296C113.682 179.334 113.202 180.187 112.252 180.862C111.297 181.537 109.909 181.854 108.084 181.812V180.317H108.079Z" fill="white"/>
<path d="M118.13 190.055L118.288 185.854L131.133 173.568L130.98 177.769L118.13 190.055ZM121.427 186.26L118.13 190.055V174.658H121.427V186.26ZM131.133 188.966H127.836V177.364L131.133 173.568V188.966Z" fill="white"/>
<path d="M139.003 174.654V188.966H135.706V174.654H139.003ZM137.168 180.038H148.118V182.805H137.168V180.038ZM149.613 174.654V188.966H146.316V174.654H149.613Z" fill="white"/>
<path d="M156.888 184.193C157.284 184.869 157.815 185.4 158.49 185.795C159.166 186.191 159.915 186.387 160.744 186.387C161.429 186.387 162.081 186.284 162.705 186.075C163.329 185.87 163.879 185.577 164.354 185.204C164.829 184.831 165.183 184.417 165.411 183.96V187.663C164.913 188.161 164.237 188.557 163.39 188.846C162.537 189.135 161.606 189.284 160.591 189.284C159.119 189.284 157.796 188.967 156.623 188.334C155.449 187.7 154.527 186.82 153.851 185.688C153.176 184.557 152.841 183.266 152.841 181.813C152.841 180.36 153.176 179.042 153.851 177.924C154.527 176.802 155.449 175.926 156.623 175.298C157.792 174.664 159.114 174.348 160.591 174.348C161.606 174.348 162.542 174.492 163.39 174.785C164.237 175.074 164.913 175.47 165.411 175.968V179.671C165.183 179.196 164.824 178.772 164.335 178.409C163.846 178.046 163.292 177.761 162.672 177.552C162.048 177.347 161.406 177.24 160.744 177.24C159.915 177.24 159.161 177.435 158.49 177.831C157.815 178.227 157.284 178.763 156.888 179.447C156.492 180.132 156.297 180.919 156.297 181.813C156.297 182.708 156.492 183.518 156.888 184.193Z" fill="white"/>
<path d="M172.444 174.654V188.966H169.146V174.654H172.444ZM181.805 174.654L175.648 180.564L182.429 188.962H178.354L171.508 180.564L177.697 174.654H181.805Z" fill="white"/>
<path d="M187.296 185.821C187.534 186.11 187.851 186.333 188.246 186.491C188.642 186.645 189.085 186.724 189.583 186.724C190.31 186.724 190.962 186.613 191.544 186.384C192.126 186.156 192.582 185.793 192.913 185.295C193.244 184.796 193.411 184.135 193.411 183.301L193.91 184.917C193.91 185.83 193.672 186.613 193.192 187.265C192.713 187.917 192.075 188.415 191.264 188.76C190.454 189.104 189.555 189.272 188.558 189.272C187.627 189.272 186.779 189.104 186.025 188.774C185.266 188.443 184.665 187.949 184.222 187.297C183.78 186.645 183.552 185.83 183.552 184.857C183.552 183.883 183.799 183.04 184.297 182.337C184.795 181.634 185.503 181.094 186.43 180.721C187.352 180.348 188.437 180.162 189.681 180.162C190.51 180.162 191.25 180.265 191.907 180.474C192.559 180.684 193.104 180.921 193.542 181.191C193.98 181.462 194.278 181.699 194.445 181.909V183.683C193.803 183.208 193.151 182.859 192.485 182.64C191.819 182.421 191.055 182.314 190.184 182.314C189.481 182.314 188.884 182.412 188.395 182.607C187.906 182.803 187.543 183.087 187.306 183.446C187.068 183.804 186.947 184.237 186.947 184.736C186.947 185.169 187.068 185.532 187.306 185.825L187.296 185.821ZM184.856 176.022C185.499 175.626 186.318 175.244 187.315 174.871C188.312 174.499 189.453 174.312 190.738 174.312C191.921 174.312 192.955 174.489 193.849 174.839C194.739 175.193 195.442 175.696 195.95 176.348C196.457 177 196.713 177.806 196.713 178.76V188.965H193.416V179.133C193.416 178.472 193.141 177.955 192.592 177.591C192.042 177.228 191.371 177.046 190.584 177.046C189.9 177.046 189.266 177.13 188.689 177.293C188.107 177.461 187.604 177.652 187.18 177.871C186.756 178.09 186.43 178.271 186.202 178.416L184.865 176.022H184.856Z" fill="white"/>
<path d="M200.159 188.966L205.073 181.873H208.496L203.736 188.966H200.159ZM210.89 183.461H206.442C205.469 183.461 204.565 183.312 203.736 183.01C202.907 182.712 202.241 182.232 201.743 181.58C201.244 180.928 200.998 180.071 200.998 179.014C200.998 177.956 201.244 177.113 201.743 176.48C202.241 175.847 202.902 175.385 203.736 175.097C204.565 174.808 205.469 174.659 206.442 174.659H210.89V177.458H206.721C206.204 177.458 205.767 177.519 205.413 177.644C205.059 177.77 204.789 177.956 204.602 178.203C204.416 178.45 204.323 178.776 204.323 179.167C204.323 179.582 204.416 179.912 204.602 180.164C204.789 180.411 205.059 180.597 205.413 180.723C205.767 180.849 206.2 180.909 206.721 180.909H210.89V183.461ZM209.646 188.966V174.654H213.037V188.966H209.646Z" fill="white"/>
<path d="M229.431 174.654V188.966H226.134V174.654H229.431ZM238.792 174.654L232.635 180.564L239.417 188.962H235.341L228.495 180.564L234.685 174.654H238.792Z" fill="white"/>
<path d="M245.611 195.808H242.034L245.769 187.285L240.013 174.654H243.869L248.442 185.976L246.854 185.883L251.335 174.654H254.944L245.611 195.808Z" fill="white"/>
<path d="M270.062 174.654L264.93 181.594L270.374 188.966H266.611L263.16 184.053L259.769 188.966H255.913L261.39 181.594L256.225 174.654H260.081L263.16 179.135L266.304 174.654H270.067H270.062Z" fill="white"/>
<path d="M275.972 174.654V188.966H272.675V174.654H275.972ZM274.137 180.038H285.087V182.805H274.137V180.038ZM286.582 174.654V188.966H283.284V174.654H286.582Z" fill="white"/>
<path d="M290.373 188.966L295.287 181.873H298.71L293.95 188.966H290.373ZM301.104 183.461H296.656C295.682 183.461 294.779 183.312 293.95 183.01C293.121 182.712 292.455 182.232 291.957 181.58C291.458 180.928 291.211 180.071 291.211 179.014C291.211 177.956 291.458 177.113 291.957 176.48C292.455 175.847 293.116 175.385 293.95 175.097C294.779 174.808 295.682 174.659 296.656 174.659H301.104V177.458H296.935C296.418 177.458 295.981 177.519 295.627 177.644C295.273 177.77 295.002 177.956 294.816 178.203C294.63 178.45 294.537 178.776 294.537 179.167C294.537 179.582 294.63 179.912 294.816 180.164C295.002 180.411 295.273 180.597 295.627 180.723C295.981 180.849 296.414 180.909 296.935 180.909H301.104V183.461ZM299.86 188.966V174.654H303.251V188.966H299.86Z" fill="white"/>
</g>
<defs>
<clipPath id="clip0_3020_1803">
<rect width="361.164" height="196" fill="white" transform="translate(0.494141)"/>
</clipPath>
</defs>
</svg>
