<svg width="58" height="70" viewBox="0 0 58 70" fill="none" xmlns="http://www.w3.org/2000/svg">
<ellipse cx="28.877" cy="65.6714" rx="4.125" ry="4.10448" fill="#C98056"/>
<ellipse cx="28.875" cy="28.7313" rx="28.875" ry="28.7313" fill="#C98056"/>
<path d="M28.874 1.78418C43.8352 1.78418 55.96 13.8517 55.96 28.7334C55.9599 43.6151 43.8352 55.6826 28.874 55.6826C13.9129 55.6826 1.78814 43.6151 1.78809 28.7334C1.78809 13.8517 13.9128 1.78418 28.874 1.78418Z" stroke="white" stroke-width="0.827778"/>
<path d="M47.904 29.3078C47.9038 29.3078 47.9037 29.3077 47.9036 29.3076C47.5396 28.2875 46.9318 27.4719 46.0973 26.8843C45.359 26.3639 44.4648 26.048 43.5109 25.9713C43.0808 25.9366 42.651 25.9504 42.2326 26.0111C41.751 26.0809 41.2696 25.7363 41.2696 25.2496C41.2696 24.8404 41.6138 24.5166 42.0228 24.5284C43.3918 24.5679 45.1058 24.505 47.0755 24.2C47.6367 24.1131 47.9949 23.5635 47.8687 23.0098C47.7488 22.4834 47.2337 22.1486 46.7001 22.2307C42.1335 22.9339 39.0781 22.2065 39.0488 22.199L38.9839 22.1829C38.4759 22.0565 37.951 22.3159 37.7427 22.7961C37.7391 22.8041 37.3915 23.5986 36.7385 24.5008C36.1342 25.3357 34.9391 25.0702 34.254 24.3002C33.1707 23.0827 31.8436 22.4883 30.779 22.1986C28.9453 21.6998 27.3148 21.9146 26.6397 22.1205C25.9453 22.3323 25.1548 22.8141 24.6034 23.5028C24.465 23.6756 24.4106 23.7711 24.2504 23.9239C22.9129 25.2006 20.7714 24.5304 19.2971 23.4145C18.4482 22.7719 17.5464 22.4056 16.7805 22.1971C14.9474 21.6983 13.3164 21.9137 12.6417 22.1191C11.6565 22.4195 10.4775 23.2629 10.0631 24.4702C9.83424 25.1378 9.75351 26.1692 10.6698 27.2924C11.5573 28.3803 12.9971 29.0803 14.8332 29.3172C15.7414 29.4344 16.7273 29.4328 17.7612 29.3154C18.8585 29.1907 19.889 30.0383 19.3263 30.9885C18.557 32.2865 17.3034 32.9442 16.9373 33.1149C16.2113 33.4534 14.8831 33.7035 13.5529 33.499C12.3891 33.32 11.4576 32.8433 10.7721 32.0777C10.3974 31.6593 9.80267 31.4503 9.29371 31.6879C8.72989 31.9511 8.50189 32.6454 8.89587 33.127C9.33583 33.6648 9.85792 34.1214 10.4564 34.491C11.256 34.9846 12.1759 35.3142 13.1909 35.4698C13.6568 35.5412 14.1134 35.5727 14.552 35.5727C15.9444 35.5727 17.1584 35.2549 17.9313 34.8948C19.2872 34.2625 20.5274 33.1577 21.2489 31.9401C21.6642 31.2393 22.0454 30.2806 22.0739 29.0999C22.0881 28.5125 22.3664 27.9462 22.863 27.6323C23.1278 27.465 23.3825 27.2915 23.6256 27.1162C23.9507 26.8818 24.415 26.9818 24.6683 27.2924C25.5558 28.3803 26.9955 29.0803 28.8317 29.3172C29.7399 29.4344 30.7258 29.4328 31.7597 29.3154C32.857 29.1907 33.8875 30.0383 33.3247 30.9885C32.5555 32.2865 31.3019 32.9442 30.9358 33.1149C30.2097 33.4534 28.8816 33.7035 27.5513 33.499C26.3875 33.32 25.456 32.8433 24.7705 32.0777C24.3958 31.6593 23.8011 31.4503 23.2922 31.6879C22.7283 31.9511 22.5003 32.6454 22.8943 33.127C23.3343 33.6648 23.8564 34.1214 24.4549 34.491C25.2544 34.9846 26.1743 35.3142 27.1894 35.4698C27.6552 35.5412 28.1118 35.5727 28.5504 35.5727C29.9429 35.5727 31.1569 35.2549 31.9297 34.8948C33.2857 34.2625 34.5259 33.1577 35.2473 31.9401C35.6993 31.1769 36.1116 30.108 36.0714 28.7791C36.0584 28.3506 36.2472 27.9345 36.587 27.6731C36.982 27.3693 37.3403 27.0354 37.6619 26.6931C38.1265 26.1983 39.0966 26.5006 39.0966 27.1793V27.8434C39.0966 27.8483 39.1006 27.8523 39.1055 27.8523H39.1099C39.1149 27.8523 39.1179 27.8577 39.1152 27.8619C39.1131 27.8651 39.1144 27.8692 39.1178 27.8709L40.1506 28.3763C40.6514 28.6214 41.2878 28.4266 41.7982 28.2025C42.2314 28.0124 42.7768 27.9178 43.3191 27.9614C44.0133 28.0173 45.2618 28.3473 45.8258 29.9274C46.3349 31.3538 44.9733 32.7435 44.1665 33.1379C43.2168 33.602 42.0244 33.6997 40.977 33.3993C40.4317 33.243 39.7304 32.9239 39.1275 32.2728C38.7459 31.8607 38.1513 31.6506 37.6424 31.8881C37.0786 32.1514 36.8513 32.8458 37.2504 33.3232C38.0389 34.2661 39.099 34.9557 40.3224 35.3066C40.9441 35.4848 41.5889 35.5732 42.2311 35.5732C43.2621 35.5732 44.2858 35.3461 45.197 34.9009C46.0747 34.4722 46.9211 33.6842 47.4605 32.7938C48.1551 31.6463 48.3089 30.441 47.9043 29.3081C47.9043 29.3079 47.9041 29.3078 47.904 29.3078ZM15.1392 27.3387C15.1388 27.3385 15.1385 27.3384 15.1381 27.3384C13.91 27.1799 12.945 26.7389 12.4217 26.0978C12.2324 25.866 11.9985 25.5068 12.1486 25.0687C12.3147 24.5849 12.8814 24.1533 13.3333 24.0151C13.5292 23.9554 13.9411 23.8924 14.4666 23.8924C14.9587 23.8924 15.55 23.9479 16.1573 24.1129C17.6803 24.5276 18.7766 25.4683 19.4168 26.9102C19.4296 26.9396 19.4132 26.9734 19.3821 26.9814C17.8352 27.3754 16.382 27.499 15.1403 27.339C15.1399 27.3389 15.1395 27.3388 15.1392 27.3387ZM29.1376 27.3387C29.1373 27.3385 29.1369 27.3384 29.1366 27.3384C27.9084 27.1799 26.9435 26.7389 26.4201 26.0978C26.2309 25.866 25.9969 25.5068 26.1471 25.0687C26.3132 24.5849 26.8798 24.1533 27.3318 24.0151C27.5277 23.9554 27.9396 23.8924 28.4651 23.8924C28.9572 23.8924 29.5485 23.9479 30.1557 24.1129C31.6788 24.5276 32.7751 25.4683 33.4152 26.9102C33.4281 26.9396 33.4117 26.9734 33.3806 26.9814C31.8337 27.3754 30.3804 27.499 29.1387 27.339C29.1383 27.3389 29.138 27.3388 29.1376 27.3387Z" fill="white"/>
</svg>
