<svg width="285" height="295" viewBox="0 0 285 295" fill="none" xmlns="http://www.w3.org/2000/svg">
<path d="M257.516 163.022C257.559 159.779 257.66 156.53 257.551 153.289C257.333 146.876 255.909 140.731 252.461 135.258C249.254 130.168 246.878 124.61 242.954 119.898C240.054 116.417 237.17 112.989 233.65 110.154C229.734 107 224.915 105.489 220.489 103.266C219.2 102.619 217.874 101.956 216.487 101.618C213.358 100.857 210.288 99.9768 207.223 98.9528C198.302 95.9791 190.992 90.9577 185.34 83.4027C183.907 81.4854 182.09 79.6399 180.054 78.4261C174.624 75.1888 168.854 72.5988 162.649 71.1608C159.404 70.4076 156.066 70.0118 152.874 69.0955C146.319 67.2156 140.406 64.0279 134.99 59.8566C132.723 58.1119 130.583 56.3473 129.761 53.5213C128.68 49.8068 127.486 46.1302 128.716 42.1211C129.501 39.5646 128.437 37.3802 126.338 35.6866C123.477 33.3813 120.479 35.3139 117.544 35.3052C115.771 36.977 113.521 36.6979 111.393 36.7154C106.436 36.7564 102.112 38.2341 98.2294 41.4428C95.1962 43.9489 92.0346 46.45 86.9099 47.3137C85.4913 48.0697 83.102 49.1308 80.9457 50.5469C78.6479 52.0535 77.8837 54.617 77.9455 57.176C77.9905 59.0454 78.9114 61.0218 80.7898 61.7622C82.5912 62.4717 83.288 63.8007 83.6932 65.3603C85.3432 71.7418 87.0298 78.1499 86.4034 84.8277C85.8983 90.2035 85.1812 95.5588 84.5014 100.917C84.2683 102.762 83.7352 104.572 83.5598 106.419C83.3674 108.449 81.9442 109.88 81.3049 111.689C80.0184 115.326 78.6207 118.931 77.1021 122.479C74.9843 127.422 72.6874 132.286 70.3571 137.137C68.3717 141.275 66.1299 145.397 64.9318 149.78C63.4215 155.304 61.4414 160.732 60.942 166.564C60.5479 171.145 60.3927 175.704 60.5842 180.266C60.9809 189.694 59.4568 198.783 56.284 207.632C55.4886 209.855 54.7754 212.096 55.0635 214.5C55.5328 218.419 56.8231 222.039 59.1377 225.262C61.5582 228.634 64.2217 231.7 67.5557 234.31C70.9693 236.983 74.2534 239.771 78.062 241.907C79.7733 242.866 81.3744 244.097 82.8353 245.416C84.6303 247.033 86.2232 248.878 87.9153 250.612C94.5514 257.407 103.084 260.127 112.088 261.747C117.939 262.801 123.842 263.572 129.69 264.642C132.519 265.161 135.3 265.992 138.051 266.851C139.783 267.393 141.337 267.142 142.675 266.132C144.849 264.492 147.359 263.852 149.923 263.324C152.486 262.796 155.082 262.423 157.639 261.869C162.222 260.876 166.759 259.66 171.364 258.794C176.621 257.802 181.632 256.048 186.658 254.329C188.947 253.545 191.272 252.65 193.287 251.352C195.317 250.044 197.601 249.407 199.66 248.243C201.7 247.09 203.695 245.824 205.822 244.861C211.984 242.074 217.218 238.013 221.933 233.268C225.044 230.135 228.009 226.852 230.922 223.533C232.521 221.711 233.614 219.387 235.389 217.794C240.158 213.518 243.683 208.323 247.089 203.011C250.179 198.195 252.234 192.91 254.162 187.539C256.389 181.34 257.605 175.034 257.349 168.437C257.278 166.638 257.492 164.829 257.516 163.022ZM67.3097 230.549C66.3906 229.103 65.1685 227.897 65.6736 225.799C67.9603 227.337 68.0662 227.658 67.3097 230.549ZM73.0146 235.586C70.8346 234.095 69.6224 232.228 68.9866 229.364C71.5777 230.921 73.4732 232.333 73.0146 235.586ZM92.3091 250.733C90.1771 249.548 88.8561 247.923 88.47 245.128C92.0526 246.573 92.6264 247.449 92.3091 250.733ZM98.2608 254.139C95.5676 253.912 93.7212 251.609 94.0469 248.815C96.9034 249.461 98.2514 251.268 98.2608 254.139ZM102.152 255.943C100.789 255.181 99.7527 254.342 99.6707 252.701C101.007 252.925 101.834 254.006 102.152 255.943ZM107.198 257.584C104.641 257.528 103.364 256.34 103.404 254.271C105.206 254.618 106.471 255.722 107.198 257.584ZM135.537 260.366C138.491 259.792 138.365 262.821 140.022 263.934C137.433 264.436 136.22 263.425 135.537 260.366ZM139.749 260.823C141.449 260.404 142.845 260.827 143.936 262.092C141.801 263.505 141.466 263.415 139.749 260.823ZM144.645 260.289C146.57 259.492 147.983 259.617 148.885 260.662C147.493 261.761 146.193 261.608 144.645 260.289ZM153.814 258.812C156.204 257.49 156.383 257.506 158.028 259.315C156.752 259.163 155.48 259.011 153.814 258.812ZM209.288 240.005C207.584 241.002 205.836 242.022 203.843 243.189C203.839 238.742 206.625 237.269 210.081 235.903C209.795 237.379 209.556 238.626 209.288 240.005ZM213.353 237.411C212.854 237.735 212.227 238.145 211.602 238.553C211.88 236.915 211.081 235.05 213.15 233.834C213.223 235.119 213.283 236.158 213.354 237.413L213.353 237.411ZM214.882 235.755C214.58 233.625 215.007 231.929 216.862 230.714C218.345 229.744 219.784 228.707 221.596 227.452C220.926 231.399 219.05 233.654 214.882 235.755ZM219.818 226.873C218.484 228.007 216.992 228.958 215.573 229.989C215.395 229.86 215.213 229.729 215.035 229.6C215.222 228.903 215.412 228.208 215.653 227.314C215.386 227.086 214.816 226.784 214.527 226.31C213.797 225.11 214.182 224.213 215.522 223.87C216.289 223.675 217.091 223.611 217.872 223.488C217.499 221.118 219.49 220.926 220.625 219.908C222.373 222.998 222.177 224.864 219.818 226.873ZM223.307 228.195C223.291 226.531 223.786 225.219 224.791 224.259C225.576 226.149 225.572 226.163 223.307 228.195ZM226.996 224.24C226.653 221.977 226.681 221.932 229.034 221.582C228.389 222.421 227.745 223.263 226.996 224.24ZM225.681 220.503C225.31 220.624 225.078 221.209 224.803 221.596C224.55 221.953 224.357 222.358 224.074 222.688C223.915 222.876 223.626 222.954 223.396 223.08C221.702 220.04 221.912 218.728 224.384 216.654C225.545 215.679 226.696 214.695 228.011 213.584C229.845 216.671 228.705 219.519 225.681 220.503ZM230.786 219.16C230.708 219.067 230.55 218.912 230.565 218.893C230.809 218.575 231.074 218.278 231.336 217.974C231.46 218.11 231.584 218.246 231.709 218.382C231.401 218.642 231.094 218.899 230.786 219.16ZM230.836 216.102C229.252 213.554 229.334 212.059 231.365 210.33C231.481 212.504 232.047 214.323 230.836 216.102ZM244.875 201.211C244.684 201.961 244.157 202.626 243.305 203.162C243.008 201.314 242.663 199.473 242.45 197.617C242.398 197.153 242.709 196.605 242.966 196.161C243.548 195.159 244.198 194.196 244.82 193.216C245.033 193.247 245.248 193.274 245.461 193.304C245.39 194.89 245.345 196.479 245.242 198.062C245.174 199.118 245.132 200.195 244.873 201.212L244.875 201.211ZM246.754 198.135C247.139 193.591 245.054 189.288 248.799 185.302C248.986 189.783 249.958 193.946 246.754 198.135ZM255.092 170.859C255.102 176.901 253.757 182.656 251.414 188.201C251.277 188.521 251.069 188.811 250.661 189.517C250.438 186.602 250.199 184.12 250.081 181.635C250.02 180.347 250.119 180.343 248.244 179.078C248.884 182.095 247.376 184.314 246.161 186.955C245.822 186.498 245.603 186.274 245.472 186.005C245.319 185.695 245.242 185.35 245.081 184.867C244.824 185.164 244.576 185.323 244.535 185.523C244.466 185.865 244.49 186.237 244.543 186.587C245.127 190.336 243.997 193.403 241.182 195.994C240.495 196.626 240.419 197.925 240.063 198.914C240.518 199.211 241.286 199.441 241.356 199.802C242.248 204.477 241.844 208.335 237.19 211.204C238.187 209.692 239.183 208.18 240.169 206.682C239.378 206.036 238.714 205.493 237.769 204.72C237.803 205.434 237.793 205.897 237.854 206.349C238.009 207.491 237.762 208.436 236.905 209.302C235.72 210.497 234.664 211.822 233.513 213.139C232.12 210.426 232.219 208.978 233.798 207.165C234.535 206.317 235.245 205.446 235.799 204.427C234.008 204.492 233.62 206.638 232.271 206.882C230.357 207.226 231.201 209.857 229.106 209.92C228.625 209.415 228.043 208.808 227.021 207.736C227.114 208.787 227.008 209.325 227.221 209.662C228.001 210.904 227.671 211.91 226.693 212.788C224.28 214.952 221.837 217.085 219.376 219.257C214.994 218.036 210.791 216.863 206.366 215.63C206.631 216.052 206.775 216.59 207.105 216.757C209.28 217.863 211.484 218.869 214.02 218.922C215.234 218.947 216.442 219.302 218.337 219.623C216.577 220.875 215.39 221.716 214.051 222.669C213.375 221.507 212.817 220.548 212.188 219.471C211.798 220.422 211.76 221.572 212.072 222.923C209.452 222.102 207.033 221.344 204.616 220.586C204.5 220.746 204.386 220.905 204.272 221.062C204.614 221.42 204.892 221.952 205.309 222.102C207.092 222.747 208.886 223.418 210.731 223.808C212.369 224.155 213.113 224.903 212.808 226.914C210.345 226.56 207.877 226.206 205.408 225.853C205.365 226.11 205.321 226.367 205.28 226.624C207.598 228.162 210.517 227.393 213.014 228.249C213.986 230.666 213.933 230.894 211.988 232.297C211.401 231.259 210.821 230.234 210.239 229.21C210.073 229.258 209.907 229.307 209.739 229.357C209.924 230.695 210.109 232.034 210.316 233.539C206.175 236.591 201.66 238.922 196.409 240.92C198.964 241.912 200.713 240.491 202.894 240.45C202.297 242.328 202.089 244.126 200.1 245.22C194.885 248.085 189.698 250.987 184.043 252.923C183.114 253.242 182.134 253.428 181.221 253.787C178.964 254.676 176.799 254.572 174.735 253.284C174.294 253.008 173.96 252.562 173.574 252.194C173.415 252.438 173.257 252.682 173.098 252.927C173.696 253.625 174.295 254.325 175.004 255.154C170.819 256.687 168.355 253.516 165.029 251.464C165.919 253.92 167.679 254.899 169.129 256.152C166.099 258.319 162.989 258.744 159.708 257.232C161.113 256.494 162.277 255.882 163.444 255.268C163.384 255.076 163.326 254.885 163.266 254.692C162.097 254.966 160.909 255.173 159.765 255.528C158.222 256.006 156.743 256.4 155.39 254.28C155.067 256.132 154.326 257.072 152.882 256.835C151.709 256.644 150.57 256.228 149.188 255.85C149.144 256.203 149.078 256.724 148.997 257.37C147.466 257.602 146.912 256.244 146.092 255.442C145.888 255.242 146.202 254.515 146.264 254.124C145.242 253.352 144.157 252.527 142.898 251.576C142.497 251.938 142.001 252.385 141.371 252.953C142.375 253.764 143.334 254.392 144.102 255.2C144.824 255.962 145.346 256.915 146.223 258.166C143.46 258.521 141.062 258.83 138.627 259.144C138.031 258.128 137.501 257.227 136.677 255.825C136.373 257 136.2 257.667 136.03 258.326C134.202 258.643 133.108 257.858 132.64 256.097C132.232 254.557 131.801 253.023 131.231 250.952C130.918 251.808 130.56 252.271 130.661 252.592C131.413 254.997 132.226 257.383 133.083 259.753C133.415 260.669 133.914 261.524 134.591 262.94C131.605 262.4 129.097 261.972 126.602 261.488C124.831 261.144 123.058 260.793 121.321 260.31C120.082 259.965 118.907 259.39 117.674 258.908C114.906 260.478 112.083 258.792 109.102 258.6C109.034 257.588 108.981 256.828 108.928 256.081C110.865 255.795 111.501 257.184 111.922 258.224C113.459 257.498 114.676 256.921 116.197 256.202C113.951 256.042 112.315 254.725 110.188 254.553C107.102 254.304 106.506 253.251 107.033 249.937C109.85 249.145 112.867 251.282 115.691 249.492C111.359 248.755 107.107 248.03 102.851 247.328C102.768 247.315 102.641 247.582 102.408 247.882C103.574 248.504 104.716 249.113 106.07 249.837C106.028 250.754 105.978 251.798 105.931 252.859C102.903 252.436 102.827 252.368 102.246 249.639C101.904 250.122 101.628 250.509 101.354 250.898C98.7347 250.187 98.639 250.083 98.7189 247.524C98.7568 246.31 98.8791 245.1 98.7872 243.845C98.3353 245.358 97.8826 246.868 97.3883 248.518C95.2557 247.723 93.1507 247.246 93.2668 244.257C92.6055 244.915 92.2317 245.865 91.3027 245.067C90.5481 244.422 89.7859 243.777 88.982 243.195C88.5928 242.913 88.0963 242.775 87.4898 242.498C87.5193 243.584 87.5411 244.408 87.5797 245.87C86.3937 245.024 85.6224 244.504 84.8826 243.94C83.7366 243.065 82.6828 242.047 81.461 241.298C80.1841 240.515 79.405 239.577 79.6684 237.519C77.8295 240.071 76.7746 237.896 75.815 237.696C75.3166 236.2 74.9231 235.023 74.4846 233.714C74.914 233.569 75.4392 233.394 76.0196 233.202C74.9728 231.901 74.0039 230.696 72.9843 229.43C72.6751 229.418 71.9783 229.603 71.6007 229.337C70.453 228.522 69.0524 227.86 68.8078 226.212C68.7957 226.124 68.7928 226.002 68.7363 225.958C66.8926 224.489 65.0441 223.027 62.9918 221.694C63.9229 223.413 65.3504 224.944 64.0855 227.25C63.8134 227.086 63.4795 226.98 63.2961 226.755C61.0721 224.026 58.8114 221.34 57.6991 217.881C57.0067 215.722 57.1863 213.706 58.0116 211.089C59.1466 213.059 60.0459 214.616 60.9421 216.172C60.5462 213.379 58.4701 211.049 59.6597 207.902C61.0175 209.958 62.3752 212.014 63.733 214.07C63.7822 214.032 63.8306 213.992 63.8776 213.955C62.7933 211.508 61.7809 209.022 60.598 206.625C59.7135 204.835 60.2476 203.367 61.2565 201.528C62.5258 203.588 63.6433 205.406 64.7638 207.225C64.1107 204.163 62.0422 201.635 61.7125 198.307C63.2734 198.123 63.7982 199.441 64.6829 200.032C65.5573 200.616 66.2364 201.491 67.319 201.958C66.129 200.557 64.9506 199.145 63.7441 197.761C62.4202 196.238 61.6999 194.632 63.064 192.439C64.5298 193.75 65.9657 195.032 67.3994 196.315C65.9334 193.848 63.6197 191.89 63.1388 188.192C65.4551 190.093 67.2792 191.59 69.1034 193.087C69.2054 192.982 69.3052 192.877 69.4072 192.771C68.0354 191.309 66.53 189.944 65.3241 188.356C64.1561 186.817 62.7347 185.25 63.3462 182.756C65.929 183.902 67.2036 186.687 69.8531 187.582C67.2544 184.735 64.0572 182.344 63.1545 178.289C65.7416 179.356 67.3263 181.893 70.2999 182.619C67.1073 179.604 63.1245 177.381 63.3443 172.225C64.8915 173.63 66.4378 175.033 67.985 176.438C68.1084 176.321 68.2308 176.202 68.3519 176.086C67.2059 174.724 65.945 173.441 64.9468 171.978C63.9584 170.527 62.3161 169.091 63.8521 166.869C64.8569 167.765 65.7717 168.578 66.6875 169.394C66.0722 167.132 63.6901 165.658 64.2662 162.556C66.0956 164.477 67.6717 166.133 69.2478 167.789C67.8737 164.775 64.9802 162.581 65.4603 158.618C66.8701 160.233 68.2813 161.845 69.6912 163.459C68.7118 160.318 65.9744 157.922 66.027 153.935C68.2983 155.28 68.4827 157.824 70.4138 159.01C69.4682 156.863 68.5525 154.809 67.6568 152.748C67.1425 151.565 66.8241 150.375 68.0195 148.987C68.8948 150.549 69.6907 151.964 70.7416 153.834C70.5265 150.496 68.1741 147.973 70.0045 144.842C70.8918 146.427 71.7778 148.015 72.6651 149.6C72.749 149.572 72.8352 149.542 72.9182 149.511C72.236 147.109 71.5539 144.706 70.8726 142.306C71.0937 142.215 71.3148 142.123 71.5359 142.032C72.7129 144.145 73.8886 146.261 75.3014 148.801C74.3006 145.804 73.4863 143.285 72.6133 140.787C72.2173 139.654 71.8275 138.575 73.358 137.475C74.0823 138.86 74.7635 140.157 75.5788 141.717C76.1449 138.975 73.34 136.866 74.6785 133.974C75.4391 134.705 76.0234 135.267 76.6068 135.826C76.7249 135.786 76.843 135.747 76.9611 135.707C76.6351 134.466 75.998 133.209 76.0661 131.993C76.1363 130.724 76.8895 129.493 77.3454 128.247C77.5488 128.214 77.7522 128.182 77.9565 128.151C78.2988 128.785 78.6478 129.415 78.9821 130.054C79.3566 130.768 79.7155 131.487 80.1412 132.322C80.6943 129.49 78.1525 127.183 79.1076 124.279C80.9913 124.757 80.7444 126.888 82.3408 127.717C82.3 126.204 81.6533 124.999 81.029 123.927C80.0419 122.235 80.4274 120.892 81.6539 119.215C82.2618 120.33 82.7708 121.262 83.2789 122.192C83.4485 122.14 83.6159 122.088 83.7856 122.035C83.5509 120.951 83.3259 119.866 83.077 118.785C82.8223 117.67 82.2041 116.549 83.2332 115.357C84.8402 116.384 84.7103 118.345 85.8247 119.66C85.9468 117.585 85.1082 115.678 84.5348 113.732C84.0598 112.121 84.0256 112.132 85.058 110.281C85.8039 111.533 86.4727 112.652 87.2801 114.006C87.6326 112.054 86.5812 110.69 86.0269 109.259C85.4445 107.753 85.6032 106.493 86.6338 104.887C87.3941 105.964 88.0225 106.853 88.6055 107.681C88.9303 105.135 86.2445 103.066 87.2916 100.167C88.8893 100.742 88.7403 102.686 90.197 103.411C89.4774 100.678 87.9506 98.2463 88.0617 94.9113C89.717 96.1618 90.0677 97.7717 91.2263 99.5055C91.1509 95.7323 87.7098 93.3818 88.9187 89.8015C90.6374 90.1446 90.7348 91.7661 91.6122 92.7491C92.4232 89.7954 89.0509 88.1419 89.3019 84.7893C90.3681 86.0497 91.1143 86.9307 91.8591 87.8149C92.006 87.7506 92.153 87.6864 92.2999 87.6222C91.7496 86.42 91.1451 85.237 90.6591 84.009C90.1749 82.7854 89.8106 81.5136 89.2024 79.6927C90.3394 80.5068 91.0017 80.9806 92.0302 81.7172C90.7949 79.581 89.7882 77.8403 88.5124 75.6353C89.7459 75.7274 90.3778 75.7725 91.1376 75.828C91.0184 75.4737 91.0115 75.1232 90.8585 75.0377C88.6795 73.8379 87.815 71.8801 87.3693 69.54C86.9699 67.4494 86.2857 65.414 85.7227 63.3402C87.2927 62.5311 87.9456 63.4367 88.504 64.383C89.507 66.0762 90.455 67.7992 91.4083 69.5227C91.5273 69.7353 91.6322 70.0284 91.5851 70.251C91.0224 72.9244 92.6242 74.8178 94.2982 76.3006C96.2093 77.9949 96.3625 80.2618 97.5072 82.1662C97.3208 82.2927 97.1376 82.4205 96.9512 82.547C95.9994 81.4366 95.0485 80.3285 94.0966 79.2181C94.5336 81.8892 96.1262 83.8431 97.7454 85.7734C98.671 86.8762 98.7056 86.8469 98.493 89.0442C97.7696 88.4248 97.1235 87.8697 96.1304 87.0157C96.1175 89.3185 97.894 91.5439 95.3469 93.3157C96.0313 95.204 97.5671 97.1962 96.8312 99.9005C96.222 99.6168 95.6449 99.3485 95.0686 99.0825C94.9209 98.67 94.7829 98.2562 94.4725 97.3238C94.0477 99.5832 93.6885 101.288 93.413 103.008C92.6267 107.921 91.0354 112.584 88.9844 117.091C87.623 120.08 85.7996 122.889 84.7143 125.968C82.9715 130.908 81.3119 135.907 80.6316 141.22C80.9423 140.767 81.2529 140.315 81.5685 139.855C84.2579 142.023 84.5273 143.104 83.4959 145.785C83.173 146.624 83.3436 147.651 83.2871 148.594C84.8225 148.867 86.4846 150.416 86.4709 151.703C86.4617 152.553 86.237 153.399 86.0499 154.614C83.4894 153.036 83.9614 150.567 83.2902 148.622C83.2004 149.578 83.1114 150.537 82.9897 151.832C81.9928 151.103 81.2695 150.574 80.5452 150.042C80.4499 150.132 80.3536 150.22 80.2582 150.31C81.4137 151.779 82.4929 153.315 83.7411 154.701C85.4469 156.597 85.5014 156.546 84.57 159.265C81.3537 157.884 79.8886 155.182 78.749 151.584C78.9283 152.505 79.1121 152.924 79.055 153.308C78.9997 153.683 78.7035 154.024 78.6681 154.09C79.5126 156.62 80.2978 158.971 81.1995 161.669C80.3464 161.375 79.8169 161.194 79.2772 161.006C79.2429 161.228 79.142 161.452 79.2066 161.529C80.2091 162.689 81.2534 163.811 82.2502 164.976C83.5096 166.447 84.5315 168.001 83.6499 170.254C81.1058 169.659 79.7219 167.648 77.8249 166.136C78.4835 167.511 79.2495 168.846 79.77 170.269C80.324 171.781 80.6476 173.382 81.1211 175.13C79.002 175.196 78.1547 173.383 76.1937 172.379C77.7845 174.566 79.5671 175.704 81.1853 177.028C82.2157 177.872 83.1016 178.896 84.0452 179.844C84.9531 180.756 84.7736 181.759 84.4221 182.79C81.5901 182.673 80.8368 182.037 78.981 179.493C78.8784 179.75 78.8143 179.944 78.7267 180.123C78.6085 180.362 78.4698 180.588 78.2749 180.937C80.1771 182.609 81.7155 184.543 82.3422 187.757C80.5161 186.678 79.113 185.85 77.4959 184.894C78.7683 190.246 81.2051 194.826 84.5483 199.139C82.4625 200.192 81.7257 197.577 80.0411 197.883C80.6889 199.417 81.3866 200.825 81.8833 202.305C82.4522 204.002 82.9616 205.654 84.4205 206.89C85.0733 207.443 85.4218 208.355 85.9208 209.121C83.12 210.172 81.9273 209.752 80.6715 207.315C80.1192 206.242 79.5961 205.153 79.0585 204.072C78.8924 204.146 78.7264 204.221 78.5613 204.298C78.9623 205.5 79.3909 206.695 79.7271 207.916C79.7638 208.046 79.2493 208.325 78.8296 208.666C82.2985 209.861 81.9686 213.549 84.4068 215.849C83.0194 215.932 82.1576 215.982 81.3011 216.033C78.361 212.568 77.0252 208.309 75.0951 204.36C76.1236 210.479 79.2753 215.586 83.2561 220.953C81.7592 220.616 80.76 220.389 79.3391 220.068C80.2367 221.948 81.6878 222.228 82.9853 222.601C84.4264 223.018 85.6952 223.531 86.2698 225.397C84.1883 225.357 82.2947 225.342 81.2324 223.27C80.2174 223.824 79.3407 223.382 78.6022 221.942C77.8649 222.597 77.5695 223.389 77.6377 224.277C77.9417 228.157 80.8407 231.769 84.632 232.708C87.7216 233.472 93.4333 231.702 93.9441 226.731C94.3858 222.448 94.2333 218.291 93.0234 214.159C92.6203 212.784 92.3765 211.363 92.013 209.754C93.3257 209.914 94.4024 210.046 95.4791 210.178C95.5193 210.015 95.5572 209.853 95.5974 209.69C95.1999 209.561 94.7884 209.46 94.4091 209.293C92.6244 208.51 91.1707 207.511 90.7533 205.35C89.6904 199.865 88.492 194.408 87.3571 188.936C87.2908 188.617 87.3053 188.281 87.2607 187.631C88.3166 188.096 89.0907 188.437 89.867 188.778C89.942 188.688 90.0169 188.599 90.0918 188.509C89.0568 187.551 87.7225 186.76 87.0718 185.59C86.4203 184.418 86.4513 182.866 86.0877 180.98C87.8213 181.97 89.1087 182.703 90.3971 183.438C90.5048 183.302 90.6126 183.166 90.7203 183.03C88.5578 181.416 86.4326 179.779 86.3584 176.439C87.6309 177 88.6269 177.438 89.6237 177.878C88.2847 176.381 87.0888 174.908 85.8752 172.742C86.9631 173.132 87.4846 173.32 88.3114 173.619C86.7247 171.449 84.695 169.774 85.7533 166.724C86.527 167.372 87.1699 167.913 88.0451 168.646C87.7595 166.108 84.8356 164.313 86.6047 161.459C87.3113 162.062 87.9493 162.61 88.5865 163.155C87.8227 160.832 86.1319 158.859 87.1377 156.005C87.8155 156.433 88.3741 156.784 89.0582 157.215C89.0665 156.903 89.1478 156.643 89.0693 156.448C88.2831 154.518 87.4521 152.598 88.6032 150.266C89.3332 151.068 89.9666 151.765 91.0403 152.948C89.4951 149.675 88.9735 146.845 90.0787 143.93C90.4546 142.941 90.935 141.987 91.3838 141.025C91.514 140.746 91.8982 140.445 91.8428 140.243C91.257 138.093 92.8469 136.711 93.5829 134.822C94.331 135.258 94.9696 135.628 95.8755 136.156C94.7261 133.849 94.7366 131.576 95.9068 129.339C96.5092 129.875 97.0828 130.385 97.5812 130.829C97.2768 129.283 96.6094 127.674 96.7578 126.144C96.9167 124.513 97.8478 122.955 98.5116 121.174C99.4801 121.633 100.316 122.032 101.154 122.43C101.21 122.343 101.264 122.26 101.319 122.173C100.606 121.426 99.8942 120.675 98.9391 119.672C102.625 111.176 103.068 102.151 102.446 92.9888C101.819 83.7181 98.2134 75.3919 94.1562 66.9997C96.3681 68.666 98.0284 71.4487 102.015 80.0058C102.115 76.5078 101.232 73.8378 97.9 68.8908C95.6496 65.551 93.1393 62.3854 90.453 58.7438C90.0069 59.7509 89.76 60.304 89.4829 60.9234C88.4984 60.3986 87.4791 59.8517 86.3558 59.2512C85.7805 59.5135 85.1443 60.0348 84.4957 60.0506C83.2824 60.0794 81.9577 60.1968 81.1556 58.8302C80.3544 57.4659 80.2155 55.2602 81.3565 53.9996C82.4158 52.8311 83.7835 51.9228 85.0993 51.02C85.6735 50.6267 86.4351 50.4365 87.1373 50.3167C92.6222 49.3932 96.9313 46.3148 100.972 42.7744C103.867 40.2388 107.426 39.7905 111.015 39.2578C114.031 38.8114 117.011 38.1291 120.007 37.5459C120.272 37.4934 120.526 37.3939 120.787 37.3175C124.429 36.248 127.228 38.4592 126.594 42.1927C126.185 44.6059 126.41 47.1535 125.251 49.4347C124.495 50.9221 123.789 52.4361 123.329 54.1141C124.199 52.8615 125.071 51.6111 125.942 50.3585C126.155 53.4032 125.045 55.8687 123.684 58.3266C124.754 56.9293 125.825 55.5319 126.893 54.1408C127.35 55.0469 127.016 56.908 125.891 59.724C126.612 58.9337 126.938 58.5706 127.268 58.2111C127.57 57.8836 127.878 57.5609 128.221 57.1938C130.939 58.7414 129.163 60.6211 128.823 62.501C129.525 61.6255 130.227 60.753 130.923 59.8823C133.138 61.4597 133.21 61.7866 131.878 65.5404C132.842 64.3018 133.45 63.5184 134.101 62.6816C136.739 64.1764 139.346 65.5421 141.838 67.0905C147.809 70.8014 154.552 72.0439 161.274 73.4286C168.184 74.8512 174.423 77.9001 180.13 81.931C182.137 83.3496 183.614 85.5303 185.295 87.3947C190.748 93.4412 197.113 98.2031 204.816 100.983C207.693 102.021 210.755 102.543 213.625 103.599C217.767 105.122 221.825 106.878 225.892 108.603C234.684 112.335 240.477 119.349 245.525 127.031C247.89 130.631 249.812 134.539 251.725 138.411C253.245 141.487 254.289 144.75 254.727 148.207C255.422 153.689 255.885 159.145 255.108 164.671C254.821 166.702 255.091 168.811 255.096 170.883L255.092 170.859ZM87.11 149.066C83.7913 147.296 83.7641 147.222 85.3628 144.81C88.1302 146.023 88.2029 146.185 87.11 149.066ZM83.3139 134.909C86.0511 137.452 86.2418 138.273 84.6815 141.345C81.6801 138.671 81.5533 138.002 83.3139 134.909ZM87.0862 139.674C87.8865 140.523 88.4722 141.146 89.1145 141.827C88.8406 142.71 88.5857 143.532 88.3263 144.369C86.5982 143.62 86.1849 142.055 87.0862 139.674ZM85.6719 136.047C83.5548 134.193 83.4157 132.148 85.0784 129.927C87.9104 132.558 88.0683 134.189 85.6719 136.047ZM88.5831 134.405C89.5257 135.3 90.2902 136.021 91.134 136.825C90.6856 137.794 90.2753 138.678 89.8659 139.565C87.0311 138.152 86.9288 137.814 88.5831 134.405ZM86.9227 125.111C89.3166 128.257 90.066 129.492 87.9008 131.149C85.0146 128.774 84.855 127.941 86.9227 125.111ZM90.5 130.45C91.2671 131.152 92.0365 131.854 92.9136 132.656C92.5862 133.433 92.2858 134.141 91.9902 134.843C88.7088 133.602 88.4306 132.813 90.5022 130.449L90.5 130.45ZM88.9658 120.675C91.2639 122.665 91.6035 124.779 89.8617 126.983C86.8452 124.008 86.8101 123.728 88.9658 120.675ZM90.8441 128.824C91.2274 127.718 91.6155 126.592 92.0457 125.347C95.0311 127.808 95.045 127.875 93.4021 131.011C92.9675 130.706 92.5299 130.438 92.1432 130.111C91.7388 129.766 91.384 129.365 90.8432 128.821L90.8441 128.824ZM91.834 121.915C89.1153 120.341 88.9712 119.2 91.1743 115.829C92.9443 117.858 93.5399 119.782 91.834 121.915ZM93.9897 120.927C94.7619 121.462 95.5403 122 96.4509 122.629C96.0807 123.601 95.6787 124.66 95.2634 125.75C92.473 124.017 92.3553 123.538 93.991 120.924L93.9897 120.927ZM92.8144 111.608C95.1998 113.174 93.9596 115.124 93.4712 117.347C90.9193 114.585 90.8997 114.286 92.8144 111.608ZM95.5286 115.512C96.2574 115.843 96.9892 116.175 97.7242 116.509C97.8697 116.345 98.0129 116.181 98.1583 116.017C97.0002 114.291 94.3306 112.853 97.0558 110.279C97.9638 111.217 98.878 112.157 99.8385 113.147C98.9023 115.899 97.986 118.59 97.0617 121.301C93.8786 119.906 94.2807 118.386 95.5286 115.512ZM94.2997 106.021C96.1146 107.842 95.6666 109.505 94.7625 111.31C92.8345 109.676 92.7815 109.089 94.2997 106.021ZM95.0674 99.1501C95.5809 100.357 96.2334 101.531 96.5194 102.788C96.7442 103.77 96.4666 104.869 96.3953 106.257C94.6419 105.365 94.2375 104.244 94.4531 102.811C94.6367 101.587 94.8594 100.371 95.0652 99.151L95.0674 99.1501ZM98.1322 105.112C99.4895 106.911 101.8 108.096 100.095 110.693C96.8973 108.801 96.6497 108.179 98.1322 105.112ZM98.4063 100.214C99.1638 100.193 99.8364 100.173 100.517 100.154C100.938 101.764 101.317 103.373 100.474 105.223C99.0726 103.744 97.3701 102.691 98.4063 100.214ZM97.9771 92.315C99.9387 93.8782 100.131 94.4199 100.026 98.0721C98.0334 96.573 97.6209 94.6295 97.9771 92.315ZM84.8777 160.428C84.6071 161.666 84.3369 162.912 84.0645 164.159C83.9038 164.195 83.7439 164.233 83.5831 164.27C82.9316 162.861 82.2809 161.454 81.4305 159.614C82.8292 159.944 83.7212 160.155 84.8764 160.431L84.8777 160.428ZM84.5319 174.891C84.5429 175.836 84.6476 176.776 84.707 177.719C82.6223 175.875 81.5979 173.603 80.8346 171.089C83.9414 171.787 84.4895 171.187 84.531 174.889L84.5319 174.891ZM85.4056 214.607C88.6232 214.894 89.8517 215.455 90.241 216.815C86.3763 217.355 85.985 217.177 85.4056 214.607ZM91.348 220.049C91.3763 220.479 91.0563 221.152 90.702 221.322C90.3469 221.491 89.63 221.318 89.3003 221.03C88.7329 220.536 88.3421 219.839 87.4791 218.706C88.9062 218.741 89.7724 218.638 90.5622 218.839C90.9218 218.931 91.3215 219.611 91.3502 220.048L91.348 220.049ZM83.1551 218.309C85.453 218.079 86.6262 219.304 87.5138 221.294C84.7087 221.873 84.4676 219.368 83.1551 218.309ZM88.2658 227.828C87.0028 228.413 85.7084 229.042 84.2997 227.609C85.7741 226.723 87.0158 227.188 88.2658 227.828ZM82.8726 210.718C86.9734 210.495 87.1033 210.562 88.4088 213.508C84.4728 212.922 83.5025 212.432 82.8726 210.718ZM87.5538 223.857C88.5854 223.476 89.2022 223.89 89.4042 225.098C88.2461 225.463 87.8446 224.766 87.5538 223.857ZM86.214 207.093C87.7615 207.196 88.6112 207.926 88.7631 209.283C86.9706 209.622 86.8992 208.181 86.214 207.093ZM82.6407 200.718C87.4584 201.471 87.1808 202.256 87.5645 205.211C84.8679 205.867 83.4662 204.587 82.6407 200.718ZM83.0652 194.212C84.1469 194.638 84.9436 194.953 85.8172 195.298C85.8281 196.203 85.8361 196.987 85.8493 198.168C84.3888 197.068 83.4274 196.101 83.063 194.213L83.0652 194.212ZM78.9025 186.468C81.3284 188.012 83.546 189.424 86.0372 191.009C85.983 191.765 85.9288 192.535 85.8772 193.272C81.8237 193.613 79.644 191.526 78.9025 186.468ZM82.5167 184.342C83.4661 184.337 84.073 184.333 84.958 184.328C85.1758 185.671 85.3958 187.014 85.6855 188.806C83.8271 187.557 82.9345 186.273 82.5144 184.343L82.5167 184.342ZM82.6807 227.084C82.5749 227.289 82.4713 227.494 82.3655 227.698C81.2345 227.797 80.4705 227.109 79.7507 226.326C79.8481 226.106 79.9454 225.886 80.0428 225.667C80.9211 226.139 81.8016 226.61 82.6799 227.082L82.6807 227.084ZM92.136 64.3926C92.2726 64.2578 92.4079 64.126 92.5445 63.9912C92.8272 64.3546 93.1091 64.7157 93.3918 65.0791C93.2867 65.1704 93.1816 65.2616 93.0764 65.3529C92.7644 65.0322 92.4502 64.7124 92.1373 64.3895L92.136 64.3926Z" fill="#D0B48C"/>
<path d="M177.633 188.867C175.436 183.794 173.319 178.644 171.67 173.291C169.522 166.334 166.317 159.706 163.696 152.887C161.87 148.133 159.587 143.691 156.496 139.613C153.838 136.107 151.5 132.357 148.969 128.754C147.852 127.163 146.601 125.662 145.414 124.12C145.311 124.177 145.205 124.235 145.103 124.294C145.267 125.133 145.432 125.972 145.607 126.877C143.987 127.633 142.469 128.417 140.892 129.056C139.359 129.68 138.182 131.192 136.314 131.022C135.627 128.377 135.722 128.176 137.965 127.259C138.373 127.093 138.765 126.886 139.166 126.699C139.119 126.581 139.071 126.461 139.021 126.345C137.919 126.489 136.819 126.632 135.111 126.854C136.892 123.972 140.306 124.397 141.79 122.168C139.656 122.67 137.684 123.852 135.17 123.961C135.298 121.727 138.178 121.983 138.116 120.038C137.188 120.418 136.256 120.801 134.93 121.344C135.083 118.062 138.299 118.659 139.39 116.859C137.869 117.277 136.525 117.647 135.189 118.017C134.455 116.411 134.779 115.466 136.163 114.706C137.141 114.169 137.951 113.325 138.836 112.618C138.757 112.539 138.679 112.46 138.603 112.379C137.439 112.896 136.272 113.412 135.063 113.947C134.379 111.622 134.613 110.562 136.592 109.756C138.058 109.158 138.564 108.076 139.161 107.366C138.51 106.896 137.689 106.617 137.592 106.177C136.974 103.388 136.493 100.564 136.032 97.7424C135.973 97.3844 136.303 96.9658 136.351 96.8355C135.804 96.3669 135.074 96.0443 134.999 95.6077C134.88 94.9281 135.207 94.17 135.344 93.4469C133.396 93.5703 133.364 92.4899 133.873 91.0446C133.6 91.0051 133.321 91.0189 133.089 90.9216C132.701 90.7579 132.344 90.5248 131.974 90.3228C131.814 90.7199 131.665 91.0867 131.463 91.5855C130.663 90.3515 131.07 88.9243 132.684 87.304C131.902 87.5644 131.515 87.769 131.111 87.8101C130.556 87.868 129.75 88.0298 129.474 87.741C128.769 87.0007 129.525 86.4752 130.068 85.9988C130.902 85.2639 131.738 84.5333 132.573 83.8006C132.502 83.7336 132.432 83.6689 132.364 83.601C130.032 84.8118 127.701 86.0247 125.275 87.2836C126.878 90.9892 128.622 94.4529 129.875 98.085C131.136 101.733 132.247 105.499 132.805 109.303C133.469 113.829 133.47 118.455 133.767 123.037C133.894 124.994 133.913 126.972 134.215 128.906C134.67 131.8 135.342 134.657 135.898 137.536C136.393 140.101 136.807 142.683 137.345 145.239C138.396 150.253 139.559 155.244 140.57 160.266C140.956 162.183 140.665 164.314 141.366 166.075C142.601 169.173 142.854 172.375 142.877 175.563C142.91 179.737 143.89 183.985 142.344 188.105C142.268 188.306 142.498 188.603 142.512 188.863C142.565 189.739 142.694 190.631 142.6 191.494C141.917 197.767 141.005 204.017 141.407 210.367C141.515 212.064 141.499 213.847 141.102 215.482C140.163 219.336 140.577 223.22 140.572 227.082C140.57 230.028 140.987 232.988 141.42 235.914C142.2 241.209 149.251 245.078 153.065 244.682C157.051 244.269 160.758 242.959 164.43 241.444C166.752 240.485 169.101 239.497 171.531 238.904C176.014 237.811 180.435 236.652 184.569 234.498C187.424 233.01 189.66 231.157 190.377 227.836C190.89 225.461 191.658 223.138 192.091 220.752C192.304 219.575 192.34 218.171 191.896 217.104C190.476 213.696 188.892 210.346 187.19 207.067C184.032 200.982 180.356 195.134 177.641 188.864L177.633 188.867ZM132.349 93.0061C132.561 93.3358 132.772 93.6665 132.984 93.9962C132.812 94.1013 132.638 94.2074 132.466 94.3103C132.291 93.973 132.104 93.641 131.964 93.2871C131.949 93.2494 132.214 93.1014 132.348 93.0039L132.349 93.0061ZM134.523 98.2742C134.901 99.4065 135.1 100.002 135.428 100.987C134.688 100.373 134.387 99.469 134.523 98.2742ZM135.348 102.141C135.818 102.945 135.891 103.716 135.568 104.453C135.1 103.682 135.027 102.911 135.348 102.141ZM132.46 97.51C132.504 97.8818 132.319 98.2811 132.172 98.9047C131.684 98.531 131.207 98.3257 131.214 98.1373C131.229 97.7832 131.519 97.4397 131.696 97.0902C131.962 97.2279 132.439 97.343 132.457 97.5087L132.46 97.51ZM132.845 101.906C132.323 101.329 132.211 100.675 132.51 99.9424C133.396 100.504 133.411 101.125 132.845 101.906ZM127.139 88.5532C127.214 88.2705 127.466 88.0324 127.647 87.7766C127.846 87.926 128.046 88.0754 128.414 88.3502C128.114 88.6306 127.919 88.9077 127.654 89.0117C127.549 89.0537 127.111 88.6626 127.139 88.5532ZM129.875 92.1827C128.738 92.0327 128.335 91.282 128.665 89.9305C129.159 90.8511 129.465 91.4192 129.875 92.1827ZM129.498 94.4128C129.521 94.2279 129.967 93.9121 129.997 93.9361C130.433 94.2841 130.833 94.6806 131.243 95.0651C129.971 95.5657 129.378 95.3606 129.501 94.4141L129.498 94.4128ZM132.876 103.258C134.229 103.924 134.303 104.518 133.376 105.445C133.245 104.869 133.111 104.293 132.876 103.258ZM134.21 107.064C134.823 106.516 135.626 106.181 136.346 105.752C137.316 107.458 137.304 107.442 135.829 108.435C135.346 108.761 134.93 109.183 134.449 109.591C133.736 108.67 133.356 107.826 134.208 107.065L134.21 107.064ZM164.903 178.17C164.742 176.731 165.238 175.843 166.679 175.545C167.371 176.797 166.779 177.672 164.903 178.17ZM163.818 170.007C163.704 169.91 163.588 169.815 163.475 169.719C163.727 169.352 163.977 168.986 164.229 168.619C164.392 168.78 164.556 168.939 164.719 169.1C164.418 169.402 164.119 169.705 163.818 170.007ZM171.658 186.372C172.304 186.863 172.225 187.699 171.517 188.177C170.725 188.715 169.83 189.1 168.716 189.69C168.545 188.155 169.227 187.265 170.038 186.57C170.4 186.259 171.334 186.124 171.657 186.37L171.658 186.372ZM175.484 188.687C175.641 190.609 174.361 190.634 173.097 190.869C172.931 188.968 173.992 188.688 175.484 188.687ZM157.64 149.592C158.255 149.481 158.942 149.285 158.974 149.362C159.195 149.887 159.276 150.468 159.403 151.034C159.156 151.105 158.908 151.176 158.661 151.247C158.367 150.772 158.075 150.296 157.64 149.592ZM166.284 165.526C166.983 166.014 167.041 166.588 166.316 167.561C166.042 166.74 165.857 166.19 165.666 165.612C165.967 165.566 166.187 165.459 166.287 165.527L166.284 165.526ZM163.237 159.005C163.268 158.536 163.295 158.066 163.326 157.597C163.518 157.587 163.707 157.576 163.899 157.566C163.919 158.032 163.949 158.499 163.926 158.962C163.926 158.988 163.476 158.991 163.237 159.005ZM168.843 170.601C168.859 171.335 168.875 172.068 168.897 173.006C167.868 172.127 167.85 171.325 168.843 170.601ZM176.43 194.144C176.563 193.493 176.675 192.937 176.834 192.135C177.245 192.535 177.61 192.724 177.677 192.988C177.843 193.636 177.787 193.651 176.43 194.144ZM178.558 195.558C178.279 196.743 178.139 197.689 177.823 198.571C177.52 199.42 176.719 199.897 175.952 199.427C175.554 199.182 175.324 198.199 175.453 197.652C175.752 196.377 176.554 195.472 178.558 195.556L178.558 195.558ZM172.45 183.295C172.004 182.538 171.731 182.07 171.324 181.378C172.83 181.391 173.041 181.897 172.45 183.295ZM172.412 192.962C173.308 192.664 173.956 192.447 175.035 192.085C174.855 193.452 174.715 194.527 174.551 195.769C172.824 195.514 172.808 194.301 172.411 192.96L172.412 192.962ZM181.736 212.666C181.576 213.46 181.469 213.978 181.29 214.859C180.427 213.798 180.346 213.248 181.736 212.666ZM180.057 211.415C180.464 210.297 180.78 209.422 181.097 208.55C181.935 209.997 181.588 210.952 180.057 211.415ZM179.59 208.039C177.991 205.827 178.064 205.553 180.263 204.973C180.04 205.984 179.846 206.874 179.59 208.039ZM178.373 203.884C178.403 200.605 178.667 200.228 180.792 200.446C180.852 202.088 180.046 203.234 178.373 203.884ZM182.426 204.036C182.433 203.957 183.021 203.932 183.34 203.878C183.349 204.498 183.359 205.118 183.367 205.736C183.067 205.759 182.767 205.782 182.466 205.805C182.441 205.214 182.374 204.619 182.428 204.036L182.426 204.036ZM162.72 153.877C162.227 154.555 161.733 155.231 161.225 155.925C160.135 155.229 159.817 154.41 160.375 153.773C160.744 153.354 161.669 153.423 162.344 153.276C162.468 153.476 162.595 153.675 162.72 153.877ZM159.343 147.285C159.271 147.497 158.468 147.719 158.251 147.572C157.417 147.005 157.701 146.318 158.223 145.585C159.187 145.865 159.643 146.404 159.343 147.285ZM154.94 145.218C153.724 143.077 153.835 142.359 155.723 141.033C157.398 143.691 157.353 143.895 154.94 145.218ZM146.243 141.146C146.473 138.266 146.955 137.952 149.154 139.042C148.077 139.821 147.16 140.484 146.243 141.146ZM150.383 141.501C151.51 142.587 151.669 143.129 150.017 143.644C150.149 142.869 150.234 142.368 150.383 141.501ZM151.914 144.315C152.535 146.688 152.177 147.043 148.698 147.521C149.04 144.883 149.249 144.672 151.914 144.315ZM151.429 147.824C150.924 150.293 150.091 151.77 148.188 152.437C146.588 152.998 144.973 153.516 143.309 154.072C142.745 152.591 143.415 151.827 144.452 151.296C146.599 150.196 148.769 149.143 151.429 147.824ZM152.728 148.836C152.917 148.344 153.158 147.871 153.586 146.928C154.255 147.804 154.724 148.42 155.402 149.305C154.313 149.795 153.547 150.136 152.162 150.757C152.483 149.651 152.575 149.232 152.728 148.836ZM151.613 140.091C151.855 139.775 152.044 139.374 152.359 139.175C152.522 139.073 152.91 139.333 153.389 139.493C153.038 140.031 152.88 140.536 152.574 140.654C152.358 140.738 151.939 140.298 151.612 140.094L151.613 140.091ZM156.408 154.071C156.462 153.301 156.498 152.782 156.573 151.743C157.916 152.967 157.563 153.449 156.408 154.071ZM152.889 137.177C152.167 137.705 151.41 137.92 150.616 137.823C151.214 136.548 151.972 136.333 152.889 137.177ZM148.87 136.052C148.395 135.588 147.989 135.194 147.657 134.869C147.982 133.797 149.058 133.594 150.79 134.156C150.16 134.778 149.579 135.352 148.869 136.05L148.87 136.052ZM148.794 131.647C148.615 131.895 148.476 132.203 148.238 132.363C148.126 132.437 147.823 132.221 147.604 132.139C147.733 131.857 147.859 131.574 148.037 131.189C148.392 131.404 148.593 131.527 148.792 131.651L148.794 131.647ZM147.313 128.996C146.712 129.498 146.111 129.998 145.263 130.705C145.35 129.406 146.033 128.837 147.313 128.996ZM144.109 129.532C143.765 130.191 143.631 130.902 143.215 131.164C141.285 132.379 139.311 133.544 136.95 134.38C137.381 132.208 140.873 129.925 144.109 129.532ZM137.865 135.394C140.322 134.14 142.817 132.965 145.312 131.789C145.499 131.701 145.8 131.858 146.047 131.903C146.172 132.106 146.295 132.309 146.421 132.514C144.002 135.039 140.668 136.155 137.735 138.007C136.829 136.87 136.691 135.995 137.864 135.397L137.865 135.394ZM138.433 139.088C140.658 137.76 142.93 136.509 145.183 135.226C145.377 135.393 145.57 135.558 145.761 135.726C145.497 136.346 145.408 137.189 144.942 137.544C142.886 139.113 140.721 140.54 138.226 141.409C137.34 140.43 137.512 139.638 138.433 139.088ZM143.836 140.239C144.402 141.043 144.157 141.884 143.5 142.303C142.059 143.228 140.489 143.952 138.529 144.99C138.703 143.321 140.472 141.737 143.835 140.237L143.836 140.239ZM139.097 146.314C142.149 144.664 145.248 142.988 148.569 141.191C148.953 142.96 148.486 143.999 147.23 144.571C145.035 145.569 142.8 146.489 140.563 147.396C139.726 147.732 139.171 147.429 139.095 146.315L139.097 146.314ZM141.114 148.652C142.955 147.746 144.839 146.927 147.059 145.908C146.397 149.4 146.292 149.497 144.229 148.766C143.477 150.059 142.482 151.124 140.726 151.317C140.017 150.264 139.762 149.316 141.118 148.653L141.114 148.652ZM143.58 155.252C144.875 154.644 146.24 154.178 147.581 153.672C148.291 153.404 148.901 152.659 149.818 153.27C149.991 153.386 150.611 153.191 150.728 152.976C151.723 151.184 153.466 151.216 155.272 150.975C155.339 153.266 154.085 154.45 151.929 155.225C152.529 155.365 152.845 155.439 153.306 155.547C152.312 159.833 148.565 159.718 145.253 160.897C145.22 157.362 148.024 157.269 150.063 156.119C148.826 156.077 147.731 156.04 146.189 155.99C145.494 157.082 144.058 157.961 142.067 157.89C141.376 156.243 142.567 155.729 143.577 155.253L143.58 155.252ZM142.748 160.207C142.718 159.966 142.977 159.563 143.213 159.453C143.412 159.357 143.761 159.578 144.286 159.728C143.879 160.23 143.639 160.525 143.399 160.82C143.169 160.618 142.776 160.436 142.747 160.21L142.748 160.207ZM153.95 173.414C152.859 173.742 151.79 174.128 150.398 174.592C150.797 171.827 153.097 171.838 154.733 170.59C153.719 170.57 152.946 170.553 151.954 170.534C152.277 169.657 152.538 168.946 152.92 167.902C151.628 168.287 151.653 169.35 151.118 169.906C150.4 170.653 149.662 171.42 148.798 171.973C148.178 172.372 147.238 172.324 147.02 171.429C146.88 170.851 147.047 169.951 147.44 169.556C147.975 169.019 148.866 168.851 149.585 168.485C150.538 168.001 151.473 167.478 152.315 166.544C151.411 166.83 150.516 167.144 149.604 167.389C148.783 167.611 147.898 167.827 148.031 166.433C147.173 167.25 146.315 168.067 145.208 169.123C144.847 168.038 144.615 167.347 144.303 166.41C145.412 165.89 146.401 165.381 147.439 165C147.542 164.961 147.932 165.707 148.187 166.089C148.705 162.689 151.858 162.855 154.611 161.557C150.472 161.46 147.597 164.065 144.086 164.419C143.87 163.036 144.765 162.71 145.567 162.338C147.86 161.275 150.186 160.273 152.445 159.14C153.107 158.81 153.894 158.228 154.102 157.59C154.741 155.646 156.348 155.186 158.38 154.248C158.214 155.318 158.327 156.118 157.98 156.544C156.892 157.873 156.616 159.379 156.284 161.003C155.954 162.608 154.958 164.074 154.442 165.715C157.401 164.051 157.198 160.334 159.301 158.124C161.297 159.357 161.428 159.714 160.038 161.235C159.481 161.843 159.232 162.193 159.636 163.036C159.826 163.432 159.339 164.19 159.089 164.754C158.151 166.867 157.182 168.966 156.158 171.222C158.203 170.678 158.52 168.733 159.364 167.331C160.275 165.82 160.953 164.17 161.939 162.159C162.489 163.282 162.821 163.961 163.153 164.645C162.33 165.362 161.672 165.939 160.849 166.656C161.434 167.035 161.863 167.311 162.567 167.768C161.477 169.764 160.401 171.829 159.217 173.829C158.923 174.323 158.328 174.766 157.777 174.962C154.817 176.013 151.824 176.979 148.687 178.026C148.62 176.392 149.949 176.028 150.988 175.585C152.971 174.738 155.021 174.051 157.033 173.271C157.242 173.189 157.384 172.926 157.978 172.313C156.286 172.774 155.11 173.066 153.95 173.414ZM151.381 181.744C151.106 183.742 150.275 184.221 148.982 184.475C148.678 182.591 150.029 182.597 151.381 181.744ZM153.174 187.444C151.979 191.019 151.303 191.641 148.836 191.61C148.472 188.852 148.691 188.633 153.174 187.444ZM149.881 193.394C149.645 193.796 149.412 194.197 149.176 194.598C149.031 194.515 148.885 194.432 148.739 194.346C148.972 193.943 149.204 193.54 149.435 193.138C149.582 193.223 149.73 193.308 149.878 193.393L149.881 193.394ZM146.743 187.085C146.926 187.212 147.107 187.341 147.29 187.469C147.002 187.96 146.718 188.451 146.431 188.943C146.178 188.771 145.926 188.599 145.675 188.43C146.031 187.982 146.388 187.535 146.744 187.087L146.743 187.085ZM146.988 194.787C146.782 195.826 147.131 196.869 145.532 197.26C145.384 195.981 145.235 194.963 146.988 194.787ZM150.84 201.059C150.452 202.961 149.492 204.051 147.526 204.163C147.48 202.021 147.84 201.68 150.84 201.059ZM153.523 203.66C152.888 206.577 152.525 206.95 149.953 207.334C149.507 204.901 150.203 204.183 153.523 203.66ZM147.202 205.987C147.357 206.09 147.509 206.192 147.663 206.294C147.461 206.636 147.255 206.979 147.053 207.321C146.928 207.255 146.8 207.188 146.676 207.122C146.852 206.745 147.027 206.367 147.205 205.989L147.202 205.987ZM147.977 209.858C148.612 211.057 148.106 211.905 146.46 212.402C146.508 211.283 147.014 210.435 147.977 209.858ZM152.022 232.786C151.614 232.855 150.904 232.591 150.747 232.27C150.579 231.93 150.747 231.122 151.046 230.909C152.469 229.891 154.063 229.204 155.76 228.839C155.882 229.014 156.002 229.19 156.124 229.366C155.856 229.796 155.661 230.505 155.301 230.604C154.481 230.828 153.965 231.128 153.573 231.949C153.363 232.389 152.587 232.691 152.019 232.785L152.022 232.786ZM153.749 233.523C153.412 233.821 153.076 234.118 152.739 234.416C152.63 234.305 152.522 234.197 152.413 234.086C152.691 233.765 152.971 233.441 153.249 233.12C153.417 233.254 153.584 233.388 153.749 233.523ZM149.642 230.432C148.961 229.651 148.503 229.126 147.759 228.275C149.162 227.649 150.197 227.189 151.231 226.727C151.358 226.895 151.485 227.063 151.612 227.232C151.03 228.177 150.448 229.12 149.641 230.43L149.642 230.432ZM152.133 229.278C151.343 226.607 154.435 224.588 158.085 224.309C157.814 228.021 155.993 228.593 152.133 229.278ZM154.189 221.43C153.804 222.57 153.587 223.209 153.272 224.145C152.204 222.759 152.501 222.145 154.189 221.43ZM148.07 214.13C147.611 214.817 147.153 215.504 146.506 216.476C146.099 214.912 146.409 214.135 148.07 214.13ZM148.821 216.703C149.169 218.131 148.494 218.92 146.794 219.07C147.421 218.339 148.047 217.607 148.821 216.703ZM149.331 220.211C149.473 220.335 149.615 220.456 149.757 220.579C149.045 221.463 148.33 222.347 147.618 223.231C147.398 223.062 147.178 222.892 146.958 222.723C146.677 220.858 148.267 220.784 149.334 220.213L149.331 220.211ZM150.68 223.181C151.109 223.659 151.593 224.196 152.32 225.003C150.756 225.642 149.489 226.159 147.726 226.88C148.203 224.749 148.947 223.674 150.68 223.181ZM145.654 222.925C145.035 223.816 144.665 224.346 144.022 225.273C143.948 223.998 144.492 223.215 145.654 222.925ZM145.018 225.909C145.578 226.987 145.265 227.714 144.077 228.092C143.939 227.952 143.801 227.814 143.662 227.674C144.088 227.118 144.515 226.565 145.018 225.909ZM146.427 228.888C147.658 230.969 146.62 231.247 144.855 231.629C145.452 230.587 145.825 229.937 146.427 228.888ZM148.704 231.954C148.163 233.027 147.768 233.815 147.203 234.937C146.189 233.538 146.689 232.544 148.704 231.954ZM148.163 236.292C149.568 235.155 150.74 235.048 151.68 235.971C149.942 237.978 149.742 237.994 148.163 236.292ZM151.799 238.915C152.694 236.825 154.912 236.98 156.648 235.859C154.984 239.584 153.808 240.289 151.799 238.915ZM156.389 240.551C156.609 238.675 158.009 237.821 159.04 236.703C158.963 238.417 158.315 239.299 156.389 240.551ZM156.475 232.721C157.154 228.851 159.609 225.726 160.328 221.858C158.729 224.019 156.355 223.566 153.823 224.375C154.509 222.738 155.002 221.565 155.488 220.402C154.501 220.647 153.324 220.94 152.164 221.228C151.224 220.013 151.418 219.109 152.667 218.527C154.137 217.843 155.654 217.254 156.973 216.701C155.715 216.951 154.249 217.244 152.687 217.558C152.242 215.444 153.549 214.635 154.629 213.582C153.374 214.001 152.119 214.421 150.878 214.835C150.025 212.779 149.985 212.537 151.508 211.721C153.288 210.766 155.2 210.057 157.017 209.112C155.462 209.503 153.907 209.893 152.184 210.328C151.767 207.938 153.861 207.784 155.081 206.76C154.569 206.551 154.214 206.405 153.546 206.129C154.282 204.76 155.009 203.411 155.907 201.74C154.334 202.264 153.016 202.706 151.36 203.258C151.967 200.676 153.235 199.225 155.53 198.532C154.046 197.764 153.064 198.004 151.902 198.974C150.948 199.77 149.532 200.012 147.927 200.657C148.294 198.408 149.192 197.237 150.884 196.673C153.672 195.743 156.456 194.812 159.142 193.532C156.375 194.161 153.609 194.791 150.708 195.452C151.281 192.016 153.913 191.167 156.366 189.988C155.442 190.148 154.52 190.304 153.472 190.486C152.945 188.516 155.069 187.667 154.777 185.889C153.599 186.185 152.128 186.555 150.252 187.025C151.181 183.66 154.42 183.782 156.27 181.994C155.025 182.337 153.89 182.649 152.587 183.008C153.04 181.837 154.535 180.582 157.072 179.242C154.294 179.96 151.514 180.677 148.745 181.391C148.131 180.403 148.459 179.776 149.307 179.357C151.655 178.199 154.013 177.055 156.378 175.932C156.694 175.782 157.137 175.614 157.419 175.72C159.401 176.473 160.297 175.225 160.946 173.76C161.689 172.082 162.894 171.237 164.689 171.142C165.187 173.829 164.504 175.068 161.747 176.337C161.882 176.525 161.967 176.738 162.126 176.837C162.327 176.965 162.587 177.002 162.945 177.118C162.197 179.08 161.371 180.822 159.416 181.874C161.91 181.041 164.404 180.209 167.169 179.286C166.315 181.883 164.543 183.088 162.464 183.875C163.135 184.345 163.813 184.818 164.571 185.351C166.027 184.552 166.441 182.1 168.863 182.486C169.497 186.429 166.203 186.895 163.853 188.381C164.853 188.195 165.855 188.006 167.144 187.767C166.325 190.138 164.99 191.683 163.097 192.903C165.626 192.059 168.152 191.217 170.736 190.353C170.688 193.518 167.674 193.466 165.759 194.971C167.003 194.703 168.018 194.483 169.304 194.206C168.939 195.152 168.654 195.899 168.355 196.674C170.102 197.261 169.984 195.312 171.203 195.132C171.276 195.164 171.615 195.214 171.72 195.398C171.933 195.767 172.017 196.207 172.194 196.737C171.207 197.386 170.262 198.011 169.316 198.634L169.475 198.98C170.61 198.601 171.742 198.223 173.072 197.779C173.205 200.209 171.261 201.222 170.28 203.246C171.927 202.698 173.276 202.246 174.543 201.824C176.509 204.814 176.454 205.158 173.802 206.671C172.946 207.159 172.025 207.535 171.169 208.139C171.62 208.035 172.075 207.948 172.521 207.82C173.034 207.671 173.535 207.487 174.037 207.319C174.37 207.678 174.656 207.985 174.993 208.35C175.551 207.891 176.078 207.457 176.54 207.079C177.539 207.499 177.661 208.796 176.8 209.354C175.679 210.081 174.448 210.637 173.346 211.534C174.736 211.071 176.124 210.606 177.494 210.15C178.277 212.329 178.25 212.595 176.727 213.342C173.412 214.968 170.062 216.526 167.306 217.836C169.643 217.056 172.603 216.067 175.652 215.05C176.136 216.279 175.851 217.002 174.751 217.529C174.018 217.881 173.361 218.388 172.675 218.838C174.804 218.302 176.932 217.766 179.053 217.231C179.892 218.732 179.013 219.253 177.904 219.722C174.417 221.196 170.942 222.699 167.2 224.301C169.451 224.789 171.041 223.368 172.828 222.931C174.72 222.469 176.545 221.728 178.541 221.062C177.986 222.67 177.243 224.011 175.495 224.492C173.797 224.958 172.315 226.152 170.363 225.833C169.941 225.763 169.434 226.619 168.883 226.864C167.577 227.445 166.248 228.41 164.718 227.107C163.149 229.677 162.75 233.006 160.168 235.058C160.107 235.105 159.861 234.923 159.566 234.784C160.05 233.179 160.541 231.548 161.034 229.919C160.91 229.873 160.785 229.825 160.663 229.779C159.821 231.09 158.976 232.401 158.031 233.872C157.393 233.401 156.916 233.049 156.48 232.727L156.475 232.721ZM150.918 216.397C151.048 216.112 151.219 215.832 151.443 215.618C151.496 215.566 151.794 215.768 152.14 215.928C151.834 216.284 151.651 216.553 151.404 216.735C151.348 216.775 150.902 216.434 150.918 216.397ZM183.865 219.167C184.086 220.994 182.559 221.185 181.219 222.098C181.285 220.347 182.167 219.37 183.865 219.167ZM169.281 230.337C169.602 228.791 170.54 227.868 172.094 227.566C171.8 229.151 170.862 230.074 169.281 230.337ZM181.197 228.226C180.919 229.831 180.208 231.039 178.542 231.57C176.41 232.252 174.294 232.981 172.103 233.713C171.613 232.36 171.569 231.454 172.834 231.023C175.551 230.096 178.275 229.202 181.197 228.226ZM168.04 228.912C167.539 231.027 167.085 231.32 164.091 231.467C164.667 229.059 165.021 228.829 168.04 228.912ZM165.98 237.327C165.915 237.108 165.851 236.891 165.786 236.672C166.293 236.502 166.8 236.334 167.309 236.163C167.374 236.299 167.436 236.434 167.501 236.571C166.994 236.823 166.487 237.074 165.98 237.327ZM160.993 239.835C160.792 239.719 160.59 239.602 160.389 239.487C160.475 239.125 160.515 238.743 160.657 238.404C161.067 237.422 161.565 236.474 161.946 235.483C163.034 232.647 163.118 232.472 166.411 232.556C165.425 235.933 162.598 237.394 160.991 239.838L160.993 239.835ZM167.584 234.377C167.777 232.517 168.464 231.653 170.251 231.781C170.277 233.5 169.432 234.209 167.584 234.377ZM171.459 235.441C172.864 235.041 174.266 234.643 175.798 234.207C174.88 235.912 174.371 236.078 171.459 235.441ZM178.039 235.176C179.878 234.561 180.294 231.887 183.216 232.076C181.335 233.598 180.357 235.443 178.039 235.176ZM173.294 229.306C173.435 226.418 173.451 226.458 175.53 225.824C177.071 225.354 178.577 224.764 180.093 224.211C180.919 223.91 181.735 223.582 182.588 223.252C183.077 224.424 182.857 225.256 181.977 225.761C179.27 227.322 176.36 228.37 173.296 229.305L173.294 229.306ZM182.625 229.624C182.834 227.219 184.138 226.339 186.386 225.861C185.897 228.167 184.504 228.923 182.625 229.624ZM186.127 231.6C185.94 231.456 185.752 231.309 185.565 231.165C186.357 230.138 187.146 229.112 187.937 228.084C188.132 228.256 188.329 228.43 188.526 228.601C187.726 229.6 186.929 230.599 186.129 231.599L186.127 231.6ZM182.105 217.51C182.611 216.587 182.921 216.024 183.41 215.131C184.279 216.798 183.735 217.229 182.105 217.51ZM186.538 223.283C186.276 222.053 186.248 221.157 187.603 220.602C187.595 221.614 187.24 222.508 186.538 223.283ZM186.426 219.252C185.634 217.339 187.026 217.141 188.253 216.555C188.702 218.46 187.631 218.806 186.426 219.252ZM186.709 215.659C186.298 214.546 186.922 214.014 188.583 214.065C187.847 214.691 187.305 215.152 186.709 215.659ZM185.134 212.396C184.941 212.223 184.972 211.409 185.176 211.255C185.968 210.66 186.861 210.309 187.683 211.655C186.805 212.48 186.151 213.302 185.134 212.396Z" fill="#D0B48C"/>
<path d="M172.55 218.9L172.556 218.902C172.594 218.879 172.628 218.855 172.665 218.83C172.613 218.843 172.561 218.856 172.509 218.869C172.509 218.869 172.556 218.902 172.549 218.897L172.55 218.9Z" fill="#D0B48C"/>
<path d="M221.28 187.58C223.085 189.717 224.518 191.415 225.95 193.111C225.828 193.326 225.705 193.54 225.581 193.757C224.42 193.564 223.261 193.37 222.098 193.177C221.268 195.19 221.269 195.207 218.961 195.532C217.618 195.721 216.266 195.968 214.92 195.955C213.517 195.943 212.121 195.646 211.48 193.96C213.64 193.292 215.508 193.134 217.389 194.271C218.141 194.724 219.213 195.255 219.876 193.897C219.327 193.422 218.543 193.075 218.371 192.533C217.952 191.203 216.938 192.348 216.393 191.891C215.925 191.497 215.305 191.096 215.15 190.581C215.027 190.174 215.512 189.584 215.835 188.815C214.119 189.724 212.994 189.447 212.3 187.694C212.729 187.24 213.168 186.775 213.776 186.131C212.127 186.482 210.726 186.947 209.735 185.246C209.021 184.02 209.866 183.456 210.797 182.659C208.962 182.939 207.623 182.313 206.78 180.782C207.518 180.475 208.26 180.166 209.456 179.67C207.493 179.206 205.227 180.607 204.709 177.829C205.877 177.439 206.907 177.095 208.481 176.571C205.426 176.681 203.543 176.165 202.832 175.02C203.857 174.884 204.822 174.756 205.612 174.65C202.996 174.026 200.266 173.45 197.581 172.711C195.72 172.198 194.531 170.941 194.178 168.71C196.173 169.298 198.001 169.835 200.218 170.488C197.363 168.967 194.914 167.649 192.451 166.357C191.223 165.714 190.076 165.035 190.023 163.282C192.739 163.16 194.987 165.206 197.698 164.848C193.955 162.895 189.422 162.268 186.663 157.823C187.824 158.202 188.468 158.451 189.136 158.618C189.736 158.771 190.359 158.838 191.447 159.022C188.383 156.719 188.234 156.521 187.676 154.218C188.995 154.355 190.271 154.487 191.544 154.62C186.954 152.907 183.139 150.333 180.183 146.49C182.283 147.446 184.237 148.71 186.725 148.76C184.331 147.409 181.745 146.275 181.559 142.997C182.348 143.023 183.134 143.047 183.922 143.071C181.482 141.644 179.083 140.437 178.341 137.416C178.917 137.324 179.326 137.257 180.121 137.129C177.687 135.776 175.901 134.356 175.091 131.949C175.693 131.843 176.119 131.768 177.218 131.576C173.785 130.331 172.653 127.81 171.26 125.493C170.343 123.969 169.331 122.496 168.28 121.056C167.701 120.263 166.956 119.59 166.29 118.857C165.611 118.112 164.987 117.617 163.847 117.264C161.701 116.597 160.01 114.858 159.096 111.976C160.15 112.571 160.866 112.974 161.545 113.359C160.469 112.314 159.42 111.243 158.301 110.249C156.995 109.092 155.334 108.277 154.525 106.058C156.018 106.558 157.15 106.936 158.279 107.315C155.884 105.918 153.622 104.35 150.87 103.6C150.905 104.026 150.853 104.249 150.942 104.362C153.215 107.27 155.483 110.18 157.791 113.061C161.993 118.303 165.096 124.234 168.413 130.02C171.106 134.719 173.534 139.565 176.131 144.318C179.464 150.415 182.927 156.444 186.17 162.587C187.597 165.291 188.467 168.289 189.86 171.016C192.359 175.909 195.083 180.685 197.674 185.531C200.152 190.169 203.188 194.405 206.543 198.448C208.614 200.942 211.142 202.331 214.281 203.006C219.923 204.219 224.361 202.327 227.96 198.079C229.055 196.788 229.609 195.227 228.906 193.555C227.582 190.397 225.111 188.611 221.28 187.58ZM172.546 130.36C171.179 130.308 171.044 129.548 171.007 128.725C171.47 129.217 171.935 129.713 172.546 130.36ZM164.982 121.505C165.11 121.325 165.24 121.146 165.368 120.966C166.95 121.635 167.894 122.963 168.939 124.185C168.794 124.344 168.648 124.5 168.503 124.659C167.33 123.607 166.154 122.555 164.981 121.503L164.982 121.505ZM169.089 127.129C169.694 127.628 170.301 128.129 170.904 128.629C169.618 128.682 169.601 128.645 169.089 127.129ZM174.502 138.317C177.392 139.085 178.437 141.421 179.736 143.537C179.531 143.681 179.326 143.825 179.119 143.97C177.58 142.085 176.039 140.203 174.5 138.318L174.502 138.317ZM182.47 151.96C182.587 151.815 182.704 151.67 182.824 151.524C184.952 152.525 185.943 153.628 185.796 154.832C184.591 153.792 183.532 152.877 182.473 151.96L182.47 151.96ZM211.101 189.465C209.254 189.865 207.831 189.668 206.831 188.874C208.851 187.734 209.353 187.785 211.101 189.465ZM208.733 186.665C206.247 187.461 205.274 187.132 203.958 184.903C206.251 184.433 207.843 185.02 208.733 186.665ZM205.83 183.088C203.831 183.25 202.526 182.565 201.915 181.033C203.675 180.75 204.98 181.435 205.83 183.088ZM200.798 174.977C200.741 175.164 200.685 175.352 200.627 175.54C199.31 175.766 198.18 175.361 197.361 173.927C198.507 174.276 199.652 174.628 200.798 174.977ZM198.7 176.98C200.544 177.33 202.291 177.004 203.167 179.326C201.066 179.454 199.748 178.869 198.7 176.98ZM206.968 194.09C207.091 193.903 207.212 193.716 207.335 193.529C207.824 193.859 208.311 194.186 208.8 194.516C208.688 194.687 208.574 194.859 208.463 195.031C207.965 194.717 207.466 194.405 206.969 194.092L206.968 194.09ZM209.686 197.695C210.682 197.295 211.559 197.382 212.318 197.957C211.574 197.882 210.83 197.808 209.686 197.695ZM209.009 191.547C210.694 190.934 212.191 190.52 214.033 192.087C211.766 192.491 210.091 192.311 209.009 191.547ZM216.827 199.577C218.612 199.303 220.397 199.028 222.185 198.753C220.658 200.332 218.852 200.65 216.827 199.577ZM219.769 198.038C218.97 198.269 218.365 198.007 218.157 196.804C220.765 196.07 223.366 195.342 225.965 194.611C226.092 194.893 226.219 195.177 226.343 195.46C224.764 197.683 222.045 197.381 219.77 198.04L219.769 198.038Z" fill="#D0B48C"/>
<path d="M161.804 113.503C161.717 113.455 161.633 113.406 161.545 113.355C161.618 113.427 161.692 113.501 161.767 113.572L161.806 113.502L161.804 113.503Z" fill="#D0B48C"/>
<path d="M249.379 140.493C249.132 139.577 248.631 138.275 247.927 138.016C245.468 137.115 245.162 134.891 244.359 132.983C241.783 132.856 241.255 130.848 240.622 129.032C237.876 128.988 237.441 128.56 236.354 124.925C236.164 125.569 235.975 126.207 235.792 126.83C233.326 126.359 233.364 126.359 233.339 124.206C233.331 123.454 233.089 122.705 232.954 121.952C230.517 122.542 229.328 121.708 228.462 118.874C228.139 119.262 227.819 119.648 227.383 120.172C226.207 119.299 225.157 118.522 224.114 117.749C223.525 120.467 225.626 122.993 224.814 126.096C220.37 122.388 220.771 117.412 219.826 112.774C219.821 115.455 219.815 118.134 219.81 121.47C218.879 120.628 218.313 120.324 218.078 119.854C217.719 119.142 217.595 118.313 217.35 117.537C217.323 117.45 217.163 117.406 217.049 117.333C216.961 118.07 216.877 118.766 216.789 119.503C215.561 119.048 214.627 117.957 213.989 116.232C213.808 116.828 213.625 117.431 213.43 118.068C212.188 117.417 211.15 115.4 210.316 112.015C210.29 113.9 210.271 115.182 210.251 116.562C206.855 116.243 207.386 113.355 206.512 110.943C206.345 112.304 206.241 113.156 206.137 113.999C204.447 114.307 204.398 113.087 204.266 112.201C203.968 110.202 203.822 108.179 203.614 106.166C203.457 106.167 203.3 106.169 203.144 106.17C203.045 108.445 202.946 110.72 202.832 113.381C201.895 112.198 201.243 111.276 200.491 110.444C198.689 108.45 197.339 106.304 197.551 103.452C197.592 102.925 197.3 102.372 197.008 101.236C196.72 102.713 196.562 103.537 196.338 104.687C195.03 103.093 193.374 102.124 193.946 100.442C193.095 99.9362 192.424 99.6774 191.932 99.2229C190.021 97.4535 188.305 95.4488 186.265 93.8502C183.217 91.4653 179.972 89.3273 176.778 87.1354C176.098 86.6688 175.267 86.4174 174.506 86.0686C174.463 86.2455 174.422 86.4193 174.38 86.5962C176.404 88.085 178.335 89.7304 180.475 91.0333C186.306 94.5815 190.726 99.4498 194.607 104.993C197.863 109.641 201.451 114.07 205.078 118.442C208.064 122.039 211.877 124.724 216.254 126.299C220.23 127.728 224.405 128.589 228.467 129.79C229.754 130.17 231.02 130.721 232.185 131.387C235.317 133.179 238.432 135.008 241.463 136.961C242.956 137.923 244.35 139.093 245.61 140.348C247.768 142.497 249.771 144.804 251.877 147.008C252.171 147.316 252.675 147.422 253.082 147.62C253.109 146.776 252.894 146.21 252.54 145.752C251.281 144.12 249.935 142.575 249.371 140.492L249.379 140.493ZM211.013 120.407C209.603 120.453 209.442 119.226 208.942 118.413C209.821 118.802 211.227 118.688 211.013 120.407ZM214.862 122.209C213.842 121.98 213.112 121.183 212.674 119.819C214.482 119.85 214.675 121.011 214.862 122.209ZM216.401 121.425C216.852 121.943 217.304 122.457 217.754 122.975C216.487 123.17 216.084 122.612 216.401 121.425ZM221.038 124.324C220.226 124.105 219.702 123.503 219.465 122.517C220.698 122.542 220.847 123.382 221.038 124.324ZM228.137 124.716C225.844 124.297 225.806 122.696 225.632 121.095C228.247 121.397 228.405 121.618 228.137 124.716ZM231.744 125.383C230.246 125.153 229.751 124.215 229.698 122.807C231.368 123.1 232.05 123.959 231.744 125.383Z" fill="#D0B48C"/>
<path d="M249.381 158.629C248.46 157.267 247.543 155.892 246.514 154.614C246.154 154.168 245.464 153.992 244.743 153.588C244.692 155.117 246.573 155.955 245.327 157.428C243.692 156.381 243.384 154.787 243.492 153.472C242.651 153.055 241.923 152.899 241.539 152.45C241.055 151.881 240.998 150.61 240.501 150.451C238.561 149.833 238.567 148.214 238.228 146.145C237.98 147.15 237.888 147.582 237.764 148.006C237.623 148.488 237.455 148.963 237.274 149.507C236.01 148.501 235.289 147.108 235.112 145.328C234.735 145.673 234.381 145.998 234.069 146.286C232.092 145.43 231.701 143.816 231.826 141.644C231.268 142.404 230.971 142.807 230.692 143.185C228.58 142.812 228.186 141.351 228.225 139.589C228.229 139.394 228.122 139.198 227.969 138.656C227.656 139.674 227.45 140.347 227.313 140.789C224.612 141.16 225.335 138.918 224.571 137.902C223.045 139.905 222.458 139.817 220.927 137.485C219.139 138.263 218.059 137.988 217.783 136.609C217.662 136.002 217.774 135.349 217.75 134.719C217.746 134.651 217.539 134.592 217.396 134.513C217.127 135.266 216.863 135.996 216.598 136.734C213.919 136.563 215.026 134.261 214.254 132.79C213.804 133.768 213.46 134.522 213.005 135.512C212.455 134.947 211.957 134.644 211.79 134.211C211.568 133.64 211.631 132.968 211.527 132.344C211.457 131.913 211.312 131.495 211.063 130.535C210.786 132.026 210.623 132.891 210.415 134.011C207.494 133.017 208.426 130.378 207.414 128.335C207.115 129.523 206.898 130.381 206.597 131.582C203.278 129.644 203.335 126.36 202.5 122.923C202.203 124.437 202.044 125.264 201.782 126.602C199.783 123.791 199.737 120.9 199.051 117.909C198.806 119.32 198.614 120.421 198.424 121.521C196.679 119.407 195.541 117.159 195.153 114.533C194.716 114.889 194.336 115.199 193.71 115.709C193.23 114.875 192.753 114.245 192.483 113.536C192.101 112.526 191.882 111.456 191.562 110.422C191.528 110.314 191.294 110.27 191.149 110.191C190.986 110.685 190.823 111.176 190.618 111.795C188.669 110.719 187.619 109.109 186.774 107.396C185.706 107.011 184.668 106.564 183.888 105.838C182.705 104.736 181.747 103.398 180.597 102.257C180.275 101.937 179.62 101.956 178.771 101.725C180.666 103.802 182.21 105.531 183.798 107.218C184.665 108.136 185.498 109.157 186.545 109.822C189.835 111.919 192.128 115.012 194.169 118.113C196.646 121.877 199.261 125.519 201.984 129.092C203.62 131.237 205.399 133.291 207.292 135.215C211.702 139.7 217.327 141.781 223.345 143.018C224.132 143.179 224.919 143.417 225.653 143.741C228.261 144.892 230.319 146.767 232.313 148.769C236.709 153.187 239.709 158.526 242.58 163.968C243.718 166.125 244.887 168.239 245.02 170.769C245.064 171.603 245.438 172.419 245.644 173.18C246.799 172.609 247.693 172.165 248.662 171.688C248.448 169.244 249.698 167.377 250.979 165.003C251.545 166.403 251.9 167.281 252.258 168.171C253.31 167.831 253.502 167.23 253.134 166.437C252.758 165.624 252.201 164.873 251.947 164.029C251.65 163.042 251.942 161.452 251.359 161.073C250.343 160.411 249.972 159.501 249.384 158.636L249.381 158.629ZM246.626 157.978C247.688 158.914 247.882 160.152 247.206 161.69C246.257 160.53 245.402 159.442 246.626 157.978ZM248.893 166.213C247.594 164.312 247.968 162.643 248.722 160.877C250.539 163.105 250.553 163.475 248.893 166.213Z" fill="#D0B48C"/>
<path d="M111.762 159.297C112.368 153.653 112.571 147.943 112.564 142.262C112.552 133.958 112.111 125.657 110.798 117.441C110.597 116.183 109.846 115.013 109.346 113.803C109.124 115.481 110.312 116.899 109.604 118.664C108.94 118.289 108.493 118.037 107.843 117.67C109.25 120.876 111.169 123.751 110.151 127.575C109.618 126.729 109.231 126.121 108.846 125.51C109.414 129.006 111.928 131.989 110.961 135.965C110.422 135.56 110.073 135.296 109.584 134.927C110.819 138.904 111.245 141.719 110.864 143.371C110.195 142.302 109.642 141.42 109.088 140.537C109.559 143.71 111.575 146.473 110.828 150.227C109.928 149.041 109.324 148.242 108.555 147.229C109.599 150.832 111.29 154.058 110.26 158.103C109.562 157.378 109.163 156.963 108.424 156.198C109.026 157.725 109.486 158.711 109.798 159.743C110.079 160.672 110.329 161.647 110.363 162.61C110.452 165.218 110.419 167.83 110.432 170.44C110.435 171.212 110.434 171.986 110.435 172.7C110.138 172.776 110.04 172.833 109.971 172.809C109.647 172.702 109.334 172.573 109.057 172.467C109.145 174.616 111.505 176.004 111.183 178.621C110.549 178.147 110.103 177.813 109.66 177.481C109.961 178.955 110.431 180.36 111.342 181.363C112.892 183.071 112.652 184.841 112.251 187.081C111.116 186.036 110.22 185.211 109.324 184.387C109.173 184.517 109.022 184.65 108.869 184.781C109.902 186.076 110.753 187.595 112.013 188.613C113.713 189.987 113.458 191.629 113.539 193.435C111.146 193.134 110.455 191.042 108.924 189.935C109.555 191.249 110.207 192.567 111.186 193.561C112.025 194.41 113.241 194.888 114.486 195.649C114.544 196.801 114.609 198.098 114.69 199.692C113.437 199.294 112.609 199.031 111.781 198.768C113.503 200.94 116.499 202.165 115.417 205.777C115.087 205.708 114.685 205.734 114.431 205.552C112.911 204.458 111.428 203.314 109.649 201.977C111.36 204.595 113.042 206.74 115.964 207.831C116.041 209.069 116.12 210.376 116.216 211.923C113.026 211.689 111.204 209.627 109.046 208.166C110.571 210.337 112.37 212.208 114.887 213.118C116.326 213.638 116.89 214.515 116.869 215.938C116.858 216.554 116.877 217.17 116.885 217.799C115.583 218.415 114.725 217.628 113.817 217.09C112.876 216.533 111.948 215.949 111.015 215.378C112.574 217.629 114.678 219.071 117.264 219.988C117.258 221.192 117.255 222.331 117.249 223.594C116.523 223.512 116 223.598 115.661 223.389C114.007 222.367 112.404 221.266 110.3 219.874C112.442 222.45 114.521 224.19 117.338 225.188C117.304 225.732 117.302 226.002 117.268 226.27C117.01 228.329 116.284 228.897 114.472 228.096C113.181 227.527 112.051 226.589 110.872 225.781C110.505 225.529 110.237 225.136 109.885 224.858C109.537 224.582 109.139 224.368 108.763 224.127C110.866 226.696 113.042 229.094 116.205 230.066C116.396 231.273 115.93 231.891 114.89 231.502C113.642 231.034 112.456 230.361 111.313 229.662C110.478 229.15 109.756 228.45 108.982 227.833C108.858 227.993 108.737 228.153 108.613 228.314C110.474 229.909 112.332 231.504 114.513 233.374C110.777 234.839 109.424 231.716 107.115 230.636C108.345 232.093 109.577 233.547 110.876 235.086C109.135 235.982 108.329 234.029 107.045 234.259C107.266 234.925 107.774 235.631 107.625 236.15C107.178 237.727 107.93 238.096 109.229 238.166C110.22 238.219 111.218 238.398 112.2 238.334C112.972 238.284 113.943 238.18 114.449 237.7C116.906 235.377 119.125 232.749 119.417 229.243C119.844 224.116 119.946 218.956 118.927 213.861C118.432 211.391 117.673 208.965 117.275 206.482C115.909 197.931 114.719 189.353 113.324 180.809C112.16 173.68 110.974 166.607 111.76 159.3L111.762 159.297Z" fill="#D0B48C"/>
<path d="M120.539 138.668C120.398 140.15 119.995 141.664 120.172 143.109C120.474 145.605 121.136 148.054 121.642 150.525C121.857 151.578 122.24 152.636 122.232 153.686C122.165 161.088 121.095 168.395 119.757 175.648C119.26 178.344 119.523 180.866 120.295 183.363C121.03 185.737 124.175 187.812 126.331 187.628C128.68 187.427 130.879 185.137 131.364 182.309C131.516 181.429 131.616 180.517 131.576 179.628C131.416 176.036 131.07 172.449 131.016 168.858C130.892 160.821 128.275 153.265 126.575 145.542C125.618 141.198 124.654 136.908 125.038 132.45C125.294 129.495 125.762 126.56 126.134 123.618C126.363 121.801 126.348 120.012 125.478 118.317C125.212 119.009 125.136 119.692 125.072 120.378C124.865 122.617 124.656 124.854 124.463 127.093C124.184 130.32 123.787 133.546 123.699 136.778C123.649 138.616 122.918 139.767 121.317 140.898C121.286 139.992 121.264 139.385 121.243 138.777C121.009 138.739 120.775 138.702 120.541 138.665L120.539 138.668ZM124.929 183.973C125.303 182.92 126.36 181.647 128.1 180.154C128.275 182.084 127.804 182.65 124.929 183.973ZM124.279 181.068C125.612 179.38 126.945 177.691 128.276 176.006C128.148 175.893 128.021 175.776 127.893 175.662C126.298 177.123 124.706 178.581 123.111 180.042C124.112 177.298 126.452 175.837 128.52 173.695C129.731 177.933 127.319 179.701 124.278 181.071L124.279 181.068ZM122.68 177.039C123.411 173.937 126.186 172.906 128.459 171.355C127.443 174.203 124.807 175.345 122.68 177.039ZM127.382 170.929C125.93 171.8 124.491 172.69 123.046 173.575C123.667 170.891 125.868 169.702 127.813 167.992C128.731 169.389 128.539 170.24 127.382 170.929ZM126.476 167.725C125.671 168.288 124.932 168.952 124.163 169.565C123.304 170.251 122.703 170.028 122.332 169.058C124.191 167.161 125.897 165.42 127.698 163.582C128.339 166.445 128.326 166.427 126.476 167.725ZM126.603 163.437C125.349 164.532 124.147 165.685 122.709 166.643C122.735 163.468 124.57 161.405 127.009 159.213C127.993 161.076 127.888 162.315 126.603 163.437ZM124.136 160.128C124.99 158.846 125.601 157.93 126.213 157.013C126.501 158.23 125.808 159.268 124.136 160.128ZM123.87 158.319C123.254 156.542 123.581 155.802 126.208 152.786C127.213 155.647 124.91 156.557 123.87 158.319ZM123.944 153.531C122.845 151.836 123.231 150.752 125.509 149.137C126.146 150.453 125.624 151.917 123.944 153.531ZM123.015 149.534C121.322 146.925 121.515 145.635 123.967 143.236C125.986 146.403 125.816 147.529 123.015 149.534ZM123.401 140.186C124.131 142.002 123.58 142.812 121.085 143.399C121.959 142.187 122.644 141.236 123.401 140.186Z" fill="#D0B48C"/>
<path d="M163.742 96.5769C164.042 98.7022 165.281 100.205 166.507 101.67C169.125 104.797 171.344 108.167 173.229 111.786C174.267 113.777 175.51 115.668 176.739 117.551C178.802 120.713 181.559 123.39 183.221 126.845C183.603 127.641 184.128 128.541 184.842 128.966C186.716 130.085 187.394 131.632 186.88 133.995C187.724 133.632 188.238 133.41 188.805 133.167C190.525 135.268 189.17 137.602 189.711 139.775C190.135 138.553 190.561 137.329 191.007 136.044C193.17 137.815 193.265 139.481 191.533 142.408C190.982 142.165 190.428 141.924 189.643 141.582C189.842 142.178 189.91 142.436 190.012 142.679C192.035 147.389 195.566 151.08 198.516 155.16C199.003 155.833 199.919 156.295 200.733 156.613C203.02 157.511 204.603 156.336 204.528 153.842C204.403 149.534 202.835 145.724 200.205 142.387C197.919 139.487 195.493 136.698 193.044 133.933C191.201 131.851 189.315 129.79 187.29 127.889C182.92 123.787 178.897 119.352 175.984 114.141C172.712 108.285 168.967 102.8 164.851 97.539C164.555 97.1606 164.115 96.8939 163.742 96.5769ZM201.32 153.303C200.476 153.158 199.841 153.047 198.791 152.868C199.568 151.733 200.099 150.957 201.018 149.619C201.145 151.187 201.223 152.117 201.32 153.303ZM199.375 145.937C200.115 147.957 199.522 149.81 198.35 151.751C197.018 151.093 196.545 150.303 197.216 148.976C197.731 147.959 198.148 146.894 198.607 145.848C198.864 145.877 199.119 145.908 199.375 145.937ZM197.024 142.48C198.101 144.755 197.159 146.833 196.144 149.394C195.302 148.422 194.755 147.791 194.258 147.217C195.002 145.503 195.67 143.968 196.336 142.432C196.567 142.447 196.795 142.464 197.026 142.479L197.024 142.48ZM193.799 145.716C191.961 143.845 192.219 141.774 194.659 139.356C195.32 141.713 195.267 143.761 193.799 145.716Z" fill="#D0B48C"/>
<path d="M106.617 89.039C108.453 89.9746 109.284 91.7987 109.074 93.6548C109.021 94.1325 108.916 94.6285 108.994 95.0922C109.213 96.4016 109.501 97.6993 109.79 98.9961C109.887 99.4367 110.069 99.8584 110.215 100.29C110.306 100.274 110.398 100.258 110.489 100.242C110.45 99.1562 110.413 98.07 110.348 96.273C111.736 97.3138 112.584 97.9165 113.397 98.5646C114.224 99.2247 115.016 99.9302 115.822 100.614C114.7 98.8889 113.369 97.418 111.857 96.1589C110.376 94.9259 109.979 93.5151 110.357 91.3494C111.898 92.4704 113.159 93.3869 114.419 94.3035C113.362 93.1169 113.422 91.8421 113.635 90.3641C113.87 88.7354 113.771 87.0966 112.969 85.4564C112.167 83.8139 111.912 81.9026 111.335 79.8137C112.26 80.0813 112.722 80.2156 113.185 80.3489C112.461 79.0285 111.599 77.8406 110.449 77.1016C108.686 75.969 108.252 74.4135 108.192 72.3796C110.72 72.8693 112.552 73.7831 112.744 76.6071C112.798 77.4231 113.246 78.2101 113.703 79.5763C114.869 75.8272 111.787 73.8355 111.808 70.9441C111.824 68.5418 109.777 64.1354 108.669 63.2195C108.838 64.544 108.991 65.7535 109.194 67.3353C107.181 66.4658 105.93 65.4008 105.057 63.8566C104.257 62.443 103.463 61.0213 102.582 59.6558C102.245 59.1334 101.672 58.7604 101.209 58.32C101.008 58.455 100.808 58.5921 100.607 58.7271C101.129 59.9484 101.649 61.1706 102.258 62.5966C99.2105 62.9631 99.3302 59.2585 96.8065 59.1771C98.3813 61.3882 99.9593 63.6007 101.647 65.9702C101.936 65.2842 102.122 64.8378 102.314 64.3843C104.422 65.4709 105.289 67.0306 105.056 69.2489C104.171 69.0167 103.292 68.785 102.363 68.5418C102.267 70.0401 103.343 69.9067 104.01 70.1877C106.632 71.297 106.639 71.2814 106.636 74.4158C104.499 74.4187 103.281 73.3896 102.396 71.4065C100.361 66.8455 97.0652 63.0855 94.0901 59.1294C93.9779 58.9786 93.6278 59.0058 93.4025 58.952C92.6098 59.9308 93.3115 60.528 93.8576 61.0847C97.8103 65.1377 100.223 70.2405 103.311 74.9659C105.413 75.0568 107.075 75.9052 107.586 77.4917C108.777 77.9153 110.041 78.0441 110.143 78.4571C110.486 79.856 110.419 81.3578 110.53 83.1468C109.523 82.5483 108.855 82.1181 108.158 81.7434C107.47 81.3727 107.151 80.1551 105.974 80.7054C107.501 83.9518 107.864 85.5776 107.591 88.003C105.117 87.8474 106.261 85.1002 104.579 84.0848C104.909 86.1879 105.219 88.108 105.511 90.033C105.807 91.9949 106.17 93.9504 106.35 95.9232C106.526 97.8893 106.381 99.8893 106.614 101.846C106.831 103.662 105.625 105.59 106.965 107.313C107.983 101.288 107.652 95.2758 106.623 89.0417L106.617 89.039ZM106.887 67.9973C109.061 68.3636 109.987 69.3194 110.363 71.5841C107.941 71.0183 107.784 70.8573 106.887 67.9973ZM108.451 83.9154C112.319 85.3131 112.233 88.1842 112.548 91.1546C108.872 90.0045 109.407 86.8394 108.451 83.9154Z" fill="#D0B48C"/>
<path d="M161.289 95.2176C161.42 95.0672 161.551 94.919 161.682 94.7708C161.435 94.4447 161.242 94.0479 160.93 93.8045C155.398 89.497 150.482 84.3692 144.073 81.2237C142.868 80.6327 141.788 79.7802 140.687 78.998C139.821 78.3841 139.011 77.6911 138.177 77.0337C138.023 77.2348 137.87 77.4359 137.716 77.637C138.754 78.4162 139.746 79.268 140.838 79.9636C146.088 83.3066 151.304 86.6585 155.698 91.1737C157.276 92.7979 159.41 93.8844 161.289 95.2176Z" fill="#D0B48C"/>
<path d="M213.32 164.895C214.212 163.348 215.268 161.838 215.82 160.164C216.962 156.688 216.436 152.954 214.884 151.737C214.91 154.001 215.295 156.298 214.864 158.434C214.42 160.634 213.18 162.672 212.206 164.977C212.705 164.949 213.235 165.048 213.322 164.894L213.32 164.895Z" fill="#D0B48C"/>
<path d="M210.849 152.567C210.823 152.926 210.754 153.294 210.804 153.643C211.339 157.404 209.969 160.307 206.924 162.508C206.69 162.677 206.718 163.209 206.587 163.724C211.808 161.65 213.115 155.883 211.008 151.212C210.908 152.041 210.867 152.305 210.849 152.567Z" fill="#D0B48C"/>
<path d="M218.727 153.644C218.501 155.558 218.446 157.514 217.997 159.373C217.541 161.271 216.695 163.073 215.913 165.208C218.951 163.528 220.647 156.894 218.727 153.644Z" fill="#D0B48C"/>
<path d="M125.738 116.577C126.233 112.562 126.769 108.558 124.535 104.81C124.712 106.111 124.953 107.409 125.048 108.714C125.149 110.141 125.028 111.584 125.16 113.004C125.273 114.194 124.702 115.527 125.738 116.577Z" fill="#D0B48C"/>
<path d="M208.266 209.78C209.869 214.151 216.082 216.316 219.485 214.024C214.979 214.964 211.85 212.311 208.266 209.78Z" fill="#D0B48C"/>
<path d="M157.73 77.5214C154.706 76.5941 151.746 75.688 148.787 74.781C148.733 74.986 148.675 75.1895 148.621 75.3944C151.949 78.0406 155.568 78.9091 157.73 77.5214Z" fill="#D0B48C"/>
<path d="M226.787 156.83C226.872 160.664 226.927 164.247 224.744 167.412C227.636 166.004 228.933 159.328 226.787 156.83Z" fill="#D0B48C"/>
<path d="M222.058 155.576C222.065 157.518 222.28 159.182 222.022 160.766C221.758 162.381 221.027 163.917 220.5 165.486C223.421 162.612 224.083 158.313 222.06 155.575L222.058 155.576Z" fill="#D0B48C"/>
<path d="M141.466 242.394C141.284 242.258 140.856 242.456 140.43 242.512C143.652 246.397 146.188 247.381 149.623 246.194C147.016 245.768 144.297 244.502 141.468 242.394L141.466 242.394Z" fill="#D0B48C"/>
<path d="M230.065 164.197C229.683 165.493 229.058 166.714 228.539 167.969C231.143 166.636 232.005 163.051 230.816 160.099C230.55 161.619 230.433 162.945 230.065 164.197Z" fill="#D0B48C"/>
<path d="M128.344 242.947C126.015 244.51 123.693 246.065 121.366 247.628C124.011 247.933 127.558 245.553 128.344 242.947Z" fill="#D0B48C"/>
<path d="M117.979 72.0165C117.776 72.1008 117.571 72.1882 117.368 72.2725C118.881 75.024 120.392 77.7742 121.905 80.5257C121.859 77.0554 119.791 74.599 117.979 72.0165Z" fill="#D0B48C"/>
<path d="M122.483 239.261C120.753 242.014 118.479 243.388 115.808 244.279C119.307 244.349 121.725 242.583 122.483 239.261Z" fill="#D0B48C"/>
<path d="M117.709 49.5208C117.505 49.4945 117.302 49.4682 117.098 49.4419C116.04 51.5199 115.557 53.6791 116.937 55.9763C117.194 53.8255 117.452 51.6716 117.709 49.5208Z" fill="#D0B48C"/>
<path d="M252.409 157.673C251.98 154.702 250.305 152.299 247.779 151.262C249.232 153.272 250.682 155.283 252.409 157.673Z" fill="#D0B48C"/>
<path d="M146.232 249.809C144.139 249.044 141.997 248.263 139.385 247.307C141.601 249.528 143.633 250.663 146.232 249.809Z" fill="#D0B48C"/>
<path d="M112.271 102.904C113.909 104.453 115.547 105.999 117.187 107.547C116.267 105.269 114.459 103.891 112.271 102.904Z" fill="#D0B48C"/>
<path d="M121.27 256.883C122.782 257.634 124.27 258.508 126.092 257.544C124.455 257.487 123.09 255.932 121.27 256.883Z" fill="#D0B48C"/>
<path d="M115.175 84.5954C115.813 86.5101 116.295 87.9536 116.886 89.7248C117.049 87.153 116.849 86.5216 115.175 84.5954Z" fill="#D0B48C"/>
<path d="M200.521 103.659C200.016 106.797 200.059 107.051 201.485 108.736C201.163 107.045 200.843 105.351 200.521 103.659Z" fill="#D0B48C"/>
<path d="M118.78 120.874C117.607 118.323 117.174 117.868 115.149 116.854C116.284 118.11 117.353 119.294 118.78 120.874Z" fill="#D0B48C"/>
<path d="M161.804 113.504L161.764 113.575C161.792 113.577 161.817 113.581 161.845 113.585C161.834 113.558 161.818 113.532 161.805 113.506L161.804 113.504Z" fill="#D0B48C"/>
<path d="M164.466 115.605C163.862 114.572 163.125 113.713 161.839 113.58C162.381 114.677 163.312 115.283 164.466 115.605Z" fill="#D0B48C"/>
<path d="M234.839 170.498C234.853 169.559 234.864 168.943 234.875 168.33C234.489 169.016 234.477 169.739 234.839 170.498Z" fill="#D0B48C"/>
<path d="M73.9272 199.919C73.8108 199.95 73.6932 199.984 73.5768 200.016C73.7458 200.616 73.917 201.215 74.086 201.815C74.1997 201.79 74.3134 201.765 74.4271 201.739C74.2607 201.133 74.0944 200.527 73.925 199.92L73.9272 199.919Z" fill="#D0B48C"/>
<path d="M197.067 244.928C197.304 244.953 197.543 244.978 197.781 245.004C197.791 244.458 197.802 243.915 197.812 243.369C197.633 243.361 197.455 243.353 197.276 243.345C197.205 243.874 197.136 244.402 197.065 244.931L197.067 244.928Z" fill="#D0B48C"/>
<path d="M90.8845 194.036C90.3787 193.669 89.8752 193.302 89.3694 192.935C89.2728 193.067 89.1793 193.2 89.0826 193.332C89.5835 193.705 90.0813 194.078 90.5823 194.451C90.6838 194.313 90.783 194.175 90.8845 194.036Z" fill="#D0B48C"/>
<path d="M114.26 109.994C114.593 110.407 114.927 110.819 115.26 111.232C115.363 111.147 115.465 111.062 115.57 110.976C115.221 110.575 114.874 110.175 114.525 109.774L114.261 109.991L114.26 109.994Z" fill="#D0B48C"/>
<path d="M127.719 63.9827C127.636 63.9104 127.553 63.8381 127.467 63.7667C127.224 64.0346 126.981 64.3025 126.738 64.5704C126.829 64.6498 126.921 64.7291 127.011 64.8116C127.248 64.5357 127.483 64.2608 127.72 63.9849L127.719 63.9827Z" fill="#D0B48C"/>
<path d="M138.65 102.128C138.736 102.093 138.82 102.057 138.906 102.02C138.713 101.553 138.518 101.087 138.324 100.619C138.237 100.659 138.148 100.7 138.06 100.738C138.256 101.2 138.453 101.663 138.651 102.125L138.65 102.128Z" fill="#D0B48C"/>
<path d="M93.681 142.735C93.3393 142.424 92.9975 142.113 92.6567 141.804C92.5733 141.891 92.4921 141.978 92.4088 142.066C92.7483 142.404 93.0879 142.742 93.4266 143.077C93.5121 142.963 93.5955 142.85 93.681 142.735Z" fill="#D0B48C"/>
<path d="M162.45 195.831C161.404 196.12 160.596 196.344 159.789 196.568C160.959 196.879 161.846 196.633 162.45 195.831Z" fill="#D0B48C"/>
<path d="M170.221 219.799C171.236 219.386 171.865 219.133 172.487 218.88C171.713 218.666 170.966 218.566 170.221 219.799Z" fill="#D0B48C"/>
<path d="M172.513 218.868C172.513 218.868 172.496 218.875 172.486 218.879C172.509 218.887 172.533 218.891 172.556 218.899C172.563 218.901 172.513 218.868 172.513 218.868Z" fill="#D0B48C"/>
</svg>
