<svg width="305" height="320" viewBox="0 0 305 320" fill="none" xmlns="http://www.w3.org/2000/svg">
<path d="M154.076 89.0821C151.349 89.1987 141.565 90.9182 138.761 91.0381C134.965 93.5421 128.011 95.206 120.999 95.5059C114.014 105.562 104.831 109.857 97.3009 111.741C92.1968 120.155 76.7795 138.377 72.4662 142.467C71.5087 145.63 67.8666 152.029 66.1652 154.833C65.859 156.797 64.7476 161.84 62.7522 166.295C60.3942 171.56 58.4557 174.369 52.3398 175.242M308.947 0.626766C298.851 9.29442 277.019 27.9868 270.457 33.4148C262.253 40.1999 248.032 44.6687 236.51 46.0622C224.987 47.4558 216.348 47.0531 195.038 45.262C177.99 43.8291 161.436 41.8075 155.289 40.9758C153.441 40.3425 148.709 38.7402 144.566 37.3972C139.387 35.7183 134.999 38.6382 131.372 42.7127C127.746 46.7871 120.143 55.0683 112.628 62.6345C105.112 70.2008 81.6103 89.9724 78.4126 92.9596C75.2148 95.9468 71.6746 102.037 64.3323 111.971C56.99 121.905 50.3918 132.045 49.5223 135.289C48.6529 138.533 48.6047 145.78 48.8886 152.419C46.5138 163.542 47.7002 173.959 48.5902 177.777C49.1853 177.373 50.5475 176.326 51.2365 175.374C51.6188 175.337 51.9863 175.293 52.3398 175.242M147.229 67.5984C148.95 72.9354 152.809 84.9608 154.474 90.3662C156.138 95.7715 158.194 101.95 159.014 104.364M164.64 89.2722C164.132 89.9532 163.453 95.036 162.845 97.5706C162.236 100.105 161.965 104.186 156.662 108.023C153.872 110.041 150.669 112.814 145.971 116.391M312.199 93.4825C308.338 95.0912 299.296 99.4767 294.019 104.149C287.423 109.988 283.97 115.228 273.584 121.377C263.198 127.526 244.892 129.323 229.579 129.978C210.787 135.219 191.444 133.51 184.521 134.694C177.599 135.877 168.001 139.711 160.707 143.953C153.413 148.195 138.415 159.359 131.866 163.34C125.317 167.321 115.12 174.932 109.38 177.081C104.788 178.801 103.123 178.998 102.864 178.881C101.981 179.215 99.7953 179.418 98.1173 177.563C96.0197 175.244 94.1044 172.664 92.8248 169.422C91.5452 166.181 91.8382 164.14 93.6553 162.16C93.9148 159.336 94.4749 154.645 99.5734 149.356C104.672 144.067 113.135 137.683 128.85 128.052C136.296 123.488 141.74 119.613 145.971 116.391M122.62 96.3976C122.051 95.4507 125.006 100.365 127.733 101.949C129.432 106.432 135.453 108.882 140.659 109.887C141.955 111.786 144.74 115.014 145.971 116.391M123.617 99.2481C111.01 110.137 100.276 118.345 94.0082 123.031C92.4262 127.869 89.0972 136.386 86.0246 143.098M100.823 147.016C102.628 142.644 106.853 132.995 109.312 129.38C116.755 124.393 124.389 117.314 129.03 112.29C131.798 110.647 133.637 109.401 134.21 108.983M93.6842 161.853C97.3123 158.952 106.81 151.412 111.619 153.583C116.981 156.003 119.715 162.33 119.002 165.526C117.948 170.247 110.578 175.259 104.581 178.649M49.8685 153.117C50.5993 153.194 51.6143 153.919 51.8824 156.137C52.2815 159.438 52.6316 165.404 52.4457 169.308C52.3757 170.778 52.4013 173.877 52.3398 175.242M138.205 78.0431C141.65 82.2661 147.66 86.8454 152.169 89.1636" stroke="#D0B48C" stroke-linecap="round" stroke-linejoin="round"/>
<path d="M170.386 242.958C169.13 238.613 168.556 234.095 166.687 229.871C165.317 226.743 163.948 223.662 161.975 220.893C159.798 217.8 156.64 215.699 153.893 213.177C153.101 212.45 152.283 211.677 151.333 211.147C149.236 209.952 147.208 208.683 145.199 207.295C139.368 203.288 135.105 198.143 132.587 191.521C131.944 189.836 131.014 188.116 129.793 186.813C126.553 183.337 121.083 179.718 118.713 177.941C116.343 176.164 114.911 174.498 114.911 174.498L113.007 175.492C113.007 175.492 114.643 177.278 117.272 179.287C119.902 181.295 125.85 185.246 129.14 189.338C130.296 190.787 130.901 192.687 131.733 194.363C134.419 199.885 138.047 204.652 143.029 208.268C144.894 209.615 147.006 210.618 148.871 211.965C151.547 213.943 154.11 216.045 156.697 218.146C162.288 222.663 165.03 228.943 167.073 235.562C168.037 238.636 168.627 241.868 169.192 245.078C169.657 247.603 169.744 250.191 169.331 252.777C168.699 256.894 167.896 260.924 166.206 264.777C165.576 266.183 165.335 267.763 164.899 269.256C163.66 273.637 161.471 277.512 158.626 281.034C158.469 281.255 158.261 281.407 157.827 281.829C158.259 279.694 158.608 277.848 159.03 276.023C159.25 275.062 159.322 275.083 158.244 273.774C158.081 276.087 156.52 277.391 155.092 279.045C154.956 278.647 154.829 278.438 154.796 278.225C154.737 277.966 154.773 277.703 154.757 277.323C154.502 277.477 154.291 277.534 154.225 277.679C154.092 277.899 154.033 278.187 153.997 278.45C153.642 281.271 152.181 283.26 149.621 284.558C148.992 284.871 148.651 285.789 148.203 286.426C148.478 286.747 148.968 287.083 148.955 287.345C148.632 290.902 147.535 293.613 143.564 294.734C144.596 293.833 145.628 292.957 146.661 292.081C146.23 291.457 145.85 290.926 145.342 290.163C145.222 290.691 145.117 291.005 145.061 291.364C144.931 292.226 144.554 292.86 143.764 293.298C142.649 293.917 141.61 294.651 140.499 295.364C140.071 293.123 140.431 292.085 141.959 291.116C142.675 290.634 143.368 290.152 143.96 289.533C142.662 289.208 141.94 290.689 140.914 290.59C139.457 290.439 139.521 292.505 137.983 292.119C137.749 291.653 137.439 291.096 136.946 290.118C136.788 290.886 136.59 291.251 136.674 291.556C136.981 292.613 136.534 293.275 135.648 293.693C133.458 294.762 131.244 295.807 129.006 296.854C126.099 295.053 123.291 293.342 120.36 291.541C120.447 291.894 120.441 292.322 120.663 292.503C122.001 293.753 123.383 294.931 125.214 295.495C126.082 295.767 126.889 296.279 128.176 296.914C126.654 297.454 125.622 297.808 124.451 298.214C124.195 297.25 123.994 296.427 123.764 295.509C123.291 296.124 123.017 296.944 122.967 297.993C121.254 296.853 119.663 295.803 118.049 294.755C117.934 294.855 117.818 294.931 117.704 295.031C117.884 295.356 117.975 295.804 118.244 295.983C119.398 296.837 120.552 297.692 121.817 298.351C122.936 298.945 123.299 299.643 122.669 301.025C120.971 300.266 119.251 299.507 117.529 298.724C117.465 298.894 117.378 299.088 117.29 299.258C118.643 300.865 120.904 300.911 122.545 302.029C122.748 303.995 122.659 304.141 120.95 304.761C120.746 303.89 120.542 303.019 120.338 302.148L119.935 302.165C119.811 303.169 119.664 304.174 119.498 305.299C115.87 306.643 112.121 307.398 107.903 307.745C109.55 309.006 111.115 308.344 112.702 308.752C111.876 310 111.359 311.259 109.687 311.64C105.306 312.635 100.95 313.654 96.4649 313.87C95.7291 313.901 94.9892 313.838 94.2553 313.917C92.4317 314.09 90.8871 313.561 89.6641 312.21C89.3898 311.913 89.2539 311.515 89.0488 311.167C88.8887 311.316 88.7049 311.467 88.5438 311.593C88.8323 312.222 89.1219 312.876 89.4629 313.622C86.1201 313.86 85.0013 311.054 83.0059 308.881C83.1366 310.825 84.205 311.897 85.0184 313.123C82.3707 314.044 80.0262 313.717 77.9768 311.949C79.1308 311.686 80.0979 311.502 81.0878 311.293L81.0685 310.842C80.1624 310.786 79.2553 310.706 78.3523 310.72C77.1407 310.748 75.9983 310.726 75.4444 308.895C74.8336 310.181 74.0953 310.712 73.0998 310.232C72.2992 309.862 71.5627 309.322 70.6343 308.744C70.5268 309.01 70.3748 309.349 70.1805 309.81C69.033 309.668 68.9141 308.556 68.4781 307.813C68.375 307.628 68.7593 307.159 68.8905 306.892C68.3111 306.132 67.6811 305.303 66.9748 304.358C66.6022 304.541 66.1593 304.75 65.577 305.036C66.1337 305.821 66.7091 306.486 67.0977 307.23C67.4604 307.928 67.6374 308.729 68.0164 309.807C65.934 309.492 64.1385 309.212 62.3193 308.933C62.0929 308.087 61.8932 307.31 61.6051 306.134C61.1391 306.915 60.8735 307.378 60.607 307.817C59.2211 307.662 58.5921 306.857 58.6292 305.5C58.6487 304.286 58.6454 303.097 58.6713 301.479C58.2674 302.043 57.9215 302.296 57.9089 302.558C57.9654 304.434 58.0466 306.333 58.1515 308.231C58.183 308.967 58.3806 309.696 58.5965 310.852C56.5322 309.846 54.8083 309.016 53.1061 308.138C51.8908 307.524 50.6993 306.909 49.5274 306.198C48.7208 305.686 47.9792 305.028 47.1922 304.419C44.8616 304.971 43.1673 303.165 41.0429 302.423C41.2013 301.679 41.3194 301.104 41.4385 300.552C42.8976 300.751 43.0887 301.884 43.1727 302.737C44.4237 302.517 45.4393 302.354 46.6913 302.158C45.0972 301.584 44.1859 300.291 42.6868 299.713C40.4881 298.904 40.2834 298.009 41.3511 295.728C43.5627 295.728 45.297 297.913 47.7155 297.192C44.7298 295.774 41.7917 294.354 38.8783 292.956C38.8061 292.936 38.6708 293.108 38.4405 293.284C39.1356 293.968 39.8544 294.65 40.6733 295.448C40.4633 296.099 40.2099 296.847 39.9576 297.619C37.8478 296.662 37.7983 296.617 37.9463 294.518C37.6014 294.794 37.3257 295.02 37.05 295.246C35.2922 294.18 35.2407 294.087 35.8519 292.253C36.124 291.386 36.4682 290.539 36.6423 289.604C36.0193 290.605 35.3725 291.608 34.6813 292.684C33.3064 291.673 31.8704 290.902 32.5634 288.756C31.9594 289.091 31.4863 289.705 30.9781 288.942C30.5709 288.318 30.1637 287.693 29.6863 287.095C29.4605 286.819 29.1417 286.595 28.7715 286.278C28.5438 287.073 28.4031 287.673 28.1154 288.732C27.437 287.881 26.9864 287.353 26.5812 286.776C25.9255 285.9 25.3854 284.949 24.6387 284.172C23.8891 283.324 23.5202 282.484 24.125 281.055C22.2849 282.513 21.9704 280.719 21.3142 280.39L21.1792 277.233L22.3898 277.182C21.9118 276.013 21.4616 274.938 20.9856 273.817C20.7679 273.731 20.2209 273.731 19.9951 273.455C19.3414 272.627 18.4761 271.856 18.637 270.612C18.6339 270.541 18.6309 270.47 18.6288 270.422C17.5917 268.968 16.5793 267.537 15.3542 266.139C15.6773 267.576 16.3791 268.973 14.989 270.388C14.8384 270.204 14.6187 270.071 14.5384 269.86C13.4833 267.432 12.4056 265.029 12.3353 262.273C12.2632 260.588 12.8205 259.161 13.96 257.448C14.3634 259.095 14.7051 260.412 15.023 261.73C15.3135 259.625 14.2954 257.505 15.8252 255.465C16.3771 257.249 16.928 259.009 17.4799 260.793C17.5273 260.791 17.5728 260.741 17.6203 260.739C17.3441 258.73 17.1154 256.718 16.769 254.735C16.4924 253.273 17.1887 252.316 18.2824 251.199C18.7848 252.937 19.2078 254.489 19.6546 256.039C19.8162 253.702 18.8395 251.437 19.2809 248.968C20.4542 249.156 20.571 250.221 21.0722 250.818C21.5981 251.438 21.8927 252.21 22.5827 252.775C22.0294 251.514 21.4513 250.231 20.8753 248.995C20.221 247.596 20.0465 246.296 21.4891 244.998C22.2798 246.248 23.0457 247.476 23.8116 248.703C23.2703 246.61 22.0002 244.714 22.4284 241.937C23.6964 243.786 24.7109 245.264 25.7243 246.719C25.8172 246.668 25.9091 246.592 26.002 246.541C25.327 245.214 24.5106 243.917 23.9749 242.513C23.4413 241.157 22.7375 239.713 23.7129 238.054C25.3404 239.411 25.6753 241.68 27.4154 242.889C26.1149 240.282 24.3002 237.886 24.4996 234.762C26.1488 236.071 26.7654 238.256 28.7636 239.384C27.0732 236.555 24.6621 234.113 25.8835 230.423C26.7257 231.766 27.5442 233.11 28.3616 234.431C28.4782 234.378 28.5949 234.326 28.7105 234.249C28.1593 233.036 27.5141 231.851 27.1032 230.585C26.6924 229.318 25.8017 227.953 27.363 226.65C27.899 227.507 28.4083 228.293 28.8938 229.081C28.9126 227.297 27.4906 225.741 28.5654 223.626C29.4971 225.393 30.2762 226.929 31.078 228.441C30.7113 225.983 29.072 223.794 30.2381 221.034C30.9181 222.479 31.623 223.947 32.3031 225.392C32.245 222.921 30.7678 220.63 31.6192 217.74C32.9897 219.204 32.5941 221.075 33.7418 222.334C33.5005 220.585 33.2623 218.907 33.0478 217.227C32.935 216.257 32.9439 215.353 34.1003 214.59C34.3935 215.886 34.6826 217.086 35.0592 218.663C35.5956 216.191 34.4269 213.887 36.3911 211.995C36.7101 213.337 37.0043 214.656 37.3233 215.998L37.5369 215.989C37.5279 214.111 37.5427 212.232 37.5574 210.352C37.7226 210.321 37.9125 210.313 38.0776 210.282C38.4861 212.049 38.8955 213.838 39.3904 215.957C39.2889 213.584 39.2036 211.59 39.1184 209.596C39.0798 208.694 39.0195 207.84 40.3543 207.355C40.5939 208.51 40.8068 209.595 41.0762 210.891C42.0425 209.019 40.4547 206.923 42.0411 205.095C42.4277 205.792 42.7358 206.326 43.043 206.836L43.3279 206.824C43.3347 205.872 43.1476 204.834 43.4434 203.965C43.7609 203.048 44.5623 202.324 45.1459 201.514C45.3131 201.531 45.4565 201.549 45.6 201.566C45.7183 202.108 45.8355 202.626 45.9538 203.168C46.0742 203.758 46.1945 204.347 46.3199 205.055C47.3068 203.11 45.9524 200.909 47.2509 199.023C48.5187 199.753 47.8923 201.231 48.8834 202.163C49.1453 201.058 48.9365 200.068 48.707 199.151C48.3375 197.74 48.8934 196.836 50.1366 195.879C50.3434 196.821 50.5193 197.599 50.6952 198.376L51.0987 198.359C51.1581 197.524 51.2176 196.689 51.2533 195.855C51.3117 194.997 51.0812 194.055 52.0765 193.418C53.0262 194.495 52.5381 195.872 53.0646 197.062C53.5724 195.589 53.3629 194.029 53.3692 192.507C53.3391 191.248 53.3154 191.249 54.4566 190.13C54.7396 191.188 54.9938 192.128 55.2809 193.281C55.9372 191.945 55.4809 190.728 55.361 189.592C55.2617 188.383 55.6277 187.488 56.7048 186.538C57.0302 187.475 57.3011 188.248 57.5699 188.974C58.3266 187.206 56.8121 185.154 58.1581 183.265C59.2123 184.005 58.7005 185.382 59.5926 186.224C59.6436 184.082 59.0321 182.015 59.8099 179.628C60.7429 180.872 60.677 182.111 61.1455 183.613C61.8843 180.871 59.8778 178.436 61.4904 176.108C62.6582 176.724 62.3994 177.9 62.8425 178.808C64.0421 176.831 61.9391 174.923 62.8129 172.555C63.3136 173.699 63.6805 174.492 64.0473 175.285C64.165 175.256 64.2836 175.251 64.4013 175.222C64.241 174.254 64.056 173.263 63.9658 172.268C63.853 171.298 63.8579 170.299 63.7959 168.851C64.4496 169.679 64.827 170.163 65.4292 170.898C64.9722 169.11 64.5997 167.628 64.1397 165.769C65.0095 166.088 65.4686 166.259 66 166.45C65.9888 166.189 66.0488 165.925 65.9736 165.833C65.0557 164.945 64.6787 163.915 64.5835 162.801L64.0703 164.702L61.9154 167.695C61.645 169.157 61.2539 170.577 60.6966 172.004C59.2171 175.777 57.5932 179.509 55.993 183.239C55.4296 184.524 54.6723 185.721 54.1574 187.027C53.6002 188.454 52.2766 189.2 51.4233 190.378C49.7405 192.733 47.9844 195.044 46.1551 197.31C43.6018 200.439 40.9257 203.478 38.2258 206.519C35.934 209.09 33.4492 211.598 31.672 214.528C29.4516 218.214 26.8908 221.724 25.3068 225.834C24.0661 229.074 23.0163 232.329 22.2079 235.669C20.5301 242.589 17.54 248.853 13.4099 254.594C12.3769 256.017 11.3944 257.51 11.1145 259.305C10.6211 262.228 10.8162 265.12 11.8163 267.931C12.8699 270.883 14.1528 273.634 16.023 276.217C17.9438 278.87 19.7478 281.575 22.0589 283.902C23.1026 284.951 23.9871 286.174 24.7778 287.424C25.7478 288.976 26.5083 290.632 27.3853 292.235C30.77 298.535 36.3752 302.266 42.5455 305.308C46.5545 307.3 50.673 309.074 54.6819 311.067C56.6256 312.03 58.4596 313.212 60.27 314.395C61.4201 315.154 62.5913 315.294 63.7609 314.84C65.6789 314.092 67.6314 314.151 69.588 314.306C71.5683 314.459 73.5062 314.733 75.4855 314.862C78.9911 315.092 82.537 315.155 86.0467 315.48C90.0578 315.856 94.0436 315.638 98.0294 315.42C99.8571 315.342 101.728 315.167 103.442 314.641C105.18 314.139 106.963 314.134 108.706 313.727C110.424 313.32 112.115 312.82 113.863 312.555C118.897 311.816 123.527 309.978 127.916 307.507C130.82 305.908 133.646 304.147 136.446 302.339C137.997 301.345 139.267 299.911 140.874 299.129C145.207 297.018 148.835 293.985 152.411 290.86C155.642 288.011 158.232 284.618 160.746 281.134C163.642 277.11 165.812 272.808 167.009 267.977C167.333 266.655 167.849 265.397 168.246 264.096C168.954 261.759 169.71 259.419 170.299 257.064C171.478 252.376 171.727 247.633 170.362 242.959L170.386 242.958ZM16.6659 273.455C16.3035 272.21 15.6613 271.096 16.457 269.683C17.8088 271.266 17.819 271.503 16.6659 273.455ZM19.7492 278.269C18.4716 276.755 17.998 275.134 18.1183 272.941C19.6641 274.611 20.7467 276.015 19.7492 278.269ZM30.5673 293.24C29.2514 291.941 28.6425 290.493 28.933 288.388C31.2445 290.167 31.4668 290.919 30.5673 293.24ZM34.1499 296.939C32.2639 296.212 31.3913 294.156 32.2121 292.219C34.136 293.278 34.751 294.869 34.1499 296.939ZM36.5943 299.047C35.7744 298.225 35.1919 297.394 35.4735 296.193C36.3958 296.629 36.7697 297.588 36.5943 299.047ZM37.8622 298.112C39.0775 298.726 39.7651 299.791 39.9002 301.283C38.0688 300.719 37.4019 299.583 37.8622 298.112ZM59.833 309.182C62.0765 309.371 61.3608 311.542 62.3372 312.689C60.3559 312.513 59.6961 311.542 59.833 309.182ZM62.7858 310.387C64.0964 310.45 65.0248 311.029 65.5492 312.172C63.7191 312.749 63.4756 312.617 62.7858 310.387ZM66.4273 311.016C67.9888 310.831 68.9803 311.216 69.4255 312.172C68.1867 312.677 67.2901 312.287 66.4273 311.016ZM73.3834 311.86C75.3848 311.394 75.5055 311.437 76.3135 313.091C75.4179 312.725 74.5451 312.334 73.3834 311.86ZM117.406 309.764C115.972 310.134 114.489 310.507 112.819 310.935C113.728 307.71 116.061 307.229 118.832 306.968C118.328 307.965 117.889 308.816 117.406 309.764ZM120.882 308.735C120.46 308.872 119.92 309.038 119.38 309.204C119.926 308.063 119.742 306.549 121.482 306.094C121.262 307.054 121.103 307.798 120.882 308.735ZM122.342 307.841C122.558 306.238 123.224 305.116 124.82 304.619C126.087 304.232 127.352 303.774 128.922 303.231C127.611 305.951 125.786 307.194 122.342 307.841ZM127.747 302.449C126.558 302.999 125.265 303.364 124.025 303.821C123.924 303.683 123.824 303.568 123.723 303.43C124.012 302.965 124.277 302.502 124.657 301.915C124.504 301.684 124.156 301.342 124.044 300.943C123.763 299.932 124.215 299.366 125.262 299.393C125.858 299.415 126.457 299.532 127.055 299.601C127.263 297.809 128.749 298.078 129.774 297.583C130.408 300.171 129.87 301.478 127.747 302.449ZM130.007 304.136C130.336 302.933 130.965 302.074 131.895 301.582C132.08 303.12 132.056 303.121 130.007 304.136ZM133.484 302.037C133.72 300.315 133.742 300.29 135.513 300.547C134.867 301.003 134.245 301.482 133.484 302.037ZM133.309 299.048C133.024 299.061 132.732 299.454 132.455 299.656C132.203 299.88 131.976 300.128 131.698 300.306C131.536 300.408 131.321 300.394 131.133 300.449C130.525 297.907 130.985 296.984 133.179 296.01C134.229 295.537 135.255 295.065 136.445 294.539C137.128 297.149 135.707 298.97 133.309 299.048ZM137.284 299.14C137.284 299.14 137.18 298.93 137.179 298.907C137.433 298.729 137.688 298.576 137.918 298.399C137.995 298.515 138.048 298.656 138.124 298.771C137.845 298.902 137.565 299.033 137.284 299.14ZM137.951 296.947C137.335 294.762 137.717 293.7 139.537 292.885C139.177 294.469 139.191 295.919 137.951 296.947ZM152.122 286.877C151.868 287.625 151.616 288.397 151.217 289.08C150.906 289.592 150.399 289.971 149.67 290.168C149.825 288.782 149.979 287.373 150.205 285.984C150.262 285.649 150.604 285.301 150.877 285.028C151.494 284.431 152.184 283.878 152.825 283.304C152.971 283.369 153.116 283.434 153.285 283.498C152.906 284.632 152.526 285.766 152.122 286.877ZM153.208 287.259C154.426 284.044 153.799 280.503 157.348 278.402C156.56 281.669 156.388 284.887 153.208 287.259ZM87.9935 144.131C90.2658 144.438 92.5774 144.554 94.8456 144.766C95.0602 144.78 95.2491 144.748 95.4638 144.763C97.9117 144.73 99.408 146.354 99.0206 148.416C99.7028 148.244 100.341 148.145 100.839 148.124C100.981 147 100.575 145.829 99.8147 144.743C98.2198 142.481 95.6609 143.256 93.5416 142.634C91.9135 143.488 90.3392 142.818 88.7987 142.385C85.1884 141.374 81.7723 141.567 78.2934 143.072C76.1224 144.021 73.9257 144.923 71.1484 145.042L70.582 146.255L70.0312 147.277C73.5751 147.292 76.8052 146.084 79.9993 144.592C82.6101 143.363 85.291 143.771 87.9935 144.131ZM67.5439 161.961C67.5748 162.126 67.5849 162.364 67.5198 162.509C66.5515 164.334 67.314 166.037 68.2067 167.45C69.251 169.07 68.8948 170.75 69.3209 172.372C69.1567 172.427 68.9926 172.481 68.8285 172.536C68.3813 171.533 67.9104 170.53 67.4632 169.527C67.2162 171.535 67.9807 173.286 68.7441 175.013C69.1913 176.016 69.214 175.991 68.6144 177.539C68.2082 176.938 67.8525 176.406 67.3175 175.573C66.8189 177.259 67.64 179.222 65.4371 179.982C65.5486 181.475 66.2429 183.253 65.1549 185.059C64.7846 184.742 64.4133 184.401 64.0441 184.108C64.0214 184.132 64.0224 184.156 63.9997 184.181C64.1362 185.15 64.3687 186.139 64.3144 187.092C64.2757 187.855 63.8314 188.587 63.4932 189.577C62.4279 188.576 62.3656 187.675 62.8224 186.681C63.1904 185.833 63.6069 185.006 63.9997 184.181L63.9946 184.062L64.0441 184.108L63.9842 182.707C63.1936 184.239 62.5777 185.407 62.034 186.595C60.4423 189.969 58.3142 193.032 55.8901 195.847C54.3066 197.746 52.4035 199.397 50.9665 201.384C48.6783 204.597 46.4407 207.88 44.8632 211.586C45.1606 211.311 45.4828 211.06 45.8039 210.784C47.2978 212.908 47.2858 213.741 46.0039 215.461C45.599 216.001 45.5138 216.789 45.2573 217.466C46.3261 217.991 47.1971 219.452 46.9271 220.367C46.7399 220.994 46.4072 221.555 46.0154 222.404C44.4924 220.709 45.3481 219.032 45.2584 217.49C45.0019 218.167 44.7455 218.844 44.3795 219.739C43.8011 219.003 43.398 218.473 42.9711 217.945C42.9019 217.995 42.809 218.047 42.7151 218.074C43.2467 219.383 43.708 220.719 44.3325 221.977C45.1672 223.701 45.2137 223.675 43.9823 225.463C41.937 223.791 41.436 221.53 41.3617 218.679C41.2972 219.395 41.3351 219.727 41.2276 219.993C41.0964 220.26 40.8186 220.438 40.7732 220.488L41.03 226.493C40.4905 226.112 40.147 225.865 39.7798 225.619C39.7147 225.765 39.6021 225.912 39.6289 225.983C40.1018 227.032 40.6212 228.057 41.1179 229.105C41.7217 230.435 42.1356 231.773 41.0324 233.223C39.3024 232.251 38.7288 230.515 37.6659 229.015C37.8571 230.148 38.1431 231.278 38.2156 232.416C38.3148 233.625 38.2005 234.842 38.1881 236.222C36.6497 235.836 36.3948 234.325 35.182 233.212C35.8813 235.108 36.9311 236.3 37.8425 237.592C38.4012 238.425 38.8453 239.357 39.3349 240.239C39.7987 241.076 39.4484 241.78 38.9773 242.443C36.9509 241.768 36.5437 241.144 35.7352 238.919C35.5999 239.091 35.51 239.214 35.4201 239.337C35.2838 239.485 35.1464 239.61 34.9182 239.834C35.9615 241.43 36.6537 243.16 36.4487 245.595C35.3535 244.452 34.5069 243.561 33.5355 242.533C33.355 246.654 34.1604 250.472 35.6788 254.284C33.9572 254.619 33.9648 252.573 32.6749 252.438C32.8237 253.692 33.0396 254.848 33.0903 256.035C33.1482 257.388 33.203 258.67 33.9916 259.873C34.3473 260.404 34.4025 261.139 34.5971 261.797C32.3461 261.988 31.5849 261.426 31.189 259.398C31.008 258.502 30.8508 257.605 30.6945 256.732C30.5521 256.738 30.4097 256.744 30.2673 256.75C30.3079 257.7 30.3732 258.672 30.3901 259.622C30.3941 259.717 29.9699 259.807 29.5962 259.966C31.8521 261.557 30.8461 264.169 32.1273 266.326C31.1192 266.107 30.4712 265.968 29.8459 265.805C28.4291 262.703 28.3572 259.353 27.7889 256.072C27.251 260.732 28.4832 265.078 30.2301 269.784C29.2315 269.232 28.5496 268.857 27.5995 268.326C27.8564 269.885 28.853 270.389 29.7081 270.924C30.6613 271.525 31.473 272.156 31.4885 273.63C29.9945 273.17 28.6449 272.753 28.2859 271.032C27.4385 271.235 26.894 270.735 26.676 269.531C25.9999 269.846 25.6176 270.361 25.4789 271.009C24.9123 273.887 26.2393 277.112 28.7986 278.572C30.8711 279.768 35.3614 279.671 36.7819 276.186C37.9853 273.185 38.7346 270.133 38.7153 266.9C38.716 265.806 38.8365 264.731 38.9024 263.491C39.8227 263.88 40.5738 264.205 41.3248 264.529C41.391 264.407 41.4581 264.31 41.5005 264.189C41.255 264.009 40.9631 263.855 40.7403 263.651C39.6068 262.724 38.7541 261.69 38.8977 260.043C39.266 255.866 39.5383 251.669 39.8581 247.47C39.848 247.233 39.9565 246.99 40.0549 246.51C40.7202 247.053 41.2132 247.46 41.7062 247.867C41.7764 247.84 41.8456 247.789 41.9147 247.739C41.3757 246.811 40.5785 245.965 40.347 245C40.1145 244.011 40.4476 242.903 40.5756 241.447C41.644 242.519 42.4153 243.318 43.1867 244.117C43.3023 244.041 43.3942 243.966 43.5099 243.89C42.2757 242.278 41.089 240.664 41.7223 238.235C42.5351 238.89 43.1519 239.41 43.7934 239.954C43.1401 238.579 42.561 237.272 42.1505 235.458C42.8375 235.952 43.181 236.199 43.7205 236.58C43.0211 234.684 41.9056 233.067 43.2951 231.081C43.726 231.705 44.0817 232.237 44.5631 232.929C44.8865 231.037 43.1406 229.138 45.018 227.44C45.3995 228.019 45.7551 228.55 46.087 229.083C46.0316 227.231 45.2186 225.458 46.5182 223.595C46.942 224.053 47.2669 224.419 47.667 224.878C47.729 224.661 47.8406 224.49 47.8335 224.324C47.6716 222.761 47.4621 221.201 48.78 219.765C49.1438 220.487 49.456 221.115 49.9785 222.211C49.5542 219.518 49.7467 217.346 51.1649 215.478C51.637 214.839 52.1824 214.245 52.7039 213.652C52.863 213.479 53.214 213.345 53.2069 213.179C53.2297 211.489 54.6761 210.833 55.5985 209.605C56.0471 210.085 56.4214 210.497 56.969 211.068C56.6257 209.156 57.1026 207.519 58.3988 206.132C58.7297 206.641 59.0358 207.127 59.3162 207.567C59.4079 206.374 59.2571 205.073 59.6872 204.008C60.1369 202.847 61.1438 201.924 61.9981 200.77C62.5911 201.292 63.1109 201.769 63.6297 202.222C63.6989 202.172 63.7443 202.122 63.8135 202.072C63.4507 201.374 63.089 200.7 62.6211 199.768C67.0523 194.395 69.2262 187.952 70.6964 181.184C72.1647 174.367 71.2799 167.58 70.0805 160.664C71.3415 162.346 71.9652 164.697 73.0737 171.712C73.8701 169.205 73.7798 167.093 72.4082 162.823C71.4526 159.939 70.3091 157.111 69.1266 153.927C68.5833 154.569 68.2889 154.914 67.9728 155.308C67.6253 154.966 67.2788 154.648 66.9075 154.307L66.2535 156.808C66.3823 157.041 66.4657 157.323 66.5491 157.604C66.9196 159.039 67.2426 160.476 67.5904 161.935L67.5439 161.961ZM28.1493 274.51C27.3104 274.355 26.9022 273.707 26.5384 272.985C26.651 272.838 26.7646 272.714 26.8772 272.567C27.4227 273.09 27.9683 273.614 28.4901 274.138C28.3765 274.262 28.2629 274.386 28.1493 274.51ZM35.4696 265.517C32.7284 264.255 32.1344 263.709 32.028 262.335C35.0544 263.038 35.1286 263.106 35.4696 265.517ZM36.1105 268.272C33.1923 267.873 32.9448 267.646 33.0504 265.668C35.3233 266.546 36.1133 267.225 36.1105 268.272ZM30.6721 267.886C32.3737 268.194 32.9694 269.333 33.2056 270.964C31.0581 270.794 31.3824 268.926 30.6721 267.886ZM29.567 274.853C30.8129 274.515 31.6236 275.122 32.3909 275.826C31.3516 275.99 30.2895 276.178 29.567 274.853ZM33.7678 274.103C32.8648 274.118 32.7208 273.529 32.6903 272.817C33.5201 272.758 33.8707 273.171 33.7678 274.103ZM36.2212 270.859C36.1632 271.171 35.8006 271.59 35.4931 271.627C35.2102 271.687 34.7223 271.399 34.544 271.121C34.2388 270.658 34.0948 270.07 33.7188 269.064C34.732 269.401 35.378 269.492 35.9144 269.802C36.1589 269.958 36.3019 270.523 36.2212 270.859ZM36.6017 262.52C35.2169 262.389 35.4808 261.331 35.2038 260.415C36.314 260.796 36.7727 261.514 36.6017 262.52ZM36.5844 259.334C34.4874 259.233 33.7463 258.028 33.9517 255.047C37.2757 256.593 36.9173 257.108 36.5844 259.334ZM36.803 253.879C35.9709 252.773 35.4813 251.89 35.6093 250.434C36.2983 250.975 36.814 251.358 37.3793 251.785C37.1941 252.459 37.0275 253.013 36.803 253.879ZM37.8406 250.339C34.8193 249.754 33.6886 247.781 34.1918 243.979C35.6396 245.582 36.9399 247.072 38.4145 248.745C38.2232 249.276 38.0319 249.807 37.8406 250.339ZM38.6283 247.071C37.527 245.786 37.146 244.661 37.2492 243.182C37.9467 243.367 38.3801 243.491 39.0301 243.677C38.9076 244.705 38.784 245.709 38.6283 247.071ZM40.6842 236.757C40.4762 237.456 40.3633 238.15 40.2028 238.847C39.0812 237.088 38.8111 235.22 38.7981 233.247C40.8923 234.394 41.4023 234.087 40.6842 236.757ZM42.5598 228.901C42.5598 228.901 42.3224 228.911 42.2037 228.916C42.0116 227.759 41.8431 226.601 41.612 225.089C42.5384 225.62 43.147 225.951 43.9269 226.393C43.464 227.245 43.0237 228.073 42.5608 228.925L42.5598 228.901ZM62.0406 188.973C62.9692 190.669 62.3028 191.768 61.2803 192.882C60.2143 191.31 60.291 190.879 62.0406 188.973ZM59.7985 192.707C61.1998 194.336 59.9172 195.485 59.0782 196.995C57.8044 194.457 57.8665 194.241 59.7985 192.707ZM57.7501 195.411C58.5898 197.254 58.6311 198.774 56.946 199.963C55.3032 198.25 55.4566 197.388 57.7501 195.411ZM55.1462 198.471C56.3925 200.368 56.1994 201.969 54.4689 203.208C52.8991 200.422 52.9385 200.23 55.1462 198.471ZM52.7438 201.237C53.814 204.021 54.0971 205.079 52.2028 205.826C50.6049 203.493 50.6497 202.872 52.7438 201.237ZM50.404 204.357C51.9131 206.837 51.6801 208.06 49.5515 208.888C48.4051 207.106 48.7457 205.617 50.404 204.357ZM48.0931 207.595C49.5507 209.982 49.5069 210.626 47.7573 212.532C46.1255 209.962 46.1754 209.461 48.0931 207.595ZM47.8985 218.614C45.8637 216.632 45.8617 216.584 47.5139 215.182C49.2642 216.629 49.293 216.747 47.8985 218.614ZM49.7614 215.466C48.6527 214.563 48.6958 213.348 49.8435 211.824C50.233 212.593 50.5433 213.174 50.8555 213.802C50.4753 214.366 50.1189 214.928 49.7614 215.466ZM51.8618 212.309C50.1044 210.696 50.1169 210.433 51.9998 208.308C52.5121 209.166 52.9213 209.838 53.3573 210.58C52.8368 211.197 52.3616 211.764 51.8618 212.309ZM54.3747 209.348C52.2613 207.75 52.2349 207.133 54.2255 205.858C54.6337 206.507 55.043 207.179 55.5037 207.944C55.0968 208.437 54.7352 208.881 54.3747 209.348ZM56.1949 206.868C55.9433 206.546 55.6938 206.271 55.4659 205.948C55.2618 205.624 55.0794 205.251 54.796 204.74C55.3125 204.028 55.828 203.293 56.3879 202.484C58.0364 204.887 58.0384 204.934 56.1949 206.868ZM58.6401 203.434C56.9685 201.603 57.0008 201.245 58.7171 199.674C59.1687 200.225 59.6204 200.777 60.1473 201.42C59.6752 202.058 59.1576 202.746 58.6401 203.434ZM60.8733 200.604C58.8518 198.931 59.4501 197.906 60.9653 196.082C61.4109 196.491 61.8791 196.875 62.3474 197.259C62.4867 197.182 62.6251 197.081 62.7645 197.004C62.2723 195.503 60.6346 193.908 63.1474 192.612C63.6132 193.495 64.0781 194.355 64.5697 195.286C63.3145 197.075 62.1048 198.815 60.8733 200.604ZM65.2562 193.544C63.3381 191.51 63.293 191.012 64.9951 189.108C65.6101 190.699 67.022 192.018 65.2562 193.544ZM66.6604 189.679C65.9596 188.306 64.9614 187.207 66.2247 185.608C66.754 185.751 67.2596 185.896 67.7641 186.017C67.722 187.256 67.6571 188.519 66.6604 189.679ZM67.8386 184.421C66.7034 182.9 66.8066 181.421 67.5467 179.82C68.6354 181.367 68.6537 181.794 67.8386 184.421ZM69.4992 158.192C69.6321 158.519 69.7412 158.847 69.8741 159.174C69.7802 159.202 69.6873 159.254 69.5944 159.305C69.4388 159.003 69.2831 158.7 69.1038 158.399C69.2442 158.345 69.3598 158.269 69.4992 158.192Z" fill="#D0B48C"/>
<path d="M108.249 281.358C107.224 276.289 105.798 271.308 105.128 266.2C104.595 262.085 104.132 257.92 104.046 253.691C103.931 248.226 102.984 242.75 102.512 237.276C102.182 233.462 101.454 229.783 100.063 226.181C98.8613 223.093 97.94 219.898 96.8782 216.757C96.3911 215.375 95.7873 214.045 95.2526 212.665C95.1587 212.693 95.0885 212.72 94.9935 212.724C94.9497 213.368 94.8822 214.013 94.8167 214.705C93.4945 214.928 92.2446 215.172 90.9658 215.298C89.7118 215.447 88.5585 216.281 87.2534 215.789C87.2837 213.719 87.3973 213.596 89.22 213.399C89.5513 213.361 89.8816 213.299 90.2119 213.237C90.2078 213.142 90.2038 213.047 90.1997 212.953C89.3618 212.822 88.5487 212.714 87.2557 212.508C89.1558 210.786 91.5308 211.825 93.0673 210.499C91.4234 210.427 89.7543 210.879 87.9043 210.435C88.4544 208.842 90.4859 209.635 90.8532 208.216C90.0957 208.296 89.3381 208.376 88.273 208.493C89.0528 206.153 91.2636 207.247 92.4306 206.175C91.2407 206.154 90.1942 206.152 89.1468 206.125C88.9485 204.826 89.3741 204.213 90.5281 203.95C91.3518 203.748 92.1179 203.311 92.9127 202.991C92.8622 202.922 92.8344 202.828 92.7839 202.759C91.8385 202.895 90.8931 203.03 89.9002 203.168C89.8932 201.337 90.2673 200.631 91.8764 200.444C93.0602 200.322 93.6499 199.654 94.2271 199.249C93.8507 198.79 93.3113 198.409 93.3445 198.074C93.4668 195.929 93.7078 193.778 93.9735 191.65C93.9613 191.366 94.332 191.136 94.3764 191.062C94.095 190.599 93.6267 190.215 93.66 189.88C93.7099 189.379 94.1168 188.886 94.3576 188.4C93.397 188.179 93.1651 187.761 93.3327 187.231C91.1407 187.134 89.5816 186.821 89.1507 186.197C89.0744 186.081 88.9981 185.966 88.9208 185.826C89.156 187.433 89.3427 189.019 89.4344 190.608C89.6067 193.526 89.6139 196.474 89.2373 199.344C88.7653 202.765 87.8134 206.087 87.0783 209.471C86.7594 210.912 86.3693 212.355 86.1939 213.813C85.9064 215.99 85.8109 218.205 85.6195 220.401C85.4416 222.359 85.1925 224.32 85.0621 226.275C84.7746 230.116 84.583 233.977 84.2716 237.819C84.1447 239.298 83.4945 240.777 83.6503 242.197C83.8994 244.683 83.4064 247.059 82.768 249.369C81.9227 252.401 81.7532 255.666 79.774 258.319C79.6851 258.466 79.7912 258.723 79.7519 258.915C79.5894 259.564 79.4991 260.234 79.2634 260.838C77.4532 265.22 75.4986 269.56 74.486 274.241C74.2064 275.489 73.833 276.765 73.1903 277.863C71.7085 280.471 71.2142 283.369 70.4062 286.162C69.7834 288.282 69.4743 290.507 69.1889 292.73C68.6453 296.701 72.9416 300.964 75.7937 301.484C78.7645 301.999 81.7058 301.826 84.6875 301.485C86.5577 301.286 88.4743 301.061 90.3318 301.124C93.8096 301.261 97.2616 301.351 100.681 300.682C103.062 300.199 105.069 299.305 106.281 297.065C107.14 295.459 108.169 293.941 108.978 292.289C109.372 291.488 109.709 290.474 109.601 289.623C109.269 286.855 108.818 284.092 108.274 281.38L108.249 281.358ZM92.8315 193.863C92.4253 193.262 92.3949 192.55 92.7402 191.727L92.8315 193.863ZM92.2726 187.466C92.356 187.748 92.4394 188.03 92.5228 188.312C92.3814 188.342 92.2173 188.396 92.0758 188.426C92.0162 188.143 91.9565 187.86 91.9206 187.577C91.9196 187.553 92.1549 187.495 92.2726 187.466ZM92.5337 194.685C92.7056 195.367 92.5875 195.943 92.227 196.41C92.0324 195.752 92.1505 195.177 92.5337 194.685ZM91.4137 190.737C91.3547 191.025 91.1512 191.272 90.9074 191.686C90.63 191.318 90.334 191.069 90.3754 190.924C90.4602 190.683 90.7379 190.505 90.9424 190.282C91.1157 190.441 91.4324 190.618 91.4137 190.737ZM90.7685 193.999C90.5077 193.463 90.5824 192.984 90.9429 192.517C91.4667 193.089 91.3436 193.546 90.7685 193.999ZM90.4311 196.677C90.4593 196.224 90.4638 195.772 90.5252 194.984C91.3658 195.733 91.2901 196.188 90.4311 196.677ZM89.9121 187.877C89.9545 187.756 90.353 187.62 90.3777 187.643C90.6066 187.99 90.8127 188.361 91.0416 188.708C90.0002 188.824 89.632 188.554 89.9121 187.877ZM90.6789 198.022C91.2374 197.736 91.9 197.66 92.5121 197.515C92.8589 198.951 92.8578 198.927 91.5675 199.339C91.1691 199.475 90.7737 199.682 90.3308 199.892C90.0104 199.073 89.9098 198.388 90.6789 198.022ZM107.659 284.783C106.844 285.199 106.198 285.654 105.661 284.774C105.559 284.612 105.748 284.033 105.935 283.954C106.614 283.71 107.348 283.632 107.659 284.783ZM106.142 278.237L105.773 279.609C105.532 279.548 105.317 279.509 105.101 279.471C105.201 279.039 105.277 278.584 105.426 278.173C105.471 278.123 105.88 278.225 106.142 278.237ZM104.991 275.243C104.71 276.444 103.882 277.097 102.532 277.227C103.238 274.842 103.515 274.64 104.991 275.243ZM100.813 290.974C101.236 289.743 102.069 289.208 103.338 289.415C103.111 290.78 101.963 290.615 100.813 290.974ZM101.575 292.106C101.663 293.054 101.354 293.614 100.6 293.789C98.3182 294.362 95.994 294.509 93.5946 294.564C94.2906 292.489 94.2916 292.513 95.9315 292.49C97.1441 292.486 98.3516 292.363 99.5612 292.288C100.225 292.235 100.887 292.16 101.551 292.107L101.575 292.106ZM99.884 249.231C99.6052 249.386 99.3265 249.541 99.0477 249.695C98.9725 249.603 98.9209 249.51 98.8456 249.419C99.1214 249.193 99.3743 248.992 99.6263 248.767C99.7046 248.93 99.8057 249.068 99.884 249.231ZM99.2058 235.04C99.0936 234.64 98.9814 234.241 98.8136 233.654C99.2903 233.681 99.8135 233.682 99.8166 233.753C99.8823 234.179 99.8057 234.61 99.7775 235.063C99.5866 235.047 99.3967 235.055 99.2058 235.04ZM101.312 263.153C101.689 263.636 101.453 264.241 100.843 264.434C100.163 264.653 99.4302 264.756 98.4868 264.939C98.7002 263.812 99.3683 263.308 100.091 262.968C100.417 262.811 101.135 262.923 101.312 263.153ZM100.5 268.087L102.565 267.998C102.154 268.943 101.829 269.694 101.462 270.566C100.25 270.024 100.497 269.133 100.5 268.087ZM102.185 283.02C102.724 282.284 103.128 281.719 103.532 281.155C103.846 282.378 103.397 282.992 102.185 283.02ZM103.142 284.263C102.857 284.822 102.681 285.163 102.374 285.77C101.953 284.813 102.03 284.406 103.142 284.263ZM101.706 273.481C101.481 273.229 101.52 272.466 101.718 272.101C102.205 271.248 102.969 270.763 104.392 271.226C103.95 272.029 103.645 272.684 103.242 273.249C102.838 273.813 102.179 273.984 101.706 273.481ZM102.416 287.861C102.962 287.291 103.304 286.943 103.851 286.397C104.125 287.788 103.635 287.999 102.416 287.861ZM102.552 280.484C101.851 278.54 101.962 278.369 103.675 278.39C103.301 279.096 102.993 279.68 102.552 280.484ZM103.866 268.395C104.073 268.79 104.296 268.994 104.304 269.184C104.279 269.709 104.231 269.687 103.165 269.78C103.383 269.319 103.581 268.954 103.866 268.395ZM101.416 266.716C101.689 265.301 102.522 265.313 103.605 265.623C103.309 267.039 102.395 266.793 101.416 266.716ZM101.418 241.723C101.418 241.723 101.058 241.643 100.913 241.601C101.019 241.288 101.147 240.949 101.251 240.612C101.396 240.653 101.539 240.671 101.684 240.712C101.603 241.049 101.522 241.385 101.418 241.723ZM101.348 248.432L101.282 246.889C101.521 246.926 101.71 246.894 101.761 246.963C102.163 247.469 102.085 247.877 101.348 248.432ZM102.532 261.103C102.361 260.445 102.25 260.069 102.106 259.481C103.189 259.791 103.255 260.216 102.532 261.103ZM102.087 252.918C101.527 252.062 101.693 251.485 102.559 251.162C102.415 251.691 102.271 252.221 102.087 252.918ZM101.583 237.792C101.099 238.169 100.593 238.571 100.087 238.973C99.4377 238.24 99.3856 237.577 99.9183 237.245C100.265 237.016 100.917 237.25 101.442 237.275C101.497 237.463 101.552 237.627 101.583 237.792ZM100.074 230.865C100.709 231.266 100.92 231.756 100.516 232.32C100.427 232.467 99.7855 232.471 99.6597 232.309C99.1823 231.712 99.5211 231.293 100.074 230.865ZM97.7502 229.918C97.3159 228.105 97.5567 227.62 99.197 227.05C99.8652 229.328 99.7753 229.451 97.7502 229.918ZM94.5184 227.749C94.7809 227.215 94.9566 226.875 95.2408 226.292C95.8304 227.289 95.825 227.717 94.5184 227.749ZM95.7686 228.623C95.7053 230.481 95.3801 230.661 92.7715 230.274C93.5736 228.456 93.7585 228.329 95.7686 228.623ZM92.3149 225.156C93.0841 223.126 93.4826 222.99 94.8677 224.239C93.9077 224.589 93.1118 224.885 92.3149 225.156ZM94.0018 225.679C93.8935 227.039 93.3502 227.68 92.3109 227.844C90.515 228.111 88.7161 228.307 86.9171 228.503C86.2308 228.579 85.907 228.237 86.0861 227.42C88.6304 226.86 91.2222 226.297 94.0018 225.679ZM94.6843 231.072C93.8048 232.75 92.8919 233.645 91.3737 233.734C90.1167 233.811 88.8339 233.842 87.5046 233.899C87.4064 232.715 88.0548 232.306 88.9032 232.127C90.6961 231.789 92.4899 231.475 94.6843 231.072ZM95.4163 232.063C95.6415 231.768 95.9141 231.471 96.4357 230.878C96.7303 231.65 96.9436 232.188 97.2382 232.96C96.364 233.092 95.7261 233.191 94.6145 233.334C95.0598 232.625 95.2138 232.333 95.4163 232.063ZM96.4199 225.504C96.6502 225.328 96.8774 225.08 97.1592 224.997C97.3006 224.967 97.5264 225.243 97.8204 225.444C97.4776 225.768 97.2544 226.11 96.9933 226.122C96.8271 226.129 96.62 225.733 96.4199 225.504ZM97.5856 234.966C98.302 236.149 97.9571 236.425 96.991 236.633C97.1813 236.078 97.3322 235.714 97.5856 234.966ZM97.9589 223.679C97.3262 223.896 96.7317 223.897 96.1746 223.66C96.878 222.869 97.4487 222.868 97.9589 223.679ZM95.2728 222.034C95.0399 221.592 94.81 221.221 94.6544 220.919C95.0997 220.21 95.9118 220.294 97.0619 221.054C96.4807 221.364 95.9469 221.672 95.2728 222.034ZM95.5813 219.238C95.5813 219.238 95.311 219.036 95.1635 218.923C95.3226 218.75 95.4816 218.577 95.6851 218.33C95.8852 218.559 96.0099 218.697 96.1347 218.834C95.9499 218.961 95.7919 219.158 95.5813 219.238ZM95.611 216.597C95.0742 216.834 94.5374 217.071 93.7673 217.413C94.1085 216.495 94.7145 216.208 95.611 216.597ZM93.1736 216.321C92.8101 216.717 92.5455 217.204 92.1935 217.314C90.5492 217.789 88.8791 218.217 87.0059 218.345C87.7511 216.862 90.7549 215.925 93.1736 216.321ZM87.449 219.253C89.4772 218.857 91.5322 218.531 93.5871 218.206C93.7285 218.176 93.9266 218.358 94.0958 218.422C94.1514 218.61 94.1822 218.775 94.2378 218.963C91.9633 220.273 89.3285 220.385 86.8151 221.111C86.3916 220.107 86.4829 219.461 87.449 219.253ZM87.0931 222.051C88.9737 221.542 90.8822 221.128 92.7887 220.666C92.8907 220.828 92.9928 220.99 93.0938 221.128C92.7777 221.522 92.542 222.127 92.1208 222.287C90.3195 222.983 88.4418 223.562 86.4737 223.694C86.0306 222.786 86.3168 222.25 87.0931 222.051ZM90.7677 224.01C91.0118 224.713 90.6543 225.251 90.0907 225.418C88.8706 225.803 87.5712 226.001 85.9445 226.333C86.418 225.171 88.0254 224.389 90.7677 224.01ZM87.0557 229.519C88.5668 229.264 90.1036 229.056 91.9222 228.764C90.7172 231.17 90.6242 231.221 89.2751 230.257C88.4757 231.028 87.5249 231.592 86.2071 231.363C85.9312 230.471 85.9235 229.734 87.0557 229.519ZM87.472 234.804C88.5351 234.64 89.6032 234.594 90.6931 234.5C91.2618 234.452 91.839 234.047 92.3886 234.665C92.4896 234.804 92.9881 234.783 93.1017 234.659C94.1964 233.566 95.449 233.94 96.8132 234.143C96.3858 235.826 95.2223 236.423 93.5142 236.52C93.9052 236.765 94.1239 236.874 94.4406 237.051C92.8286 239.95 90.1522 239.089 87.4957 239.25C88.2178 236.675 90.2619 237.206 91.9804 236.799C91.088 236.505 90.2925 236.253 89.207 235.895C88.4739 236.545 87.2517 236.883 85.8289 236.42C85.6761 235.071 86.6225 234.96 87.472 234.804ZM86.3388 237.778C86.4812 237.772 86.704 237.976 87.0465 238.199C86.6541 238.478 86.4228 238.63 86.1688 238.808C86.042 238.623 85.8182 238.395 85.8348 238.227C85.8742 238.035 86.1262 237.811 86.3388 237.778ZM85.6601 243.039C86.5808 242.88 87.4065 242.726 88.2363 242.667C88.3075 242.664 88.4288 243.277 88.538 243.605C89.6264 241.252 91.8714 242.036 94.138 241.653C91.15 240.735 88.5412 242.012 85.9295 241.553C86.051 240.501 86.7621 240.447 87.4237 240.347C89.3135 240.052 91.2053 239.805 93.0694 239.464C93.6123 239.369 94.3142 239.101 94.5818 238.686C95.4548 237.412 96.7149 237.405 98.3693 237.168C98.0437 237.896 97.9504 238.494 97.6035 238.723C96.5421 239.482 96.0388 240.502 95.4673 241.597C94.8958 242.691 93.8621 243.544 93.1482 244.644C95.643 244.038 96.2642 241.325 98.2351 240.147C99.4324 241.451 99.4445 241.736 98.124 242.553C97.5913 242.885 97.3383 243.086 97.4627 243.77C97.5243 244.101 96.9967 244.551 96.7023 244.897C95.594 246.228 94.462 247.561 93.238 248.969C94.8325 248.996 95.465 247.661 96.38 246.813C97.3404 245.916 98.175 244.858 99.3111 243.62C99.4694 244.541 99.5649 245.107 99.6605 245.674C98.9141 246.015 98.3319 246.301 97.5855 246.643C97.9351 247.032 98.1856 247.33 98.6105 247.811C97.4021 249.028 96.1959 250.293 94.9153 251.489C94.5952 251.788 94.0801 251.977 93.6301 252.02C91.2822 252.168 88.9075 252.245 86.4388 252.351C86.7204 251.15 87.7668 251.153 88.5946 251.046C90.2036 250.858 91.8415 250.788 93.4525 250.648C93.6177 250.617 93.7777 250.468 94.3342 250.135C93.0257 250.119 92.0969 250.088 91.1939 250.102C90.3383 250.115 89.4848 250.176 88.3692 250.223C89.2384 248.307 90.8996 248.783 92.35 248.222C91.6267 247.991 91.0727 247.825 90.3494 247.594C90.7533 247.03 91.0911 246.587 91.5849 245.9C90.5869 245.919 90.382 246.689 89.871 246.972C89.1978 247.358 88.502 247.768 87.7742 247.99C87.2344 248.155 86.5586 247.923 86.6004 247.231C86.6048 246.779 86.9118 246.172 87.2834 245.965C87.7945 245.682 88.4632 245.748 89.0525 245.628C89.8545 245.475 90.6317 245.299 91.4422 244.789C90.7301 244.819 90.018 244.85 89.3039 244.833C88.662 244.836 87.9716 244.818 88.3572 243.827C87.5664 244.241 86.7756 244.655 85.7515 245.175L85.6601 243.039ZM87.6006 255.607C86.9938 256.988 86.2878 257.161 85.3095 257.084C85.486 255.65 86.4497 255.941 87.6006 255.607ZM87.7212 260.096C86.1086 262.424 85.5036 262.735 83.7207 262.193C84.0369 260.135 84.2465 260.031 87.7212 260.096ZM84.0953 263.723C83.8433 263.948 83.5923 264.196 83.3414 264.445C83.2661 264.353 83.1671 264.262 83.0918 264.17C83.3428 263.922 83.5937 263.673 83.8457 263.448C83.921 263.54 84.02 263.631 84.0953 263.723ZM83.1588 258.508C83.1588 258.508 83.3599 258.761 83.4609 258.899C83.1645 259.197 82.8434 259.472 82.5232 259.771C82.3975 259.61 82.2469 259.426 82.0964 259.243C82.4423 258.99 82.7892 258.761 83.1588 258.508ZM81.711 264.134C81.3607 264.839 81.3962 265.669 80.1568 265.604C80.3061 264.646 80.416 263.88 81.711 264.134ZM83.1995 269.469C82.5412 270.757 81.6151 271.344 80.1746 271.025C80.5834 269.462 80.9086 269.281 83.1995 269.469ZM84.6116 271.905C83.5307 273.878 83.2055 274.058 81.2686 273.808C81.4516 271.969 82.101 271.584 84.6116 271.905ZM81.4653 277.295C82.9506 276.994 84.4904 276.857 85.9995 276.554C84.7848 276.511 83.5949 276.491 82.2606 276.429C82.4445 274.614 84.0047 274.951 85.101 274.452C84.7576 274.206 84.5358 274.025 84.1171 273.686C84.9371 272.842 85.7344 272.024 86.7372 271.006L83.1292 271.16C84.1005 269.406 85.3271 268.617 87.1331 268.587C86.2163 267.722 85.4547 267.707 84.4038 268.157C83.5407 268.55 82.4655 268.43 81.1867 268.556C81.9051 267.003 82.8044 266.346 84.1574 266.289C86.365 266.194 88.5725 266.1 90.7678 265.721C88.6471 265.621 86.5017 265.499 84.284 265.356C85.3961 263.001 87.486 262.936 89.4925 262.589C88.8 262.523 88.1066 262.434 87.2944 262.35C87.3244 260.826 89.0521 260.634 89.2089 259.295C88.2801 259.264 87.1367 259.217 85.6847 259.184C87.063 256.938 89.3783 257.695 91.0993 256.789C90.1241 256.783 89.22 256.774 88.22 256.745C88.783 256.008 90.1364 255.403 92.2337 254.957C90.0913 254.906 87.9252 254.856 85.758 254.782C85.5326 253.959 85.8961 253.563 86.6042 253.438C88.5395 253.093 90.4747 252.749 92.4347 252.427C92.6948 252.392 93.0499 252.354 93.2221 252.489C94.4991 253.433 95.4201 252.728 96.1896 251.815C97.0717 250.755 98.1257 250.377 99.4227 250.678C99.2251 252.732 98.4733 253.501 96.2284 253.835C96.283 253.999 96.3138 254.164 96.3901 254.28C96.5149 254.417 96.6841 254.481 96.9296 254.661C95.9844 255.914 95.0321 257.001 93.3827 257.357L99.5306 257.094C98.39 258.784 96.8427 259.302 95.1842 259.444C95.5615 259.927 95.9626 260.409 96.3895 260.938C97.6147 260.672 98.4219 258.973 100.096 259.757C99.7484 262.744 97.2605 262.399 95.2405 262.985C96.0041 263.047 96.7687 263.133 97.7708 263.209C96.6716 264.755 95.3769 265.619 93.7563 266.092L99.8092 265.833C99.1223 268.122 96.9535 267.454 95.2708 268.144C96.2254 268.222 96.988 268.261 97.99 268.337C97.5159 268.928 97.1564 269.419 96.7969 269.91C97.9244 270.694 98.2443 269.277 99.1771 269.404C99.2019 269.426 99.4443 269.535 99.4752 269.7C99.5596 270.006 99.5026 270.341 99.5208 270.768C98.6754 271.018 97.8548 271.291 97.0569 271.539C97.0609 271.634 97.065 271.729 97.0691 271.824L99.9175 271.702C99.5179 273.479 97.8912 273.81 96.7561 275.072L100.15 274.927C100.951 277.508 100.841 277.727 98.6052 278.274C97.8755 278.448 97.1427 278.551 96.3922 278.797C96.7483 278.782 97.0837 278.839 97.4407 278.847C97.8443 278.83 98.2478 278.813 98.6513 278.796C98.8079 279.122 98.9388 279.402 99.1202 279.75C99.6105 279.539 100.077 279.329 100.497 279.145C101.138 279.664 100.941 280.624 100.213 280.845C99.2513 281.148 98.2347 281.286 97.254 281.709L100.553 281.568C100.675 283.299 100.588 283.493 99.3372 283.712C96.5999 284.21 93.8597 284.636 91.5931 285.019L98.192 284.736C98.3048 285.707 97.9443 286.174 97.0474 286.331C96.457 286.428 95.8727 286.667 95.2854 286.835C96.9283 286.883 98.5722 286.956 100.215 287.004C100.507 288.276 99.7548 288.474 98.8549 288.561C96.0403 288.919 93.2021 289.278 90.1749 289.669C91.6841 290.484 93.1284 289.78 94.534 289.839C95.987 289.896 97.4546 289.738 99.045 289.67C98.3053 290.724 97.4843 291.544 96.1283 291.531C94.7959 291.516 93.488 292.072 92.1283 291.416C91.8373 291.286 91.3127 291.808 90.8627 291.851C89.7759 292.016 88.629 292.446 87.7899 291.174C86.119 292.696 85.1493 295.044 82.8349 295.975C82.7637 295.978 82.6616 295.816 82.4646 295.658C83.1568 294.606 83.848 293.53 84.5392 292.454C84.4649 292.386 84.3907 292.318 84.2937 292.275C83.4231 293.049 82.5289 293.824 81.5427 294.675C81.1901 294.215 80.9127 293.846 80.6612 293.524C81.951 290.877 84.3733 289.132 85.7096 286.459C84.0978 287.693 82.4698 286.883 80.4749 286.945C81.3106 285.91 81.92 285.147 82.5067 284.408C81.7451 284.393 80.84 284.361 79.935 284.328C79.5085 283.253 79.8392 282.644 80.8548 282.482C82.0593 282.287 83.2668 282.164 84.3557 282.046C83.3774 281.969 82.2557 281.875 81.0627 281.783C81.1836 280.161 82.3108 279.827 83.3112 279.309L80.3203 279.437C80.1296 277.756 80.1462 277.589 81.4178 277.297L81.4653 277.295ZM99.9578 254.293C100.193 255.354 99.5965 255.855 98.1207 255.823C98.3124 254.744 98.8598 254.198 99.9578 254.293ZM93.0776 293.04C92.5298 294.134 91.6699 294.599 90.4749 294.46C91.0247 293.414 91.8847 292.949 93.0776 293.04ZM89.8731 293.178C89.0547 294.616 88.679 294.727 86.4688 294.203C87.3988 292.594 87.7033 292.486 89.8731 293.178ZM77.4852 292.661C77.1746 292.627 76.7084 292.29 76.6725 292.006C76.6139 291.747 76.8991 291.188 77.1571 291.105C78.3979 290.648 79.6994 290.497 81.011 290.584C81.0171 290.726 81.0954 290.889 81.149 291.03C80.8743 291.279 80.586 291.767 80.3002 291.756C79.6583 291.759 79.2341 291.849 78.7806 292.368C78.5307 292.64 77.9156 292.714 77.4852 292.661ZM78.5693 293.542C78.2668 293.698 77.9633 293.829 77.6608 293.985C77.6092 293.892 77.533 293.777 77.4814 293.684C77.7592 293.505 78.0369 293.327 78.2909 293.15C78.3919 293.288 78.4692 293.427 78.5693 293.542ZM83.6261 287.785C82.6448 290.419 81.2196 290.456 78.2807 290.13C78.2626 288.038 80.9154 287.235 83.6261 287.785ZM81.4093 284.883C80.8949 285.643 80.6035 286.059 80.1779 286.672C79.6968 285.432 80.0377 285.061 81.4093 284.883ZM80.0832 280.565C80.2422 280.391 80.4013 280.218 80.6109 280.114C80.7058 280.11 80.8326 280.295 81.0554 280.499C80.7539 280.679 80.5701 280.829 80.3595 280.909C80.2883 280.912 80.0852 280.612 80.0832 280.565ZM79.5618 272.264L79.8133 272.586C79.6078 272.785 79.3796 273.009 79.1741 273.208C79.0998 273.14 79.0008 273.049 78.9266 272.981C79.13 272.734 79.3345 272.511 79.5618 272.264ZM79.3078 275.223C79.5176 276.237 78.9683 276.736 77.6854 276.767C77.9595 275.947 78.4852 275.449 79.3078 275.223ZM78.4903 278.35C78.0081 278.751 77.5496 279.151 76.8598 279.704C76.903 278.489 77.2862 277.997 78.4903 278.35ZM78.5044 280.347C78.4571 281.466 77.8098 281.898 76.5385 281.644C77.1394 281.237 77.7414 280.855 78.5044 280.347ZM78.1423 283.002C78.2186 283.117 78.2949 283.233 78.3712 283.349C77.6794 283.854 76.9628 284.336 76.27 284.818C76.1442 284.657 76.0184 284.496 75.8926 284.335C76.0938 282.923 77.2474 283.207 78.1423 283.002ZM78.508 285.436C78.7161 285.855 78.9511 286.344 79.3159 287.089C78.0371 287.215 77.0195 287.33 75.5993 287.486C76.3702 286.05 77.1282 285.423 78.508 285.436ZM78.1707 288.113C78.2242 288.254 78.2778 288.394 78.3324 288.558C77.7138 289.108 77.0962 289.681 76.2494 290.455C75.9104 289.756 75.7002 289.289 75.3344 288.52C76.4687 288.353 77.3192 288.221 78.1707 288.113ZM74.9123 284.21C74.2917 284.712 73.9003 285.014 73.2343 285.566C73.4558 284.629 74.0072 284.177 74.9123 284.21ZM73.8334 286.23C74.0144 287.126 73.6302 287.594 72.7034 287.61C72.6261 287.471 72.5498 287.355 72.4963 287.215C72.9114 286.911 73.3264 286.608 73.8334 286.23ZM74.2476 288.685C74.7025 290.426 73.8934 290.413 72.5343 290.328C73.1736 289.706 73.5846 289.308 74.2476 288.685ZM75.2426 291.378C74.6281 292.022 74.1736 292.517 73.5374 293.21C73.1048 291.992 73.6729 291.373 75.2426 291.378ZM73.9442 294.382C75.2057 293.852 76.0694 294.029 76.5579 294.888C74.8925 295.982 74.7481 295.941 73.9442 294.382ZM76.0321 297.051C77.1167 295.721 78.687 296.295 80.1889 295.827C78.1975 298.195 77.2097 298.451 76.0321 297.051ZM79.0245 299.182C79.5631 297.875 80.7615 297.538 81.7351 296.95C81.3359 298.18 80.6678 298.684 79.0245 299.182ZM86.6203 298.857C86.6369 298.69 86.6298 298.524 86.6227 298.358L87.8333 298.306C87.8333 298.306 87.8662 298.519 87.895 298.636C87.4697 298.702 87.0455 298.792 86.6203 298.857ZM82.4917 299.628C82.368 299.515 82.2669 299.377 82.1431 299.263C82.2754 299.019 82.3829 298.753 82.5637 298.532C83.0605 297.916 83.6059 297.322 84.1017 296.682C85.4745 294.864 85.5654 294.765 87.9271 295.496C86.5251 297.744 84.1666 298.201 82.4917 299.628ZM88.3987 297.069C88.9373 295.762 89.6064 295.282 90.862 295.727C90.535 296.978 89.7649 297.32 88.3987 297.069ZM90.9869 298.647C92.0808 298.648 93.1747 298.648 94.3873 298.644C93.3618 299.687 92.9583 299.704 90.9869 298.647ZM91.8184 297.517C91.7717 296.426 91.8868 295.779 92.9064 295.711L99.529 295.428C98.9823 296.545 98.2284 297.267 96.9219 297.299C95.2366 297.371 93.5512 297.443 91.8184 297.517ZM95.7931 299.821C97.2648 299.758 98.1124 297.89 100.189 298.634C98.5076 299.348 97.415 300.488 95.7931 299.821ZM100.275 296.752C100.916 295.06 102.041 294.678 103.782 294.794C102.946 296.376 101.769 296.64 100.275 296.752ZM102.388 298.897L102.085 298.481C102.869 297.901 103.653 297.321 104.436 296.74C104.538 296.902 104.64 297.064 104.742 297.226C103.958 297.783 103.173 298.34 102.388 298.897ZM104.418 292.984C104.473 292.03 104.659 291.38 105.748 291.262C105.517 291.985 105.089 292.551 104.418 292.984ZM105.172 290.026C104.987 288.489 106.04 288.634 107.055 288.471C106.975 289.925 106.144 289.961 105.172 290.026ZM106.133 287.488C106.048 286.612 106.632 286.349 107.813 286.727C107.136 287.017 106.67 287.251 106.133 287.488Z" fill="#D0B48C"/>
<path d="M109.313 208.403C108.842 207.948 108.393 207.467 107.672 206.737C107.746 209.017 108.599 210.621 110.019 211.559C110.777 212.05 111.13 212.534 111.445 213.211C111.783 213.886 112.166 214.511 112.434 215.213C112.892 216.478 113.327 217.743 113.668 219.037C114.204 221.011 114.482 223.068 116.715 224.685C115.879 224.602 115.569 224.568 115.091 224.517C115.172 226.416 116.184 227.823 117.65 229.306C117.053 229.236 116.742 229.202 116.312 229.149C116.221 231.484 117.707 232.871 119.176 234.401C118.621 234.211 118.043 234.045 117.488 233.855C116.949 236.256 118.576 237.613 120.019 239.097C118.236 238.555 117.085 237.225 115.753 236.093C117.087 239.484 119.317 242.148 122.288 244.327C121.392 243.961 120.497 243.595 119.577 243.23C119.511 245.017 119.566 245.181 121.305 247.484C120.553 247.136 120.116 246.941 119.726 246.72C119.287 246.453 118.869 246.138 118.11 245.623C119.176 249.407 122.327 250.817 124.632 253.002C122.598 252.708 121.396 250.738 119.403 250.277C119.077 251.551 119.774 252.282 120.519 253.011C122.031 254.445 123.521 255.927 125.281 257.611C123.814 256.675 122.593 255.919 121.273 255.072C121.059 256.745 121.656 257.909 122.901 258.664C124.683 259.753 126.533 260.744 128.311 261.738C127.713 261.645 126.995 261.533 126.229 261.423C126.509 262.41 127.754 263.165 129.989 263.712L126.998 263.84C126.804 265.964 128.73 265.406 130.046 266.159C129.076 266.271 128.485 266.344 127.869 266.418C128.162 267.69 129.002 268.439 130.389 268.617C129.55 269.01 128.822 269.231 129.08 270.266C129.451 271.701 130.543 271.654 131.831 271.742C131.25 272.076 130.833 272.332 130.439 272.563C130.571 273.984 131.326 274.403 132.764 274.104C132.381 274.596 131.895 274.926 131.909 275.234C131.926 275.638 132.276 276.051 132.531 276.444C132.835 276.883 133.808 276.271 133.829 277.316C133.847 277.744 134.34 278.151 134.645 278.613C133.873 279.455 133.229 278.864 132.779 278.36C131.657 277.148 130.267 276.874 128.579 276.899C128.685 278.25 129.634 278.756 130.645 279.046C131.608 279.337 132.635 279.436 133.664 279.582C135.41 279.817 135.41 279.817 136.425 278.537C137.227 278.931 138.028 279.301 138.828 279.671C138.965 279.546 139.103 279.421 139.239 279.273C138.556 277.756 137.872 276.216 137.005 274.303C139.568 275.834 140.977 277.653 141.277 280.208C141.43 281.557 140.713 282.587 139.648 283.274C136.157 285.611 132.561 286.05 128.74 284.002C126.599 282.857 125.059 281.33 124.083 279.089C122.502 275.47 121.178 271.77 120.347 267.905C119.484 263.852 118.504 259.851 117.713 255.795C117.283 253.53 117.254 251.177 116.801 248.937C115.726 243.823 114.486 238.739 113.34 233.628C112.457 229.647 111.691 225.637 110.713 221.684C109.506 216.813 108.51 211.862 106.551 207.213C105.49 204.643 104.453 202.071 103.391 199.501C103.34 199.408 103.429 199.261 103.51 198.925C105.341 200.036 106.646 201.645 108.09 203.152C107.354 202.637 106.62 202.145 105.64 201.474C105.763 203.252 106.802 204.182 107.492 205.294C108.13 206.313 108.699 207.383 109.314 208.427L109.359 208.377L109.313 208.403ZM112.835 221.26C112.672 221.885 112.58 222.508 113.593 222.845C113.282 222.24 113.048 221.774 112.79 221.31C112.435 220.802 112.104 220.293 111.75 219.785C111.785 220.615 112.139 221.1 112.812 221.261L112.835 221.26ZM139.008 281.09C138.998 280.853 138.94 280.617 138.907 280.405C136.885 280.396 134.84 280.388 132.795 280.381C132.691 281.289 133.085 281.605 133.703 281.602C135.486 281.597 137.398 282.372 138.984 281.091L139.008 281.09ZM124.999 268.8C125.483 270.682 126.121 271.13 128.092 271.07C127.796 269.703 126.764 268.939 124.999 268.8ZM115.522 234.034C115.71 233.979 115.873 233.9 116.061 233.845C115.555 232.035 115.284 230.144 113.356 228.99C114.07 230.672 114.808 232.353 115.522 234.034ZM126.719 267.87C126.446 266.503 125.652 265.728 124.314 265.571C124.438 266.803 125.232 267.577 126.719 267.87ZM125.58 264.59C125.429 262.741 124.092 262.608 122.828 261.973C123.205 263.55 124.02 264.252 125.58 264.59ZM129.221 273.566C128.298 271.988 127.958 271.836 126.264 272.242C126.82 273.026 127.814 273.46 129.221 273.566ZM130.803 276.066C129.786 274.54 128.621 274.543 127.269 274.624C127.897 275.406 129.059 275.879 130.803 276.066ZM135.314 282.58C133.975 282.399 132.613 282.243 131.273 282.063C132.514 283.27 133.899 283.401 135.314 282.58ZM116.643 240.241C116.643 240.241 116.412 240.393 116.297 240.493C116.882 241.372 117.443 242.251 118.105 243.269C118.473 242.421 117.978 241.42 116.644 240.264L116.643 240.241ZM110.359 214.517C110.221 214.618 110.106 214.718 109.968 214.819C110.605 215.815 111.219 216.835 111.856 217.83C111.996 217.753 112.134 217.652 112.273 217.574C111.775 216.478 111.368 215.307 110.358 214.494L110.359 214.517ZM122.507 259.466C122.796 260.666 123.533 261.206 124.536 261.305C124.625 261.183 124.692 261.061 124.781 260.938C124.023 260.447 123.265 259.957 122.507 259.466ZM128.329 279.953C127.9 279.377 127.272 279.142 126.491 279.223C127.289 279.546 127.822 279.761 128.329 279.953ZM126.135 277.027L126.479 276.727C126.203 276.382 125.903 276.038 125.627 275.717C125.489 275.818 125.375 275.942 125.237 276.043C125.536 276.363 125.836 276.707 126.112 277.028L126.135 277.027Z" fill="#D0B48C"/>
<path d="M124.204 191.183C124.673 191.591 125.236 191.948 125.637 192.43C127.493 194.681 129.395 196.906 131.113 199.258C132.25 200.827 133.089 202.646 134.088 204.315C134.344 204.756 134.786 205.07 135.285 205.62C134.523 206.722 135.52 207.774 136.128 209.198C136.522 208.42 136.808 207.861 137.335 206.84C137.301 207.721 137.392 208.193 137.265 208.555C136.52 210.584 137.05 212.417 137.936 214.234C138.302 215.003 138.598 215.799 139.023 216.851C139.655 214.945 140.204 213.328 140.752 211.688C140.873 211.73 140.969 211.75 141.09 211.792C140.821 213.302 140.504 214.79 140.307 216.296C140.217 216.966 139.993 217.855 141.283 217.99C141.544 217.409 141.78 216.804 142.191 215.859C142.321 217.78 141.336 219.772 143.729 220.692C144.02 219.705 144.313 218.765 144.731 217.415C144.629 220.035 144.962 221.709 145.73 222.437C145.998 222.022 146.266 221.63 146.51 221.215C146.617 222.59 147.063 223.569 147.849 224.154C148.065 223.646 148.282 223.161 148.497 222.628C148.571 222.696 148.669 222.764 148.672 222.835C148.699 223.452 148.606 224.074 148.727 224.664C148.791 225.065 149.138 225.383 149.648 226.194C150.354 223.785 150.912 221.835 151.472 219.909C151.196 223.464 149.872 226.969 152.309 230.574C153.552 228.5 152.551 226.236 153.542 224.386C154.146 225.169 154.727 225.953 155.406 226.827C155.822 226.548 156.146 226.32 156.446 226.117C156.494 228.35 157.172 229.201 159.055 229.287C159.008 229.86 159.01 230.454 158.867 231.007C158.434 232.572 158.41 232.573 160.087 233.405C160.354 232.989 160.622 232.573 160.889 232.134C160.916 234.986 161.146 235.381 163.122 235.986C163.184 237.434 163.18 239.003 165.013 239.615C165.198 241.152 164.961 242.827 166.556 243.995C167.022 244.332 167.115 245.375 167.098 246.089C167.072 247.707 167.726 249.106 168.287 250.556C168.447 250.954 168.49 251.404 168.303 252.03C168.055 251.803 167.715 251.627 167.559 251.324C166.498 249.301 165.528 247.202 164.396 245.206C163.752 244.044 162.989 242.888 162.091 241.904C160.316 239.863 158.424 237.899 156.533 235.935C155.836 235.203 155.023 234.549 154.168 234.014C151.479 232.298 148.632 230.803 146.057 228.963C143.211 226.921 141.025 224.184 139.603 220.964C137.89 217.042 136.199 213.095 134.814 209.064C133.157 204.236 130.97 199.811 127.479 196.037C126.207 194.641 125.141 193.069 123.983 191.573C124.049 191.451 124.115 191.33 124.181 191.208L124.204 191.183ZM154.983 230.27C155.817 228.094 155.761 227.882 153.921 227.129C153.711 228.327 153.403 229.481 154.983 230.27ZM156.507 229.206C156.266 230.239 156.418 231.017 157.461 231.496C157.966 230.523 157.673 229.774 156.507 229.206ZM144.801 223.5C144.846 224.568 145.187 225.314 145.893 225.688C145.997 224.78 146.102 223.896 144.801 223.5ZM142.393 221.7C142.589 222.382 142.462 223.314 143.472 223.58C143.992 222.393 142.937 222.176 142.393 221.7ZM149.153 226.857C149.115 227.62 149.375 228.155 149.913 228.489C149.977 227.773 150.045 227.128 149.153 226.857ZM147.166 225.42C146.7 226.201 146.863 226.693 147.82 226.819C147.61 226.352 147.376 225.887 147.166 225.42Z" fill="#D0B48C"/>
<path d="M140.225 233.302C140.596 232.525 140.904 231.941 141.408 230.921C141.392 231.659 141.406 231.991 141.373 232.326C141.322 232.803 141.127 233.264 141.171 233.737C141.187 234.093 141.509 234.412 141.769 234.925C142.313 234.307 142.721 233.837 143.242 233.221C143.485 234.447 142.214 235.88 144.122 236.56C144.458 236.07 144.818 235.603 145.154 235.113C145.229 235.205 145.376 235.293 145.378 235.341C145.255 235.798 145.036 236.259 145.008 236.712C144.911 237.763 145.642 238.183 147.109 238.002C147.741 239.996 148.13 240.193 149.651 239.058C149.998 239.947 149.014 241.416 151.024 241.71C151.226 241.416 151.492 240.977 151.939 240.292C151.957 240.719 151.964 240.885 151.923 241.03C151.526 242.307 151.502 243.426 152.96 244.148C153.235 243.923 153.535 243.696 154.111 243.267C153.559 244.812 153.518 246.074 154.774 247.091C155.053 246.936 155.379 246.78 155.729 246.622C155.476 247.941 155.716 249.096 156.424 250.088C156.67 249.721 156.895 249.426 157.096 249.108C157.274 248.839 157.427 248.523 157.827 247.864C157.633 249.442 157.302 250.597 158.575 251.447C158.894 251.671 158.672 252.608 158.907 253.097C159.09 253.493 159.577 253.758 160.097 254.235C159.756 255.153 159.642 256.371 160.592 257.472C161.794 256.66 160.61 255.664 160.968 254.578C161.414 255.011 161.879 255.3 162.038 255.698C162.515 256.843 162.898 258.015 163.281 259.188C163.528 259.938 163.607 260.672 164.207 261.36C164.556 261.749 164.008 262.843 164.018 263.627C164.047 264.292 164.265 264.948 164.388 265.609C164.488 266.27 164.219 266.662 163.388 266.674C163.31 265.964 163.232 265.254 163.112 264.118C161.699 265.557 160.391 266.66 160.041 268.482C159.239 268.635 158.507 268.762 157.54 268.946C157.538 268.351 157.438 267.69 157.578 267.065C157.998 265.216 157.589 263.426 157.227 261.635C156.273 257.11 155.224 252.612 152.956 248.5C151.925 246.642 150.826 244.858 149.174 243.478C148.706 243.094 148.192 242.759 147.656 242.473C143.569 240.317 139.912 237.644 137.665 233.483C136.685 231.694 135.845 229.851 135.098 227.957C133.869 224.799 132.735 221.637 131.717 218.399C130.889 215.723 129.869 213.009 127.92 210.809C127.295 210.099 126.901 209.212 126.483 208.35C125.679 206.791 124.923 205.23 123.986 203.344C124.548 203.676 125.028 203.799 125.208 204.1C125.8 205.169 126.207 206.34 126.846 207.383C127.256 208.079 127.921 208.597 128.609 209.115C128.86 210.531 129.299 211.915 130.468 213.102C130.735 212.686 130.959 212.367 131.184 212.049C131.283 212.14 131.429 212.228 131.432 212.3C131.467 213.107 131.383 213.943 131.442 214.749C131.466 215.318 131.704 215.879 131.877 216.585C132.437 216.347 132.787 216.189 133.161 216.031C132.889 218.016 133.254 219.879 134.072 221.77C134.444 221.017 134.817 220.264 135.274 219.293C135.159 221.605 134.583 223.698 135.449 226.158C135.909 225.235 136.194 224.676 136.721 223.654C136.621 226.322 135.89 228.684 137.881 230.763C138.346 229.958 138.678 229.373 139.144 228.592C139.454 230.291 138.219 231.985 140.131 233.33L140.225 233.302ZM161.373 264.596C163.133 262.952 163.217 262.686 162.347 260.702C161.444 261.811 160.827 262.955 161.373 264.596ZM161.455 258.172C160.253 258.985 160.65 259.943 161.099 260.97C161.913 260.007 162.015 259.052 161.455 258.172Z" fill="#D0B48C"/>
<path d="M53.9706 279.939C52.1314 278.638 50.9892 276.951 49.9867 274.64C51.2137 276.086 52.1417 277.211 53.1389 278.286C53.339 278.515 53.7445 278.546 54.2531 278.762C54.5232 277.846 54.7497 277.028 55.0218 276.161C53.3529 274.948 52.1248 273.478 51.4471 271.534C51.9967 272.152 52.5453 272.747 53.1187 273.364C53.6663 273.936 54.127 274.701 55.1891 274.513C55.3122 274.055 55.4354 273.598 55.5595 273.165C55.8719 272.129 55.6496 271.378 54.7171 270.704C53.0967 269.513 52.167 267.793 51.5161 265.918C52.77 267.434 53.6582 269.299 55.9291 270.129C56.19 269 56.3867 268.041 56.5855 267.128C54.6948 265.735 53.9243 263.842 53.2334 261.588C54.2417 262.924 55.0748 264.054 55.9543 265.158C56.1049 265.342 56.3927 265.401 56.6125 265.534C58.1508 263.138 56.2313 261.627 55.436 259.711C55.9745 260.068 56.5129 260.426 57.3453 260.984C57.6279 259.807 57.8494 258.87 58.0265 258.007C57.2789 257.206 56.5156 256.597 56.0776 255.807C55.5623 254.878 55.3731 253.792 55.184 252.706C56.0646 253.834 56.1346 255.472 57.8059 256.185C58.1299 254.863 58.6519 253.723 57.7147 252.384C57.0065 251.392 56.7143 250.12 56.2363 248.951C56.3766 248.898 56.516 248.821 56.6564 248.767C57.1419 249.555 57.6037 250.344 58.216 251.316C58.9829 249.785 59.5008 248.55 58.7444 246.989C58.3013 246.081 58.2536 244.965 58.3235 243.821C58.5751 244.143 58.8277 244.489 59.1813 244.973C59.9597 243.156 58.5398 241.648 58.9248 240.085C59.097 240.221 59.294 240.379 59.5137 240.512C59.5622 240.534 59.6324 240.507 59.8708 240.52C60.0157 240.015 60.1812 239.437 60.3477 238.883C60.8847 236.981 61.4464 235.103 61.9122 233.204C62.0964 232.506 62.1114 231.745 62.1036 231.008C62.0691 230.201 61.9634 229.397 61.8394 228.166C62.2022 228.864 62.4093 229.259 62.7711 229.933C64.3675 227.225 63.8008 224.538 63.7986 221.709C64.1458 222.598 64.4136 223.299 64.8153 224.352C66.133 221.799 65.2441 219.364 65.5699 216.972C65.7922 217.723 66.0146 218.475 66.2678 219.392C66.8858 218.271 67.1515 216.143 67.0887 213.007C67.366 213.376 67.5671 213.629 67.8702 214.044C69.3964 211.363 68.1878 208.68 68.5034 206.05C68.6681 206.566 68.8092 207.084 69.0305 207.811C70.5618 205.249 69.7668 202.786 69.4168 200.161C69.8148 200.572 70.0881 200.846 70.4862 201.257C71.3652 200.126 70.8109 198.841 71.3082 197.679C71.421 198.649 71.7257 199.658 71.6002 200.615C70.8434 206.83 69.4397 212.93 67.7233 218.949C66.5438 223.066 65.22 227.141 63.6062 231.11C61.5189 236.241 60.9155 241.593 60.2666 246.996C59.4973 253.473 58.5835 259.909 57.7904 266.387C57.562 268.276 57.5957 270.177 57.4623 272.061C57.153 275.95 56.0038 279.662 54.6132 283.288C53.6723 285.754 51.5226 287.202 49.2658 288.368C48.8002 288.602 48.082 288.49 47.5052 288.348C46.785 288.189 46.1051 287.861 45.3808 287.607C44.4636 287.289 43.9933 286.858 44.6381 285.808C44.8612 285.465 44.6449 284.856 44.6216 284.31C45.6009 284.411 45.7638 285.997 47.2254 285.697C46.5958 284.321 46.0167 283.014 45.4377 281.707C46.8713 282.977 47.2173 285.507 50.2247 285.212C49.0299 283.408 48.0124 281.858 47.0197 280.331C47.1343 280.231 47.2737 280.154 47.3883 280.054C47.8183 280.654 48.2037 281.327 48.7018 281.853C49.3762 282.609 50.0971 283.339 50.9068 283.922C51.57 284.417 52.0543 284.064 52.1581 283.155C50.0786 281.794 48.9862 279.605 48.0085 277.317C48.2333 277.568 48.4808 277.796 48.6591 278.073C48.8612 278.35 48.9704 278.678 49.1724 278.955C49.8499 279.782 50.4839 280.706 51.2977 281.385C52.4322 282.335 53.0867 282.069 53.6914 280.641C53.7782 280.447 53.8176 280.255 53.9675 279.868L53.9706 279.939Z" fill="#D0B48C"/>
<path d="M74.73 218.25C74.6295 218.682 74.5064 219.139 74.3439 219.788C75.7261 219.301 76.5058 218.626 76.9247 217.3C77.658 214.986 78.6081 212.734 79.4859 210.461C80.0845 208.889 80.7069 207.317 81.3283 205.721C81.5216 205.237 81.7149 204.753 82.0527 204.311C82.3272 205.726 81.9785 207.025 81.4379 208.284C80.551 210.344 79.6145 212.358 78.7998 214.438C77.6025 217.58 77.4113 220.894 77.1973 224.232C76.8329 230.169 77.1372 236.172 75.5799 242.018C74.8835 244.64 74.379 247.301 73.7538 249.92C73.5913 250.569 73.3339 251.222 73.0496 251.804C72.1102 253.747 70.0453 254.953 68.2942 254.6C66.6876 254.288 64.8594 252.131 64.8029 250.255C64.7662 248.283 65.0905 246.414 66.0103 244.567C68.4845 239.586 70.7657 234.543 72.3681 229.195C72.5968 228.424 72.5375 227.594 72.5979 226.783C72.7551 224.898 72.7678 222.971 73.0685 221.103C73.2364 220.026 73.8347 219.002 74.2658 217.961C74.435 218.025 74.5814 218.114 74.7506 218.178L74.73 218.25ZM74.6525 234.234C72.4391 235.303 70.6798 236.425 69.9929 238.713C71.2367 238.327 72.3528 237.733 73.4718 237.209C74.6374 236.66 74.9569 235.79 74.6525 234.234ZM72.7356 245.017C70.7864 246.146 68.789 246.707 67.5091 248.474C68.9761 247.746 70.4194 247.018 71.8864 246.29C71.9627 246.405 72.0142 246.498 72.0905 246.614C70.775 247.55 69.4606 248.51 68.1452 249.446C70.6264 249.078 72.7333 248.299 72.7346 244.993L72.7356 245.017ZM75.7717 222.034C73.4931 223.249 73.1034 224.146 73.7706 226.4C76.2067 225.535 76.5778 224.758 75.7717 222.034ZM69.2311 240.363C69.2884 241.145 69.6813 241.438 70.4525 241.119C71.1297 240.829 71.8059 240.514 72.5088 240.27C74.1264 239.726 74.1264 239.726 74.2466 237.533C72.5514 238.485 70.9728 239.385 69.2321 240.387L69.2311 240.363ZM68.8066 243.782C70.0287 243.444 71.2509 243.106 72.4967 242.768C73.4846 242.512 73.7925 241.928 73.4084 240.731C71.6369 241.568 69.7996 241.98 68.8066 243.782ZM73.1857 243.309C71.2162 243.964 68.988 244.131 67.8172 246.226C69.7095 245.432 71.8624 245.173 73.1857 243.309ZM75.659 226.628C73.6677 227.332 73.1739 228.019 73.6167 229.474C75.1746 228.647 75.8481 227.714 75.659 226.628ZM75.398 229.422C72.8756 231.052 72.4914 231.52 72.5523 232.944C73.6727 231.897 75.5191 231.7 75.398 229.422ZM71.077 249.606C69.514 250.315 68.4743 251.025 67.9805 251.712C70.343 251.35 70.7818 251.045 71.077 249.606ZM73.6347 221.555C75.5645 221.639 76.1159 221.187 75.9818 219.718C75.2228 220.322 74.533 220.874 73.6347 221.555ZM74.5289 232.455C73.8856 232.982 73.267 233.532 72.3717 234.284C73.7631 234.01 74.4746 233.409 74.5289 232.455Z" fill="#D0B48C"/>
<path d="M114.233 196.536C114.436 196.836 114.71 197.133 114.843 197.461C116.731 202.112 118.29 206.873 119.451 211.793C120.471 216.173 122.474 220.201 124.78 224.074C125.855 225.859 126.792 227.745 127.681 229.633C128.883 232.15 130.06 234.668 131.098 237.24C132.319 240.208 132.64 243.285 131.848 246.434C131.379 248.262 129.998 248.773 128.523 247.647C128.006 247.241 127.437 246.718 127.221 246.133C125.928 242.574 124.141 239.154 123.669 235.346C123.661 235.156 123.651 234.942 123.631 234.468C124.124 234.875 124.47 235.169 124.839 235.462C126.69 233.695 126.97 232.47 125.778 230.737C125.196 231.571 124.636 232.38 124.075 233.164C124.145 231.473 125.607 230.079 124.789 228.188C124.34 228.254 123.914 228.296 123.229 228.397C124.088 226.791 123.915 225.538 122.793 224.325C122.369 223.868 122.171 223.115 122.071 222.454C121.593 219.621 120.153 217.09 119.301 214.392C118.803 212.772 118.306 211.153 117.95 209.503C117.346 206.485 116.437 203.599 115.176 200.8C114.597 199.493 114.016 198.138 114.233 196.536ZM128.79 236.649C128.62 236.585 128.475 236.52 128.307 236.479C127.516 237.44 126.702 238.427 125.821 239.511C126.057 240.024 126.319 240.607 126.737 241.469C127.998 239.822 129.107 238.514 128.813 236.648L128.79 236.649ZM127.72 233.888C125.443 235.127 124.839 236.58 125.769 238.3C127.243 237.191 127.704 235.72 127.72 233.888ZM129.773 239.627C129.604 239.563 129.41 239.476 129.241 239.412C128.698 240.077 128.157 240.766 127.589 241.385C126.839 242.202 127.011 242.884 127.828 243.634C129.086 242.462 129.891 241.263 129.774 239.651L129.773 239.627ZM127.913 244.51C128.641 244.859 129.079 245.078 129.661 245.339C129.837 244.452 129.974 243.78 130.21 242.605C129.268 243.382 128.716 243.834 127.936 244.485L127.913 244.51Z" fill="#D0B48C"/>
<path d="M81.9878 167.219C82.4844 165.486 81.9256 161.871 81.3173 160.993C81.169 161.975 81.0177 162.885 80.8311 164.082C79.5728 163.018 78.8872 162.001 78.5703 160.707C78.2812 159.506 78.0158 158.305 77.6575 157.155C77.5185 156.685 77.1699 156.32 76.938 155.901C76.7501 155.957 76.586 156.012 76.4219 156.066C76.5357 157.06 76.6496 158.054 76.7943 159.213C74.519 158.835 75.3805 156.182 73.5718 155.594C74.2495 157.538 74.9261 159.459 75.6564 161.521C76.0179 161.077 76.2441 160.806 76.4693 160.511C77.7822 161.739 78.0754 163.034 77.453 164.607C76.867 164.251 76.2574 163.897 75.6467 163.519C75.2641 164.582 76.0783 164.713 76.497 165.052C77.6137 165.955 77.9506 167.162 77.5079 168.671C75.9664 168.214 75.3056 167.219 75.0704 165.612C74.5539 161.877 72.9578 158.473 71.6207 155.011C71.5671 154.871 71.303 154.811 71.1565 154.722C70.3718 155.279 70.7532 155.857 71.0367 156.368C73.0526 160.134 73.7545 164.313 74.9982 168.374C76.4943 168.881 77.5339 169.835 77.5639 171.094C78.3479 171.631 79.2196 171.998 79.2091 172.308C79.1846 173.403 78.802 174.466 78.5255 175.785C77.9274 175.145 77.5273 174.687 77.1055 174.277C76.6837 173.866 76.6906 172.915 75.7462 173.074C76.1695 175.743 76.0798 176.984 75.3923 178.702C73.6291 178.064 75.0287 176.315 74.0315 175.24C73.8374 176.818 73.6619 178.276 73.4627 179.735C73.2646 181.218 73.1376 182.698 72.8435 184.161C72.5731 185.623 72.0385 187.025 71.8166 188.509C71.5886 189.851 70.3061 190.999 70.918 192.519C72.9055 188.391 73.9293 183.972 74.4641 179.241C75.6027 180.286 75.8339 181.798 75.2942 183.081C75.166 183.42 74.9666 183.761 74.9344 184.119C74.8336 185.099 74.7575 186.101 74.7052 187.102C74.6719 187.436 74.7346 187.79 74.7488 188.122C74.82 188.119 74.8923 188.14 74.9397 188.138C75.1436 187.344 75.3475 186.551 75.6725 185.253C76.454 186.29 76.9561 186.91 77.4108 187.533C77.8665 188.179 78.2995 188.85 78.7324 189.521C78.2887 188.042 77.6126 186.692 76.7755 185.467C75.9642 184.289 75.9877 183.171 76.7091 181.689C77.5896 182.817 78.2948 183.738 79.0238 184.658C78.5024 183.586 78.8199 182.669 79.2757 181.651C79.775 180.535 80.0555 179.311 79.8078 177.966C79.5837 176.62 79.7839 175.185 79.8089 173.543C80.4195 173.921 80.7135 174.122 81.0312 174.323C80.7699 173.216 80.3919 172.162 79.7175 171.406C78.6915 170.214 78.6872 169.001 79.0753 167.51C80.8012 168.387 81.9398 169.433 81.4821 171.521C81.3651 172.121 81.5359 172.779 81.5826 173.871C83.2129 171.399 81.3877 169.314 82.0115 167.218L81.9878 167.219ZM78.3157 182.001C75.8937 180.416 76.9417 178.231 76.8659 175.904C79.3693 177.723 78.7208 179.796 78.3157 182.001ZM80.806 167.388C79.174 166.483 79.0957 166.32 79.0468 164.063C80.5282 164.784 80.9941 165.668 80.806 167.388Z" fill="#D0B48C"/>
<path d="M113.131 194.821C112.992 194.898 112.876 194.975 112.737 195.052C111.656 193.695 110.344 192.467 109.542 190.956C108.665 189.352 107.697 187.848 106.636 186.395C106.92 186.359 107.227 186.322 107.512 186.31C109.354 188.8 110.967 191.465 112.785 193.956C112.962 194.186 113 194.517 113.131 194.821Z" fill="#D0B48C"/>
<path d="M135.089 256.092C136.263 254.615 137.591 253.416 138.383 251.908C139.129 250.449 139.339 248.704 139.793 247.068C140.652 248.268 140.274 251.09 138.73 253.368C137.993 254.469 136.913 255.348 135.929 256.27C135.839 256.369 135.473 256.17 135.113 256.091L135.089 256.092Z" fill="#D0B48C"/>
<path d="M137.076 245.871C137.62 249.7 135.48 253.596 131.289 254.013C131.489 253.672 131.591 253.287 131.778 253.208C134.447 252.238 136.035 250.434 136.437 247.61C136.474 247.347 136.606 247.104 136.69 246.839C136.753 246.646 136.841 246.476 137.077 245.895L137.076 245.871Z" fill="#D0B48C"/>
<path d="M142.166 249.257C142.878 252.009 140.285 256.448 137.718 257.033C138.73 255.658 139.704 254.523 140.434 253.255C141.142 252.012 141.581 250.59 142.142 249.258L142.166 249.257Z" fill="#D0B48C"/>
<path d="M84.1734 194.382C85.0225 197.556 83.7862 200.344 82.5984 203.153C82.0573 202.177 82.7587 201.339 82.911 200.453C83.1037 199.398 83.4883 198.383 83.7285 197.326C83.9253 196.367 84.0251 195.363 84.1744 194.406L84.1734 194.382Z" fill="#D0B48C"/>
<path d="M122.95 287.672C125.011 290.248 126.738 292.814 130.174 293.071C127.242 294.029 123.194 291.158 122.95 287.672Z" fill="#D0B48C"/>
<path d="M143.667 260.457C145.895 258.626 146.617 256.026 147.354 253.236C148.378 255.499 146.051 260.046 143.667 260.457Z" fill="#D0B48C"/>
<path d="M140.978 258.174C141.695 257.144 142.534 256.181 143.057 255.064C143.581 253.972 143.765 252.727 144.157 251.307C145.045 253.719 143.673 256.679 140.977 258.15L140.978 258.174Z" fill="#D0B48C"/>
<path d="M72.9494 301.838C70.2203 301.979 68.5976 300.74 67.0693 297.262C67.381 297.32 67.7341 297.233 67.8361 297.395C69.4489 299.515 71.153 300.988 72.9494 301.838Z" fill="#D0B48C"/>
<path d="M146.288 261.661C146.919 260.849 147.624 260.105 148.182 259.249C148.718 258.417 149.058 257.475 149.584 256.43C149.829 258.822 148.458 261.235 146.311 261.66L146.288 261.661Z" fill="#D0B48C"/>
<path d="M58.2361 295.075C57.1201 296.788 54.0704 297.774 52.2068 297.022C54.2242 296.364 56.2188 295.732 58.2361 295.075Z" fill="#D0B48C"/>
<path d="M48.888 293.457C51.0009 293.367 52.9294 292.856 54.7616 291.208C53.5256 293.449 51.3946 294.23 48.888 293.457Z" fill="#D0B48C"/>
<path d="M88.8016 157.463C88.29 155.51 89.0837 154.049 90.2655 152.762C90.411 152.827 90.5564 152.892 90.7019 152.957C90.0764 154.459 89.4271 155.961 88.8016 157.463Z" fill="#D0B48C"/>
<path d="M163.68 253.568C165.305 254.855 166.012 256.917 165.703 259.166C164.948 257.082 164.326 255.325 163.68 253.568Z" fill="#D0B48C"/>
<path d="M69.7548 303.758C67.6893 303.847 66.4702 302.591 65.3115 300.523C67.0055 301.759 68.3806 302.771 69.7548 303.758Z" fill="#D0B48C"/>
<path d="M78.2684 194.814C77.3973 193.353 76.5499 191.891 75.6787 190.43C77.061 191.607 78.0705 192.967 78.2684 194.814Z" fill="#D0B48C"/>
<path d="M50.2277 303.685C51.7369 303.382 52.4151 304.78 53.5729 305.159C52.0647 305.485 51.1684 304.548 50.2277 303.685Z" fill="#D0B48C"/>
<path d="M81.5869 177.793C82.399 179.542 82.4203 180.041 81.7605 181.853L81.5869 177.793Z" fill="#D0B48C"/>
<path d="M139.005 213.169C138.322 211.652 138.337 211.461 139.363 209.3C139.252 210.589 139.116 211.879 139.005 213.169Z" fill="#D0B48C"/>
<path d="M76.6764 204.806C75.9725 203.361 75.4509 202.289 74.8789 201.148C76.1415 202.307 76.3497 202.727 76.6764 204.806Z" fill="#D0B48C"/>
<path d="M109.268 208.421C110.211 208.785 110.577 209.554 110.805 210.448C110.023 209.958 109.472 209.316 109.313 208.371L109.268 208.421Z" fill="#D0B48C"/>
<path d="M150.802 263.222C150.677 263.655 150.531 264.113 150.322 264.787C150.224 264.173 150.368 263.644 150.802 263.222Z" fill="#D0B48C"/>
<path d="M27.5403 254.053C27.52 253.579 27.5482 253.127 27.5516 252.651C27.6465 252.647 27.7413 252.643 27.8362 252.639C27.8327 253.114 27.8293 253.59 27.8259 254.065C27.731 254.069 27.6599 254.072 27.564 254.052L27.5403 254.053Z" fill="#D0B48C"/>
<path d="M107.532 310.778C107.683 310.415 107.857 310.051 108.008 309.689C108.129 309.731 108.273 309.772 108.394 309.815C108.267 310.2 108.142 310.609 108.04 310.994C107.871 310.93 107.702 310.866 107.533 310.802L107.532 310.778Z" fill="#D0B48C"/>
<path d="M40.4291 250.818C40.7299 251.185 41.007 251.554 41.3078 251.921C41.216 251.996 41.1005 252.072 41.0086 252.148C40.7316 251.779 40.4308 251.412 40.1527 251.02C40.2445 250.945 40.3363 250.87 40.4518 250.793L40.4291 250.818Z" fill="#D0B48C"/>
<path d="M76.1338 197.068C75.9753 196.695 75.8168 196.321 75.6593 195.972C75.7295 195.945 75.8223 195.894 75.8924 195.867C76.0509 196.24 76.2321 196.589 76.3906 196.962C76.2978 197.014 76.204 197.041 76.1111 197.093L76.1338 197.068Z" fill="#D0B48C"/>
<path d="M94.9394 195.365C94.8995 194.986 94.8358 194.609 94.7959 194.23C94.867 194.227 94.9382 194.224 95.0093 194.221C95.0493 194.6 95.0892 194.978 95.1291 195.357C95.058 195.36 94.9869 195.363 94.9157 195.366L94.9394 195.365Z" fill="#D0B48C"/>
<path d="M53.7153 215.578C53.5351 215.253 53.3559 214.952 53.1994 214.626C53.2685 214.576 53.3613 214.524 53.4315 214.498C53.6107 214.799 53.7898 215.1 53.968 215.378C53.8762 215.453 53.8071 215.503 53.7153 215.578Z" fill="#D0B48C"/>
<path d="M90.6094 268.055C91.2514 268.051 91.8707 268.072 92.6799 268.085C92.0809 268.539 91.3914 268.544 90.6094 268.055Z" fill="#D0B48C"/>
<path d="M95.1926 286.83C94.6719 286.876 94.176 286.945 93.348 287.028C94.1713 286.28 94.6814 286.543 95.2173 286.853L95.2163 286.829L95.1926 286.83Z" fill="#D0B48C"/>
</svg>
