<svg width="326" height="337" viewBox="0 0 326 337" fill="none" xmlns="http://www.w3.org/2000/svg">
<path d="M162.572 93.4609C159.69 93.5841 149.353 95.401 146.39 95.5277C142.379 98.1734 135.032 99.9315 127.623 100.248C120.242 110.873 110.54 115.412 102.584 117.403C97.1906 126.293 80.9008 145.546 76.3434 149.867C75.3317 153.209 71.4834 159.97 69.6857 162.933C69.3621 165.008 68.1878 170.337 66.0795 175.044C63.5881 180.607 61.5399 183.575 55.0779 184.497M326.208 -0.000629453C315.541 9.15758 292.473 28.9078 285.539 34.6431C276.872 41.8123 261.845 46.5339 249.671 48.0063C237.497 49.4787 228.368 49.0533 205.853 47.1608C187.84 45.6468 170.348 43.5108 163.854 42.632C161.901 41.9629 156.901 40.2699 152.524 38.8508C147.052 37.077 142.415 40.1621 138.583 44.4672C134.752 48.7722 126.718 57.5221 118.778 65.5166C110.837 73.511 86.005 94.4017 82.6262 97.5579C79.2475 100.714 75.5069 107.149 67.7491 117.645C59.9912 128.142 53.0196 138.855 52.1009 142.283C51.1822 145.711 51.1313 153.368 51.4313 160.382C48.9221 172.135 50.1757 183.142 51.1161 187.176C51.7448 186.749 53.1841 185.643 53.9121 184.637C54.3161 184.597 54.7044 184.551 55.0779 184.497M155.337 70.7613C157.156 76.4004 161.233 89.1065 162.992 94.8177C164.751 100.529 166.923 107.058 167.79 109.608M173.734 93.6619C173.197 94.3813 172.48 99.7519 171.837 102.43C171.194 105.108 170.907 109.42 165.304 113.473C162.356 115.606 158.972 118.536 154.008 122.316M329.645 98.1104C325.565 99.8102 316.011 104.444 310.435 109.38C303.466 115.551 299.818 121.086 288.844 127.583C277.869 134.081 258.527 135.979 242.349 136.671C222.493 142.209 202.054 140.404 194.74 141.654C187.427 142.905 177.285 146.955 169.578 151.437C161.871 155.919 146.024 167.715 139.105 171.921C132.185 176.128 121.411 184.17 115.346 186.441C110.494 188.257 108.735 188.466 108.462 188.343C107.529 188.695 105.219 188.91 103.446 186.95C101.23 184.499 99.2062 181.773 97.8541 178.348C96.5021 174.923 96.8117 172.766 98.7316 170.675C99.0058 167.691 99.5976 162.735 104.985 157.146C110.372 151.558 119.314 144.812 135.918 134.636C143.786 129.814 149.538 125.72 154.008 122.316M129.335 101.191C128.734 100.19 131.857 105.383 134.738 107.056C136.533 111.793 142.895 114.381 148.396 115.443C149.765 117.449 152.708 120.861 154.008 122.316M130.389 104.202C117.069 115.707 105.727 124.38 99.1046 129.331C97.433 134.443 93.9156 143.442 90.6691 150.534M106.305 154.674C108.212 150.054 112.676 139.86 115.275 136.039C123.139 130.77 131.205 123.291 136.108 117.982C139.033 116.246 140.976 114.929 141.582 114.488M98.7622 170.35C102.596 167.285 112.631 159.318 117.712 161.612C123.378 164.169 126.266 170.854 125.512 174.231C124.399 179.22 116.612 184.515 110.275 188.097M52.4667 161.12C53.2388 161.202 54.3112 161.968 54.5946 164.311C55.0163 167.799 55.3861 174.102 55.1897 178.227C55.1158 179.78 55.1428 183.054 55.0779 184.497M145.802 81.7972C149.443 86.2592 155.793 91.0976 160.557 93.5471" stroke="#D0B48C" stroke-linecap="round" stroke-linejoin="round"/>
<path d="M179.805 256.044C178.478 251.452 177.872 246.679 175.897 242.215C174.449 238.91 173.003 235.656 170.919 232.73C168.618 229.461 165.282 227.242 162.379 224.577C161.542 223.809 160.678 222.991 159.674 222.431C157.459 221.169 155.316 219.829 153.193 218.362C147.032 214.127 142.528 208.692 139.867 201.695C139.188 199.915 138.206 198.097 136.916 196.72C133.492 193.048 127.712 189.224 125.208 187.347C122.704 185.469 121.191 183.708 121.191 183.708L119.179 184.758C119.179 184.758 120.908 186.646 123.686 188.768C126.464 190.891 132.749 195.064 136.226 199.388C137.447 200.919 138.086 202.927 138.965 204.698C141.803 210.532 145.636 215.569 150.9 219.389C152.871 220.813 155.102 221.873 157.073 223.296C159.901 225.386 162.609 227.607 165.342 229.827C171.25 234.6 174.147 241.235 176.305 248.228C177.323 251.476 177.947 254.892 178.544 258.283C179.035 260.951 179.127 263.686 178.691 266.418C178.023 270.768 177.175 275.026 175.389 279.097C174.724 280.583 174.468 282.252 174.008 283.83C172.699 288.459 170.386 292.553 167.379 296.274C167.214 296.508 166.994 296.668 166.536 297.114C166.992 294.859 167.361 292.908 167.806 290.98C168.039 289.965 168.116 289.986 166.976 288.603C166.804 291.048 165.154 292.425 163.646 294.173C163.503 293.752 163.368 293.531 163.333 293.307C163.271 293.033 163.309 292.755 163.292 292.354C163.023 292.516 162.799 292.576 162.73 292.729C162.589 292.961 162.527 293.266 162.489 293.544C162.114 296.525 160.57 298.626 157.865 299.998C157.201 300.328 156.84 301.298 156.367 301.972C156.657 302.311 157.175 302.666 157.162 302.943C156.82 306.701 155.661 309.565 151.465 310.749C152.555 309.798 153.647 308.872 154.738 307.946C154.282 307.287 153.881 306.726 153.344 305.92C153.217 306.478 153.106 306.81 153.047 307.189C152.91 308.099 152.511 308.77 151.677 309.233C150.499 309.886 149.401 310.662 148.228 311.415C147.774 309.048 148.155 307.951 149.769 306.927C150.526 306.417 151.258 305.909 151.884 305.254C150.512 304.91 149.75 306.476 148.665 306.371C147.126 306.211 147.194 308.394 145.568 307.986C145.321 307.494 144.994 306.905 144.473 305.872C144.306 306.683 144.097 307.069 144.186 307.392C144.51 308.509 144.038 309.207 143.102 309.649C140.788 310.779 138.448 311.884 136.084 312.99C133.012 311.086 130.045 309.278 126.949 307.375C127.04 307.748 127.034 308.201 127.269 308.392C128.682 309.713 130.142 310.957 132.077 311.553C132.994 311.841 133.846 312.382 135.207 313.053C133.598 313.624 132.508 313.997 131.27 314.427C131.001 313.408 130.788 312.538 130.545 311.568C130.045 312.218 129.756 313.085 129.703 314.192C127.892 312.988 126.212 311.879 124.506 310.771C124.385 310.877 124.263 310.958 124.142 311.063C124.332 311.407 124.428 311.88 124.712 312.069C125.932 312.972 127.151 313.874 128.488 314.571C129.67 315.199 130.054 315.936 129.387 317.397C127.594 316.594 125.776 315.793 123.957 314.966C123.889 315.145 123.797 315.35 123.704 315.529C125.134 317.227 127.523 317.276 129.257 318.458C129.471 320.534 129.377 320.689 127.571 321.344C127.356 320.424 127.141 319.503 126.925 318.583L126.499 318.601C126.369 319.662 126.213 320.724 126.038 321.912C122.204 323.332 118.243 324.13 113.786 324.496C115.527 325.829 117.18 325.13 118.857 325.561C117.984 326.88 117.437 328.21 115.671 328.612C111.042 329.664 106.44 330.74 101.701 330.968C100.923 331.001 100.141 330.934 99.3661 331.018C97.4393 331.201 95.8073 330.642 94.5151 329.215C94.2253 328.901 94.0816 328.48 93.8649 328.112C93.6958 328.27 93.5016 328.429 93.3314 328.562C93.6362 329.228 93.9421 329.918 94.3025 330.707C90.7705 330.958 89.5884 327.994 87.48 325.697C87.6182 327.751 88.747 328.884 89.6064 330.179C86.8088 331.153 84.3316 330.806 82.1663 328.939C83.3856 328.661 84.4075 328.466 85.4533 328.246L85.433 327.769C84.4756 327.71 83.5172 327.625 82.5631 327.641C81.2829 327.67 80.0758 327.647 79.4906 325.712C78.8451 327.071 78.0651 327.632 77.0132 327.124C76.1673 326.733 75.3892 326.164 74.4082 325.552C74.2946 325.833 74.1341 326.192 73.9287 326.678C72.7163 326.529 72.5907 325.354 72.13 324.569C72.0211 324.373 72.4271 323.878 72.5658 323.596C71.9535 322.793 71.2879 321.917 70.5417 320.918C70.1479 321.111 69.6799 321.332 69.0647 321.635C69.653 322.464 70.2609 323.167 70.6714 323.953C71.0547 324.691 71.2417 325.537 71.6421 326.676C69.4419 326.342 67.5448 326.047 65.6226 325.752C65.3834 324.858 65.1724 324.038 64.868 322.794C64.3756 323.619 64.095 324.109 63.8134 324.573C62.3491 324.41 61.6845 323.559 61.7237 322.125C61.7442 320.842 61.7408 319.586 61.7682 317.876C61.3414 318.473 60.9759 318.739 60.9626 319.016C61.0223 320.999 61.1081 323.005 61.219 325.011C61.2522 325.788 61.461 326.558 61.6891 327.78C59.508 326.717 57.6865 325.84 55.888 324.912C54.6039 324.263 53.345 323.614 52.1068 322.863C51.2545 322.321 50.471 321.626 49.6394 320.983C47.1769 321.566 45.3867 319.657 43.1421 318.874C43.3094 318.088 43.4342 317.48 43.56 316.896C45.1017 317.107 45.3037 318.304 45.3924 319.205C46.7142 318.972 47.7873 318.801 49.1101 318.594C47.4258 317.987 46.4629 316.621 44.879 316.011C42.5559 315.155 42.3396 314.21 43.4677 311.8C45.8044 311.8 47.6369 314.109 50.1923 313.346C47.0377 311.848 43.9332 310.347 40.855 308.871C40.7786 308.849 40.6357 309.031 40.3924 309.217C41.1268 309.94 41.8863 310.661 42.7515 311.504C42.5296 312.191 42.2619 312.982 41.9953 313.797C39.7661 312.787 39.7138 312.739 39.8702 310.521C39.5058 310.813 39.2145 311.052 38.9232 311.29C37.0659 310.164 37.0115 310.066 37.6573 308.128C37.9447 307.212 38.3085 306.317 38.4924 305.329C37.8341 306.387 37.1507 307.447 36.4204 308.583C34.9677 307.515 33.4504 306.7 34.1826 304.433C33.5445 304.787 33.0446 305.436 32.5076 304.63C32.0773 303.97 31.6471 303.31 31.1427 302.678C30.9041 302.387 30.5673 302.15 30.1761 301.815C29.9356 302.654 29.7869 303.289 29.4829 304.407C28.7661 303.508 28.29 302.951 27.8619 302.341C27.169 301.416 26.5984 300.41 25.8095 299.59C25.0174 298.694 24.6276 297.806 25.2666 296.296C23.3224 297.837 22.9901 295.941 22.2968 295.594L22.1542 292.258L23.4333 292.204C22.9282 290.969 22.4525 289.833 21.9496 288.649C21.7196 288.558 21.1416 288.558 20.903 288.266C20.2123 287.391 19.2981 286.576 19.468 285.262C19.4648 285.187 19.4616 285.112 19.4594 285.062C18.3636 283.526 17.2939 282.014 15.9995 280.536C16.3408 282.054 17.0823 283.53 15.6136 285.025C15.4545 284.831 15.2224 284.69 15.1375 284.468C14.0227 281.902 12.8839 279.363 12.8097 276.451C12.7335 274.671 13.3223 273.163 14.5264 271.353C14.9526 273.093 15.3136 274.485 15.6495 275.878C15.9564 273.654 14.8807 271.413 16.4972 269.258C17.0803 271.143 17.6623 273.003 18.2454 274.887C18.2956 274.885 18.3436 274.833 18.3938 274.831C18.102 272.708 17.8603 270.582 17.4943 268.487C17.2021 266.942 17.9378 265.93 19.0934 264.75C19.6242 266.587 20.0712 268.226 20.5433 269.864C20.714 267.395 19.682 265.002 20.1484 262.394C21.3881 262.592 21.5116 263.717 22.0411 264.348C22.5967 265.003 22.908 265.818 23.637 266.415C23.0524 265.084 22.4417 263.728 21.8331 262.422C21.1417 260.944 20.9573 259.57 22.4816 258.198C23.317 259.519 24.1263 260.816 24.9355 262.114C24.3636 259.902 23.0216 257.899 23.474 254.965C24.8138 256.918 25.8857 258.48 26.9565 260.017C27.0547 259.963 27.1518 259.883 27.2499 259.829C26.5367 258.427 25.6741 257.057 25.1081 255.573C24.5443 254.14 23.8006 252.614 24.8312 250.861C26.5509 252.295 26.9047 254.692 28.7433 255.971C27.3691 253.215 25.4518 250.684 25.6624 247.384C27.405 248.766 28.0565 251.075 30.1678 252.266C28.3817 249.277 25.8341 246.698 27.1247 242.798C28.0145 244.218 28.8793 245.638 29.743 247.033C29.8663 246.978 29.9895 246.922 30.1117 246.842C29.5293 245.56 28.8476 244.308 28.4134 242.969C27.9793 241.631 27.0382 240.189 28.6879 238.812C29.2543 239.717 29.7924 240.549 30.3054 241.381C30.3252 239.496 28.8227 237.851 29.9584 235.617C30.9428 237.484 31.766 239.107 32.6132 240.704C32.2257 238.108 30.4936 235.795 31.7257 232.878C32.4443 234.405 33.189 235.956 33.9076 237.483C33.8462 234.873 32.2854 232.452 33.185 229.398C34.633 230.944 34.2151 232.922 35.4278 234.252C35.1728 232.404 34.9211 230.631 34.6945 228.856C34.5753 227.831 34.5847 226.876 35.8065 226.07C36.1163 227.439 36.4218 228.707 36.8197 230.373C37.3864 227.761 36.1516 225.327 38.227 223.328C38.564 224.746 38.8749 226.14 39.2119 227.558L39.4376 227.548C39.4282 225.563 39.4437 223.578 39.4593 221.592C39.6338 221.559 39.8345 221.551 40.009 221.518C40.4405 223.384 40.8732 225.275 41.3961 227.514C41.2888 225.006 41.1987 222.9 41.1086 220.793C41.0679 219.84 41.0042 218.938 42.4144 218.425C42.6676 219.646 42.8925 220.792 43.1773 222.162C44.1982 220.183 42.5205 217.969 44.1968 216.038C44.6052 216.774 44.9308 217.338 45.2554 217.877L45.5563 217.864C45.5636 216.859 45.3659 215.761 45.6784 214.844C46.0139 213.874 46.8606 213.11 47.4773 212.254C47.6539 212.272 47.8055 212.29 47.957 212.309C48.082 212.881 48.2059 213.429 48.3309 214.001C48.4581 214.624 48.5852 215.247 48.7177 215.995C49.7605 213.94 48.3294 211.615 49.7014 209.621C51.041 210.393 50.3791 211.954 51.4263 212.939C51.703 211.772 51.4824 210.726 51.2399 209.756C50.8495 208.265 51.4368 207.311 52.7504 206.3C52.9689 207.295 53.1548 208.117 53.3406 208.938L53.767 208.92C53.8298 208.037 53.8926 207.155 53.9303 206.274C53.992 205.367 53.7484 204.373 54.8001 203.699C55.8036 204.837 55.2878 206.292 55.8441 207.549C56.3806 205.994 56.1594 204.345 56.166 202.736C56.1342 201.406 56.1091 201.407 57.3149 200.225C57.614 201.343 57.8826 202.336 58.1859 203.555C58.8794 202.143 58.3972 200.857 58.2705 199.656C58.1656 198.38 58.5523 197.433 59.6903 196.43C60.0342 197.42 60.3204 198.237 60.6044 199.004C61.404 197.135 59.8037 194.968 61.2259 192.972C62.3398 193.754 61.799 195.209 62.7416 196.098C62.7955 193.835 62.1494 191.651 62.9712 189.129C63.957 190.443 63.8874 191.753 64.3824 193.34C65.163 190.442 63.0429 187.869 64.7468 185.409C65.9807 186.06 65.7072 187.303 66.1754 188.263C67.4429 186.173 65.221 184.158 66.1441 181.656C66.6732 182.865 67.0608 183.702 67.4484 184.54C67.5727 184.51 67.6981 184.504 67.8225 184.474C67.6531 183.451 67.4576 182.404 67.3624 181.353C67.2432 180.328 67.2483 179.272 67.1828 177.742C67.8735 178.617 68.2723 179.128 68.9085 179.905C68.4257 178.016 68.0321 176.45 67.5461 174.485C68.4651 174.823 68.9502 175.003 69.5116 175.205C69.4998 174.929 69.5632 174.65 69.4837 174.553C68.5139 173.615 68.1156 172.526 68.015 171.35L67.4727 173.358L65.1959 176.521C64.9102 178.066 64.4969 179.566 63.9081 181.073C62.3449 185.06 60.629 189.003 58.9383 192.944C58.343 194.301 57.5428 195.567 56.9988 196.947C56.41 198.455 55.0115 199.243 54.11 200.488C52.3319 202.976 50.4765 205.417 48.5436 207.811C45.8458 211.118 43.0182 214.329 40.1656 217.542C37.744 220.258 35.1185 222.908 33.2408 226.004C30.8947 229.898 28.189 233.607 26.5153 237.95C25.2044 241.373 24.0952 244.812 23.241 248.341C21.4683 255.654 18.309 262.271 13.9451 268.337C12.8537 269.841 11.8155 271.419 11.5198 273.316C10.9985 276.403 11.2046 279.46 12.2613 282.43C13.3746 285.548 14.7301 288.455 16.7061 291.185C18.7356 293.987 20.6418 296.846 23.0836 299.304C24.1864 300.413 25.121 301.705 25.9564 303.026C26.9813 304.665 27.7848 306.415 28.7115 308.109C32.2877 314.765 38.2102 318.708 44.7297 321.922C48.9656 324.027 53.3172 325.901 57.553 328.007C59.6066 329.024 61.5445 330.273 63.4573 331.523C64.6725 332.325 65.9101 332.474 67.1458 331.994C69.1724 331.203 71.2354 331.266 73.3027 331.429C75.3951 331.591 77.4427 331.88 79.534 332.017C83.238 332.26 86.9846 332.326 90.6929 332.67C94.9311 333.067 99.1424 332.836 103.354 332.606C105.285 332.523 107.262 332.338 109.072 331.784C110.909 331.253 112.793 331.248 114.634 330.817C116.45 330.388 118.237 329.859 120.084 329.579C125.403 328.799 130.294 326.856 134.932 324.245C138 322.556 140.986 320.695 143.945 318.785C145.583 317.735 146.925 316.22 148.624 315.393C153.202 313.162 157.035 309.958 160.813 306.656C164.227 303.645 166.964 300.061 169.62 296.38C172.68 292.128 174.973 287.583 176.237 282.478C176.579 281.082 177.125 279.752 177.544 278.377C178.293 275.908 179.092 273.436 179.714 270.947C180.959 265.994 181.222 260.983 179.78 256.045L179.805 256.044ZM17.3854 288.266C17.0025 286.951 16.324 285.774 17.1647 284.281C18.593 285.953 18.6037 286.204 17.3854 288.266ZM20.6432 293.353C19.2933 291.752 18.7929 290.04 18.92 287.723C20.5532 289.487 21.6971 290.971 20.6432 293.353ZM32.0736 309.171C30.6832 307.798 30.0399 306.268 30.3468 304.044C32.7891 305.924 33.024 306.718 32.0736 309.171ZM35.8589 313.08C33.8662 312.311 32.9442 310.139 33.8114 308.092C35.8443 309.211 36.494 310.892 35.8589 313.08ZM38.4416 315.306C37.5754 314.439 36.9599 313.56 37.2574 312.291C38.2319 312.752 38.627 313.765 38.4416 315.306ZM39.7814 314.319C41.0654 314.968 41.7919 316.092 41.9347 317.669C39.9997 317.074 39.295 315.873 39.7814 314.319ZM62.9956 326.015C65.366 326.215 64.6098 328.509 65.6416 329.721C63.5481 329.534 62.851 328.509 62.9956 326.015ZM66.1155 327.289C67.5003 327.355 68.4812 327.966 69.0354 329.174C67.1016 329.784 66.8444 329.645 66.1155 327.289ZM69.9631 327.953C71.613 327.757 72.6606 328.165 73.131 329.175C71.8221 329.708 70.8748 329.296 69.9631 327.953ZM77.3129 328.845C79.4276 328.353 79.5552 328.397 80.4088 330.145C79.4626 329.758 78.5404 329.345 77.3129 328.845ZM123.827 326.63C122.311 327.021 120.745 327.415 118.981 327.867C119.94 324.459 122.406 323.952 125.334 323.676C124.801 324.729 124.337 325.628 123.827 326.63ZM127.5 325.543C127.053 325.688 126.483 325.863 125.913 326.038C126.489 324.833 126.295 323.233 128.134 322.752C127.901 323.767 127.734 324.553 127.5 325.543ZM129.042 324.598C129.271 322.905 129.974 321.719 131.66 321.194C133 320.785 134.336 320.301 135.995 319.727C134.61 322.601 132.681 323.915 129.042 324.598ZM134.753 318.901C133.497 319.483 132.131 319.868 130.82 320.351C130.714 320.205 130.608 320.083 130.501 319.937C130.807 319.447 131.087 318.957 131.488 318.337C131.327 318.093 130.96 317.732 130.841 317.31C130.544 316.242 131.021 315.644 132.128 315.672C132.757 315.695 133.39 315.819 134.022 315.892C134.242 313.998 135.812 314.283 136.895 313.759C137.565 316.494 136.996 317.876 134.753 318.901ZM137.141 320.684C137.489 319.412 138.154 318.505 139.136 317.985C139.331 319.61 139.306 319.611 137.141 320.684ZM140.815 318.466C141.064 316.646 141.088 316.62 142.959 316.892C142.276 317.373 141.619 317.879 140.815 318.466ZM140.63 315.308C140.329 315.321 140.02 315.736 139.728 315.95C139.462 316.187 139.221 316.449 138.928 316.637C138.757 316.745 138.53 316.73 138.331 316.788C137.689 314.102 138.175 313.127 140.493 312.098C141.602 311.598 142.686 311.099 143.944 310.543C144.665 313.301 143.164 315.225 140.63 315.308ZM144.83 315.405C144.83 315.405 144.72 315.183 144.719 315.158C144.988 314.971 145.257 314.809 145.5 314.622C145.581 314.745 145.637 314.893 145.718 315.015C145.422 315.153 145.127 315.292 144.83 315.405ZM145.535 313.088C144.884 310.779 145.288 309.657 147.211 308.795C146.83 310.47 146.846 312.002 145.535 313.088ZM160.508 302.448C160.24 303.238 159.973 304.054 159.552 304.775C159.223 305.317 158.688 305.717 157.918 305.925C158.081 304.461 158.244 302.972 158.482 301.504C158.543 301.15 158.904 300.783 159.193 300.494C159.844 299.863 160.573 299.279 161.251 298.672C161.404 298.741 161.558 298.81 161.737 298.877C161.336 300.076 160.935 301.274 160.508 302.448ZM161.656 302.851C162.942 299.454 162.28 295.713 166.029 293.493C165.197 296.946 165.016 300.345 161.656 302.851ZM92.7499 151.623C95.1508 151.948 97.5932 152.069 99.9898 152.293C100.217 152.309 100.416 152.275 100.643 152.291C103.229 152.255 104.81 153.972 104.401 156.15C105.122 155.969 105.796 155.864 106.323 155.842C106.473 154.654 106.043 153.417 105.24 152.27C103.555 149.88 100.851 150.699 98.612 150.041C96.8918 150.944 95.2283 150.236 93.6007 149.778C89.7861 148.71 86.1766 148.914 82.5008 150.504C80.2069 151.506 77.8859 152.46 74.9515 152.585L74.353 153.867L73.771 154.947C77.5155 154.963 80.9283 153.687 84.3032 152.11C87.0618 150.811 89.8944 151.243 92.7499 151.623ZM71.143 170.462C71.1756 170.637 71.1863 170.887 71.1175 171.041C70.0944 172.969 70.9 174.769 71.8432 176.261C72.9466 177.973 72.5702 179.748 73.0205 181.462C72.847 181.52 72.6736 181.578 72.5002 181.635C72.0277 180.575 71.5301 179.516 71.0577 178.456C70.7966 180.578 71.6044 182.428 72.4111 184.252C72.8836 185.313 72.9076 185.286 72.274 186.922C71.8448 186.287 71.469 185.725 70.9037 184.845C70.3769 186.626 71.2445 188.699 68.9169 189.502C69.0347 191.08 69.7683 192.959 68.6187 194.867C68.2275 194.532 67.8352 194.172 67.445 193.862C67.421 193.888 67.4221 193.913 67.3981 193.939C67.5424 194.963 67.7881 196.008 67.7307 197.016C67.6897 197.821 67.2203 198.595 66.863 199.641C65.7373 198.583 65.6715 197.631 66.1542 196.581C66.543 195.685 66.9831 194.811 67.3981 193.939L67.3927 193.814L67.445 193.862L67.3818 192.382C66.5464 194.001 65.8957 195.235 65.3212 196.491C63.6394 200.055 61.3909 203.292 58.8295 206.266C57.1565 208.272 55.1456 210.016 53.6273 212.117C51.2096 215.512 48.8453 218.98 47.1786 222.895C47.4928 222.605 47.8332 222.339 48.1725 222.049C49.7509 224.293 49.7383 225.173 48.3838 226.989C47.956 227.56 47.866 228.393 47.595 229.109C48.7243 229.663 49.6446 231.207 49.3593 232.174C49.1615 232.836 48.8099 233.429 48.396 234.326C46.7868 232.535 47.6909 230.763 47.5961 229.134C47.3252 229.849 47.0542 230.564 46.6675 231.51C46.0564 230.732 45.6304 230.173 45.1794 229.614C45.1063 229.667 45.0081 229.722 44.9089 229.751C45.4705 231.134 45.958 232.546 46.6179 233.874C47.4998 235.696 47.5489 235.669 46.2478 237.558C44.0868 235.791 43.5574 233.402 43.4789 230.39C43.4107 231.147 43.4508 231.497 43.3372 231.778C43.1985 232.061 42.9051 232.249 42.8571 232.301L43.1284 238.647C42.5584 238.244 42.1955 237.983 41.8075 237.723C41.7387 237.877 41.6197 238.033 41.648 238.107C42.1477 239.216 42.6965 240.298 43.2213 241.406C43.8593 242.811 44.2966 244.225 43.131 245.757C41.3031 244.73 40.697 242.896 39.5739 241.311C39.7759 242.509 40.0782 243.702 40.1547 244.905C40.2596 246.181 40.1387 247.468 40.1257 248.926C38.5002 248.518 38.2309 246.922 36.9494 245.745C37.6884 247.749 38.7975 249.008 39.7605 250.374C40.3509 251.253 40.8201 252.238 41.3374 253.171C41.8275 254.054 41.4573 254.799 40.9596 255.499C38.8185 254.786 38.3882 254.126 37.5339 251.776C37.391 251.958 37.296 252.087 37.201 252.217C37.057 252.374 36.9119 252.506 36.6707 252.742C37.773 254.429 38.5045 256.257 38.2878 258.829C37.1307 257.622 36.2361 256.68 35.2097 255.594C35.0191 259.949 35.87 263.983 37.4744 268.01C35.6553 268.364 35.6634 266.203 34.3005 266.06C34.4576 267.385 34.6858 268.606 34.7394 269.86C34.8005 271.29 34.8584 272.644 35.6917 273.915C36.0675 274.477 36.1258 275.253 36.3314 275.948C33.9531 276.15 33.1488 275.557 32.7305 273.414C32.5392 272.467 32.3731 271.519 32.208 270.597C32.0575 270.603 31.907 270.61 31.7566 270.616C31.7995 271.619 31.8685 272.646 31.8863 273.651C31.8906 273.751 31.4424 273.846 31.0475 274.013C33.4311 275.695 32.3681 278.454 33.7219 280.733C32.6567 280.502 31.9721 280.356 31.3114 280.183C29.8144 276.905 29.7384 273.366 29.1379 269.899C28.5695 274.823 29.8715 279.415 31.7173 284.387C30.6622 283.804 29.9417 283.407 28.9378 282.847C29.2093 284.494 30.2622 285.027 31.1658 285.591C32.1729 286.227 33.0305 286.894 33.0469 288.451C31.4683 287.965 30.0424 287.524 29.6631 285.706C28.7677 285.92 28.1924 285.392 27.9621 284.12C27.2476 284.452 26.8438 284.997 26.6972 285.682C26.0986 288.723 27.5006 292.13 30.2048 293.673C32.3945 294.936 37.139 294.834 38.6399 291.151C39.9114 287.981 40.7031 284.756 40.6827 281.34C40.6835 280.184 40.8108 279.048 40.8804 277.739C41.8528 278.149 42.6464 278.492 43.44 278.835C43.5098 278.707 43.5808 278.603 43.6256 278.475C43.3662 278.286 43.0577 278.123 42.8224 277.907C41.6247 276.928 40.7237 275.836 40.8754 274.095C41.2646 269.682 41.5523 265.247 41.8902 260.811C41.8795 260.56 41.9942 260.304 42.0982 259.797C42.8011 260.37 43.322 260.8 43.8429 261.23C43.9171 261.201 43.9902 261.148 44.0632 261.095C43.4937 260.114 42.6514 259.22 42.4068 258.201C42.1611 257.156 42.513 255.985 42.6483 254.446C43.7771 255.579 44.5922 256.424 45.4072 257.268C45.5294 257.188 45.6265 257.108 45.7487 257.027C44.4446 255.324 43.1908 253.619 43.86 251.053C44.7187 251.745 45.3704 252.295 46.0482 252.869C45.3579 251.416 44.7461 250.035 44.3124 248.119C45.0382 248.641 45.4012 248.901 45.9712 249.304C45.2322 247.301 44.0536 245.592 45.5217 243.494C45.977 244.153 46.3528 244.715 46.8615 245.447C47.2031 243.447 45.3585 241.441 47.3422 239.647C47.7452 240.258 48.121 240.82 48.4717 241.383C48.4131 239.426 47.5541 237.553 48.9273 235.584C49.3751 236.068 49.7183 236.455 50.141 236.94C50.2066 236.711 50.3245 236.53 50.317 236.354C50.1459 234.703 49.9246 233.054 51.3171 231.537C51.7014 232.3 52.0314 232.964 52.5834 234.122C52.1351 231.276 52.3384 228.981 53.837 227.007C54.3358 226.333 54.912 225.705 55.4631 225.079C55.6311 224.896 56.002 224.754 55.9945 224.578C56.0186 222.793 57.5468 222.1 58.5215 220.802C58.9954 221.309 59.3909 221.745 59.9695 222.348C59.6068 220.328 60.1107 218.598 61.4802 217.133C61.8298 217.67 62.1533 218.184 62.4496 218.649C62.5465 217.389 62.3871 216.013 62.8416 214.888C63.3168 213.662 64.3806 212.687 65.2833 211.467C65.9099 212.019 66.4591 212.523 67.0072 213.002C67.0803 212.948 67.1283 212.896 67.2014 212.843C66.8181 212.105 66.4359 211.393 65.9415 210.409C70.6235 204.731 72.9204 197.924 74.4739 190.772C76.0252 183.57 75.0904 176.399 73.8231 169.091C75.1554 170.868 75.8144 173.353 76.9857 180.765C77.8272 178.116 77.7318 175.884 76.2825 171.373C75.2728 168.326 74.0646 165.337 72.8152 161.973C72.2411 162.651 71.9301 163.016 71.5962 163.433C71.2289 163.071 70.8628 162.735 70.4705 162.375L69.7795 165.018C69.9156 165.263 70.0037 165.561 70.0918 165.859C70.4833 167.375 70.8246 168.893 71.1921 170.435L71.143 170.462ZM29.5187 289.38C28.6323 289.217 28.201 288.532 27.8166 287.77C27.9356 287.614 28.0556 287.483 28.1746 287.327C28.7511 287.881 29.3275 288.434 29.8788 288.988C29.7588 289.119 29.6388 289.25 29.5187 289.38ZM37.2533 279.879C34.357 278.545 33.7293 277.969 33.617 276.516C36.8146 277.259 36.8931 277.331 37.2533 279.879ZM37.9305 282.789C34.8471 282.369 34.5856 282.128 34.6972 280.038C37.0988 280.966 37.9335 281.684 37.9305 282.789ZM32.1843 282.382C33.9822 282.707 34.6116 283.911 34.8612 285.634C32.5921 285.455 32.9348 283.481 32.1843 282.382ZM31.0167 289.744C32.3331 289.386 33.1897 290.028 34.0004 290.772C32.9023 290.944 31.7801 291.143 31.0167 289.744ZM35.4553 288.951C34.5011 288.966 34.3489 288.345 34.3167 287.592C35.1935 287.53 35.5639 287.966 35.4553 288.951ZM38.0474 285.523C37.9861 285.852 37.6031 286.296 37.2781 286.335C36.9793 286.398 36.4637 286.093 36.2753 285.8C35.9529 285.311 35.8007 284.69 35.4034 283.626C36.474 283.982 37.1565 284.079 37.7233 284.406C37.9816 284.571 38.1327 285.168 38.0474 285.523ZM38.4495 276.712C36.9863 276.573 37.2652 275.456 36.9725 274.489C38.1455 274.891 38.6302 275.649 38.4495 276.712ZM38.4312 273.346C36.2156 273.239 35.4325 271.966 35.6495 268.816C39.1617 270.45 38.7829 270.994 38.4312 273.346ZM38.6621 267.582C37.783 266.413 37.2657 265.481 37.401 263.942C38.1289 264.514 38.6739 264.918 39.2711 265.37C39.0754 266.082 38.8994 266.667 38.6621 267.582ZM39.7585 263.842C36.5662 263.224 35.3715 261.14 35.9032 257.122C37.433 258.815 38.8069 260.39 40.3649 262.157C40.1628 262.719 39.9606 263.28 39.7585 263.842ZM40.5908 260.389C39.4272 259.031 39.0246 257.843 39.1336 256.28C39.8706 256.475 40.3285 256.606 41.0153 256.803C40.8859 257.889 40.7554 258.95 40.5908 260.389ZM42.763 249.492C42.5433 250.23 42.4239 250.963 42.2544 251.699C41.0694 249.84 40.784 247.868 40.7702 245.783C42.9829 246.995 43.5218 246.67 42.763 249.492ZM44.7448 241.191C44.7448 241.191 44.494 241.201 44.3686 241.207C44.1655 239.984 43.9876 238.761 43.7434 237.163C44.7222 237.724 45.3653 238.074 46.1893 238.541C45.7001 239.441 45.235 240.315 44.7459 241.216L44.7448 241.191ZM65.3281 199.003C66.3093 200.795 65.6052 201.956 64.5248 203.133C63.3985 201.472 63.4795 201.017 65.3281 199.003ZM62.9591 202.949C64.4398 204.669 63.0846 205.883 62.198 207.479C60.8522 204.797 60.9178 204.568 62.9591 202.949ZM60.7948 205.805C61.6821 207.752 61.7256 209.358 59.9452 210.615C58.2094 208.805 58.3715 207.894 60.7948 205.805ZM58.0435 209.038C59.3604 211.042 59.1564 212.734 57.3279 214.044C55.6693 211.1 55.7109 210.897 58.0435 209.038ZM55.5051 211.961C56.636 214.903 56.9351 216.02 54.9336 216.81C53.2452 214.344 53.2925 213.689 55.5051 211.961ZM53.033 215.258C54.6275 217.878 54.3812 219.17 52.1322 220.045C50.921 218.162 51.2808 216.589 53.033 215.258ZM50.5913 218.679C52.1313 221.201 52.0851 221.881 50.2365 223.895C48.5123 221.18 48.565 220.65 50.5913 218.679ZM50.3856 230.321C48.2357 228.227 48.2336 228.177 49.9793 226.695C51.8287 228.224 51.8591 228.348 50.3856 230.321ZM52.354 226.996C51.1825 226.041 51.2281 224.757 52.4407 223.148C52.8523 223.959 53.1801 224.573 53.51 225.238C53.1083 225.833 52.7317 226.427 52.354 226.996ZM54.5732 223.659C52.7164 221.955 52.7296 221.678 54.7191 219.432C55.2604 220.338 55.6928 221.049 56.1534 221.833C55.6034 222.485 55.1014 223.084 54.5732 223.659ZM57.2284 220.531C54.9954 218.842 54.9675 218.19 57.0708 216.844C57.5021 217.529 57.9345 218.239 58.4213 219.047C57.9913 219.568 57.6093 220.037 57.2284 220.531ZM59.1516 217.911C58.8858 217.57 58.6221 217.28 58.3814 216.939C58.1657 216.596 57.973 216.202 57.6735 215.662C58.2193 214.91 58.7639 214.133 59.3556 213.279C61.0973 215.817 61.0995 215.868 59.1516 217.911ZM61.7352 214.283C59.969 212.348 60.0031 211.97 61.8166 210.309C62.2938 210.892 62.7709 211.474 63.3277 212.154C62.8289 212.829 62.282 213.556 61.7352 214.283ZM64.0948 211.292C61.9589 209.524 62.591 208.442 64.192 206.514C64.6628 206.946 65.1575 207.352 65.6523 207.758C65.7995 207.676 65.9457 207.57 66.093 207.488C65.5729 205.902 63.8425 204.217 66.4976 202.847C66.9898 203.781 67.4809 204.69 68.0004 205.673C66.6741 207.564 65.396 209.402 64.0948 211.292ZM68.7257 203.833C66.6991 201.683 66.6515 201.157 68.4499 199.146C69.0997 200.827 70.5915 202.22 68.7257 203.833ZM70.2094 199.749C69.4689 198.298 68.4143 197.137 69.749 195.447C70.3083 195.599 70.8425 195.752 71.3756 195.88C71.3311 197.188 71.2625 198.523 70.2094 199.749ZM71.4543 194.193C70.2549 192.586 70.3639 191.024 71.1459 189.332C72.2962 190.966 72.3155 191.417 71.4543 194.193ZM73.2089 166.479C73.3493 166.825 73.4646 167.172 73.6051 167.518C73.5058 167.547 73.4076 167.601 73.3094 167.656C73.145 167.336 72.9806 167.017 72.7911 166.698C72.9394 166.641 73.0616 166.561 73.2089 166.479Z" fill="#D0B48C"/>
<path d="M114.152 296.616C113.069 291.26 111.563 285.997 110.854 280.6C110.292 276.253 109.802 271.851 109.711 267.383C109.59 261.609 108.589 255.822 108.09 250.04C107.742 246.009 106.973 242.122 105.503 238.316C104.233 235.053 103.26 231.678 102.138 228.359C101.623 226.899 100.985 225.494 100.42 224.035C100.321 224.065 100.247 224.093 100.146 224.097C100.1 224.778 100.029 225.459 99.9596 226.191C98.5626 226.426 97.2419 226.684 95.8908 226.817C94.5659 226.974 93.3472 227.855 91.9682 227.337C92.0003 225.149 92.1204 225.018 94.0462 224.81C94.3962 224.77 94.7452 224.705 95.0942 224.64C95.0899 224.54 95.0856 224.439 95.0813 224.339C94.196 224.201 93.3368 224.087 91.9707 223.869C93.9784 222.049 96.4877 223.148 98.1113 221.747C96.3743 221.671 94.6107 222.148 92.656 221.679C93.2373 219.996 95.3837 220.834 95.7719 219.334C94.9714 219.419 94.171 219.503 93.0456 219.627C93.8695 217.154 96.2055 218.311 97.4385 217.178C96.1812 217.156 95.0755 217.153 93.9688 217.125C93.7593 215.752 94.209 215.105 95.4283 214.826C96.2986 214.613 97.108 214.152 97.9479 213.814C97.8945 213.741 97.8652 213.642 97.8118 213.569C96.8129 213.712 95.8139 213.855 94.7648 214.001C94.7575 212.066 95.1528 211.321 96.8529 211.122C98.1037 210.993 98.7268 210.288 99.3366 209.86C98.939 209.375 98.369 208.972 98.4041 208.619C98.5333 206.352 98.7879 204.08 99.0687 201.831C99.0558 201.53 99.4474 201.287 99.4944 201.21C99.1971 200.72 98.7023 200.314 98.7374 199.961C98.7902 199.431 99.2201 198.91 99.4746 198.397C98.4596 198.164 98.2145 197.722 98.3916 197.162C96.0756 197.06 94.4282 196.728 93.9729 196.069C93.8923 195.947 93.8117 195.825 93.73 195.678C93.9785 197.375 94.1758 199.051 94.2727 200.73C94.4548 203.813 94.4624 206.928 94.0644 209.96C93.5657 213.574 92.56 217.085 91.7833 220.661C91.4463 222.183 91.0341 223.708 90.8488 225.249C90.5451 227.548 90.4442 229.889 90.2419 232.209C90.054 234.278 89.7908 236.349 89.653 238.416C89.3492 242.474 89.1467 246.553 88.8178 250.612C88.6836 252.176 87.9966 253.738 88.1613 255.239C88.4244 257.866 87.9036 260.375 87.229 262.816C86.3359 266.02 86.1568 269.47 84.0655 272.273C83.9716 272.428 84.0838 272.7 84.0422 272.903C83.8705 273.588 83.7751 274.296 83.5261 274.935C81.6134 279.564 79.5482 284.15 78.4782 289.096C78.1829 290.415 77.7883 291.763 77.1092 292.923C75.5436 295.679 75.0213 298.741 74.1676 301.692C73.5095 303.932 73.1829 306.282 72.8814 308.632C72.307 312.827 76.8465 317.332 79.86 317.881C82.9989 318.426 86.1067 318.243 89.2572 317.882C91.2332 317.672 93.2582 317.434 95.2209 317.501C98.8955 317.645 102.543 317.741 106.156 317.033C108.672 316.524 110.792 315.579 112.073 313.212C112.98 311.515 114.068 309.911 114.923 308.166C115.339 307.319 115.695 306.248 115.581 305.349C115.23 302.424 114.753 299.505 114.179 296.64L114.152 296.616ZM97.8621 204.169C97.4329 203.534 97.4008 202.782 97.7656 201.912L97.8621 204.169ZM97.2716 197.411C97.3597 197.708 97.4478 198.006 97.5359 198.304C97.3865 198.335 97.2131 198.393 97.0637 198.424C97.0006 198.126 96.9376 197.827 96.8996 197.527C96.8986 197.502 97.1472 197.441 97.2716 197.411ZM97.5474 205.037C97.729 205.758 97.6043 206.366 97.2234 206.86C97.0178 206.165 97.1425 205.557 97.5474 205.037ZM96.364 200.867C96.3017 201.171 96.0867 201.431 95.829 201.869C95.536 201.48 95.2232 201.217 95.2669 201.064C95.3565 200.809 95.65 200.621 95.8661 200.385C96.0491 200.553 96.3838 200.74 96.364 200.867ZM95.6823 204.313C95.4068 203.747 95.4857 203.241 95.8666 202.747C96.4201 203.352 96.29 203.835 95.6823 204.313ZM95.3258 207.142C95.3556 206.664 95.3603 206.186 95.4253 205.354C96.3134 206.145 96.2334 206.626 95.3258 207.142ZM94.7775 197.844C94.8223 197.716 95.2433 197.573 95.2694 197.597C95.5112 197.963 95.729 198.356 95.9708 198.722C94.8705 198.845 94.4815 198.56 94.7775 197.844ZM95.5876 208.563C96.1778 208.262 96.8779 208.181 97.5246 208.028C97.891 209.545 97.8899 209.52 96.5266 209.955C96.1056 210.099 95.6878 210.318 95.2198 210.539C94.8813 209.674 94.775 208.95 95.5876 208.563ZM113.528 300.235C112.668 300.674 111.985 301.156 111.417 300.225C111.309 300.054 111.509 299.442 111.707 299.358C112.424 299.102 113.2 299.018 113.528 300.235ZM111.926 293.319L111.536 294.768C111.282 294.703 111.054 294.663 110.826 294.622C110.932 294.165 111.012 293.684 111.169 293.251C111.217 293.198 111.649 293.305 111.926 293.319ZM110.71 290.155C110.413 291.424 109.538 292.114 108.111 292.251C108.858 289.731 109.15 289.518 110.71 290.155ZM106.295 306.776C106.742 305.475 107.623 304.91 108.964 305.129C108.724 306.572 107.51 306.397 106.295 306.776ZM107.1 307.973C107.193 308.974 106.867 309.566 106.071 309.75C103.659 310.356 101.204 310.511 98.6683 310.57C99.4037 308.377 99.4048 308.402 101.138 308.378C102.419 308.374 103.695 308.244 104.973 308.164C105.674 308.109 106.374 308.029 107.075 307.974L107.1 307.973ZM105.314 262.671C105.019 262.835 104.725 262.998 104.43 263.161C104.351 263.064 104.296 262.966 104.217 262.869C104.508 262.63 104.775 262.418 105.041 262.18C105.124 262.353 105.231 262.499 105.314 262.671ZM104.597 247.676C104.479 247.254 104.36 246.832 104.183 246.212C104.686 246.24 105.239 246.242 105.242 246.317C105.312 246.766 105.231 247.222 105.201 247.701C104.999 247.684 104.799 247.693 104.597 247.676ZM106.822 277.381C107.221 277.891 106.972 278.53 106.327 278.734C105.608 278.965 104.834 279.074 103.837 279.267C104.063 278.077 104.769 277.544 105.532 277.185C105.877 277.019 106.636 277.138 106.822 277.381ZM105.965 282.594L108.147 282.5C107.712 283.499 107.369 284.292 106.981 285.213C105.7 284.64 105.962 283.699 105.965 282.594ZM107.745 298.372C108.315 297.594 108.741 296.998 109.168 296.402C109.5 297.694 109.025 298.342 107.745 298.372ZM108.756 299.686C108.455 300.276 108.269 300.636 107.945 301.278C107.499 300.267 107.581 299.836 108.756 299.686ZM107.239 288.293C107.001 288.027 107.042 287.221 107.252 286.835C107.766 285.934 108.573 285.422 110.076 285.91C109.61 286.759 109.288 287.452 108.861 288.048C108.434 288.644 107.739 288.824 107.239 288.293ZM107.989 303.487C108.566 302.885 108.927 302.518 109.506 301.94C109.795 303.41 109.276 303.633 107.989 303.487ZM108.133 295.692C107.392 293.638 107.51 293.457 109.32 293.48C108.924 294.226 108.599 294.843 108.133 295.692ZM109.521 282.919C109.74 283.337 109.976 283.553 109.984 283.753C109.958 284.307 109.906 284.284 108.78 284.383C109.01 283.895 109.22 283.51 109.521 282.919ZM106.933 281.145C107.221 279.65 108.101 279.663 109.245 279.991C108.932 281.487 107.967 281.226 106.933 281.145ZM106.934 254.737C106.934 254.737 106.554 254.653 106.401 254.609C106.513 254.278 106.648 253.92 106.758 253.564C106.911 253.608 107.063 253.626 107.215 253.67C107.13 254.025 107.045 254.381 106.934 254.737ZM106.861 261.826L106.791 260.196C107.044 260.235 107.243 260.202 107.297 260.275C107.722 260.809 107.639 261.24 106.861 261.826ZM108.111 275.215C107.931 274.519 107.813 274.122 107.661 273.501C108.806 273.829 108.875 274.278 108.111 275.215ZM107.641 266.567C107.05 265.662 107.225 265.052 108.14 264.711C107.988 265.27 107.836 265.83 107.641 266.567ZM107.108 250.584C106.598 250.983 106.063 251.408 105.529 251.833C104.842 251.058 104.787 250.357 105.35 250.006C105.717 249.764 106.406 250.011 106.959 250.038C107.018 250.236 107.076 250.41 107.108 250.584ZM105.514 243.265C106.185 243.689 106.409 244.207 105.982 244.803C105.888 244.958 105.21 244.962 105.077 244.791C104.572 244.16 104.93 243.717 105.514 243.265ZM103.059 242.265C102.6 240.35 102.855 239.836 104.588 239.234C105.294 241.641 105.199 241.771 103.059 242.265ZM99.6445 239.973C99.9218 239.409 100.107 239.049 100.408 238.433C101.031 239.487 101.025 239.939 99.6445 239.973ZM100.965 240.897C100.899 242.86 100.555 243.05 97.7987 242.64C98.6462 240.72 98.8415 240.586 100.965 240.897ZM97.3162 237.234C98.129 235.088 98.55 234.945 100.013 236.264C98.9991 236.634 98.1582 236.946 97.3162 237.234ZM99.0986 237.786C98.9842 239.223 98.4102 239.901 97.312 240.073C95.4145 240.355 93.5137 240.562 91.613 240.769C90.8878 240.85 90.5457 240.488 90.7349 239.626C93.4232 239.033 96.1617 238.439 99.0986 237.786ZM99.8197 243.484C98.8905 245.257 97.9259 246.203 96.3218 246.297C94.9936 246.378 93.6382 246.411 92.2337 246.471C92.1299 245.219 92.815 244.788 93.7115 244.599C95.6058 244.242 97.5012 243.909 99.8197 243.484ZM100.593 244.531C100.831 244.219 101.119 243.905 101.67 243.279C101.982 244.095 102.207 244.663 102.518 245.479C101.594 245.619 100.921 245.723 99.746 245.874C100.217 245.125 100.379 244.816 100.593 244.531ZM101.654 237.601C101.897 237.415 102.137 237.153 102.435 237.065C102.584 237.034 102.823 237.325 103.133 237.538C102.771 237.88 102.535 238.242 102.259 238.253C102.084 238.261 101.865 237.843 101.654 237.601ZM102.885 247.599C103.642 248.848 103.278 249.14 102.257 249.359C102.458 248.773 102.617 248.389 102.885 247.599ZM103.28 235.672C102.611 235.902 101.983 235.903 101.394 235.652C102.138 234.816 102.741 234.816 103.28 235.672ZM100.442 233.934C100.195 233.467 99.9525 233.076 99.7881 232.756C100.259 232.007 101.117 232.096 102.332 232.899C101.718 233.226 101.154 233.552 100.442 233.934ZM100.767 230.98C100.767 230.98 100.482 230.767 100.326 230.648C100.494 230.464 100.662 230.281 100.877 230.021C101.089 230.263 101.22 230.408 101.352 230.553C101.157 230.687 100.99 230.896 100.767 230.98ZM100.799 228.19C100.232 228.44 99.6645 228.691 98.8508 229.052C99.2113 228.082 99.8516 227.778 100.799 228.19ZM98.2235 227.898C97.8394 228.317 97.5599 228.831 97.188 228.948C95.4506 229.449 93.686 229.901 91.7068 230.036C92.4941 228.47 95.6679 227.48 98.2235 227.898ZM92.175 230.996C94.3179 230.578 96.4892 230.234 98.6605 229.89C98.8099 229.858 99.0191 230.05 99.1979 230.118C99.2566 230.316 99.2892 230.491 99.348 230.689C96.9448 232.074 94.1609 232.193 91.5051 232.959C91.0577 231.898 91.1542 231.216 92.175 230.996ZM91.7988 233.952C93.786 233.415 95.8025 232.977 97.8168 232.489C97.9246 232.66 98.0325 232.831 98.1392 232.977C97.8053 233.394 97.5562 234.032 97.1112 234.202C95.2079 234.937 93.224 235.549 91.1445 235.689C90.6763 234.729 90.9787 234.163 91.7988 233.952ZM95.6814 236.022C95.9393 236.765 95.5616 237.334 94.9662 237.51C93.677 237.917 92.304 238.126 90.5853 238.476C91.0856 237.249 92.7839 236.422 95.6814 236.022ZM91.7594 241.843C93.356 241.574 94.9798 241.354 96.9013 241.045C95.6281 243.587 95.5299 243.642 94.1043 242.622C93.2598 243.437 92.2551 244.033 90.8628 243.791C90.5712 242.849 90.5631 242.07 91.7594 241.843ZM92.1992 247.428C93.3225 247.254 94.4511 247.206 95.6027 247.106C96.2035 247.055 96.8134 246.627 97.3941 247.281C97.5008 247.427 98.0275 247.405 98.1476 247.274C99.3042 246.119 100.628 246.514 102.069 246.729C101.617 248.507 100.388 249.138 98.5834 249.24C98.9965 249.499 99.2276 249.615 99.5622 249.801C97.859 252.864 95.0311 251.955 92.2242 252.125C92.9873 249.404 95.147 249.965 96.9628 249.536C96.0199 249.224 95.1793 248.958 94.0325 248.58C93.2578 249.267 91.9665 249.624 90.4632 249.135C90.3017 247.71 91.3017 247.592 92.1992 247.428ZM91.0019 250.569C91.1524 250.563 91.3878 250.779 91.7496 251.015C91.335 251.309 91.0907 251.47 90.8223 251.657C90.6883 251.462 90.4519 251.221 90.4694 251.044C90.511 250.842 90.7772 250.604 91.0019 250.569ZM90.2848 256.128C91.2576 255.961 92.13 255.798 93.0068 255.735C93.082 255.732 93.2102 256.38 93.3255 256.726C94.4755 254.24 96.8477 255.068 99.2425 254.664C96.0854 253.694 93.3289 255.043 90.5694 254.558C90.6978 253.447 91.4491 253.389 92.1482 253.284C94.1449 252.973 96.1439 252.711 98.1134 252.351C98.687 252.251 99.4287 251.968 99.7115 251.529C100.634 250.183 101.965 250.176 103.713 249.925C103.369 250.694 103.271 251.326 102.904 251.568C101.783 252.37 101.251 253.448 100.647 254.604C100.043 255.761 98.951 256.662 98.1967 257.825C100.833 257.184 101.489 254.317 103.572 253.072C104.837 254.45 104.849 254.751 103.454 255.615C102.891 255.966 102.624 256.178 102.755 256.901C102.821 257.25 102.263 257.726 101.952 258.091C100.781 259.498 99.5848 260.906 98.2916 262.394C99.9763 262.422 100.645 261.012 101.611 260.116C102.626 259.168 103.508 258.05 104.708 256.742C104.876 257.715 104.977 258.314 105.078 258.912C104.289 259.273 103.674 259.575 102.885 259.936C103.254 260.347 103.519 260.662 103.968 261.171C102.691 262.457 101.417 263.793 100.064 265.057C99.7256 265.373 99.1813 265.572 98.7059 265.617C96.2251 265.773 93.7159 265.856 91.1076 265.967C91.4051 264.698 92.5108 264.701 93.3854 264.588C95.0855 264.39 96.816 264.316 98.5182 264.168C98.6927 264.135 98.8619 263.977 99.4498 263.625C98.0672 263.609 97.0859 263.576 96.1317 263.591C95.2278 263.605 94.326 263.669 93.1472 263.719C94.0657 261.695 95.8209 262.198 97.3533 261.605C96.5891 261.361 96.0037 261.185 95.2395 260.941C95.6663 260.345 96.0232 259.877 96.5449 259.152C95.4905 259.172 95.274 259.985 94.734 260.284C94.0228 260.692 93.2875 261.125 92.5186 261.359C91.9482 261.534 91.2341 261.288 91.2783 260.558C91.283 260.08 91.6073 259.438 92 259.22C92.54 258.921 93.2465 258.991 93.8692 258.864C94.7166 258.702 95.5378 258.516 96.3942 257.977C95.6418 258.009 94.8893 258.041 94.1348 258.023C93.4566 258.027 92.7271 258.008 93.1345 256.961C92.299 257.398 91.4634 257.836 90.3813 258.385L90.2848 256.128ZM92.3351 269.407C91.694 270.867 90.948 271.049 89.9144 270.968C90.1008 269.453 91.1191 269.761 92.3351 269.407ZM92.4626 274.151C90.7587 276.61 90.1195 276.939 88.2356 276.367C88.5698 274.191 88.7912 274.082 92.4626 274.151ZM88.6314 277.983C88.3652 278.22 88.1 278.483 87.8349 278.746C87.7553 278.649 87.6507 278.552 87.5712 278.455C87.8363 278.193 88.1015 277.93 88.3677 277.693C88.4473 277.79 88.5519 277.886 88.6314 277.983ZM87.642 272.472C87.642 272.472 87.8544 272.74 87.9612 272.886C87.648 273.201 87.3087 273.492 86.9704 273.808C86.8375 273.637 86.6784 273.443 86.5194 273.249C86.8848 272.982 87.2514 272.74 87.642 272.472ZM86.1122 278.417C85.742 279.162 85.7796 280.04 84.47 279.97C84.6278 278.958 84.7439 278.149 86.1122 278.417ZM87.685 284.054C86.9894 285.415 86.0108 286.035 84.4889 285.698C84.9207 284.046 85.2644 283.856 87.685 284.054ZM89.177 286.628C88.0349 288.712 87.6913 288.903 85.6448 288.638C85.8381 286.696 86.5242 286.289 89.177 286.628ZM85.8526 292.323C87.4219 292.005 89.0489 291.86 90.6434 291.54C89.36 291.495 88.1027 291.473 86.6929 291.408C86.8872 289.49 88.5357 289.847 89.6941 289.32C89.3312 289.059 89.0969 288.868 88.6544 288.51C89.5208 287.618 90.3633 286.753 91.4228 285.678L87.6106 285.841C88.6369 283.988 89.9329 283.153 91.8412 283.122C90.8725 282.209 90.0677 282.193 88.9574 282.668C88.0455 283.083 86.9094 282.956 85.5582 283.089C86.3172 281.449 87.2675 280.755 88.6971 280.694C91.0295 280.594 93.362 280.494 95.6816 280.094C93.4409 279.988 91.174 279.859 88.8308 279.708C90.0059 277.221 92.214 277.151 94.334 276.784C93.6024 276.715 92.8697 276.621 92.0116 276.532C92.0433 274.922 93.8688 274.719 94.0345 273.304C93.0531 273.271 91.845 273.222 90.3108 273.187C91.7671 270.813 94.2134 271.613 96.0318 270.656C95.0014 270.65 94.0462 270.641 92.9896 270.61C93.5844 269.831 95.0144 269.192 97.2305 268.72C94.9668 268.667 92.6781 268.614 90.3883 268.536C90.1501 267.666 90.5342 267.248 91.2823 267.116C93.3271 266.752 95.3719 266.388 97.4428 266.048C97.7177 266.011 98.0928 265.97 98.2748 266.113C99.624 267.111 100.597 266.365 101.41 265.401C102.342 264.281 103.456 263.881 104.826 264.2C104.618 266.369 103.823 267.182 101.451 267.535C101.509 267.708 101.542 267.883 101.622 268.005C101.754 268.15 101.933 268.218 102.192 268.408C101.193 269.732 100.187 270.881 98.4445 271.257L104.94 270.979C103.735 272.764 102.1 273.311 100.348 273.462C100.747 273.972 101.17 274.482 101.621 275.04C102.916 274.759 103.769 272.964 105.538 273.792C105.17 276.949 102.542 276.584 100.407 277.203C101.214 277.269 102.022 277.36 103.081 277.44C101.92 279.073 100.551 279.986 98.8392 280.486L105.235 280.213C104.509 282.631 102.217 281.925 100.439 282.654C101.448 282.736 102.254 282.777 103.313 282.858C102.812 283.482 102.432 284.001 102.052 284.52C103.243 285.348 103.581 283.851 104.567 283.985C104.593 284.009 104.849 284.124 104.882 284.298C104.971 284.621 104.911 284.975 104.93 285.427C104.037 285.691 103.17 285.979 102.327 286.242C102.331 286.342 102.335 286.442 102.339 286.543L105.349 286.414C104.927 288.291 103.208 288.641 102.009 289.974L105.595 289.821C106.441 292.548 106.325 292.779 103.963 293.358C103.192 293.542 102.417 293.65 101.624 293.91C102.001 293.894 102.355 293.954 102.732 293.963C103.159 293.945 103.585 293.927 104.011 293.908C104.177 294.253 104.315 294.549 104.507 294.917C105.025 294.694 105.518 294.472 105.962 294.277C106.639 294.826 106.431 295.84 105.662 296.074C104.645 296.394 103.571 296.54 102.535 296.987L106.021 296.838C106.149 298.666 106.058 298.871 104.736 299.104C101.844 299.629 98.9484 300.08 96.5536 300.484L103.526 300.186C103.645 301.211 103.264 301.704 102.317 301.871C101.693 301.973 101.075 302.225 100.455 302.402C102.191 302.454 103.928 302.53 105.664 302.582C105.972 303.925 105.177 304.135 104.226 304.226C101.253 304.605 98.2536 304.984 95.0551 305.397C96.6498 306.259 98.1758 305.515 99.6609 305.577C101.196 305.637 102.747 305.47 104.427 305.399C103.646 306.512 102.778 307.379 101.345 307.365C99.9377 307.349 98.5557 307.936 97.119 307.244C96.8116 307.106 96.2573 307.657 95.7819 307.703C94.6335 307.878 93.4218 308.332 92.5351 306.987C90.7697 308.596 89.7451 311.077 87.2997 312.061C87.2244 312.064 87.1166 311.893 86.9085 311.726C87.6398 310.614 88.3701 309.477 89.1004 308.34C89.022 308.268 88.9435 308.196 88.841 308.151C87.9212 308.969 86.9764 309.788 85.9344 310.687C85.5618 310.2 85.2687 309.811 85.0029 309.47C86.3658 306.673 88.9252 304.83 90.3371 302.006C88.634 303.31 86.914 302.454 84.8062 302.519C85.6891 301.426 86.333 300.619 86.9529 299.839C86.1482 299.823 85.1919 299.789 84.2357 299.754C83.785 298.618 84.1344 297.975 85.2075 297.803C86.4802 297.598 87.7561 297.468 88.9065 297.343C87.8729 297.262 86.6877 297.162 85.4272 297.065C85.5549 295.351 86.7459 294.999 87.8029 294.451L84.6428 294.586C84.4413 292.811 84.4588 292.634 85.8024 292.325L85.8526 292.323ZM105.392 268.02C105.641 269.14 105.01 269.669 103.451 269.635C103.653 268.496 104.232 267.919 105.392 268.02ZM98.1221 308.96C97.5433 310.115 96.6347 310.606 95.3721 310.459C95.953 309.354 96.8616 308.863 98.1221 308.96ZM94.7362 309.104C93.8715 310.624 93.4746 310.741 91.1393 310.188C92.1219 308.488 92.4436 308.373 94.7362 309.104ZM81.6473 308.559C81.3191 308.522 80.8265 308.167 80.7885 307.867C80.7266 307.593 81.0279 307.002 81.3006 306.915C82.6116 306.432 83.9868 306.273 85.3726 306.364C85.379 306.515 85.4618 306.687 85.5184 306.835C85.2282 307.099 84.9236 307.614 84.6215 307.602C83.9433 307.606 83.4951 307.701 83.016 308.249C82.7519 308.537 82.1019 308.615 81.6473 308.559ZM82.7926 309.49C82.473 309.654 82.1523 309.793 81.8327 309.958C81.7783 309.86 81.6977 309.737 81.6432 309.639C81.9367 309.451 82.2301 309.262 82.4985 309.075C82.6053 309.221 82.687 309.368 82.7926 309.49ZM88.1357 303.407C87.0989 306.19 85.593 306.229 82.4877 305.884C82.4686 303.674 85.2715 302.826 88.1357 303.407ZM85.7934 300.341C85.2498 301.143 84.942 301.583 84.4923 302.231C83.984 300.921 84.3442 300.529 85.7934 300.341ZM84.3923 295.778C84.5603 295.595 84.7284 295.412 84.9498 295.302C85.0501 295.297 85.1841 295.493 85.4195 295.709C85.1009 295.898 84.9067 296.057 84.6842 296.142C84.609 296.145 84.3944 295.828 84.3923 295.778ZM83.8413 287.007L84.1071 287.347C83.89 287.558 83.6488 287.794 83.4317 288.004C83.3532 287.932 83.2486 287.836 83.1702 287.764C83.3852 287.504 83.6012 287.269 83.8413 287.007ZM83.573 290.134C83.7947 291.205 83.2142 291.732 81.8588 291.765C82.1484 290.899 82.7038 290.372 83.573 290.134ZM82.7092 293.438C82.1997 293.861 81.7153 294.284 80.9864 294.868C81.0321 293.585 81.437 293.065 82.7092 293.438ZM82.7241 295.547C82.6742 296.731 81.9901 297.187 80.6469 296.918C81.2819 296.489 81.9179 296.084 82.7241 295.547ZM82.3415 298.353C82.4221 298.475 82.5027 298.597 82.5833 298.719C81.8524 299.253 81.0953 299.763 80.3632 300.272C80.2303 300.101 80.0974 299.931 79.9645 299.761C80.1771 298.27 81.396 298.569 82.3415 298.353ZM82.7279 300.924C82.9478 301.367 83.1961 301.884 83.5815 302.672C82.2304 302.805 81.1552 302.926 79.6546 303.091C80.4692 301.574 81.27 300.911 82.7279 300.924ZM82.3715 303.754C82.4281 303.902 82.4847 304.05 82.5423 304.224C81.8888 304.805 81.2363 305.41 80.3415 306.227C79.9833 305.489 79.7612 304.996 79.3747 304.183C80.5732 304.006 81.4718 303.868 82.3715 303.754ZM78.9287 299.629C78.273 300.16 77.8595 300.479 77.1557 301.062C77.3898 300.072 77.9724 299.595 78.9287 299.629ZM77.7888 301.764C77.98 302.71 77.574 303.205 76.5948 303.222C76.5131 303.075 76.4325 302.952 76.3759 302.804C76.8145 302.484 77.2531 302.163 77.7888 301.764ZM78.2264 304.358C78.707 306.197 77.8521 306.183 76.4161 306.094C77.0916 305.437 77.5258 305.016 78.2264 304.358ZM79.2777 307.203C78.6284 307.884 78.1482 308.407 77.476 309.139C77.019 307.852 77.6192 307.198 79.2777 307.203ZM77.9059 310.377C79.2387 309.817 80.1513 310.005 80.6675 310.912C78.9078 312.068 78.7552 312.024 77.9059 310.377ZM80.1119 313.197C81.2579 311.791 82.917 312.399 84.504 311.904C82.3998 314.406 81.3561 314.677 80.1119 313.197ZM83.2736 315.449C83.8427 314.068 85.1089 313.712 86.1376 313.09C85.7158 314.39 85.0099 314.923 83.2736 315.449ZM91.2993 315.106C91.3169 314.929 91.3094 314.754 91.3019 314.578L92.581 314.523C92.581 314.523 92.6157 314.748 92.6462 314.872C92.1969 314.942 91.7486 315.036 91.2993 315.106ZM86.9371 315.921C86.8063 315.8 86.6996 315.654 86.5688 315.534C86.7086 315.277 86.8222 314.996 87.0132 314.761C87.5381 314.111 88.1143 313.483 88.6382 312.808C90.0887 310.886 90.1847 310.782 92.6802 311.554C91.1988 313.929 88.7068 314.413 86.9371 315.921ZM93.1784 313.216C93.7475 311.835 94.4544 311.328 95.7811 311.799C95.4356 313.12 94.6219 313.481 93.1784 313.216ZM95.913 314.883C97.0689 314.884 98.2247 314.885 99.506 314.881C98.4224 315.982 97.996 316 95.913 314.883ZM96.7917 313.69C96.7423 312.536 96.8639 311.853 97.9413 311.782L104.939 311.482C104.361 312.663 103.564 313.426 102.184 313.459C100.403 313.536 98.6225 313.612 96.7917 313.69ZM100.991 316.124C102.546 316.057 103.442 314.084 105.636 314.87C103.859 315.624 102.705 316.829 100.991 316.124ZM105.727 312.881C106.404 311.093 107.593 310.69 109.433 310.813C108.549 312.484 107.305 312.763 105.727 312.881ZM107.96 315.147L107.64 314.709C108.468 314.095 109.296 313.482 110.124 312.869C110.232 313.04 110.339 313.211 110.447 313.382C109.618 313.971 108.789 314.559 107.96 315.147ZM110.105 308.9C110.162 307.892 110.359 307.205 111.509 307.081C111.266 307.845 110.814 308.442 110.105 308.9ZM110.901 305.775C110.706 304.15 111.818 304.304 112.891 304.132C112.806 305.668 111.928 305.706 110.901 305.775ZM111.917 303.093C111.827 302.167 112.443 301.89 113.691 302.289C112.976 302.596 112.484 302.843 111.917 303.093Z" fill="#D0B48C"/>
<path d="M115.276 219.533C114.778 219.052 114.304 218.544 113.543 217.773C113.62 220.181 114.522 221.877 116.022 222.868C116.823 223.386 117.197 223.898 117.529 224.612C117.886 225.326 118.291 225.987 118.574 226.729C119.058 228.065 119.517 229.402 119.877 230.768C120.444 232.855 120.738 235.028 123.097 236.736C122.214 236.649 121.886 236.612 121.381 236.559C121.467 238.565 122.536 240.052 124.085 241.619C123.454 241.545 123.126 241.509 122.671 241.453C122.575 243.92 124.146 245.385 125.697 247.002C125.111 246.801 124.5 246.626 123.914 246.425C123.344 248.962 125.064 250.396 126.588 251.964C124.704 251.392 123.488 249.986 122.08 248.79C123.49 252.373 125.846 255.187 128.985 257.49C128.039 257.103 127.093 256.717 126.121 256.331C126.051 258.219 126.109 258.392 127.947 260.826C127.152 260.458 126.691 260.252 126.279 260.018C125.815 259.736 125.373 259.403 124.571 258.86C125.697 262.857 129.027 264.348 131.463 266.656C129.314 266.346 128.044 264.264 125.937 263.776C125.593 265.123 126.329 265.895 127.116 266.666C128.714 268.18 130.288 269.746 132.148 271.526C130.598 270.537 129.308 269.738 127.913 268.843C127.687 270.611 128.317 271.841 129.633 272.639C131.516 273.789 133.471 274.836 135.35 275.887C134.717 275.788 133.959 275.67 133.15 275.554C133.445 276.596 134.761 277.394 137.122 277.972L133.962 278.107C133.757 280.352 135.792 279.762 137.183 280.557C136.158 280.676 135.533 280.753 134.883 280.831C135.192 282.175 136.08 282.966 137.545 283.155C136.658 283.57 135.889 283.804 136.162 284.897C136.554 286.413 137.707 286.364 139.068 286.457C138.455 286.809 138.014 287.08 137.598 287.324C137.737 288.825 138.535 289.268 140.054 288.952C139.649 289.472 139.137 289.821 139.151 290.147C139.169 290.573 139.539 291.009 139.808 291.425C140.13 291.889 141.157 291.242 141.179 292.346C141.199 292.798 141.72 293.228 142.042 293.717C141.226 294.606 140.546 293.982 140.071 293.449C138.885 292.168 137.416 291.879 135.633 291.905C135.744 293.333 136.747 293.868 137.815 294.174C138.833 294.482 139.918 294.586 141.005 294.741C142.85 294.989 142.85 294.989 143.923 293.636C144.77 294.052 145.616 294.443 146.462 294.834C146.607 294.702 146.752 294.57 146.896 294.414C146.174 292.811 145.451 291.184 144.536 289.163C147.243 290.78 148.732 292.702 149.049 295.402C149.21 296.827 148.453 297.915 147.328 298.641C143.64 301.111 139.84 301.575 135.803 299.411C133.54 298.201 131.913 296.587 130.882 294.219C129.211 290.396 127.813 286.486 126.935 282.403C126.023 278.12 124.988 273.893 124.151 269.607C123.697 267.214 123.666 264.728 123.188 262.361C122.053 256.957 120.742 251.586 119.532 246.186C118.598 241.979 117.789 237.742 116.756 233.565C115.48 228.419 114.427 223.187 112.358 218.276C111.237 215.56 110.141 212.843 109.02 210.127C108.965 210.029 109.059 209.874 109.144 209.518C111.079 210.692 112.458 212.392 113.984 213.985C113.207 213.44 112.431 212.921 111.395 212.211C111.526 214.09 112.623 215.073 113.352 216.248C114.026 217.325 114.627 218.455 115.277 219.558L115.325 219.506L115.276 219.533ZM118.998 233.118C118.825 233.778 118.728 234.436 119.798 234.792C119.469 234.153 119.222 233.661 118.95 233.17C118.575 232.633 118.226 232.095 117.851 231.559C117.888 232.436 118.262 232.948 118.973 233.119L118.998 233.118ZM146.652 296.334C146.641 296.083 146.58 295.834 146.545 295.609C144.409 295.6 142.248 295.592 140.087 295.584C139.977 296.544 140.393 296.878 141.046 296.875C142.931 296.87 144.951 297.688 146.626 296.335L146.652 296.334ZM131.85 283.348C132.362 285.336 133.035 285.81 135.118 285.746C134.805 284.302 133.715 283.494 131.85 283.348ZM121.836 246.615C122.035 246.556 122.207 246.473 122.406 246.414C121.872 244.503 121.585 242.505 119.548 241.285C120.303 243.062 121.082 244.838 121.836 246.615ZM133.667 282.366C133.379 280.921 132.54 280.102 131.126 279.937C131.257 281.238 132.096 282.056 133.667 282.366ZM132.463 278.9C132.305 276.947 130.892 276.806 129.556 276.134C129.954 277.801 130.815 278.543 132.463 278.9ZM136.311 288.384C135.336 286.717 134.977 286.556 133.186 286.985C133.774 287.814 134.824 288.271 136.311 288.384ZM137.982 291.026C136.908 289.413 135.677 289.416 134.249 289.502C134.912 290.328 136.139 290.828 137.982 291.026ZM142.749 297.908C141.334 297.717 139.894 297.552 138.479 297.361C139.79 298.637 141.253 298.776 142.749 297.908ZM123.021 253.172C123.021 253.172 122.777 253.333 122.656 253.439C123.274 254.367 123.866 255.297 124.565 256.373C124.954 255.477 124.432 254.418 123.022 253.197L123.021 253.172ZM116.382 225.993C116.235 226.1 116.114 226.206 115.968 226.312C116.641 227.364 117.29 228.442 117.964 229.493C118.111 229.412 118.257 229.305 118.404 229.223C117.877 228.065 117.447 226.827 116.381 225.968L116.382 225.993ZM129.217 273.486C129.522 274.754 130.3 275.324 131.36 275.429C131.455 275.299 131.525 275.171 131.62 275.041C130.819 274.523 130.018 274.004 129.217 273.486ZM135.369 295.133C134.916 294.524 134.252 294.276 133.426 294.361C134.27 294.702 134.832 294.929 135.369 295.133ZM133.051 292.041L133.414 291.724C133.122 291.359 132.805 290.996 132.514 290.657C132.368 290.763 132.248 290.894 132.102 291.001C132.418 291.339 132.735 291.702 133.025 292.042L133.051 292.041Z" fill="#D0B48C"/>
<path d="M131.01 201.337C131.506 201.768 132.1 202.145 132.524 202.654C134.485 205.033 136.495 207.384 138.31 209.869C139.511 211.526 140.398 213.448 141.453 215.212C141.724 215.678 142.191 216.01 142.718 216.59C141.913 217.755 142.966 218.866 143.608 220.372C144.025 219.55 144.327 218.959 144.884 217.88C144.848 218.811 144.945 219.309 144.81 219.692C144.023 221.836 144.583 223.772 145.519 225.692C145.906 226.505 146.218 227.345 146.668 228.457C147.335 226.443 147.916 224.735 148.495 223.002C148.622 223.047 148.724 223.067 148.851 223.112C148.568 224.707 148.233 226.279 148.025 227.871C147.929 228.579 147.693 229.519 149.056 229.661C149.331 229.047 149.58 228.408 150.015 227.409C150.152 229.439 149.111 231.543 151.64 232.516C151.947 231.472 152.257 230.479 152.698 229.053C152.591 231.822 152.943 233.591 153.754 234.36C154.037 233.921 154.321 233.507 154.579 233.069C154.691 234.521 155.162 235.556 155.993 236.174C156.221 235.637 156.45 235.124 156.678 234.562C156.756 234.634 156.86 234.705 156.863 234.78C156.891 235.432 156.793 236.089 156.92 236.712C156.989 237.136 157.355 237.472 157.894 238.329C158.64 235.784 159.23 233.724 159.821 231.689C159.53 235.445 158.13 239.148 160.705 242.958C162.018 240.766 160.961 238.374 162.008 236.419C162.647 237.246 163.26 238.074 163.978 238.998C164.418 238.703 164.759 238.462 165.077 238.248C165.127 240.608 165.844 241.507 167.833 241.597C167.784 242.203 167.785 242.831 167.634 243.415C167.177 245.068 167.152 245.069 168.924 245.948C169.206 245.509 169.489 245.069 169.771 244.605C169.799 247.619 170.043 248.036 172.131 248.675C172.196 250.205 172.192 251.863 174.129 252.509C174.324 254.134 174.073 255.904 175.759 257.138C176.252 257.494 176.349 258.595 176.331 259.35C176.304 261.06 176.995 262.538 177.588 264.07C177.757 264.49 177.802 264.966 177.605 265.627C177.343 265.387 176.983 265.202 176.819 264.882C175.697 262.744 174.673 260.526 173.477 258.417C172.796 257.19 171.99 255.968 171.041 254.928C169.165 252.772 167.167 250.696 165.169 248.621C164.432 247.848 163.573 247.157 162.67 246.592C159.828 244.779 156.821 243.199 154.1 241.255C151.093 239.097 148.783 236.206 147.281 232.803C145.47 228.659 143.684 224.489 142.22 220.23C140.469 215.129 138.159 210.454 134.471 206.465C133.126 204.99 132 203.33 130.776 201.749C130.846 201.62 130.916 201.492 130.986 201.363L131.01 201.337ZM163.531 242.636C164.412 240.337 164.352 240.113 162.409 239.317C162.187 240.583 161.862 241.802 163.531 242.636ZM165.141 241.512C164.886 242.603 165.047 243.425 166.149 243.931C166.683 242.903 166.373 242.112 165.141 241.512ZM152.772 235.482C152.821 236.611 153.181 237.4 153.926 237.795C154.036 236.836 154.147 235.901 152.772 235.482ZM150.229 233.581C150.435 234.301 150.301 235.287 151.369 235.568C151.918 234.313 150.803 234.084 150.229 233.581ZM157.371 239.03C157.33 239.835 157.606 240.402 158.174 240.754C158.242 239.997 158.313 239.316 157.371 239.03ZM155.271 237.511C154.779 238.336 154.952 238.857 155.962 238.989C155.74 238.496 155.493 238.004 155.271 237.511Z" fill="#D0B48C"/>
<path d="M147.938 245.839C148.33 245.019 148.655 244.402 149.187 243.324C149.17 244.103 149.185 244.454 149.15 244.808C149.096 245.313 148.891 245.799 148.937 246.299C148.953 246.675 149.295 247.013 149.569 247.554C150.144 246.901 150.575 246.405 151.125 245.753C151.382 247.049 150.039 248.564 152.055 249.282C152.41 248.764 152.791 248.27 153.145 247.753C153.225 247.85 153.38 247.944 153.382 247.994C153.252 248.477 153.021 248.964 152.991 249.443C152.888 250.553 153.661 250.997 155.211 250.805C155.879 252.912 156.29 253.121 157.897 251.921C158.263 252.86 157.224 254.412 159.348 254.724C159.561 254.413 159.843 253.949 160.314 253.225C160.334 253.676 160.341 253.852 160.297 254.005C159.878 255.354 159.853 256.536 161.393 257.3C161.684 257.061 162.001 256.821 162.609 256.368C162.026 258.001 161.983 259.335 163.31 260.409C163.604 260.245 163.949 260.08 164.319 259.913C164.052 261.307 164.305 262.527 165.053 263.575C165.313 263.187 165.551 262.876 165.763 262.54C165.952 262.255 166.113 261.922 166.536 261.225C166.331 262.893 165.981 264.114 167.326 265.011C167.663 265.248 167.429 266.238 167.677 266.755C167.871 267.174 168.385 267.453 168.934 267.957C168.574 268.927 168.453 270.214 169.457 271.377C170.727 270.519 169.476 269.467 169.854 268.32C170.326 268.777 170.817 269.083 170.985 269.503C171.489 270.712 171.894 271.951 172.299 273.19C172.559 273.983 172.642 274.759 173.276 275.485C173.646 275.897 173.067 277.052 173.077 277.881C173.107 278.583 173.338 279.277 173.468 279.975C173.574 280.674 173.29 281.088 172.411 281.1C172.329 280.35 172.246 279.6 172.12 278.399C170.627 279.92 169.244 281.085 168.875 283.01C168.027 283.172 167.254 283.306 166.232 283.5C166.23 282.872 166.125 282.173 166.273 281.514C166.717 279.56 166.284 277.669 165.902 275.776C164.893 270.994 163.786 266.243 161.389 261.898C160.3 259.934 159.139 258.049 157.393 256.591C156.898 256.185 156.355 255.832 155.79 255.529C151.471 253.251 147.606 250.427 145.232 246.031C144.197 244.14 143.309 242.193 142.52 240.192C141.222 236.855 140.024 233.514 138.948 230.093C138.073 227.266 136.996 224.397 134.936 222.073C134.276 221.323 133.859 220.386 133.418 219.475C132.569 217.828 131.77 216.178 130.78 214.186C131.373 214.537 131.881 214.666 132.07 214.985C132.696 216.114 133.126 217.352 133.802 218.453C134.235 219.189 134.937 219.737 135.664 220.283C135.929 221.78 136.393 223.242 137.628 224.496C137.911 224.057 138.147 223.72 138.384 223.383C138.489 223.479 138.644 223.573 138.647 223.648C138.683 224.501 138.596 225.384 138.657 226.236C138.683 226.838 138.934 227.43 139.117 228.176C139.709 227.925 140.079 227.758 140.474 227.59C140.187 229.688 140.572 231.657 141.437 233.655C141.83 232.859 142.223 232.063 142.707 231.038C142.585 233.48 141.976 235.692 142.891 238.291C143.377 237.316 143.679 236.725 144.235 235.646C144.13 238.464 143.357 240.96 145.461 243.156C145.952 242.306 146.303 241.688 146.795 240.863C147.123 242.658 145.818 244.448 147.839 245.869L147.938 245.839ZM170.282 278.905C172.142 277.167 172.231 276.887 171.312 274.79C170.357 275.962 169.705 277.171 170.282 278.905ZM170.369 272.117C169.099 272.975 169.519 273.988 169.992 275.073C170.853 274.056 170.961 273.047 170.369 272.117Z" fill="#D0B48C"/>
<path d="M56.8015 295.118C54.8583 293.744 53.6514 291.961 52.5922 289.519C53.8887 291.046 54.8692 292.236 55.9228 293.372C56.1342 293.614 56.5627 293.646 57.1001 293.874C57.3854 292.907 57.6248 292.042 57.9123 291.126C56.1489 289.844 54.8513 288.292 54.1353 286.237C54.716 286.89 55.2956 287.519 55.9015 288.171C56.48 288.775 56.9669 289.583 58.0891 289.384C58.2192 288.901 58.3493 288.418 58.4804 287.961C58.8105 286.866 58.5756 286.072 57.5903 285.36C55.8782 284.102 54.8959 282.285 54.2082 280.304C55.533 281.906 56.4715 283.876 58.8709 284.753C59.1465 283.56 59.3544 282.546 59.5645 281.582C57.5668 280.11 56.7526 278.11 56.0226 275.729C57.0881 277.14 57.9683 278.334 58.8976 279.5C59.0566 279.695 59.3608 279.757 59.593 279.898C61.2184 277.366 59.1903 275.769 58.3499 273.745C58.9188 274.122 59.4878 274.5 60.3673 275.091C60.6659 273.847 60.8999 272.857 61.0871 271.944C60.2971 271.099 59.4907 270.455 59.0278 269.62C58.4833 268.638 58.2835 267.491 58.0837 266.344C59.014 267.535 59.0881 269.266 60.854 270.019C61.1963 268.623 61.7478 267.418 60.7576 266.003C60.0093 264.955 59.7005 263.611 59.1955 262.377C59.3438 262.32 59.4911 262.238 59.6394 262.182C60.1524 263.014 60.6403 263.848 61.2873 264.875C62.0975 263.258 62.6448 261.953 61.8456 260.303C61.3774 259.344 61.327 258.165 61.4009 256.956C61.6667 257.296 61.9336 257.661 62.3072 258.173C63.1297 256.253 61.6293 254.659 62.0361 253.009C62.2181 253.152 62.4263 253.319 62.6584 253.459C62.7097 253.482 62.7838 253.454 63.0357 253.468C63.1888 252.934 63.3637 252.324 63.5396 251.738C64.107 249.729 64.7005 247.744 65.1926 245.738C65.3873 245.001 65.4031 244.196 65.3949 243.418C65.3585 242.565 65.2467 241.715 65.1157 240.414C65.499 241.152 65.7179 241.57 66.1001 242.282C67.7869 239.421 67.1881 236.582 67.1859 233.592C67.5527 234.531 67.8356 235.273 68.2601 236.385C69.6523 233.688 68.7131 231.115 69.0573 228.587C69.2923 229.381 69.5272 230.175 69.7948 231.144C70.4477 229.96 70.7285 227.712 70.6621 224.398C70.9552 224.787 71.1676 225.055 71.4879 225.493C73.1004 222.66 71.8234 219.826 72.1569 217.047C72.331 217.593 72.4799 218.139 72.7138 218.908C74.3318 216.201 73.4918 213.598 73.122 210.825C73.5426 211.259 73.8313 211.549 74.2519 211.983C75.1807 210.787 74.595 209.43 75.1204 208.202C75.2396 209.227 75.5616 210.294 75.4289 211.304C74.6293 217.871 73.1461 224.317 71.3326 230.676C70.0864 235.026 68.6876 239.332 66.9825 243.526C64.7771 248.947 64.1395 254.602 63.4539 260.31C62.641 267.154 61.6755 273.954 60.8376 280.799C60.5963 282.795 60.6319 284.803 60.4909 286.794C60.1641 290.904 58.9499 294.825 57.4805 298.657C56.4864 301.262 54.2151 302.792 51.8305 304.024C51.3386 304.271 50.5797 304.153 49.9703 304.003C49.2093 303.835 48.491 303.489 47.7257 303.22C46.7565 302.884 46.2596 302.428 46.9408 301.319C47.1766 300.957 46.9481 300.313 46.9234 299.736C47.9582 299.843 48.1303 301.519 49.6746 301.202C49.0094 299.748 48.3976 298.367 47.7857 296.986C49.3005 298.328 49.666 301.001 52.8437 300.689C51.5813 298.783 50.5062 297.146 49.4573 295.533C49.5784 295.427 49.7257 295.345 49.8468 295.239C50.301 295.873 50.7083 296.585 51.2346 297.14C51.9472 297.939 52.7088 298.71 53.5644 299.327C54.2651 299.85 54.7768 299.476 54.8865 298.516C52.6893 297.078 51.5351 294.765 50.502 292.347C50.7395 292.613 51.001 292.853 51.1895 293.147C51.403 293.439 51.5183 293.786 51.7318 294.078C52.4476 294.952 53.1175 295.929 53.9774 296.646C55.1761 297.65 55.8676 297.369 56.5066 295.859C56.5983 295.654 56.6399 295.451 56.7983 295.043L56.8015 295.118Z" fill="#D0B48C"/>
<path d="M78.7355 229.936C78.6294 230.393 78.4993 230.876 78.3276 231.561C79.788 231.047 80.6118 230.333 81.0544 228.932C81.8293 226.487 82.8331 224.107 83.7606 221.706C84.3931 220.045 85.0507 218.384 85.7072 216.698C85.9115 216.186 86.1158 215.675 86.4727 215.208C86.7628 216.703 86.3943 218.075 85.8231 219.406C84.8859 221.582 83.8965 223.71 83.0357 225.908C81.7706 229.228 81.5686 232.729 81.3425 236.257C80.9575 242.53 81.279 248.873 79.6335 255.049C78.8977 257.819 78.3647 260.631 77.7041 263.398C77.5324 264.084 77.2604 264.774 76.9601 265.389C75.9674 267.442 73.7857 268.716 71.9355 268.343C70.238 268.014 68.3063 265.734 68.2466 263.752C68.2078 261.668 68.5505 259.694 69.5224 257.742C72.1366 252.48 74.5469 247.15 76.24 241.5C76.4816 240.686 76.4189 239.809 76.4828 238.952C76.6489 236.96 76.6623 234.924 76.9799 232.951C77.1574 231.812 77.7895 230.73 78.245 229.63C78.4238 229.698 78.5786 229.792 78.7574 229.859L78.7355 229.936ZM78.6537 246.824C76.315 247.954 74.4561 249.139 73.7303 251.557C75.0446 251.149 76.2238 250.521 77.4062 249.968C78.6377 249.388 78.9752 248.469 78.6537 246.824ZM76.6283 258.218C74.5687 259.411 72.4583 260.004 71.106 261.871C72.656 261.101 74.1809 260.332 75.731 259.562C75.8116 259.685 75.866 259.783 75.9466 259.905C74.5567 260.894 73.1679 261.908 71.778 262.897C74.3997 262.509 76.6258 261.685 76.6272 258.192L76.6283 258.218ZM79.8361 233.934C77.4287 235.218 77.0169 236.165 77.7218 238.547C80.2958 237.633 80.6879 236.812 79.8361 233.934ZM72.9254 253.3C72.9859 254.127 73.4011 254.436 74.2159 254.099C74.9315 253.792 75.6459 253.46 76.3887 253.203C78.0978 252.627 78.0978 252.627 78.2248 250.31C76.4336 251.316 74.7657 252.267 72.9265 253.325L72.9254 253.3ZM72.4769 256.913C73.7682 256.556 75.0595 256.199 76.3759 255.841C77.4196 255.571 77.745 254.954 77.3392 253.69C75.4674 254.574 73.5261 255.008 72.4769 256.913ZM77.1039 256.413C75.0229 257.105 72.6685 257.281 71.4315 259.495C73.4308 258.656 75.7056 258.383 77.1039 256.413ZM79.7171 238.788C77.6131 239.532 77.0914 240.258 77.5592 241.795C79.2053 240.921 79.9169 239.936 79.7171 238.788ZM79.4413 241.74C76.7762 243.462 76.3702 243.957 76.4345 245.462C77.6184 244.356 79.5693 244.147 79.4413 241.74ZM74.8758 263.066C73.2243 263.815 72.1258 264.566 71.604 265.292C74.1003 264.909 74.5639 264.587 74.8758 263.066ZM77.5782 233.428C79.6173 233.516 80.1999 233.039 80.0581 231.487C79.2562 232.125 78.5274 232.709 77.5782 233.428ZM78.5231 244.945C77.8433 245.502 77.1898 246.083 76.2438 246.877C77.7139 246.588 78.4656 245.953 78.5231 244.945Z" fill="#D0B48C"/>
<path d="M120.475 206.994C120.689 207.312 120.979 207.626 121.12 207.972C123.114 212.887 124.761 217.917 125.988 223.116C127.066 227.743 129.182 231.999 131.619 236.091C132.755 237.978 133.744 239.97 134.684 241.965C135.954 244.625 137.198 247.285 138.294 250.002C139.584 253.138 139.924 256.39 139.087 259.717C138.591 261.648 137.132 262.188 135.573 260.998C135.027 260.569 134.426 260.017 134.198 259.399C132.832 255.638 130.943 252.025 130.445 248.001C130.436 247.801 130.426 247.575 130.405 247.073C130.926 247.503 131.291 247.814 131.681 248.124C133.636 246.257 133.933 244.962 132.674 243.132C132.058 244.012 131.466 244.867 130.874 245.696C130.948 243.909 132.493 242.436 131.629 240.438C131.154 240.508 130.704 240.553 129.98 240.659C130.887 238.962 130.705 237.638 129.52 236.357C129.072 235.874 128.862 235.079 128.757 234.38C128.252 231.386 126.73 228.712 125.829 225.861C125.304 224.15 124.779 222.439 124.402 220.696C123.764 217.507 122.804 214.458 121.471 211.5C120.86 210.119 120.246 208.688 120.475 206.994ZM135.855 249.378C135.677 249.31 135.523 249.241 135.345 249.199C134.509 250.214 133.649 251.256 132.718 252.402C132.968 252.944 133.245 253.56 133.686 254.471C135.019 252.73 136.191 251.348 135.88 249.377L135.855 249.378ZM134.726 246.461C132.319 247.77 131.681 249.305 132.664 251.122C134.222 249.95 134.708 248.397 134.726 246.461ZM136.894 252.524C136.716 252.457 136.511 252.365 136.332 252.297C135.759 253 135.187 253.728 134.587 254.382C133.795 255.245 133.976 255.966 134.839 256.758C136.168 255.52 137.019 254.253 136.896 252.55L136.894 252.524ZM134.929 257.684C135.699 258.053 136.161 258.285 136.776 258.56C136.962 257.622 137.107 256.912 137.356 255.671C136.361 256.492 135.778 256.969 134.953 257.658L134.929 257.684Z" fill="#D0B48C"/>
<path d="M86.4039 176.017C86.9286 174.186 86.3381 170.367 85.6955 169.439C85.5388 170.476 85.3789 171.438 85.1817 172.703C83.8522 171.578 83.1279 170.504 82.793 169.136C82.4875 167.868 82.2071 166.598 81.8285 165.383C81.6816 164.887 81.3133 164.501 81.0683 164.059C80.8698 164.118 80.6964 164.176 80.523 164.233C80.6433 165.283 80.7635 166.334 80.9164 167.558C78.5123 167.158 79.4227 164.356 77.5116 163.734C78.2276 165.789 78.9426 167.818 79.7141 169.997C80.0961 169.528 80.3351 169.241 80.573 168.93C81.9602 170.227 82.27 171.596 81.6124 173.257C80.9933 172.882 80.3491 172.507 79.7039 172.108C79.2996 173.23 80.1599 173.37 80.6023 173.728C81.7822 174.682 82.1382 175.957 81.6704 177.551C80.0417 177.068 79.3434 176.018 79.095 174.32C78.5493 170.373 76.8628 166.777 75.4501 163.118C75.3935 162.97 75.1144 162.907 74.9596 162.813C74.1305 163.401 74.5335 164.012 74.8329 164.552C76.963 168.531 77.7046 172.947 79.0187 177.238C80.5994 177.773 81.6979 178.781 81.7296 180.112C82.5579 180.679 83.4791 181.067 83.4679 181.394C83.442 182.551 83.0378 183.674 82.7456 185.068C82.1137 184.392 81.6909 183.907 81.2453 183.474C80.7996 183.041 80.8069 182.036 79.809 182.204C80.2562 185.024 80.1615 186.335 79.4351 188.15C77.5721 187.476 79.0509 185.628 77.9973 184.492C77.7922 186.16 77.6068 187.7 77.3963 189.242C77.187 190.809 77.0528 192.372 76.742 193.918C76.4563 195.463 75.8915 196.945 75.6571 198.512C75.4162 199.93 74.061 201.144 74.7076 202.749C76.8075 198.388 77.8893 193.718 78.4544 188.719C79.6575 189.824 79.9017 191.421 79.3315 192.777C79.196 193.135 78.9853 193.496 78.9512 193.874C78.8447 194.909 78.7644 195.967 78.7091 197.025C78.674 197.378 78.7402 197.752 78.7552 198.104C78.8305 198.1 78.9068 198.122 78.9569 198.12C79.1724 197.282 79.3878 196.443 79.7311 195.072C80.5569 196.167 81.0874 196.823 81.5679 197.481C82.0493 198.164 82.5068 198.873 82.9643 199.582C82.4954 198.019 81.7811 196.592 80.8966 195.298C80.0394 194.054 80.0642 192.872 80.8264 191.306C81.7568 192.498 82.5019 193.471 83.2722 194.443C82.7212 193.311 83.0567 192.342 83.5383 191.266C84.0658 190.087 84.3622 188.793 84.1005 187.372C83.8638 185.95 84.0753 184.434 84.1016 182.699C84.7469 183.098 85.0575 183.311 85.3932 183.523C85.117 182.354 84.7177 181.24 84.0051 180.441C82.921 179.181 82.9165 177.9 83.3265 176.325C85.1501 177.252 86.3532 178.356 85.8696 180.563C85.7459 181.196 85.9265 181.892 85.9758 183.046C87.6983 180.434 85.7699 178.23 86.429 176.016L86.4039 176.017ZM82.524 191.636C79.9649 189.961 81.0722 187.652 80.9922 185.194C83.6372 187.116 82.952 189.306 82.524 191.636ZM85.1552 176.196C83.4309 175.24 83.3481 175.067 83.2964 172.683C84.8617 173.445 85.3539 174.379 85.1552 176.196Z" fill="#D0B48C"/>
<path d="M119.311 205.181C119.163 205.263 119.041 205.344 118.894 205.425C117.752 203.992 116.365 202.694 115.518 201.097C114.591 199.403 113.568 197.814 112.447 196.279C112.747 196.241 113.072 196.202 113.373 196.189C115.32 198.819 117.023 201.636 118.945 204.267C119.131 204.511 119.171 204.861 119.311 205.181Z" fill="#D0B48C"/>
<path d="M142.511 269.92C143.751 268.359 145.154 267.093 145.991 265.5C146.779 263.959 147.002 262.115 147.48 260.386C148.389 261.653 147.989 264.635 146.358 267.042C145.579 268.206 144.437 269.134 143.399 270.108C143.303 270.213 142.917 270.003 142.536 269.919L142.511 269.92Z" fill="#D0B48C"/>
<path d="M144.611 259.122C145.186 263.168 142.925 267.284 138.496 267.725C138.707 267.364 138.815 266.958 139.013 266.874C141.833 265.849 143.51 263.943 143.936 260.96C143.974 260.682 144.114 260.424 144.202 260.144C144.269 259.94 144.362 259.761 144.612 259.147L144.611 259.122Z" fill="#D0B48C"/>
<path d="M149.988 262.7C150.74 265.608 148.001 270.298 145.289 270.917C146.357 269.464 147.387 268.264 148.158 266.924C148.906 265.611 149.37 264.109 149.963 262.702L149.988 262.7Z" fill="#D0B48C"/>
<path d="M88.7136 204.719C89.6108 208.072 88.3045 211.018 87.0495 213.986C86.4778 212.955 87.2188 212.069 87.3798 211.133C87.5834 210.019 87.9898 208.946 88.2436 207.829C88.4515 206.815 88.5569 205.756 88.7146 204.744L88.7136 204.719Z" fill="#D0B48C"/>
<path d="M129.685 303.287C131.862 306.008 133.686 308.719 137.316 308.991C134.219 310.003 129.943 306.97 129.685 303.287Z" fill="#D0B48C"/>
<path d="M151.574 274.533C153.928 272.598 154.69 269.852 155.469 266.904C156.551 269.295 154.093 274.098 151.574 274.533Z" fill="#D0B48C"/>
<path d="M148.733 272.119C149.49 271.032 150.376 270.014 150.929 268.834C151.483 267.68 151.678 266.365 152.091 264.865C153.029 267.413 151.58 270.54 148.732 272.094L148.733 272.119Z" fill="#D0B48C"/>
<path d="M76.8535 318.257C73.9704 318.405 72.2561 317.097 70.6416 313.422C70.9709 313.483 71.3439 313.392 71.4517 313.563C73.1555 315.802 74.9558 317.358 76.8535 318.257Z" fill="#D0B48C"/>
<path d="M154.343 275.803C155.01 274.945 155.755 274.159 156.345 273.255C156.91 272.376 157.27 271.381 157.826 270.277C158.084 272.803 156.636 275.353 154.368 275.802L154.343 275.803Z" fill="#D0B48C"/>
<path d="M61.307 311.109C60.128 312.918 56.9062 313.961 54.9375 313.165C57.0686 312.471 59.1758 311.803 61.307 311.109Z" fill="#D0B48C"/>
<path d="M51.4314 309.4C53.6636 309.304 55.7008 308.765 57.6365 307.024C56.3306 309.391 54.0794 310.216 51.4314 309.4Z" fill="#D0B48C"/>
<path d="M93.6027 165.71C93.0623 163.647 93.9008 162.104 95.1492 160.744C95.3029 160.813 95.4566 160.882 95.6103 160.951C94.9495 162.537 94.2636 164.124 93.6027 165.71Z" fill="#D0B48C"/>
<path d="M172.72 267.254C174.436 268.613 175.183 270.792 174.857 273.168C174.059 270.966 173.402 269.109 172.72 267.254Z" fill="#D0B48C"/>
<path d="M73.4787 320.283C71.2967 320.376 70.0087 319.049 68.7847 316.865C70.5742 318.171 72.027 319.239 73.4787 320.283Z" fill="#D0B48C"/>
<path d="M82.4741 205.173C81.5538 203.629 80.6586 202.085 79.7383 200.541C81.1986 201.785 82.265 203.222 82.4741 205.173Z" fill="#D0B48C"/>
<path d="M52.8469 320.206C54.4413 319.886 55.1578 321.363 56.3809 321.763C54.7876 322.108 53.8407 321.118 52.8469 320.206Z" fill="#D0B48C"/>
<path d="M85.981 187.189C86.8389 189.037 86.8614 189.564 86.1644 191.478L85.981 187.189Z" fill="#D0B48C"/>
<path d="M146.648 224.566C145.926 222.964 145.943 222.762 147.026 220.48C146.908 221.841 146.766 223.204 146.648 224.566Z" fill="#D0B48C"/>
<path d="M80.7915 215.731C80.0478 214.205 79.4969 213.073 78.8926 211.867C80.2264 213.092 80.4463 213.534 80.7915 215.731Z" fill="#D0B48C"/>
<path d="M115.228 219.55C116.225 219.935 116.611 220.747 116.853 221.692C116.026 221.174 115.445 220.496 115.276 219.498L115.228 219.55Z" fill="#D0B48C"/>
<path d="M159.113 277.455C158.982 277.912 158.827 278.396 158.606 279.108C158.503 278.46 158.655 277.901 159.113 277.455Z" fill="#D0B48C"/>
<path d="M28.8757 267.765C28.8543 267.264 28.884 266.786 28.8877 266.284C28.9879 266.28 29.0881 266.275 29.1883 266.271C29.1847 266.773 29.181 267.275 29.1774 267.777C29.0772 267.782 29.002 267.785 28.9008 267.764L28.8757 267.765Z" fill="#D0B48C"/>
<path d="M113.394 327.702C113.554 327.318 113.738 326.934 113.897 326.551C114.025 326.595 114.177 326.639 114.305 326.684C114.171 327.091 114.039 327.523 113.931 327.93C113.753 327.862 113.574 327.794 113.395 327.727L113.394 327.702Z" fill="#D0B48C"/>
<path d="M42.4936 264.346C42.8114 264.734 43.1041 265.123 43.4218 265.511C43.3248 265.591 43.2028 265.671 43.1058 265.751C42.8131 265.362 42.4953 264.974 42.2015 264.559C42.2985 264.48 42.3955 264.401 42.5176 264.32L42.4936 264.346Z" fill="#D0B48C"/>
<path d="M80.2185 207.555C80.051 207.161 79.8836 206.766 79.7172 206.397C79.7913 206.369 79.8893 206.314 79.9634 206.286C80.1309 206.681 80.3223 207.049 80.4898 207.443C80.3917 207.498 80.2926 207.527 80.1945 207.581L80.2185 207.555Z" fill="#D0B48C"/>
<path d="M100.089 205.755C100.046 205.355 99.9792 204.956 99.937 204.557C100.012 204.553 100.087 204.55 100.162 204.547C100.205 204.947 100.247 205.347 100.289 205.746C100.214 205.75 100.139 205.753 100.064 205.756L100.089 205.755Z" fill="#D0B48C"/>
<path d="M56.5318 227.113C56.3414 226.77 56.1521 226.452 55.9868 226.108C56.0598 226.054 56.1579 226 56.232 225.972C56.4213 226.29 56.6106 226.608 56.7988 226.901C56.7018 226.981 56.6288 227.034 56.5318 227.113Z" fill="#D0B48C"/>
<path d="M95.5132 282.561C96.1914 282.557 96.8457 282.579 97.7005 282.593C97.0677 283.072 96.3393 283.078 95.5132 282.561Z" fill="#D0B48C"/>
<path d="M100.355 302.399C99.8053 302.447 99.2814 302.52 98.4067 302.607C99.2764 301.817 99.8154 302.095 100.382 302.423L100.38 302.398L100.355 302.399Z" fill="#D0B48C"/>
</svg>
