<svg width="229" height="237" viewBox="0 0 229 237" fill="none" xmlns="http://www.w3.org/2000/svg">
<path d="M206.489 130.719C206.523 128.118 206.604 125.513 206.517 122.914C206.342 117.772 205.2 112.845 202.435 108.456C199.864 104.375 197.958 99.9176 194.812 96.1394C192.487 93.3483 190.174 90.5996 187.352 88.3267C184.211 85.7971 180.348 84.5858 176.799 82.8036C175.765 82.2846 174.702 81.7528 173.59 81.4822C171.081 80.872 168.619 80.1659 166.162 79.3448C159.008 76.9604 153.147 72.9339 148.615 66.876C147.465 65.3386 146.008 63.8588 144.376 62.8855C140.022 60.2897 135.395 58.2129 130.42 57.0599C127.818 56.4559 125.141 56.1385 122.582 55.4038C117.325 53.8964 112.584 51.3403 108.241 47.9956C106.424 46.5966 104.708 45.1817 104.049 42.9157C103.182 39.9372 102.224 36.9891 103.211 33.7744C103.84 31.7245 102.987 29.9729 101.304 28.615C99.0101 26.7665 96.606 28.3161 94.2522 28.3091C92.831 29.6496 91.0269 29.4258 89.3205 29.4399C85.3452 29.4728 81.8785 30.6576 78.7651 33.2305C76.3329 35.2401 73.7978 37.2455 69.6886 37.9381C68.5511 38.5443 66.6352 39.3951 64.9062 40.5306C63.0636 41.7387 62.4509 43.7942 62.5004 45.8461C62.5365 47.3452 63.2749 48.9299 64.7811 49.5236C66.2256 50.0925 66.7843 51.1582 67.1092 52.4087C68.4323 57.5257 69.7847 62.664 69.2824 68.0186C68.8774 72.3292 68.3024 76.6233 67.7573 80.9199C67.5704 82.399 67.1429 83.8508 67.0023 85.3319C66.848 86.9592 65.7068 88.1065 65.1942 89.5573C64.1626 92.4739 63.0418 95.3644 61.8241 98.209C60.126 102.173 58.2843 106.073 56.4157 109.963C54.8237 113.28 53.0261 116.586 52.0654 120.1C50.8544 124.53 49.2667 128.882 48.8662 133.559C48.5502 137.232 48.4258 140.888 48.5793 144.546C48.8974 152.106 47.6753 159.394 45.1312 166.489C44.4934 168.271 43.9216 170.069 44.1526 171.996C44.5289 175.138 45.5635 178.041 47.4194 180.626C49.3603 183.33 51.496 185.788 54.1694 187.881C56.9066 190.024 59.54 192.26 62.5938 193.972C63.966 194.742 65.2499 195.729 66.4213 196.786C67.8606 198.083 69.1379 199.562 70.4947 200.952C75.8159 206.401 82.6578 208.582 89.8773 209.881C94.5695 210.726 99.3026 211.344 103.992 212.203C106.26 212.618 108.49 213.285 110.696 213.974C112.084 214.408 113.331 214.207 114.403 213.397C116.147 212.082 118.159 211.569 120.216 211.145C122.271 210.722 124.352 210.423 126.403 209.979C130.077 209.182 133.715 208.208 137.408 207.513C141.623 206.718 145.641 205.311 149.671 203.933C151.507 203.305 153.371 202.586 154.987 201.546C156.614 200.497 158.446 199.986 160.097 199.053C161.733 198.129 163.333 197.113 165.038 196.341C169.979 194.107 174.176 190.85 177.956 187.045C180.451 184.533 182.829 181.9 185.165 179.239C186.447 177.779 187.323 175.915 188.746 174.637C192.57 171.208 195.397 167.043 198.128 162.783C200.605 158.922 202.253 154.684 203.8 150.378C205.585 145.407 206.56 140.35 206.355 135.061C206.298 133.618 206.47 132.167 206.489 130.719ZM53.9721 184.865C53.2352 183.705 52.2552 182.739 52.6602 181.056C54.4938 182.289 54.5787 182.547 53.9721 184.865ZM58.5466 188.904C56.7986 187.709 55.8266 186.212 55.3167 183.915C57.3944 185.164 58.9143 186.296 58.5466 188.904ZM74.0178 201.049C72.3083 200.099 71.2491 198.796 70.9395 196.555C73.8122 197.714 74.2723 198.416 74.0178 201.049ZM78.7903 203.781C76.6307 203.599 75.1502 201.752 75.4113 199.511C77.7018 200.029 78.7827 201.479 78.7903 203.781ZM81.9107 205.227C80.8173 204.616 79.9865 203.943 79.9208 202.628C80.9924 202.807 81.6557 203.674 81.9107 205.227ZM85.9567 206.543C83.9064 206.498 82.8823 205.545 82.9144 203.887C84.3591 204.165 85.3732 205.05 85.9567 206.543ZM108.68 208.773C111.049 208.313 110.948 210.742 112.276 211.635C110.201 212.037 109.228 211.227 108.68 208.773ZM112.057 209.14C113.42 208.804 114.54 209.144 115.415 210.158C113.703 211.29 113.434 211.219 112.057 209.14ZM115.983 208.712C117.527 208.073 118.66 208.173 119.383 209.011C118.267 209.892 117.225 209.769 115.983 208.712ZM123.335 207.528C125.252 206.468 125.395 206.48 126.715 207.931C125.692 207.809 124.671 207.688 123.335 207.528ZM167.817 192.447C166.451 193.246 165.049 194.064 163.451 195C163.448 191.435 165.682 190.253 168.453 189.158C168.224 190.342 168.032 191.341 167.817 192.447ZM171.077 190.367C170.677 190.627 170.174 190.956 169.673 191.283C169.896 189.97 169.255 188.474 170.914 187.499C170.973 188.53 171.02 189.362 171.078 190.369L171.077 190.367ZM172.302 189.039C172.06 187.331 172.403 185.972 173.891 184.997C175.079 184.22 176.233 183.388 177.686 182.382C177.149 185.546 175.645 187.354 172.302 189.039ZM176.26 181.917C175.191 182.827 173.994 183.589 172.857 184.416C172.714 184.312 172.568 184.208 172.425 184.104C172.575 183.545 172.727 182.988 172.921 182.271C172.707 182.088 172.25 181.846 172.018 181.466C171.433 180.504 171.741 179.784 172.816 179.51C173.431 179.353 174.074 179.302 174.7 179.203C174.401 177.303 175.998 177.149 176.908 176.332C178.31 178.81 178.152 180.307 176.26 181.917ZM179.059 182.978C179.046 181.643 179.442 180.591 180.248 179.822C180.878 181.336 180.874 181.348 179.059 182.978ZM182.016 179.806C181.741 177.991 181.764 177.955 183.651 177.674C183.133 178.348 182.617 179.022 182.016 179.806ZM180.962 176.809C180.664 176.907 180.479 177.376 180.258 177.686C180.055 177.972 179.9 178.297 179.674 178.562C179.546 178.712 179.314 178.775 179.13 178.876C177.771 176.438 177.94 175.386 179.922 173.723C180.853 172.942 181.776 172.153 182.83 171.262C184.301 173.737 183.387 176.021 180.962 176.809ZM185.055 175.733C184.993 175.659 184.866 175.534 184.878 175.518C185.074 175.264 185.286 175.026 185.496 174.782C185.596 174.891 185.695 175 185.795 175.109C185.548 175.317 185.302 175.524 185.055 175.733ZM185.095 173.281C183.825 171.238 183.891 170.039 185.519 168.652C185.612 170.395 186.067 171.854 185.095 173.281ZM196.353 161.34C196.199 161.942 195.777 162.475 195.094 162.905C194.856 161.423 194.579 159.947 194.408 158.458C194.366 158.086 194.616 157.647 194.822 157.291C195.289 156.487 195.81 155.715 196.308 154.93C196.479 154.954 196.652 154.976 196.823 155C196.765 156.272 196.729 157.546 196.646 158.816C196.592 159.662 196.559 160.526 196.351 161.341L196.353 161.34ZM197.859 158.874C198.168 155.23 196.496 151.78 199.499 148.583C199.649 152.177 200.429 155.515 197.859 158.874ZM204.545 137.002C204.553 141.848 203.474 146.462 201.596 150.908C201.486 151.165 201.319 151.398 200.992 151.963C200.814 149.626 200.621 147.636 200.527 145.643C200.478 144.611 200.558 144.608 199.054 143.593C199.568 146.013 198.358 147.791 197.383 149.909C197.112 149.543 196.936 149.363 196.831 149.147C196.708 148.899 196.647 148.622 196.518 148.235C196.312 148.473 196.113 148.601 196.08 148.761C196.025 149.035 196.044 149.334 196.086 149.614C196.554 152.621 195.649 155.079 193.391 157.157C192.84 157.664 192.779 158.706 192.494 159.499C192.859 159.737 193.475 159.921 193.531 160.211C194.246 163.959 193.922 167.052 190.191 169.353C190.989 168.141 191.788 166.928 192.579 165.727C191.945 165.209 191.412 164.774 190.654 164.154C190.682 164.726 190.674 165.098 190.723 165.461C190.847 166.376 190.649 167.134 189.962 167.828C189.012 168.787 188.165 169.849 187.242 170.904C186.125 168.729 186.204 167.569 187.47 166.115C188.061 165.435 188.631 164.736 189.075 163.919C187.638 163.971 187.328 165.692 186.246 165.887C184.711 166.163 185.388 168.273 183.708 168.324C183.322 167.919 182.856 167.432 182.037 166.573C182.111 167.415 182.026 167.847 182.196 168.117C182.822 169.112 182.557 169.92 181.773 170.624C179.839 172.359 177.88 174.069 175.906 175.811C172.392 174.831 169.023 173.891 165.474 172.902C165.687 173.241 165.802 173.672 166.067 173.805C167.811 174.692 169.578 175.499 171.611 175.542C172.585 175.562 173.553 175.847 175.073 176.104C173.661 177.108 172.71 177.782 171.637 178.547C171.095 177.615 170.647 176.846 170.142 175.982C169.83 176.744 169.799 177.667 170.05 178.75C167.949 178.092 166.009 177.484 164.071 176.876C163.978 177.004 163.887 177.132 163.795 177.258C164.069 177.545 164.293 177.972 164.626 178.092C166.056 178.609 167.494 179.147 168.974 179.46C170.288 179.738 170.884 180.338 170.639 181.95C168.664 181.667 166.685 181.383 164.706 181.099C164.671 181.305 164.636 181.512 164.603 181.717C166.462 182.951 168.803 182.335 170.805 183.02C171.584 184.959 171.542 185.141 169.982 186.267C169.511 185.435 169.047 184.612 168.58 183.791C168.447 183.83 168.313 183.869 168.179 183.909C168.327 184.982 168.475 186.056 168.642 187.263C165.321 189.71 161.701 191.579 157.49 193.181C159.539 193.976 160.942 192.837 162.69 192.804C162.212 194.31 162.045 195.752 160.45 196.629C156.268 198.926 152.109 201.253 147.574 202.806C146.83 203.062 146.044 203.21 145.312 203.498C143.502 204.211 141.766 204.127 140.111 203.095C139.757 202.874 139.489 202.516 139.18 202.221C139.052 202.417 138.926 202.612 138.798 202.808C139.278 203.368 139.758 203.93 140.327 204.594C136.971 205.824 134.995 203.281 132.328 201.636C133.042 203.605 134.453 204.39 135.616 205.395C133.186 207.132 130.693 207.473 128.061 206.261C129.188 205.669 130.122 205.178 131.057 204.686C131.009 204.532 130.962 204.379 130.915 204.224C129.977 204.444 129.025 204.61 128.107 204.894C126.87 205.278 125.684 205.593 124.599 203.893C124.34 205.379 123.746 206.132 122.588 205.942C121.648 205.789 120.734 205.455 119.626 205.152C119.591 205.435 119.538 205.854 119.473 206.372C118.245 206.557 117.801 205.468 117.144 204.825C116.98 204.665 117.232 204.082 117.281 203.769C116.462 203.149 115.592 202.488 114.582 201.725C114.261 202.016 113.863 202.374 113.358 202.83C114.163 203.48 114.932 203.983 115.548 204.631C116.127 205.242 116.545 206.006 117.249 207.01C115.033 207.295 113.11 207.542 111.158 207.794C110.68 206.979 110.255 206.257 109.594 205.133C109.35 206.074 109.212 206.61 109.075 207.138C107.61 207.392 106.732 206.763 106.357 205.351C106.03 204.115 105.684 202.886 105.228 201.225C104.976 201.911 104.689 202.283 104.77 202.54C105.374 204.468 106.025 206.382 106.713 208.282C106.979 209.017 107.378 209.702 107.922 210.838C105.527 210.405 103.516 210.062 101.515 209.673C100.096 209.398 98.6735 209.116 97.2814 208.728C96.2873 208.452 95.3453 207.991 94.3568 207.605C92.1374 208.863 89.8736 207.511 87.4836 207.358C87.4284 206.546 87.386 205.937 87.3436 205.338C88.8972 205.108 89.4071 206.222 89.7445 207.056C90.9765 206.474 91.9525 206.012 93.172 205.435C91.3713 205.307 90.0596 204.25 88.3543 204.113C85.8795 203.913 85.4017 203.069 85.8242 200.411C88.0831 199.776 90.5026 201.489 92.7665 200.054C89.2931 199.463 85.8835 198.882 82.4708 198.319C82.4045 198.308 82.3026 198.523 82.116 198.763C83.0506 199.262 83.9663 199.75 85.0517 200.331C85.0185 201.066 84.9786 201.903 84.9402 202.754C82.5128 202.415 82.4518 202.361 81.9856 200.172C81.7112 200.56 81.4905 200.87 81.2706 201.181C79.1702 200.611 79.0935 200.529 79.1576 198.476C79.188 197.503 79.286 196.533 79.2123 195.527C78.85 196.739 78.4869 197.95 78.0906 199.273C76.3806 198.636 74.6927 198.253 74.7858 195.857C74.2555 196.384 73.9558 197.146 73.2109 196.506C72.6058 195.989 71.9946 195.472 71.3501 195.005C71.038 194.779 70.6398 194.668 70.1535 194.446C70.1771 195.317 70.1947 195.978 70.2256 197.15C69.2746 196.472 68.6562 196.055 68.063 195.603C67.144 194.901 66.299 194.085 65.3194 193.484C64.2955 192.856 63.6707 192.104 63.882 190.454C62.4075 192.5 61.5615 190.756 60.7921 190.596C60.3925 189.396 60.077 188.452 59.7253 187.402C60.0696 187.287 60.4908 187.146 60.9561 186.992C60.1168 185.949 59.3399 184.983 58.5223 183.968C58.2744 183.958 57.7157 184.106 57.4129 183.893C56.4926 183.239 55.3695 182.709 55.1734 181.388C55.1637 181.317 55.1614 181.219 55.116 181.183C53.6377 180.006 52.1555 178.834 50.5099 177.765C51.2565 179.143 52.4011 180.37 51.3869 182.219C51.1686 182.088 50.9009 182.003 50.7538 181.822C48.9706 179.634 47.1578 177.481 46.2659 174.707C45.7107 172.976 45.8547 171.359 46.5165 169.261C47.4266 170.841 48.1477 172.089 48.8663 173.337C48.5489 171.097 46.8841 169.229 47.838 166.706C48.9267 168.354 50.0154 170.003 51.1041 171.651C51.1436 171.621 51.1824 171.589 51.2201 171.559C50.3507 169.597 49.5389 167.604 48.5904 165.681C47.8811 164.246 48.3094 163.069 49.1184 161.594C50.1362 163.247 51.0322 164.704 51.9307 166.162C51.407 163.708 49.7484 161.68 49.484 159.012C50.7356 158.864 51.1564 159.921 51.8658 160.395C52.567 160.863 53.1115 161.565 53.9796 161.939C53.0254 160.816 52.0805 159.684 51.1131 158.574C50.0515 157.353 49.4739 156.065 50.5677 154.306C51.7431 155.358 52.8945 156.386 54.0441 157.414C52.8686 155.437 51.0134 153.867 50.6277 150.901C52.485 152.425 53.9477 153.626 55.4104 154.826C55.4922 154.742 55.5722 154.658 55.654 154.573C54.554 153.4 53.3469 152.306 52.38 151.032C51.4434 149.798 50.3037 148.542 50.794 146.542C52.865 147.461 53.8871 149.695 56.0116 150.412C53.9278 148.129 51.3641 146.212 50.6403 142.961C52.7148 143.816 53.9855 145.85 56.3698 146.432C53.8099 144.015 50.6162 142.232 50.7925 138.098C52.0331 139.225 53.273 140.349 54.5137 141.476C54.6126 141.382 54.7107 141.287 54.8078 141.194C53.8889 140.102 52.8779 139.073 52.0775 137.9C51.2849 136.736 49.968 135.585 51.1997 133.803C52.0053 134.522 52.7389 135.174 53.4732 135.828C52.9799 134.014 51.0698 132.832 51.5318 130.345C52.9986 131.885 54.2624 133.213 55.5262 134.541C54.4244 132.125 52.1043 130.365 52.4892 127.187C53.6197 128.482 54.7512 129.774 55.8817 131.069C55.0965 128.55 52.9015 126.629 52.9437 123.432C54.7649 124.511 54.9127 126.55 56.4612 127.501C55.703 125.78 54.9687 124.133 54.2505 122.48C53.8381 121.532 53.5828 120.578 54.5413 119.465C55.2431 120.717 55.8814 121.852 56.724 123.351C56.5516 120.675 54.6653 118.652 56.1329 116.141C56.8444 117.412 57.5549 118.685 58.2664 119.956C58.3337 119.933 58.4027 119.91 58.4693 119.885C57.9223 117.959 57.3753 116.032 56.8291 114.108C57.0063 114.034 57.1836 113.961 57.3609 113.888C58.3047 115.582 59.2474 117.279 60.3803 119.315C59.5778 116.913 58.9248 114.892 58.2249 112.889C57.9073 111.981 57.5948 111.116 58.8219 110.234C59.4028 111.344 59.9489 112.384 60.6027 113.635C61.0566 111.436 58.8076 109.746 59.8808 107.426C60.4907 108.012 60.9592 108.463 61.427 108.912C61.5217 108.88 61.6164 108.848 61.7111 108.816C61.4497 107.821 60.9389 106.813 60.9935 105.838C61.0498 104.82 61.6537 103.833 62.0192 102.835C62.1823 102.808 62.3455 102.782 62.5093 102.757C62.7838 103.265 63.0636 103.771 63.3317 104.284C63.6319 104.856 63.9197 105.433 64.2611 106.102C64.7046 103.831 62.6665 101.981 63.4323 99.6529C64.9427 100.036 64.7448 101.745 66.0248 102.409C65.9921 101.196 65.4735 100.23 64.9729 99.3706C64.1815 98.0139 64.4906 96.9364 65.474 95.592C65.9615 96.4857 66.3696 97.2335 66.777 97.9795C66.913 97.9372 67.0473 97.8956 67.1833 97.8534C66.9951 96.9841 66.8147 96.1137 66.6152 95.247C66.4109 94.3532 65.9152 93.4545 66.7404 92.4983C68.029 93.3222 67.9248 94.8942 68.8183 95.9492C68.9163 94.2847 68.2439 92.7561 67.7841 91.1958C67.4031 89.9037 67.3757 89.9126 68.2036 88.4281C68.8017 89.4324 69.338 90.3292 69.9854 91.415C70.268 89.8499 69.425 88.7559 68.9805 87.6092C68.5135 86.4013 68.6407 85.3907 69.4671 84.1032C70.0768 84.9664 70.5807 85.6798 71.0481 86.3438C71.3086 84.3017 69.155 82.6428 69.9946 80.3182C71.2757 80.7791 71.1562 82.3386 72.3243 82.9194C71.7473 80.7281 70.5231 78.7783 70.6121 76.1042C71.9394 77.1068 72.2206 78.3978 73.1496 79.788C73.0892 76.7625 70.33 74.8778 71.2993 72.0068C72.6774 72.282 72.7555 73.5821 73.4591 74.3704C74.1094 72.002 71.4053 70.6761 71.6065 67.9878C72.4615 68.9984 73.0598 69.7049 73.657 70.4139C73.7748 70.3624 73.8927 70.3109 74.0105 70.2594C73.5692 69.2954 73.0845 68.3469 72.6948 67.3622C72.3066 66.381 72.0145 65.3612 71.5267 63.9011C72.4384 64.5539 72.9696 64.9338 73.7942 65.5245C72.8037 63.8116 71.9965 62.4158 70.9735 60.6477C71.9626 60.7215 72.4692 60.7577 73.0785 60.8023C72.9829 60.5181 72.9774 60.2371 72.8547 60.1685C71.1075 59.2065 70.4143 57.6366 70.0569 55.7602C69.7366 54.0839 69.188 52.4518 68.7366 50.7889C69.9955 50.1401 70.519 50.8663 70.9667 51.6251C71.771 52.9827 72.5311 54.3644 73.2956 55.7464C73.391 55.9168 73.4751 56.1518 73.4373 56.3304C72.9861 58.474 74.2705 59.9922 75.6128 61.1812C77.1452 62.5397 77.2681 64.3574 78.186 65.8845C78.0365 65.9859 77.8896 66.0884 77.7401 66.1899C76.9769 65.2995 76.2144 64.4109 75.4512 63.5206C75.8016 65.6624 77.0786 67.2291 78.377 68.7769C79.1191 69.6612 79.1469 69.6377 78.9764 71.3996C78.3963 70.903 77.8783 70.4578 77.0819 69.7731C77.0716 71.6195 78.4961 73.404 76.4538 74.8247C77.0025 76.3389 78.234 77.9363 77.6439 80.1047C77.1554 79.8772 76.6927 79.6621 76.2306 79.4488C76.1121 79.1181 76.0014 78.7863 75.7526 78.0386C75.4119 79.8503 75.124 81.217 74.903 82.5961C74.2725 86.5362 72.9965 90.2748 71.352 93.8886C70.2603 96.2855 68.7983 98.5378 67.928 101.007C66.5305 104.968 65.1998 108.977 64.6543 113.236C64.9034 112.874 65.1525 112.511 65.4055 112.142C67.5621 113.881 67.778 114.747 66.951 116.897C66.6921 117.57 66.8289 118.393 66.7836 119.15C68.0148 119.368 69.3475 120.611 69.3365 121.643C69.3291 122.324 69.149 123.002 68.9989 123.976C66.9458 122.711 67.3242 120.731 66.7861 119.172C66.714 119.939 66.6427 120.708 66.5451 121.746C65.7457 121.161 65.1657 120.737 64.585 120.311C64.5086 120.383 64.4314 120.453 64.3549 120.525C65.2814 121.704 66.1468 122.935 67.1476 124.047C68.5154 125.566 68.5591 125.526 67.8123 127.706C65.2333 126.598 64.0585 124.432 63.1447 121.547C63.2885 122.286 63.4359 122.621 63.3901 122.929C63.3457 123.23 63.1082 123.504 63.0798 123.556C63.757 125.585 64.3866 127.47 65.1096 129.634C64.4256 129.398 64.001 129.253 63.5683 129.102C63.5408 129.28 63.4599 129.46 63.5117 129.522C64.3155 130.451 65.1529 131.351 65.9521 132.285C66.962 133.465 67.7814 134.711 67.0745 136.517C65.0346 136.041 63.9249 134.428 62.4037 133.215C62.9318 134.318 63.5461 135.388 63.9635 136.529C64.4077 137.742 64.6671 139.025 65.0468 140.428C63.3476 140.48 62.6682 139.027 61.0958 138.222C62.3713 139.975 63.8007 140.887 65.0983 141.949C65.9245 142.626 66.6349 143.447 67.3914 144.208C68.1195 144.938 67.9755 145.743 67.6937 146.569C65.4228 146.475 64.8188 145.966 63.3308 143.925C63.2485 144.132 63.1971 144.287 63.1268 144.431C63.032 144.622 62.9209 144.804 62.7646 145.083C64.2899 146.424 65.5234 147.975 66.0259 150.552C64.5617 149.687 63.4366 149.023 62.1399 148.256C63.1602 152.548 65.1142 156.22 67.7949 159.679C66.1224 160.523 65.5316 158.426 64.1808 158.672C64.7002 159.902 65.2597 161.031 65.6579 162.217C66.1141 163.578 66.5226 164.903 67.6924 165.894C68.2158 166.337 68.4953 167.069 68.8954 167.683C66.6496 168.526 65.6932 168.189 64.6863 166.235C64.2434 165.375 63.824 164.501 63.3929 163.634C63.2597 163.694 63.1266 163.754 62.9942 163.815C63.3158 164.78 63.6594 165.738 63.929 166.717C63.9584 166.821 63.5459 167.044 63.2094 167.318C65.9909 168.276 65.7263 171.234 67.6814 173.078C66.569 173.145 65.8779 173.185 65.1911 173.225C62.8336 170.447 61.7625 167.032 60.2148 163.866C61.0395 168.772 63.5667 172.867 66.7587 177.171C65.5584 176.9 64.7573 176.718 63.6179 176.461C64.3376 177.968 65.5012 178.193 66.5416 178.492C67.6971 178.826 68.7146 179.238 69.1753 180.733C67.5062 180.701 65.9879 180.689 65.136 179.028C64.3222 179.473 63.6192 179.118 63.027 177.964C62.4358 178.489 62.1989 179.124 62.2536 179.836C62.4974 182.947 64.8219 185.844 67.862 186.596C70.3394 187.209 74.9193 185.789 75.3288 181.804C75.683 178.369 75.5608 175.036 74.5906 171.723C74.2674 170.62 74.0719 169.481 73.7804 168.19C74.833 168.319 75.6964 168.425 76.5598 168.531C76.5919 168.4 76.6224 168.27 76.6545 168.139C76.3359 168.035 76.0059 167.955 75.7017 167.821C74.2707 167.193 73.1051 166.392 72.7704 164.659C71.9181 160.261 70.9571 155.885 70.0471 151.498C69.994 151.242 70.0056 150.972 69.9698 150.451C70.8165 150.824 71.4372 151.098 72.0597 151.371C72.1198 151.299 72.1799 151.227 72.2399 151.156C71.41 150.387 70.3401 149.752 69.8184 148.815C69.2959 147.875 69.3208 146.631 69.0293 145.119C70.4193 145.912 71.4517 146.5 72.4847 147.089C72.5711 146.98 72.6575 146.871 72.7439 146.762C71.0099 145.468 69.3058 144.155 69.2463 141.477C70.2667 141.927 71.0653 142.278 71.8646 142.631C70.7909 141.431 69.832 140.249 68.8589 138.513C69.7312 138.826 70.1493 138.976 70.8124 139.216C69.54 137.476 67.9125 136.133 68.7611 133.687C69.3815 134.206 69.897 134.64 70.5988 135.229C70.3698 133.193 68.0253 131.754 69.4438 129.465C70.0104 129.949 70.522 130.388 71.0329 130.826C70.4205 128.963 69.0647 127.38 69.8712 125.092C70.4147 125.436 70.8626 125.717 71.4111 126.063C71.4178 125.812 71.483 125.604 71.42 125.447C70.7896 123.9 70.1233 122.36 71.0463 120.49C71.6316 121.134 72.1395 121.692 73.0005 122.641C71.7615 120.016 71.3432 117.747 72.2294 115.41C72.5309 114.617 72.9161 113.852 73.276 113.081C73.3803 112.857 73.6884 112.615 73.6439 112.453C73.1742 110.729 74.4491 109.621 75.0393 108.106C75.6391 108.456 76.1512 108.753 76.8776 109.176C75.956 107.326 75.9643 105.504 76.9026 103.71C77.3857 104.14 77.8457 104.548 78.2453 104.905C78.0012 103.665 77.466 102.375 77.585 101.148C77.7124 99.84 78.4591 98.5908 78.9913 97.1631C79.7679 97.5312 80.4382 97.851 81.1103 98.1701C81.1547 98.1005 81.198 98.0335 81.2424 97.9639C80.6707 97.3647 80.1 96.7629 79.3341 95.9584C82.2898 89.1461 82.6452 81.909 82.1461 74.5626C81.643 67.1289 78.7522 60.4525 75.499 53.7233C77.2726 55.0594 78.6039 57.2907 81.8006 64.1522C81.8806 61.3473 81.1729 59.2064 78.5009 55.2396C76.6965 52.5616 74.6835 50.0233 72.5296 47.1033C72.1719 47.9109 71.9739 48.3544 71.7517 48.851C70.9622 48.4302 70.145 47.9917 69.2442 47.5102C68.7829 47.7205 68.2728 48.1385 67.7527 48.1512C66.7798 48.1742 65.7176 48.2684 65.0745 47.1726C64.432 46.0786 64.3207 44.31 65.2355 43.2992C66.085 42.3622 67.1817 41.6339 68.2367 40.91C68.6971 40.5946 69.3078 40.4421 69.8709 40.346C74.2689 39.6056 77.7241 37.1372 80.9643 34.2983C83.2856 32.2651 86.1392 31.9056 89.0173 31.4785C91.4353 31.1205 93.8247 30.5734 96.2275 30.1058C96.4401 30.0637 96.6438 29.9839 96.8528 29.9227C99.7729 29.0651 102.018 30.8381 101.509 33.8319C101.181 35.7669 101.361 37.8096 100.432 39.6388C99.8261 40.8315 99.2597 42.0455 98.8908 43.391C99.5891 42.3866 100.288 41.3839 100.986 40.3795C101.157 42.821 100.267 44.7979 99.1756 46.7688C100.034 45.6483 100.892 44.5278 101.749 43.4124C102.115 44.139 101.847 45.6313 100.945 47.8893C101.524 47.2556 101.785 46.9645 102.05 46.6761C102.291 46.4135 102.539 46.1548 102.813 45.8604C104.993 47.1014 103.569 48.6086 103.296 50.116C103.86 49.414 104.422 48.7144 104.981 48.0162C106.757 49.281 106.814 49.5431 105.746 52.5532C106.519 51.56 107.007 50.9318 107.529 50.2608C109.644 51.4595 111.735 52.5545 113.733 53.7961C118.521 56.7717 123.927 57.768 129.317 58.8783C134.858 60.019 139.86 62.4638 144.437 65.6959C146.046 66.8334 147.231 68.582 148.578 70.0769C152.951 74.9253 158.055 78.7436 164.231 80.9726C166.539 81.8047 168.994 82.2237 171.295 83.0707C174.616 84.2912 177.87 85.6998 181.131 87.0832C188.181 90.0755 192.826 95.6993 196.874 101.859C198.77 104.746 200.311 107.879 201.845 110.984C203.064 113.451 203.901 116.067 204.252 118.839C204.81 123.235 205.181 127.609 204.558 132.041C204.328 133.67 204.544 135.361 204.548 137.021L204.545 137.002ZM69.849 119.528C67.1879 118.109 67.166 118.049 68.448 116.115C70.667 117.088 70.7253 117.218 69.849 119.528ZM66.8051 108.176C68.9999 110.216 69.1528 110.874 67.9017 113.337C65.4951 111.192 65.3933 110.656 66.8051 108.176ZM69.8299 111.997C70.4716 112.678 70.9413 113.178 71.4563 113.723C71.2366 114.432 71.0322 115.091 70.8243 115.762C69.4386 115.161 69.1072 113.906 69.8299 111.997ZM68.6959 109.089C66.9982 107.602 66.8867 105.962 68.2199 104.181C70.4907 106.291 70.6174 107.599 68.6959 109.089ZM71.0302 107.772C71.786 108.49 72.399 109.068 73.0756 109.712C72.7161 110.489 72.387 111.199 72.0588 111.91C69.7857 110.776 69.7037 110.505 71.0302 107.772ZM69.6988 100.32C71.6183 102.842 72.2193 103.833 70.4831 105.161C68.1688 103.257 68.0408 102.589 69.6988 100.32ZM72.5672 104.601C73.1824 105.164 73.7993 105.726 74.5026 106.37C74.2401 106.992 73.9992 107.561 73.7622 108.123C71.131 107.128 70.9079 106.496 72.569 104.6L72.5672 104.601ZM71.337 96.7624C73.1798 98.3581 73.4521 100.054 72.0555 101.821C69.6367 99.4351 69.6085 99.2107 71.337 96.7624ZM72.8432 103.297C73.1505 102.41 73.4617 101.508 73.8066 100.509C76.2005 102.482 76.2116 102.536 74.8943 105.05C74.5458 104.806 74.1949 104.591 73.8849 104.329C73.5606 104.052 73.2761 103.73 72.8425 103.295L72.8432 103.297ZM73.6369 97.7566C71.457 96.495 71.3414 95.5801 73.1079 92.8766C74.5272 94.504 75.0048 96.0468 73.6369 97.7566ZM75.3655 96.9646C75.9846 97.3938 76.6088 97.8252 77.339 98.3298C77.0421 99.1087 76.7198 99.9579 76.3868 100.832C74.1493 99.4426 74.0549 99.0587 75.3665 96.9621L75.3655 96.9646ZM74.423 89.4925C76.3357 90.7478 75.3413 92.3116 74.9497 94.0943C72.9035 91.8795 72.8878 91.6398 74.423 89.4925ZM76.5994 92.6226C77.1838 92.8881 77.7706 93.1546 78.36 93.4222C78.4766 93.2905 78.5914 93.1596 78.7081 93.0279C77.7794 91.6437 75.6388 90.4903 77.824 88.4271C78.5521 89.1786 79.2851 89.9322 80.0553 90.7267C79.3046 92.9328 78.5699 95.0912 77.8287 97.2645C75.2764 96.1464 75.5988 94.9271 76.5994 92.6226ZM75.614 85.0127C77.0693 86.4726 76.71 87.8059 75.9851 89.2532C74.4392 87.9435 74.3967 87.4726 75.614 85.0127ZM76.2296 79.503C76.6413 80.4706 77.1645 81.4119 77.3939 82.4197C77.5741 83.2074 77.3516 84.0888 77.2944 85.2015C75.8885 84.4868 75.5641 83.5875 75.737 82.4386C75.8843 81.4572 76.0628 80.4819 76.2278 79.5037L76.2296 79.503ZM78.6871 84.2838C79.7755 85.7258 81.6279 86.6766 80.2606 88.7584C77.6969 87.2417 77.4983 86.7426 78.6871 84.2838ZM78.9069 80.3558C79.5143 80.3391 80.0536 80.3228 80.5997 80.308C80.9368 81.5992 81.2404 82.8893 80.5651 84.3725C79.4412 83.1867 78.076 82.3419 78.9069 80.3558ZM78.5628 74.0223C80.1356 75.2757 80.2896 75.7101 80.2056 78.6386C78.6079 77.4365 78.2771 75.8782 78.5628 74.0223ZM68.059 128.638C67.842 129.631 67.6254 130.63 67.407 131.63C67.2781 131.659 67.1499 131.69 67.021 131.719C66.4985 130.589 65.9768 129.461 65.2948 127.986C66.4164 128.25 67.1317 128.42 68.058 128.641L68.059 128.638ZM67.7818 140.236C67.7906 140.993 67.8745 141.747 67.9221 142.503C66.2505 141.025 65.4291 139.203 64.8171 137.187C67.3082 137.747 67.7477 137.266 67.781 140.234L67.7818 140.236ZM68.4823 172.082C71.0623 172.312 72.0474 172.762 72.3596 173.852C69.2606 174.285 68.9469 174.143 68.4823 172.082ZM73.2472 176.446C73.2699 176.79 73.0133 177.33 72.7292 177.467C72.4445 177.602 71.8696 177.463 71.6052 177.232C71.1503 176.836 70.8369 176.277 70.1449 175.369C71.2892 175.397 71.9838 175.314 72.6171 175.475C72.9055 175.549 73.226 176.094 73.249 176.445L73.2472 176.446ZM66.6777 175.051C68.5203 174.866 69.4611 175.848 70.1728 177.444C67.9235 177.908 67.7301 175.899 66.6777 175.051ZM70.7758 182.683C69.763 183.152 68.7251 183.656 67.5956 182.508C68.7778 181.797 69.7734 182.17 70.7758 182.683ZM66.4513 168.964C69.7395 168.785 69.8436 168.838 70.8904 171.201C67.7343 170.73 66.9563 170.338 66.4513 168.964ZM70.2048 179.499C71.032 179.194 71.5266 179.526 71.6886 180.494C70.76 180.787 70.438 180.228 70.2048 179.499ZM69.1305 166.056C70.3714 166.139 71.0527 166.725 71.1745 167.813C69.7372 168.085 69.68 166.929 69.1305 166.056ZM66.2652 160.945C70.1284 161.549 69.9057 162.178 70.2134 164.548C68.0512 165.074 66.9272 164.048 66.2652 160.945ZM66.6056 155.728C67.473 156.07 68.1118 156.322 68.8123 156.599C68.8211 157.325 68.8275 157.953 68.8381 158.9C67.667 158.019 66.8961 157.243 66.6039 155.729L66.6056 155.728ZM63.2678 149.519C65.213 150.757 66.9912 151.889 68.9888 153.159C68.9453 153.766 68.9018 154.383 68.8605 154.975C65.6102 155.248 63.8624 153.575 63.2678 149.519ZM66.1658 147.814C66.9271 147.81 67.4137 147.807 68.1234 147.803C68.298 148.88 68.4745 149.957 68.7067 151.393C67.2166 150.392 66.5009 149.363 66.164 147.815L66.1658 147.814ZM66.2974 182.087C66.2125 182.251 66.1295 182.415 66.0446 182.579C65.1377 182.659 64.5251 182.107 63.9479 181.479C64.026 181.302 64.1041 181.126 64.1821 180.95C64.8864 181.329 65.5924 181.707 66.2967 182.085L66.2974 182.087ZM73.8791 51.6328C73.9886 51.5247 74.0971 51.419 74.2066 51.3109C74.4333 51.6023 74.6593 51.8919 74.8861 52.1833C74.8018 52.2564 74.7175 52.3296 74.6332 52.4028C74.383 52.1456 74.131 51.8892 73.8801 51.6303L73.8791 51.6328Z" fill="#D0B48C"/>
<path d="M142.435 151.443C140.673 147.375 138.976 143.245 137.653 138.953C135.932 133.374 133.361 128.06 131.26 122.592C129.796 118.78 127.964 115.218 125.486 111.949C123.355 109.137 121.48 106.13 119.45 103.241C118.555 101.965 117.552 100.762 116.6 99.5253C116.517 99.5711 116.433 99.6175 116.35 99.6651C116.482 100.338 116.614 101.011 116.755 101.736C115.456 102.342 114.239 102.97 112.975 103.483C111.745 103.983 110.802 105.196 109.304 105.06C108.753 102.939 108.829 102.778 110.628 102.042C110.954 101.909 111.268 101.743 111.59 101.593C111.553 101.499 111.514 101.403 111.474 101.309C110.59 101.425 109.708 101.539 108.338 101.718C109.767 99.4068 112.505 99.7473 113.695 97.9601C111.983 98.3627 110.402 99.3106 108.386 99.3975C108.489 97.6068 110.798 97.8116 110.748 96.252C110.004 96.5572 109.257 96.8638 108.194 97.2995C108.316 94.6677 110.895 95.1466 111.77 93.703C110.551 94.0382 109.473 94.3351 108.401 94.6316C107.813 93.344 108.073 92.5862 109.182 91.9769C109.966 91.5459 110.616 90.869 111.325 90.3027C111.263 90.239 111.2 90.1754 111.139 90.111C110.205 90.5255 109.269 90.939 108.301 91.3678C107.752 89.5042 107.939 88.6535 109.526 88.0073C110.702 87.5283 111.108 86.6601 111.586 86.0914C111.064 85.714 110.406 85.4907 110.328 85.1374C109.832 82.9011 109.447 80.6367 109.077 78.3745C109.03 78.0874 109.294 77.7517 109.333 77.6473C108.894 77.2715 108.309 77.0128 108.249 76.6627C108.154 76.1178 108.416 75.5099 108.526 74.9301C106.963 75.029 106.938 74.1627 107.346 73.0038C107.127 72.9721 106.904 72.9832 106.717 72.9052C106.406 72.7739 106.12 72.587 105.823 72.4251C105.695 72.7434 105.575 73.0375 105.414 73.4375C104.772 72.448 105.098 71.3037 106.393 70.0045C105.765 70.2132 105.455 70.3773 105.131 70.4103C104.687 70.4566 104.04 70.5864 103.819 70.3548C103.253 69.7613 103.859 69.3398 104.295 68.9579C104.964 68.3686 105.634 67.7828 106.303 67.1952C106.247 67.1415 106.191 67.0896 106.136 67.0352C104.266 68.006 102.397 68.9786 100.452 69.9881C101.737 72.9594 103.135 75.7368 104.141 78.6492C105.151 81.574 106.043 84.5941 106.489 87.6443C107.022 91.2738 107.023 94.9831 107.261 98.6567C107.363 100.226 107.378 101.812 107.621 103.363C107.985 105.683 108.524 107.975 108.97 110.283C109.367 112.34 109.699 114.41 110.13 116.46C110.972 120.48 111.905 124.482 112.716 128.509C113.026 130.046 112.793 131.755 113.354 133.167C114.344 135.651 114.547 138.218 114.566 140.775C114.592 144.122 115.379 147.528 114.139 150.832C114.077 150.993 114.262 151.231 114.273 151.439C114.316 152.142 114.42 152.857 114.344 153.549C113.796 158.579 113.065 163.591 113.388 168.682C113.474 170.043 113.461 171.473 113.142 172.784C112.389 175.874 112.721 178.989 112.718 182.085C112.716 184.447 113.05 186.821 113.398 189.167C114.023 193.413 119.677 196.516 122.735 196.198C125.931 195.866 128.904 194.816 131.848 193.601C133.71 192.832 135.593 192.04 137.542 191.564C141.137 190.688 144.682 189.759 147.997 188.031C150.285 186.838 152.078 185.352 152.654 182.69C153.065 180.785 153.681 178.923 154.028 177.009C154.199 176.066 154.228 174.94 153.871 174.084C152.733 171.352 151.463 168.665 150.098 166.036C147.566 161.157 144.618 156.468 142.442 151.44L142.435 151.443ZM106.124 74.5766C106.294 74.841 106.463 75.1062 106.633 75.3705C106.496 75.4549 106.356 75.5399 106.218 75.6224C106.078 75.3519 105.927 75.0857 105.815 74.802C105.803 74.7717 106.016 74.6531 106.123 74.5749L106.124 74.5766ZM107.868 78.8009C108.171 79.7088 108.33 80.1866 108.593 80.9759C108 80.4839 107.758 79.7589 107.868 78.8009ZM108.529 81.9012C108.905 82.5465 108.964 83.1645 108.706 83.7552C108.33 83.1369 108.271 82.5189 108.529 81.9012ZM106.213 78.1881C106.248 78.4862 106.1 78.8064 105.982 79.3064C105.591 79.0068 105.209 78.8422 105.214 78.6911C105.226 78.4072 105.459 78.1317 105.6 77.8515C105.814 77.9619 106.197 78.0542 106.211 78.1871L106.213 78.1881ZM106.522 81.7134C106.103 81.2505 106.013 80.7256 106.253 80.1385C106.963 80.589 106.975 81.0867 106.522 81.7134ZM101.947 71.0061C102.007 70.7794 102.209 70.5885 102.354 70.3834C102.514 70.5032 102.673 70.623 102.969 70.8433C102.728 71.0682 102.572 71.2904 102.359 71.3738C102.276 71.4074 101.924 71.0938 101.947 71.0061ZM104.14 73.9164C103.229 73.7962 102.906 73.1942 103.17 72.1105C103.566 72.8487 103.811 73.3042 104.14 73.9164ZM103.838 75.7046C103.857 75.5564 104.214 75.3032 104.238 75.3223C104.588 75.6014 104.908 75.9193 105.237 76.2276C104.218 76.6291 103.742 76.4646 103.84 75.7057L103.838 75.7046ZM106.546 82.7974C107.631 83.331 107.691 83.8075 106.947 84.5509C106.842 84.0886 106.735 83.6271 106.546 82.7974ZM107.616 85.8493C108.107 85.4099 108.752 85.1405 109.329 84.7968C110.107 86.1652 110.097 86.1524 108.914 86.9486C108.527 87.2096 108.194 87.5483 107.808 87.8749C107.237 87.1371 106.931 86.4597 107.614 85.85L107.616 85.8493ZM132.227 142.865C132.098 141.712 132.496 140.999 133.651 140.761C134.206 141.764 133.732 142.466 132.227 142.865ZM131.357 136.319C131.266 136.242 131.173 136.166 131.082 136.089C131.285 135.794 131.485 135.501 131.687 135.207C131.818 135.336 131.949 135.463 132.08 135.592C131.838 135.834 131.599 136.077 131.357 136.319ZM137.644 149.442C138.162 149.836 138.098 150.506 137.531 150.889C136.896 151.321 136.178 151.63 135.285 152.102C135.148 150.871 135.694 150.158 136.345 149.6C136.635 149.351 137.384 149.243 137.643 149.44L137.644 149.442ZM140.712 151.298C140.837 152.839 139.811 152.859 138.798 153.048C138.665 151.523 139.515 151.299 140.712 151.298ZM126.403 119.95C126.897 119.861 127.448 119.704 127.473 119.766C127.65 120.187 127.716 120.653 127.817 121.106C127.619 121.163 127.421 121.22 127.222 121.277C126.987 120.896 126.752 120.515 126.403 119.95ZM133.335 132.727C133.895 133.118 133.942 133.578 133.36 134.358C133.141 133.7 132.993 133.259 132.839 132.796C133.081 132.758 133.257 132.673 133.337 132.728L133.335 132.727ZM130.891 127.498C130.916 127.122 130.938 126.745 130.963 126.369C131.117 126.361 131.268 126.352 131.422 126.344C131.438 126.718 131.462 127.092 131.444 127.464C131.444 127.484 131.083 127.487 130.891 127.498ZM135.386 136.796C135.399 137.384 135.413 137.972 135.43 138.724C134.604 138.019 134.59 137.377 135.386 136.796ZM141.47 155.674C141.577 155.152 141.666 154.706 141.795 154.063C142.124 154.384 142.416 154.535 142.471 154.747C142.603 155.266 142.558 155.278 141.47 155.674ZM143.177 156.808C142.953 157.758 142.84 158.516 142.587 159.224C142.344 159.905 141.702 160.287 141.087 159.91C140.768 159.713 140.584 158.925 140.687 158.487C140.927 157.464 141.57 156.738 143.176 156.806L143.177 156.808ZM138.279 146.974C137.921 146.368 137.702 145.993 137.376 145.437C138.583 145.448 138.753 145.854 138.279 146.974ZM138.248 154.726C138.967 154.487 139.486 154.313 140.352 154.023C140.207 155.119 140.095 155.981 139.964 156.977C138.579 156.772 138.566 155.8 138.248 154.724L138.248 154.726ZM145.725 170.526C145.596 171.163 145.511 171.577 145.367 172.285C144.676 171.434 144.61 170.993 145.725 170.526ZM144.379 169.522C144.705 168.626 144.958 167.925 145.213 167.225C145.885 168.386 145.607 169.152 144.379 169.522ZM144.004 166.816C142.722 165.042 142.781 164.822 144.544 164.357C144.365 165.167 144.209 165.881 144.004 166.816ZM143.028 163.484C143.053 160.854 143.264 160.552 144.968 160.727C145.016 162.044 144.37 162.963 143.028 163.484ZM146.278 163.606C146.283 163.542 146.755 163.522 147.011 163.479C147.018 163.976 147.026 164.474 147.033 164.969C146.792 164.988 146.551 165.006 146.311 165.024C146.29 164.551 146.237 164.074 146.28 163.605L146.278 163.606ZM130.477 123.386C130.082 123.93 129.685 124.472 129.278 125.028C128.405 124.47 128.149 123.813 128.597 123.303C128.892 122.967 129.634 123.022 130.176 122.904C130.275 123.064 130.377 123.224 130.477 123.386ZM127.769 118.1C127.711 118.27 127.067 118.448 126.894 118.33C126.225 117.875 126.452 117.325 126.871 116.737C127.644 116.962 128.01 117.393 127.769 118.1ZM124.239 116.443C123.263 114.726 123.352 114.15 124.866 113.087C126.209 115.218 126.174 115.382 124.239 116.443ZM117.265 113.178C117.449 110.869 117.835 110.616 119.599 111.491C118.736 112.115 118 112.646 117.265 113.178ZM120.584 113.462C121.489 114.333 121.616 114.768 120.291 115.181C120.397 114.559 120.465 114.158 120.584 113.462ZM121.812 115.719C122.31 117.621 122.023 117.906 119.233 118.29C119.507 116.174 119.675 116.005 121.812 115.719ZM121.423 118.532C121.018 120.512 120.351 121.697 118.825 122.232C117.542 122.681 116.247 123.096 114.912 123.542C114.46 122.355 114.997 121.742 115.829 121.317C117.55 120.434 119.291 119.59 121.423 118.532ZM122.465 119.344C122.617 118.95 122.809 118.57 123.153 117.814C123.689 118.516 124.066 119.01 124.609 119.72C123.735 120.113 123.122 120.386 122.011 120.884C122.269 119.997 122.342 119.662 122.465 119.344ZM121.571 112.332C121.765 112.078 121.917 111.756 122.169 111.597C122.299 111.516 122.61 111.723 122.995 111.852C122.714 112.284 122.587 112.688 122.342 112.783C122.168 112.85 121.832 112.498 121.57 112.334L121.571 112.332ZM125.416 123.541C125.459 122.924 125.488 122.507 125.548 121.675C126.625 122.656 126.342 123.043 125.416 123.541ZM122.594 109.995C122.015 110.418 121.408 110.591 120.772 110.513C121.251 109.49 121.858 109.318 122.594 109.995ZM119.371 109.093C118.99 108.721 118.665 108.405 118.399 108.144C118.659 107.285 119.522 107.122 120.911 107.573C120.406 108.071 119.94 108.532 119.371 109.091L119.371 109.093ZM119.31 105.561C119.167 105.759 119.055 106.007 118.865 106.135C118.775 106.194 118.531 106.021 118.356 105.955C118.46 105.729 118.561 105.503 118.703 105.193C118.988 105.366 119.149 105.465 119.309 105.564L119.31 105.561ZM118.123 103.435C117.641 103.838 117.159 104.238 116.479 104.805C116.549 103.764 117.097 103.307 118.123 103.435ZM115.553 103.864C115.278 104.393 115.17 104.963 114.837 105.174C113.289 106.148 111.707 107.082 109.813 107.752C110.159 106.01 112.959 104.18 115.553 103.864ZM110.547 108.565C112.517 107.56 114.518 106.617 116.519 105.674C116.668 105.604 116.909 105.73 117.108 105.766C117.208 105.929 117.307 106.092 117.408 106.256C115.468 108.28 112.794 109.175 110.443 110.66C109.717 109.749 109.606 109.047 110.546 108.567L110.547 108.565ZM111.002 111.527C112.786 110.462 114.608 109.459 116.415 108.431C116.57 108.565 116.725 108.697 116.878 108.832C116.667 109.328 116.595 110.004 116.221 110.289C114.573 111.547 112.837 112.692 110.836 113.388C110.126 112.603 110.264 111.969 111.002 111.527ZM115.335 112.45C115.789 113.095 115.592 113.77 115.066 114.105C113.91 114.847 112.651 115.428 111.079 116.26C111.219 114.922 112.638 113.651 115.334 112.449L115.335 112.45ZM111.535 117.322C113.982 115.999 116.467 114.654 119.13 113.214C119.438 114.632 119.063 115.465 118.057 115.924C116.296 116.724 114.504 117.461 112.711 118.189C112.039 118.459 111.594 118.216 111.533 117.322L111.535 117.322ZM113.153 119.196C114.629 118.47 116.139 117.813 117.919 116.996C117.389 119.796 117.304 119.874 115.65 119.288C115.047 120.324 114.249 121.178 112.841 121.333C112.272 120.488 112.068 119.729 113.155 119.197L113.153 119.196ZM115.129 124.488C116.168 124.001 117.262 123.627 118.338 123.221C118.907 123.007 119.396 122.409 120.131 122.899C120.27 122.992 120.767 122.836 120.861 122.664C121.659 121.227 123.056 121.252 124.504 121.059C124.559 122.896 123.553 123.846 121.824 124.466C122.305 124.579 122.559 124.638 122.929 124.725C122.131 128.162 119.127 128.069 116.471 129.015C116.444 126.18 118.693 126.106 120.328 125.184C119.336 125.15 118.458 125.121 117.222 125.08C116.664 125.956 115.513 126.66 113.916 126.603C113.363 125.283 114.317 124.871 115.128 124.489L115.129 124.488ZM114.463 128.462C114.439 128.269 114.646 127.946 114.836 127.857C114.995 127.78 115.275 127.957 115.696 128.078C115.369 128.48 115.177 128.716 114.985 128.953C114.8 128.791 114.485 128.645 114.462 128.464L114.463 128.462ZM123.445 139.052C122.57 139.314 121.712 139.624 120.597 139.996C120.917 137.779 122.761 137.788 124.073 136.787C123.26 136.771 122.64 136.757 121.844 136.742C122.103 136.039 122.312 135.469 122.619 134.632C121.583 134.941 121.603 135.793 121.174 136.238C120.599 136.838 120.006 137.452 119.314 137.896C118.816 138.216 118.063 138.178 117.888 137.46C117.776 136.997 117.91 136.275 118.225 135.958C118.653 135.527 119.368 135.393 119.945 135.099C120.709 134.711 121.459 134.292 122.134 133.543C121.409 133.772 120.691 134.024 119.96 134.221C119.302 134.398 118.592 134.572 118.699 133.454C118.011 134.109 117.323 134.764 116.435 135.611C116.145 134.741 115.96 134.187 115.71 133.436C116.598 133.018 117.392 132.61 118.224 132.305C118.307 132.274 118.619 132.872 118.823 133.178C119.239 130.452 121.767 130.585 123.975 129.544C120.656 129.466 118.351 131.555 115.535 131.839C115.362 130.73 116.08 130.469 116.723 130.171C118.562 129.318 120.426 128.514 122.238 127.606C122.769 127.341 123.4 126.874 123.566 126.363C124.079 124.804 125.368 124.435 126.997 123.683C126.864 124.541 126.954 125.183 126.676 125.524C125.804 126.59 125.582 127.798 125.316 129.1C125.052 130.387 124.253 131.562 123.839 132.878C126.212 131.544 126.049 128.563 127.736 126.792C129.336 127.78 129.441 128.066 128.327 129.285C127.88 129.773 127.68 130.054 128.004 130.73C128.156 131.047 127.766 131.655 127.565 132.108C126.813 133.802 126.036 135.485 125.215 137.294C126.855 136.858 127.109 135.298 127.786 134.174C128.517 132.962 129.06 131.639 129.851 130.027C130.291 130.927 130.558 131.471 130.824 132.02C130.164 132.595 129.636 133.058 128.977 133.633C129.446 133.936 129.789 134.158 130.354 134.524C129.48 136.125 128.618 137.78 127.668 139.384C127.433 139.781 126.955 140.136 126.514 140.293C124.14 141.136 121.74 141.91 119.224 142.75C119.171 141.439 120.237 141.148 121.07 140.792C122.66 140.114 124.303 139.562 125.917 138.937C126.085 138.871 126.198 138.66 126.675 138.169C125.318 138.538 124.375 138.773 123.445 139.052ZM121.385 145.731C121.164 147.333 120.498 147.717 119.461 147.921C119.218 146.41 120.301 146.415 121.385 145.731ZM122.823 150.302C121.864 153.168 121.323 153.667 119.344 153.642C119.053 151.431 119.228 151.255 122.823 150.302ZM120.182 155.073C119.993 155.395 119.806 155.716 119.617 156.038C119.501 155.971 119.383 155.905 119.266 155.836C119.453 155.513 119.639 155.189 119.824 154.867C119.942 154.935 120.061 155.003 120.179 155.072L120.182 155.073ZM117.666 150.013C117.813 150.116 117.957 150.219 118.104 150.321C117.874 150.716 117.646 151.109 117.415 151.504C117.213 151.366 117.011 151.228 116.809 151.092C117.095 150.733 117.381 150.374 117.667 150.015L117.666 150.013ZM117.862 156.189C117.697 157.023 117.977 157.859 116.695 158.172C116.576 157.147 116.457 156.33 117.862 156.189ZM120.951 161.219C120.64 162.744 119.87 163.618 118.294 163.708C118.257 161.99 118.546 161.716 120.951 161.219ZM123.102 163.304C122.593 165.643 122.302 165.942 120.24 166.25C119.882 164.299 120.44 163.723 123.102 163.304ZM118.034 165.17C118.158 165.253 118.28 165.334 118.404 165.417C118.241 165.691 118.077 165.966 117.914 166.24C117.814 166.187 117.712 166.133 117.612 166.08C117.753 165.778 117.894 165.475 118.037 165.171L118.034 165.17ZM118.655 168.274C119.165 169.236 118.759 169.916 117.439 170.314C117.478 169.416 117.883 168.736 118.655 168.274ZM121.899 186.659C121.571 186.714 121.002 186.502 120.876 186.245C120.742 185.972 120.876 185.325 121.116 185.154C122.258 184.337 123.535 183.787 124.896 183.494C124.994 183.634 125.09 183.776 125.188 183.916C124.973 184.261 124.817 184.83 124.528 184.909C123.871 185.089 123.457 185.33 123.142 185.987C122.974 186.34 122.352 186.582 121.896 186.658L121.899 186.659ZM123.284 187.25C123.014 187.489 122.744 187.727 122.474 187.966C122.386 187.877 122.3 187.79 122.212 187.701C122.435 187.444 122.66 187.184 122.883 186.927C123.017 187.034 123.151 187.142 123.284 187.25ZM119.99 184.771C119.445 184.145 119.077 183.724 118.48 183.042C119.606 182.54 120.436 182.171 121.265 181.8C121.366 181.935 121.468 182.07 121.57 182.205C121.103 182.963 120.636 183.72 119.989 184.77L119.99 184.771ZM121.988 183.846C121.354 181.705 123.834 180.085 126.761 179.862C126.543 182.838 125.083 183.297 121.988 183.846ZM123.637 177.553C123.328 178.467 123.153 178.98 122.901 179.73C122.045 178.619 122.283 178.126 123.637 177.553ZM118.73 171.7C118.362 172.251 117.994 172.802 117.476 173.581C117.15 172.326 117.398 171.704 118.73 171.7ZM119.332 173.763C119.611 174.908 119.07 175.54 117.707 175.661C118.209 175.075 118.711 174.488 119.332 173.763ZM119.741 176.576C119.855 176.675 119.969 176.772 120.083 176.871C119.512 177.58 118.939 178.288 118.368 178.997C118.191 178.861 118.015 178.726 117.838 178.59C117.613 177.094 118.888 177.035 119.744 176.577L119.741 176.576ZM120.823 178.957C121.167 179.34 121.555 179.771 122.137 180.418C120.884 180.93 119.868 181.345 118.454 181.923C118.836 180.215 119.433 179.353 120.823 178.957ZM116.793 178.752C116.296 179.466 116 179.891 115.484 180.634C115.424 179.612 115.861 178.984 116.793 178.752ZM116.282 181.144C116.732 182.009 116.48 182.592 115.528 182.895C115.417 182.783 115.306 182.672 115.195 182.56C115.537 182.114 115.88 181.67 116.282 181.144ZM117.412 183.533C118.399 185.202 117.567 185.425 116.152 185.731C116.631 184.896 116.93 184.374 117.412 183.533ZM119.238 185.992C118.805 186.852 118.488 187.484 118.035 188.384C117.221 187.262 117.622 186.465 119.238 185.992ZM118.804 189.47C119.931 188.558 120.871 188.473 121.625 189.213C120.231 190.822 120.07 190.835 118.804 189.47ZM121.72 191.573C122.438 189.897 124.216 190.022 125.608 189.123C124.274 192.11 123.331 192.675 121.72 191.573ZM125.4 192.885C125.577 191.381 126.7 190.696 127.526 189.799C127.465 191.174 126.945 191.882 125.4 192.885ZM125.469 186.607C126.014 183.503 127.982 180.998 128.559 177.896C127.277 179.629 125.373 179.266 123.343 179.914C123.893 178.602 124.288 177.661 124.678 176.729C123.887 176.925 122.943 177.16 122.013 177.391C121.259 176.417 121.414 175.692 122.416 175.226C123.595 174.677 124.811 174.205 125.869 173.761C124.86 173.962 123.685 174.196 122.432 174.448C122.075 172.753 123.123 172.104 123.989 171.26C122.983 171.596 121.977 171.933 120.981 172.265C120.298 170.616 120.265 170.423 121.487 169.768C122.914 169.002 124.447 168.434 125.904 167.676C124.657 167.989 123.41 168.302 122.028 168.651C121.694 166.734 123.373 166.611 124.352 165.79C123.941 165.622 123.656 165.505 123.121 165.284C123.711 164.187 124.294 163.105 125.014 161.765C123.752 162.185 122.696 162.54 121.368 162.982C121.855 160.911 122.872 159.748 124.712 159.192C123.522 158.577 122.735 158.769 121.803 159.547C121.038 160.185 119.902 160.379 118.615 160.897C118.909 159.093 119.63 158.154 120.986 157.702C123.222 156.956 125.454 156.21 127.608 155.183C125.389 155.688 123.171 156.193 120.845 156.723C121.305 153.968 123.415 153.287 125.382 152.341C124.641 152.469 123.902 152.595 123.061 152.741C122.639 151.161 124.342 150.481 124.108 149.055C123.163 149.292 121.984 149.588 120.48 149.966C121.225 147.268 123.822 147.365 125.305 145.931C124.307 146.206 123.397 146.457 122.352 146.744C122.715 145.806 123.914 144.799 125.948 143.725C123.721 144.3 121.491 144.876 119.271 145.448C118.779 144.655 119.042 144.153 119.722 143.817C121.604 142.889 123.496 141.971 125.391 141.071C125.645 140.95 126 140.816 126.227 140.9C127.815 141.504 128.534 140.504 129.054 139.329C129.65 137.983 130.616 137.306 132.056 137.229C132.455 139.385 131.907 140.378 129.697 141.395C129.805 141.546 129.873 141.717 130 141.796C130.162 141.899 130.37 141.929 130.658 142.022C130.058 143.595 129.395 144.992 127.828 145.835C129.828 145.168 131.828 144.5 134.044 143.76C133.36 145.842 131.939 146.808 130.272 147.439C130.81 147.816 131.353 148.196 131.961 148.623C133.128 147.982 133.461 146.017 135.403 146.326C135.911 149.488 133.269 149.861 131.385 151.053C132.188 150.904 132.991 150.752 134.024 150.56C133.368 152.462 132.297 153.701 130.779 154.679C132.807 154.002 134.832 153.327 136.905 152.634C136.866 155.172 134.449 155.131 132.914 156.337C133.911 156.122 134.725 155.946 135.757 155.724C135.464 156.482 135.235 157.081 134.995 157.702C136.396 158.173 136.301 156.611 137.279 156.466C137.337 156.492 137.609 156.532 137.694 156.68C137.864 156.975 137.932 157.328 138.074 157.753C137.282 158.274 136.524 158.775 135.766 159.274L135.894 159.552C136.803 159.248 137.711 158.945 138.778 158.589C138.885 160.537 137.326 161.35 136.539 162.973C137.859 162.533 138.942 162.17 139.957 161.832C141.533 164.23 141.489 164.506 139.363 165.718C138.677 166.11 137.938 166.411 137.252 166.896C137.613 166.813 137.978 166.742 138.336 166.64C138.747 166.52 139.149 166.373 139.552 166.238C139.818 166.526 140.048 166.773 140.318 167.065C140.766 166.697 141.188 166.349 141.558 166.045C142.36 166.383 142.457 167.423 141.767 167.87C140.868 168.453 139.881 168.899 138.998 169.618C140.112 169.247 141.225 168.874 142.323 168.509C142.951 170.256 142.929 170.469 141.708 171.068C139.05 172.372 136.364 173.621 134.154 174.671C136.028 174.046 138.402 173.253 140.847 172.437C141.234 173.423 141.006 174.002 140.124 174.425C139.536 174.707 139.009 175.114 138.46 175.475C140.166 175.045 141.873 174.615 143.574 174.186C144.246 175.39 143.541 175.808 142.652 176.184C139.857 177.366 137.07 178.571 134.069 179.856C135.874 180.246 137.149 179.107 138.582 178.757C140.1 178.387 141.562 177.792 143.163 177.258C142.718 178.548 142.122 179.622 140.72 180.008C139.359 180.382 138.171 181.339 136.606 181.083C136.267 181.027 135.861 181.714 135.419 181.91C134.372 182.377 133.306 183.15 132.079 182.105C130.821 184.166 130.501 186.836 128.431 188.481C128.382 188.519 128.185 188.373 127.948 188.261C128.336 186.974 128.73 185.666 129.125 184.36C129.026 184.323 128.925 184.285 128.828 184.248C128.152 185.299 127.475 186.35 126.717 187.53C126.205 187.152 125.823 186.87 125.473 186.611L125.469 186.607ZM121.013 173.517C121.118 173.289 121.255 173.064 121.434 172.893C121.477 172.851 121.716 173.013 121.993 173.142C121.748 173.426 121.601 173.643 121.403 173.788C121.359 173.821 121.001 173.547 121.013 173.517ZM147.432 175.739C147.609 177.204 146.385 177.357 145.31 178.089C145.363 176.685 146.071 175.901 147.432 175.739ZM135.738 184.695C135.995 183.456 136.747 182.715 137.994 182.473C137.757 183.744 137.006 184.485 135.738 184.695ZM145.292 183.002C145.069 184.289 144.5 185.258 143.163 185.684C141.454 186.231 139.758 186.815 138.001 187.402C137.608 186.317 137.572 185.591 138.587 185.245C140.765 184.502 142.95 183.785 145.292 183.002ZM134.743 183.553C134.341 185.248 133.977 185.484 131.576 185.601C132.038 183.67 132.322 183.486 134.743 183.553ZM133.091 190.3C133.039 190.124 132.988 189.951 132.936 189.775C133.342 189.639 133.749 189.504 134.157 189.367C134.209 189.476 134.259 189.584 134.311 189.694C133.904 189.896 133.497 190.097 133.091 190.3ZM129.092 192.311C128.931 192.218 128.769 192.124 128.608 192.032C128.677 191.742 128.709 191.435 128.823 191.164C129.152 190.376 129.551 189.616 129.856 188.821C130.728 186.548 130.796 186.407 133.436 186.474C132.646 189.182 130.379 190.354 129.091 192.313L129.092 192.311ZM134.377 187.934C134.532 186.443 135.083 185.75 136.515 185.853C136.536 187.232 135.859 187.8 134.377 187.934ZM137.485 188.788C138.611 188.467 139.735 188.148 140.964 187.799C140.227 189.166 139.82 189.299 137.485 188.788ZM142.761 188.575C144.235 188.082 144.568 185.938 146.912 186.09C145.403 187.31 144.619 188.79 142.761 188.575ZM138.956 183.869C139.069 181.553 139.082 181.585 140.749 181.076C141.985 180.699 143.192 180.226 144.408 179.783C145.069 179.542 145.724 179.278 146.408 179.014C146.8 179.954 146.624 180.621 145.918 181.026C143.748 182.277 141.414 183.118 138.958 183.868L138.956 183.869ZM146.438 184.124C146.606 182.195 147.651 181.49 149.453 181.106C149.061 182.955 147.945 183.561 146.438 184.124ZM149.246 185.708C149.096 185.592 148.945 185.475 148.796 185.359C149.43 184.536 150.063 183.713 150.697 182.889C150.854 183.027 151.011 183.166 151.17 183.303C150.528 184.104 149.889 184.905 149.248 185.707L149.246 185.708ZM146.021 174.41C146.426 173.67 146.675 173.218 147.067 172.502C147.764 173.839 147.328 174.184 146.021 174.41ZM149.575 179.039C149.365 178.053 149.343 177.334 150.429 176.889C150.423 177.7 150.139 178.417 149.575 179.039ZM149.485 175.806C148.85 174.273 149.967 174.114 150.95 173.644C151.31 175.172 150.452 175.449 149.485 175.806ZM149.713 172.926C149.383 172.033 149.883 171.607 151.215 171.648C150.625 172.15 150.19 172.519 149.713 172.926ZM148.45 170.309C148.295 170.171 148.32 169.518 148.483 169.394C149.119 168.918 149.834 168.636 150.494 169.715C149.79 170.376 149.265 171.036 148.45 170.309Z" fill="#D0B48C"/>
<path d="M138.359 175.523L138.364 175.526C138.394 175.507 138.421 175.488 138.451 175.467C138.409 175.478 138.367 175.489 138.326 175.499C138.326 175.499 138.364 175.526 138.358 175.522L138.359 175.523Z" fill="#D0B48C"/>
<path d="M177.433 150.411C178.88 152.124 180.03 153.486 181.178 154.846C181.08 155.018 180.981 155.19 180.882 155.364C179.951 155.209 179.022 155.053 178.089 154.899C177.423 156.513 177.425 156.527 175.573 156.787C174.497 156.938 173.413 157.137 172.333 157.126C171.209 157.117 170.089 156.878 169.575 155.526C171.307 154.991 172.805 154.864 174.313 155.776C174.916 156.139 175.776 156.565 176.308 155.476C175.867 155.095 175.238 154.817 175.101 154.382C174.765 153.316 173.952 154.234 173.515 153.868C173.14 153.551 172.642 153.23 172.518 152.817C172.419 152.491 172.808 152.018 173.067 151.401C171.691 152.13 170.789 151.908 170.233 150.502C170.576 150.138 170.929 149.765 171.416 149.249C170.094 149.53 168.97 149.903 168.176 148.54C167.603 147.556 168.281 147.104 169.027 146.465C167.556 146.69 166.482 146.188 165.807 144.96C166.398 144.714 166.993 144.466 167.952 144.068C166.378 143.696 164.561 144.819 164.146 142.592C165.083 142.28 165.908 142.003 167.17 141.583C164.72 141.672 163.211 141.257 162.64 140.34C163.463 140.23 164.236 140.128 164.87 140.043C162.773 139.542 160.583 139.08 158.431 138.488C156.938 138.077 155.985 137.069 155.702 135.28C157.302 135.752 158.767 136.182 160.545 136.706C158.255 135.486 156.292 134.429 154.317 133.393C153.332 132.877 152.412 132.333 152.37 130.927C154.547 130.83 156.35 132.47 158.524 132.184C155.523 130.617 151.888 130.114 149.676 126.55C150.606 126.854 151.123 127.054 151.659 127.188C152.14 127.31 152.639 127.364 153.511 127.512C151.055 125.665 150.935 125.506 150.488 123.659C151.546 123.77 152.568 123.875 153.589 123.982C149.909 122.608 146.85 120.544 144.48 117.463C146.163 118.229 147.731 119.243 149.725 119.283C147.805 118.2 145.732 117.29 145.583 114.662C146.216 114.683 146.846 114.702 147.478 114.721C145.521 113.577 143.598 112.609 143.002 110.187C143.465 110.113 143.793 110.06 144.43 109.957C142.478 108.872 141.046 107.734 140.396 105.803C140.879 105.719 141.221 105.658 142.102 105.504C139.35 104.506 138.442 102.485 137.325 100.626C136.589 99.4041 135.778 98.2231 134.935 97.0689C134.471 96.4328 133.873 95.8934 133.339 95.3058C132.795 94.7079 132.295 94.3115 131.38 94.0278C129.66 93.4932 128.304 92.0991 127.571 89.7883C128.416 90.2653 128.991 90.5884 129.534 90.8971C128.672 90.0589 127.831 89.2 126.933 88.4029C125.887 87.4756 124.555 86.8221 123.906 85.0423C125.103 85.4439 126.01 85.7469 126.916 86.0506C124.996 84.9307 123.181 83.6731 120.975 83.0713C121.003 83.4136 120.961 83.5918 121.033 83.6829C122.855 86.0146 124.674 88.3477 126.525 90.6576C129.894 94.8611 132.383 99.617 135.042 104.257C137.202 108.024 139.148 111.91 141.231 115.721C143.903 120.61 146.68 125.445 149.28 130.371C150.425 132.539 151.122 134.942 152.239 137.129C154.243 141.053 156.427 144.882 158.504 148.768C160.492 152.487 162.926 155.883 165.617 159.125C167.277 161.125 169.304 162.239 171.821 162.78C176.345 163.753 179.904 162.235 182.79 158.83C183.668 157.794 184.112 156.543 183.548 155.202C182.487 152.67 180.505 151.238 177.433 150.411ZM138.356 104.529C137.26 104.488 137.152 103.878 137.122 103.218C137.493 103.612 137.866 104.01 138.356 104.529ZM132.291 97.4291C132.394 97.2843 132.498 97.1412 132.601 96.9964C133.869 97.5328 134.625 98.5974 135.464 99.5774C135.348 99.7048 135.231 99.8304 135.114 99.9578C134.174 99.1141 133.231 98.271 132.29 97.4273L132.291 97.4291ZM135.584 101.938C136.069 102.338 136.556 102.74 137.039 103.141C136.008 103.184 135.994 103.154 135.584 101.938ZM139.925 110.91C142.242 111.525 143.08 113.398 144.121 115.095C143.957 115.21 143.793 115.326 143.627 115.443C142.392 113.931 141.157 112.422 139.923 110.91L139.925 110.91ZM146.314 121.849C146.408 121.733 146.501 121.617 146.597 121.5C148.304 122.302 149.098 123.186 148.98 124.152C148.015 123.318 147.165 122.584 146.316 121.849L146.314 121.849ZM169.271 151.922C167.79 152.243 166.649 152.085 165.847 151.448C167.467 150.535 167.87 150.575 169.271 151.922ZM167.372 149.677C165.379 150.315 164.599 150.052 163.543 148.264C165.382 147.887 166.659 148.358 167.372 149.677ZM165.045 146.809C163.441 146.939 162.395 146.39 161.905 145.161C163.317 144.935 164.363 145.484 165.045 146.809ZM161.009 140.305C160.964 140.455 160.919 140.606 160.873 140.757C159.816 140.937 158.911 140.613 158.254 139.463C159.173 139.743 160.091 140.025 161.009 140.305ZM159.327 141.912C160.806 142.192 162.207 141.93 162.91 143.792C161.224 143.895 160.168 143.426 159.327 141.912ZM165.957 155.631C166.056 155.481 166.153 155.331 166.252 155.181C166.643 155.446 167.034 155.708 167.426 155.973C167.336 156.11 167.245 156.248 167.156 156.385C166.757 156.134 166.356 155.884 165.958 155.632L165.957 155.631ZM168.136 158.522C168.935 158.201 169.639 158.271 170.247 158.732C169.65 158.672 169.054 158.612 168.136 158.522ZM167.594 153.591C168.945 153.1 170.145 152.768 171.622 154.025C169.805 154.349 168.462 154.205 167.594 153.591ZM173.863 160.03C175.294 159.811 176.725 159.591 178.159 159.37C176.935 160.636 175.486 160.891 173.863 160.03ZM176.222 158.797C175.581 158.982 175.096 158.772 174.929 157.807C177.02 157.218 179.106 156.634 181.19 156.049C181.291 156.275 181.393 156.503 181.493 156.729C180.226 158.512 178.047 158.27 176.223 158.798L176.222 158.797Z" fill="#D0B48C"/>
<path d="M129.742 91.0117C129.672 90.9731 129.604 90.9339 129.534 90.8936C129.593 90.9511 129.652 91.0104 129.712 91.0672L129.743 91.011L129.742 91.0117Z" fill="#D0B48C"/>
<path d="M199.964 112.655C199.766 111.92 199.365 110.876 198.8 110.669C196.828 109.946 196.583 108.163 195.939 106.633C193.873 106.531 193.449 104.921 192.942 103.465C190.741 103.43 190.392 103.086 189.52 100.172C189.368 100.688 189.216 101.2 189.069 101.699C187.092 101.322 187.123 101.322 187.103 99.5948C187.096 98.9917 186.902 98.3914 186.794 97.7878C184.84 98.2611 183.886 97.5919 183.192 95.3195C182.933 95.6306 182.677 95.9403 182.326 96.3602C181.383 95.6601 180.541 95.037 179.705 94.4179C179.233 96.5968 180.918 98.622 180.266 101.111C176.703 98.137 177.024 94.1475 176.267 90.4282C176.263 92.5782 176.258 94.7263 176.255 97.4014C175.507 96.7258 175.054 96.4822 174.865 96.1053C174.578 95.5344 174.478 94.8694 174.282 94.2474C174.26 94.1776 174.132 94.1422 174.04 94.084C173.969 94.6747 173.902 95.2331 173.832 95.8239C172.847 95.4589 172.099 94.5847 171.586 93.2012C171.442 93.6792 171.295 94.1621 171.138 94.6736C170.143 94.1517 169.31 92.5337 168.641 89.8198C168.62 91.3314 168.605 92.3589 168.589 93.4654C165.867 93.2097 166.292 90.8944 165.591 88.9598C165.457 90.0516 165.374 90.7343 165.29 91.4109C163.936 91.6577 163.896 90.6791 163.79 89.969C163.551 88.3656 163.435 86.7438 163.268 85.1299C163.142 85.1308 163.016 85.1318 162.89 85.1327C162.811 86.9572 162.732 88.7817 162.641 90.915C161.889 89.9662 161.367 89.2272 160.763 88.5599C159.319 86.9615 158.236 85.2402 158.406 82.9531C158.439 82.5306 158.205 82.0871 157.971 81.1762C157.74 82.3608 157.613 83.0218 157.433 83.9438C156.384 82.6659 155.056 81.8888 155.515 80.5403C154.833 80.1343 154.295 79.9268 153.9 79.5624C152.368 78.1436 150.992 76.5361 149.356 75.2543C146.912 73.342 144.311 71.6276 141.749 69.87C141.204 69.4959 140.538 69.2943 139.927 69.0147C139.893 69.1565 139.86 69.2958 139.826 69.4377C141.45 70.6315 142.997 71.9509 144.714 72.9956C149.389 75.8406 152.933 79.7443 156.045 84.1895C158.656 87.9163 161.533 91.4677 164.442 94.9735C166.835 97.8571 169.893 100.011 173.403 101.273C176.591 102.419 179.939 103.11 183.196 104.073C184.228 104.377 185.243 104.819 186.177 105.353C188.688 106.79 191.186 108.256 193.617 109.822C194.814 110.594 195.932 111.532 196.942 112.538C198.673 114.262 200.279 116.112 201.967 117.879C202.203 118.126 202.607 118.211 202.933 118.369C202.955 117.693 202.783 117.239 202.499 116.871C201.489 115.563 200.41 114.324 199.957 112.654L199.964 112.655ZM169.2 96.5487C168.069 96.5856 167.941 95.6015 167.54 94.9499C168.245 95.2622 169.372 95.1708 169.2 96.5487ZM172.287 97.9936C171.469 97.8098 170.884 97.171 170.532 96.0772C171.982 96.1025 172.136 97.0327 172.287 97.9936ZM173.521 97.3652C173.882 97.7803 174.245 98.1929 174.606 98.608C173.589 98.7644 173.267 98.3172 173.521 97.3652ZM177.239 99.6897C176.588 99.5143 176.167 99.0313 175.978 98.2405C176.966 98.2609 177.086 98.9343 177.239 99.6897ZM182.931 100.004C181.092 99.6684 181.062 98.3841 180.922 97.1005C183.019 97.343 183.146 97.5195 182.931 100.004ZM185.824 100.539C184.623 100.354 184.225 99.602 184.183 98.4735C185.522 98.7084 186.069 99.3969 185.824 100.539Z" fill="#D0B48C"/>
<path d="M199.966 127.196C199.227 126.104 198.492 125.001 197.667 123.977C197.378 123.619 196.825 123.478 196.247 123.154C196.206 124.38 197.714 125.052 196.715 126.233C195.404 125.393 195.157 124.115 195.244 123.061C194.569 122.726 193.986 122.601 193.678 122.241C193.289 121.785 193.244 120.766 192.845 120.639C191.289 120.143 191.295 118.845 191.023 117.186C190.824 117.992 190.75 118.338 190.651 118.678C190.537 119.064 190.403 119.445 190.258 119.882C189.244 119.075 188.666 117.958 188.524 116.53C188.222 116.807 187.938 117.068 187.688 117.299C186.103 116.613 185.789 115.318 185.889 113.576C185.442 114.186 185.204 114.509 184.98 114.812C183.286 114.513 182.97 113.342 183.002 111.929C183.005 111.773 182.919 111.615 182.796 111.181C182.545 111.997 182.38 112.537 182.27 112.891C180.105 113.189 180.685 111.391 180.072 110.576C178.849 112.182 178.378 112.111 177.15 110.241C175.716 110.866 174.85 110.645 174.629 109.539C174.532 109.053 174.621 108.529 174.602 108.024C174.599 107.969 174.433 107.922 174.319 107.858C174.103 108.462 173.891 109.048 173.679 109.64C171.531 109.502 172.418 107.657 171.799 106.477C171.438 107.261 171.163 107.866 170.797 108.66C170.357 108.207 169.957 107.964 169.824 107.616C169.646 107.159 169.696 106.62 169.613 106.12C169.557 105.774 169.44 105.438 169.24 104.669C169.018 105.864 168.887 106.558 168.721 107.456C166.379 106.659 167.126 104.543 166.315 102.905C166.075 103.857 165.901 104.545 165.66 105.509C162.998 103.955 163.044 101.321 162.374 98.5651C162.137 99.7792 162.008 100.443 161.799 101.515C160.195 99.2611 160.159 96.9434 159.608 94.545C159.412 95.6764 159.258 96.5591 159.106 97.4411C157.707 95.7457 156.794 93.9436 156.483 91.8376C156.133 92.1232 155.828 92.372 155.326 92.7805C154.942 92.1121 154.558 91.6065 154.342 91.038C154.036 90.2288 153.86 89.3709 153.603 88.5416C153.577 88.4551 153.389 88.4191 153.272 88.3562C153.142 88.7519 153.011 89.1458 152.846 89.642C151.284 88.7794 150.442 87.4884 149.764 86.1151C148.908 85.806 148.075 85.448 147.451 84.8659C146.502 83.9819 145.734 82.9095 144.812 81.9941C144.553 81.7381 144.028 81.7529 143.348 81.5674C144.867 83.233 146.105 84.6192 147.378 85.9721C148.073 86.708 148.742 87.5269 149.58 88.0602C152.219 89.7414 154.057 92.2216 155.694 94.7086C157.681 97.7268 159.777 100.647 161.96 103.512C163.272 105.232 164.699 106.879 166.217 108.421C169.753 112.018 174.263 113.687 179.089 114.679C179.72 114.808 180.351 114.999 180.939 115.258C183.03 116.181 184.681 117.685 186.28 119.29C189.805 122.833 192.21 127.113 194.512 131.477C195.425 133.207 196.362 134.902 196.469 136.931C196.504 137.599 196.804 138.254 196.969 138.864C197.895 138.406 198.612 138.05 199.389 137.667C199.217 135.708 200.22 134.211 201.247 132.307C201.701 133.43 201.986 134.134 202.273 134.848C203.116 134.575 203.27 134.093 202.975 133.457C202.674 132.805 202.227 132.203 202.023 131.526C201.786 130.734 202.019 129.46 201.552 129.156C200.737 128.625 200.439 127.895 199.968 127.202L199.966 127.196ZM197.757 126.674C198.609 127.425 198.763 128.417 198.222 129.651C197.461 128.72 196.775 127.848 197.757 126.674ZM199.574 133.278C198.533 131.753 198.832 130.414 199.438 128.999C200.894 130.785 200.906 131.082 199.574 133.278Z" fill="#D0B48C"/>
<path d="M89.6154 127.732C90.1016 123.206 90.2643 118.627 90.2589 114.072C90.2494 107.414 89.8955 100.758 88.8431 94.1694C88.6817 93.1611 88.0791 92.2227 87.6788 91.2526C87.5002 92.5981 88.4533 93.7347 87.8851 95.15C87.3527 94.8492 86.9947 94.6478 86.4729 94.353C87.6017 96.9242 89.1405 99.2293 88.3239 102.295C87.8963 101.617 87.5866 101.13 87.278 100.64C87.7328 103.443 89.749 105.835 88.9733 109.023C88.541 108.698 88.2613 108.486 87.8696 108.191C88.8594 111.38 89.2015 113.636 88.896 114.961C88.3591 114.104 87.9157 113.397 87.4717 112.689C87.8495 115.233 89.4661 117.449 88.8667 120.459C88.1455 119.508 87.6606 118.868 87.0443 118.055C87.8811 120.944 89.2376 123.531 88.4118 126.774C87.8514 126.193 87.5317 125.861 86.9396 125.247C87.4216 126.471 87.791 127.262 88.0411 128.089C88.2661 128.834 88.4666 129.616 88.4939 130.389C88.5652 132.479 88.539 134.574 88.549 136.667C88.5519 137.286 88.5512 137.906 88.5518 138.479C88.3136 138.54 88.2349 138.586 88.1797 138.566C87.9198 138.481 87.6692 138.377 87.4471 138.292C87.5174 140.015 89.41 141.128 89.1518 143.227C88.6431 142.846 88.2853 142.579 87.9301 142.312C88.1719 143.495 88.5482 144.621 89.2789 145.426C90.5221 146.795 90.3297 148.214 90.0076 150.01C89.098 149.173 88.379 148.51 87.6607 147.85C87.5395 147.955 87.4189 148.061 87.2958 148.166C88.1244 149.204 88.8066 150.423 89.817 151.239C91.1801 152.341 90.9754 153.657 91.0406 155.105C89.1218 154.864 88.5674 153.186 87.34 152.298C87.8463 153.352 88.3686 154.41 89.1541 155.206C89.8268 155.887 90.8018 156.27 91.7997 156.88C91.8465 157.804 91.8986 158.844 91.9638 160.122C90.9587 159.803 90.295 159.592 89.6313 159.381C91.0119 161.123 93.4144 162.105 92.5462 165.002C92.2822 164.947 91.9594 164.967 91.7561 164.821C90.5373 163.944 89.3476 163.027 87.9218 161.954C89.2931 164.054 90.642 165.773 92.9852 166.649C93.0471 167.641 93.1105 168.689 93.1875 169.93C90.629 169.742 89.168 168.088 87.4378 166.917C88.6609 168.658 90.1035 170.158 92.1211 170.888C93.275 171.305 93.7273 172.008 93.7107 173.15C93.7023 173.643 93.7171 174.137 93.7233 174.642C92.6793 175.136 91.9913 174.505 91.2639 174.073C90.5093 173.626 89.765 173.158 89.0164 172.7C90.2671 174.505 91.9538 175.661 94.0277 176.397C94.023 177.362 94.02 178.275 94.0157 179.288C93.4331 179.222 93.0143 179.291 92.7422 179.124C91.4162 178.305 90.1308 177.422 88.4434 176.305C90.1609 178.371 91.8281 179.766 94.087 180.566C94.06 181.003 94.0579 181.219 94.0308 181.434C93.8239 183.085 93.2418 183.54 91.7886 182.898C90.7533 182.442 89.8471 181.69 88.9023 181.042C88.608 180.84 88.3927 180.525 88.1105 180.301C87.8315 180.081 87.5124 179.909 87.2114 179.716C88.8975 181.776 90.6422 183.698 93.1783 184.477C93.3317 185.445 92.9581 185.941 92.1236 185.629C91.123 185.254 90.1719 184.714 89.2561 184.154C88.5864 183.743 88.0072 183.182 87.3865 182.687C87.2873 182.816 87.1899 182.944 87.0907 183.073C88.5832 184.352 90.0731 185.631 91.8213 187.13C88.8262 188.305 87.741 185.801 85.8895 184.935C86.8762 186.103 87.864 187.269 88.9057 188.503C87.5093 189.221 86.8632 187.655 85.8333 187.84C86.0109 188.374 86.4184 188.94 86.2983 189.356C85.9404 190.621 86.5429 190.916 87.5851 190.973C88.3796 191.015 89.1796 191.159 89.9672 191.107C90.5859 191.067 91.3649 190.984 91.7707 190.599C93.7407 188.736 95.5197 186.629 95.7542 183.818C96.0965 179.706 96.1784 175.569 95.3608 171.483C94.9637 169.503 94.3554 167.558 94.0367 165.567C92.9407 158.71 91.9868 151.832 90.868 144.981C89.9347 139.265 88.984 133.593 89.6143 127.734L89.6154 127.732Z" fill="#D0B48C"/>
<path d="M96.6541 111.19C96.5408 112.379 96.218 113.592 96.3593 114.751C96.6014 116.753 97.1325 118.716 97.5381 120.698C97.7102 121.542 98.0181 122.39 98.0114 123.233C97.9575 129.168 97.0999 135.027 96.0263 140.843C95.6279 143.005 95.8391 145.027 96.4582 147.029C97.0475 148.933 99.5691 150.596 101.298 150.449C103.181 150.288 104.945 148.452 105.334 146.184C105.455 145.478 105.536 144.747 105.503 144.034C105.375 141.154 105.098 138.277 105.055 135.398C104.955 128.954 102.857 122.895 101.494 116.703C100.726 113.219 99.9534 109.779 100.261 106.204C100.467 103.835 100.842 101.482 101.14 99.1227C101.324 97.6656 101.312 96.2314 100.614 94.8721C100.401 95.4272 100.34 95.9748 100.288 96.525C100.123 98.32 99.9551 100.114 99.8 101.909C99.5769 104.497 99.2583 107.083 99.188 109.675C99.1478 111.149 98.5612 112.071 97.2778 112.978C97.2527 112.252 97.2347 111.765 97.2186 111.278C97.0308 111.248 96.843 111.218 96.6552 111.188L96.6541 111.19ZM100.174 147.518C100.474 146.674 101.322 145.653 102.716 144.456C102.857 146.004 102.479 146.457 100.174 147.518ZM99.653 145.189C100.722 143.835 101.79 142.481 102.858 141.13C102.755 141.039 102.653 140.945 102.55 140.854C101.272 142.026 99.9947 143.195 98.7164 144.366C99.5191 142.166 101.395 140.994 103.053 139.277C104.024 142.675 102.091 144.093 99.6519 145.191L99.653 145.189ZM98.3706 141.958C98.9566 139.47 101.182 138.644 103.004 137.401C102.19 139.684 100.076 140.6 98.3706 141.958ZM102.141 137.059C100.976 137.757 99.8223 138.471 98.6643 139.181C99.1618 137.029 100.927 136.075 102.487 134.704C103.222 135.824 103.069 136.506 102.141 137.059ZM101.414 134.49C100.769 134.942 100.176 135.473 99.5593 135.965C98.8706 136.515 98.3893 136.336 98.0912 135.559C99.5823 134.037 100.95 132.642 102.395 131.168C102.908 133.463 102.898 133.449 101.414 134.49ZM101.517 131.051C100.511 131.929 99.5471 132.854 98.3939 133.622C98.4147 131.076 99.8856 129.422 101.842 127.664C102.631 129.158 102.546 130.152 101.517 131.051ZM99.5379 128.398C100.223 127.37 100.713 126.635 101.203 125.901C101.434 126.876 100.879 127.709 99.5379 128.398ZM99.3249 126.947C98.8308 125.523 99.0927 124.93 101.199 122.511C102.005 124.805 100.159 125.535 99.3249 126.947ZM99.3841 123.109C98.5025 121.749 98.8127 120.88 100.639 119.585C101.15 120.64 100.732 121.814 99.3841 123.109ZM98.6393 119.903C97.2812 117.811 97.4362 116.777 99.4025 114.853C101.021 117.393 100.886 118.295 98.6393 119.903ZM98.9487 112.408C99.534 113.864 99.092 114.513 97.0918 114.984C97.7926 114.012 98.342 113.249 98.9487 112.408Z" fill="#D0B48C"/>
<path d="M131.297 77.4401C131.537 79.1443 132.53 80.3495 133.513 81.5238C135.613 84.0313 137.392 86.7339 138.904 89.6351C139.736 91.2318 140.732 92.748 141.718 94.2582C143.372 96.794 145.583 98.9404 146.916 101.711C147.222 102.349 147.642 103.071 148.215 103.411C149.717 104.308 150.262 105.549 149.849 107.444C150.526 107.153 150.938 106.975 151.393 106.78C152.772 108.465 151.686 110.336 152.12 112.079C152.46 111.098 152.801 110.117 153.158 109.087C154.893 110.507 154.969 111.843 153.58 114.19C153.138 113.995 152.694 113.801 152.065 113.527C152.224 114.005 152.279 114.213 152.361 114.407C153.983 118.184 156.814 121.144 159.18 124.415C159.571 124.955 160.305 125.325 160.957 125.58C162.791 126.3 164.06 125.358 164.001 123.358C163.9 119.904 162.643 116.849 160.534 114.173C158.701 111.848 156.756 109.611 154.792 107.394C153.314 105.724 151.802 104.072 150.178 102.548C146.674 99.2584 143.448 95.7026 141.113 91.524C138.489 86.8286 135.486 82.4302 132.186 78.2116C131.948 77.9081 131.595 77.6943 131.297 77.4401ZM161.428 122.926C160.751 122.809 160.242 122.72 159.4 122.577C160.023 121.667 160.449 121.045 161.186 119.971C161.288 121.229 161.35 121.975 161.428 122.926ZM159.868 117.019C160.462 118.639 159.986 120.125 159.046 121.681C157.978 121.153 157.6 120.52 158.137 119.456C158.55 118.641 158.885 117.787 159.253 116.948C159.458 116.971 159.663 116.996 159.868 117.019ZM157.983 114.247C158.846 116.071 158.092 117.737 157.278 119.791C156.603 119.012 156.164 118.506 155.766 118.046C156.362 116.671 156.897 115.441 157.432 114.209C157.617 114.221 157.8 114.234 157.985 114.247L157.983 114.247ZM155.397 116.842C153.924 115.342 154.131 113.681 156.087 111.743C156.617 113.632 156.574 115.275 155.397 116.842Z" fill="#D0B48C"/>
<path d="M85.4904 71.3955C86.9623 72.1457 87.6289 73.6083 87.4601 75.0967C87.4177 75.4797 87.3336 75.8774 87.3962 76.2492C87.5722 77.2991 87.8024 78.3397 88.0344 79.3795C88.1123 79.7328 88.2586 80.071 88.3749 80.4171C88.4483 80.4041 88.5217 80.3911 88.595 80.3782C88.5636 79.5079 88.5339 78.637 88.4819 77.196C89.5949 78.0306 90.2751 78.5139 90.9265 79.0336C91.59 79.5629 92.2248 80.1286 92.8712 80.6771C91.9718 79.2936 90.9042 78.1141 89.6919 77.1045C88.5046 76.1158 88.1863 74.9846 88.4889 73.2481C89.7249 74.1469 90.7358 74.8818 91.7467 75.6168C90.8989 74.6653 90.947 73.6432 91.1177 72.458C91.3061 71.152 91.2265 69.8379 90.584 68.5227C89.9408 67.2057 89.7362 65.6731 89.2737 63.9982C90.0154 64.2128 90.3854 64.3204 90.7572 64.4274C90.1764 63.3685 89.4854 62.4161 88.5628 61.8234C87.1494 60.9153 86.8009 59.668 86.7532 58.0372C88.7802 58.4298 90.2492 59.1625 90.4028 61.4269C90.4467 62.0813 90.8058 62.7123 91.1718 63.8078C92.1074 60.8016 89.6355 59.2046 89.6525 56.8861C89.6659 54.9598 88.0242 51.4266 87.1355 50.6921C87.271 51.7542 87.3941 52.7241 87.5566 53.9924C85.9427 53.2951 84.9398 52.4412 84.2394 51.203C83.5976 50.0695 82.9615 48.9295 82.2546 47.8346C81.9849 47.4157 81.5255 47.1166 81.154 46.7635C80.9929 46.8717 80.8324 46.9817 80.6712 47.0899C81.0897 48.0692 81.5064 49.0493 81.9951 50.1927C79.5513 50.4866 79.6474 47.516 77.6238 47.4508C78.8865 49.2238 80.1518 50.9978 81.5049 52.8978C81.7366 52.3477 81.8863 51.9898 82.0399 51.6261C83.7301 52.4974 84.4252 53.7481 84.2387 55.5268C83.5291 55.3406 82.8238 55.1548 82.0796 54.9598C82.0022 56.1612 82.8649 56.0543 83.4 56.2796C85.5027 57.169 85.508 57.1566 85.5053 59.6699C83.7921 59.6722 82.8152 58.847 82.1057 57.2569C80.4741 53.5996 77.8312 50.5847 75.4456 47.4125C75.3556 47.2915 75.0749 47.3134 74.8942 47.2703C74.2586 48.0551 74.8213 48.534 75.2591 48.9803C78.4286 52.2302 80.3631 56.3219 82.8395 60.1109C84.5251 60.1839 85.8572 60.8641 86.2673 62.1363C87.2226 62.4759 88.236 62.5793 88.3174 62.9104C88.5926 64.0321 88.5391 65.2363 88.6278 66.6708C87.8208 66.1909 87.2851 65.8459 86.726 65.5455C86.1744 65.2483 85.9183 64.2719 84.975 64.7131C86.1994 67.3163 86.4898 68.62 86.2709 70.5648C84.2875 70.44 85.2049 68.2371 83.8561 67.4229C84.1206 69.1093 84.3694 70.6489 84.6033 72.1925C84.8408 73.7656 85.1321 75.3337 85.2759 76.9155C85.4176 78.492 85.3014 80.0957 85.4876 81.6647C85.6615 83.1207 84.6952 84.6671 85.7695 86.0485C86.5855 81.2171 86.3202 76.3965 85.4954 71.3976L85.4904 71.3955ZM85.7065 54.5232C87.4498 54.8169 88.1921 55.5833 88.4942 57.3993C86.5522 56.9456 86.4258 56.8165 85.7065 54.5232ZM86.961 67.2871C90.0623 68.4079 89.9932 70.71 90.2457 73.0918C87.2986 72.1696 87.7278 69.6317 86.961 67.2871Z" fill="#D0B48C"/>
<path d="M129.33 76.3492C129.434 76.2286 129.54 76.1098 129.645 75.991C129.447 75.7295 129.292 75.4113 129.042 75.2161C124.606 71.7622 120.664 67.6505 115.525 65.1283C114.559 64.6543 113.693 63.9708 112.81 63.3435C112.116 62.8514 111.466 62.2957 110.797 61.7685C110.674 61.9298 110.551 62.091 110.427 62.2522C111.26 62.8771 112.055 63.56 112.931 64.1178C117.141 66.7984 121.323 69.4861 124.846 73.1066C126.112 74.409 127.823 75.2802 129.33 76.3492Z" fill="#D0B48C"/>
<path d="M171.05 132.221C171.765 130.981 172.612 129.77 173.054 128.428C173.97 125.64 173.548 122.646 172.304 121.67C172.325 123.486 172.633 125.328 172.288 127.04C171.932 128.804 170.937 130.439 170.156 132.287C170.557 132.264 170.981 132.344 171.052 132.22L171.05 132.221Z" fill="#D0B48C"/>
<path d="M169.069 122.336C169.048 122.623 168.993 122.918 169.033 123.198C169.462 126.214 168.363 128.541 165.921 130.306C165.734 130.442 165.756 130.869 165.651 131.281C169.838 129.619 170.886 124.994 169.196 121.248C169.116 121.913 169.083 122.125 169.069 122.336Z" fill="#D0B48C"/>
<path d="M175.386 123.199C175.205 124.733 175.161 126.302 174.801 127.792C174.435 129.315 173.757 130.76 173.13 132.471C175.565 131.124 176.926 125.805 175.386 123.199Z" fill="#D0B48C"/>
<path d="M100.823 93.4776C101.22 90.2578 101.65 87.0476 99.8584 84.0419C100.001 85.0847 100.194 86.1257 100.269 87.1726C100.351 88.3164 100.254 89.474 100.36 90.612C100.45 91.5662 99.9924 92.6351 100.823 93.4776Z" fill="#D0B48C"/>
<path d="M166.998 168.211C168.283 171.716 173.265 173.452 175.994 171.614C172.381 172.368 169.871 170.24 166.998 168.211Z" fill="#D0B48C"/>
<path d="M126.476 62.16C124.051 61.4164 121.677 60.6899 119.304 59.9627C119.261 60.127 119.215 60.2902 119.171 60.4545C121.84 62.5763 124.741 63.2727 126.476 62.16Z" fill="#D0B48C"/>
<path d="M181.849 125.754C181.916 128.828 181.961 131.701 180.21 134.238C182.529 133.11 183.57 127.756 181.849 125.754Z" fill="#D0B48C"/>
<path d="M178.057 124.748C178.062 126.305 178.235 127.64 178.028 128.91C177.816 130.204 177.23 131.437 176.808 132.694C179.15 130.39 179.681 126.942 178.058 124.748L178.057 124.748Z" fill="#D0B48C"/>
<path d="M113.434 194.364C113.289 194.255 112.945 194.414 112.604 194.458C115.187 197.573 117.221 198.362 119.975 197.41C117.884 197.069 115.705 196.054 113.436 194.363L113.434 194.364Z" fill="#D0B48C"/>
<path d="M184.477 131.661C184.171 132.7 183.669 133.679 183.253 134.685C185.342 133.616 186.033 130.742 185.079 128.375C184.866 129.594 184.772 130.657 184.477 131.661Z" fill="#D0B48C"/>
<path d="M102.912 194.806C101.045 196.059 99.1826 197.306 97.3166 198.559C99.4374 198.804 102.282 196.895 102.912 194.806Z" fill="#D0B48C"/>
<path d="M94.6015 57.7461C94.4384 57.8137 94.2743 57.8838 94.1113 57.9515C95.3249 60.1577 96.5361 62.3629 97.7497 64.5692C97.7125 61.7866 96.0543 59.817 94.6015 57.7461Z" fill="#D0B48C"/>
<path d="M98.2128 191.851C96.8258 194.059 95.0023 195.16 92.86 195.875C95.6659 195.931 97.6047 194.515 98.2128 191.851Z" fill="#D0B48C"/>
<path d="M94.3851 39.7074C94.2215 39.6863 94.058 39.6652 93.8944 39.6441C93.0466 41.3103 92.6592 43.0416 93.7657 44.8836C93.9718 43.159 94.179 41.432 94.3851 39.7074Z" fill="#D0B48C"/>
<path d="M202.393 126.43C202.05 124.047 200.706 122.121 198.681 121.289C199.846 122.901 201.009 124.513 202.393 126.43Z" fill="#D0B48C"/>
<path d="M117.255 200.31C115.578 199.696 113.86 199.069 111.765 198.303C113.542 200.084 115.171 200.994 117.255 200.31Z" fill="#D0B48C"/>
<path d="M90.0234 82.5137C91.3373 83.7554 92.6504 84.9954 93.9661 86.2364C93.2276 84.4098 91.7786 83.3051 90.0234 82.5137Z" fill="#D0B48C"/>
<path d="M97.2403 205.982C98.4522 206.584 99.6458 207.285 101.107 206.511C99.7943 206.466 98.6995 205.219 97.2403 205.982Z" fill="#D0B48C"/>
<path d="M92.3529 67.8324C92.8647 69.3676 93.2514 70.5251 93.7252 71.9454C93.8556 69.8832 93.6955 69.3769 92.3529 67.8324Z" fill="#D0B48C"/>
<path d="M160.788 83.119C160.383 85.6348 160.417 85.8382 161.56 87.1899C161.302 85.8338 161.045 84.4751 160.788 83.119Z" fill="#D0B48C"/>
<path d="M95.2433 96.9228C94.3032 94.8775 93.9559 94.5126 92.3325 93.6992C93.242 94.7065 94.0994 95.6562 95.2433 96.9228Z" fill="#D0B48C"/>
<path d="M129.742 91.0122L129.71 91.0696C129.732 91.0714 129.752 91.0739 129.775 91.0775C129.766 91.0556 129.754 91.0352 129.743 91.014L129.742 91.0122Z" fill="#D0B48C"/>
<path d="M131.877 92.6983C131.393 91.8694 130.802 91.1807 129.771 91.0742C130.205 91.9541 130.952 92.4394 131.877 92.6983Z" fill="#D0B48C"/>
<path d="M188.305 136.713C188.317 135.96 188.325 135.466 188.334 134.975C188.025 135.525 188.015 136.105 188.305 136.713Z" fill="#D0B48C"/>
<path d="M59.2788 160.304C59.1855 160.329 59.0911 160.357 58.9978 160.382C59.1333 160.863 59.2706 161.343 59.4061 161.824C59.4973 161.804 59.5884 161.784 59.6796 161.764C59.5462 161.278 59.4129 160.792 59.277 160.305L59.2788 160.304Z" fill="#D0B48C"/>
<path d="M158.017 196.395C158.207 196.415 158.399 196.435 158.59 196.456C158.598 196.019 158.607 195.583 158.615 195.145C158.472 195.139 158.328 195.132 158.185 195.126C158.128 195.55 158.073 195.973 158.016 196.397L158.017 196.395Z" fill="#D0B48C"/>
<path d="M72.8754 155.587C72.4698 155.293 72.066 154.998 71.6605 154.704C71.583 154.81 71.508 154.917 71.4305 155.022C71.8322 155.322 72.2314 155.62 72.633 155.92C72.7144 155.809 72.794 155.698 72.8754 155.587Z" fill="#D0B48C"/>
<path d="M91.6194 88.1984C91.8868 88.5293 92.1542 88.8601 92.4216 89.191C92.5038 89.1228 92.5859 89.0546 92.6699 88.9857C92.3897 88.6641 92.112 88.3436 91.8317 88.0221L91.6204 88.1959L91.6194 88.1984Z" fill="#D0B48C"/>
<path d="M102.411 51.304C102.344 51.2461 102.278 51.1881 102.209 51.1309C102.014 51.3457 101.819 51.5605 101.625 51.7753C101.698 51.8389 101.771 51.9026 101.843 51.9687C102.033 51.7475 102.222 51.527 102.412 51.3058L102.411 51.304Z" fill="#D0B48C"/>
<path d="M111.176 81.8911C111.246 81.8632 111.313 81.8342 111.381 81.8045C111.227 81.4304 111.07 81.0569 110.915 80.681C110.845 80.7132 110.774 80.7461 110.703 80.7765C110.861 81.1474 111.018 81.5184 111.177 81.8886L111.176 81.8911Z" fill="#D0B48C"/>
<path d="M75.118 114.452C74.8439 114.202 74.5699 113.953 74.2966 113.705C74.2297 113.775 74.1647 113.845 74.0978 113.915C74.3701 114.186 74.6424 114.457 74.914 114.726C74.9826 114.634 75.0494 114.543 75.118 114.452Z" fill="#D0B48C"/>
<path d="M130.26 157.026C129.421 157.258 128.773 157.438 128.126 157.617C129.064 157.866 129.775 157.669 130.26 157.026Z" fill="#D0B48C"/>
<path d="M136.492 176.244C137.306 175.913 137.81 175.711 138.309 175.508C137.688 175.336 137.089 175.256 136.492 176.244Z" fill="#D0B48C"/>
<path d="M138.329 175.498C138.329 175.498 138.315 175.504 138.308 175.507C138.326 175.513 138.345 175.516 138.363 175.523C138.369 175.525 138.329 175.498 138.329 175.498Z" fill="#D0B48C"/>
</svg>
