<svg width="34" height="20" viewBox="0 0 34 20" fill="none" xmlns="http://www.w3.org/2000/svg">
<path d="M16.6355 19.9312H18.6663C18.6663 19.9312 19.2789 19.8633 19.5928 19.5326C19.8824 19.2285 19.8704 18.6557 19.8704 18.6557C19.8704 18.6557 19.8311 15.9805 21.0986 15.5848C22.3479 15.198 23.9502 18.1714 25.6461 19.3171C26.9286 20.1822 27.9064 19.9932 27.9064 19.9932L32.4479 19.9312C32.4479 19.9312 34.8228 19.7865 33.6972 17.9529C33.6067 17.8023 33.0394 16.5976 30.3205 14.1203C27.4718 11.5248 27.8551 11.9471 31.2861 7.46188C33.3743 4.73061 34.2102 3.06232 33.9507 2.34776C33.7032 1.66864 32.1642 1.8458 32.1642 1.8458L27.0554 1.87533C27.0554 1.87533 26.6782 1.82513 26.3945 1.99048C26.1199 2.15288 25.9449 2.52788 25.9449 2.52788C25.9449 2.52788 25.1362 4.64203 24.0558 6.44024C21.7805 10.2345 20.8692 10.4323 20.495 10.1961C19.629 9.64689 19.8462 7.99042 19.8462 6.81228C19.8462 3.13614 20.4135 1.60368 18.7388 1.20801C18.1805 1.07514 17.7731 0.98951 16.3518 0.974746C14.5291 0.95703 12.9811 0.980652 12.109 1.39994C11.5266 1.68045 11.077 2.30347 11.3516 2.3389C11.6895 2.3832 12.456 2.53969 12.8604 3.08299C13.3855 3.78279 13.3674 5.35363 13.3674 5.35363C13.3674 5.35363 13.6691 9.67937 12.6642 10.2197C11.9732 10.5888 11.0287 9.83587 8.99781 6.39299C7.95974 4.63022 7.17214 2.68142 7.17214 2.68142C7.17214 2.68142 7.02126 2.31824 6.75269 2.12631C6.42376 1.89009 5.96508 1.81627 5.96508 1.81627L1.10668 1.8458C1.10668 1.8458 0.376412 1.86647 0.11086 2.1765C-0.127534 2.45406 0.0927537 3.02689 0.0927537 3.02689C0.0927537 3.02689 3.898 11.7581 8.20417 16.1606C12.1543 20.197 16.6415 19.9312 16.6415 19.9312H16.6355Z" fill="white"/>
</svg>
