<svg width="16" height="15" viewBox="0 0 16 15" fill="none" xmlns="http://www.w3.org/2000/svg">
<g clip-path="url(#clip0_7_1416)">
<path d="M11.5986 8.61918C11.5986 8.61918 10.4799 8.06657 10.2777 7.99918C10.1969 7.97222 10.116 7.94527 10.0217 7.94527C9.87339 7.94527 9.75209 8.01266 9.65774 8.16092C9.54991 8.32266 9.21295 8.71353 9.11861 8.82136C9.10513 8.83484 9.09165 8.86179 9.07817 8.86179C9.07817 8.86179 8.90295 8.7944 8.84904 8.76745C7.67642 8.25527 6.78685 7.02874 6.66555 6.82656C6.65207 6.79961 6.65207 6.78613 6.65207 6.78613C6.65207 6.77265 6.6925 6.73222 6.71946 6.70526C6.77337 6.65135 6.84077 6.57048 6.90816 6.48961C6.93511 6.44917 6.96207 6.42221 7.00251 6.38178C7.09685 6.27395 7.13729 6.19308 7.17772 6.09873L7.20468 6.04482C7.31251 5.81569 7.21816 5.62699 7.1912 5.5596C7.16425 5.50569 6.70598 4.40046 6.65207 4.27916C6.53076 3.99611 6.3825 3.86133 6.16685 3.86133C6.15337 3.86133 6.16685 3.86133 6.08598 3.86133C5.97815 3.86133 5.42554 3.9422 5.18293 4.09046C4.91336 4.2522 4.48206 4.77786 4.48206 5.70786C4.48206 6.54352 5.00771 7.32526 5.23684 7.62179C5.23684 7.62179 5.25032 7.64874 5.2638 7.66222C6.13989 8.92919 7.21816 9.87267 8.32338 10.3175C9.38817 10.7353 9.88687 10.7892 10.1699 10.7892C10.2912 10.7892 10.3856 10.7892 10.4664 10.7757H10.5204C10.8843 10.7353 11.693 10.3175 11.8682 9.80528C12.0165 9.40093 12.0569 8.96962 11.9491 8.80788C11.8817 8.70005 11.7738 8.64614 11.6256 8.57875" fill="white"/>
<path d="M8.13495 0.00585938C4.07797 0.00585938 0.775779 3.2811 0.775779 7.31112C0.775779 8.61852 1.12622 9.88549 1.78665 11.0042L0.506212 14.7377C0.479256 14.8051 0.506212 14.886 0.546647 14.9399C0.587082 14.9803 0.640996 14.9938 0.681431 14.9938C0.708387 14.9938 0.721866 14.9938 0.735344 14.9938L4.63059 13.7538C5.69537 14.3199 6.89495 14.6299 8.12148 14.6299C12.1785 14.6299 15.4807 11.3546 15.4807 7.3246C15.4807 3.29458 12.1919 0.00585938 8.13495 0.00585938ZM8.13495 13.1068C6.9893 13.1068 5.88407 12.7699 4.92711 12.1498C4.90015 12.1229 4.85972 12.1229 4.81928 12.1229C4.8058 12.1229 4.77885 12.1229 4.76537 12.1229L2.81101 12.7429L3.44449 10.8829C3.44449 10.8829 3.44449 10.7616 3.41753 10.7077C2.6897 9.71027 2.31231 8.55113 2.31231 7.31112C2.29883 4.13023 4.91363 1.52891 8.13495 1.52891C11.3563 1.52891 13.9711 4.13023 13.9711 7.31112C13.9711 10.5055 11.3563 13.0933 8.13495 13.0933" fill="white"/>
</g>
<defs>
<clipPath id="clip0_7_1416">
<rect width="14.9879" height="14.9879" fill="white" transform="translate(0.506104 0.00585938)"/>
</clipPath>
</defs>
</svg>
