<svg xmlns="http://www.w3.org/2000/svg" version="1.1" xmlns:xlink="http://www.w3.org/1999/xlink" width="102" height="39"><svg width="102" height="39" viewBox="0 0 102 39" fill="none" xmlns="http://www.w3.org/2000/svg">
<path d="M100.58 20.8349C99.6578 18.0086 98.1183 15.7489 96.0045 14.1208C94.1342 12.679 91.8692 11.8038 89.4532 11.5915C87.5048 11.4196 85.5589 11.6775 83.7759 12.3391V7.50185C88.0297 7.78057 93.987 7.67116 101.076 6.1942L99.9469 0.773464C87.0541 3.46039 78.2301 1.16289 78.1507 1.14075L75.7568 0.489533L74.8425 2.79484C74.8334 2.81699 73.9529 5.0181 72.2988 7.51748C71.4431 8.81079 70.2657 10.3516 68.8226 11.6644C65.9429 4.97903 60.9364 2.25043 57.2036 1.13945C52.5591 -0.242435 48.4291 0.352778 46.719 0.923245C44.7393 1.58358 42.4509 3.19209 41.0651 5.4987C39.6715 6.99129 36.8609 9.79153 33.4993 11.9887C30.6456 5.06369 25.5388 2.26475 21.7461 1.13554C17.1029 -0.246343 12.9716 0.350173 11.2628 0.919337C8.76731 1.75159 5.78082 4.08816 4.73106 7.43282C4.15148 9.28228 3.94699 12.1398 6.26794 15.2513C8.51594 18.2652 12.1628 20.2045 16.8138 20.8609C20.652 21.4027 25.0386 21.0276 29.6232 19.776C29.6402 21.7922 29.1635 23.7015 28.1944 25.4911C26.246 29.0871 23.0707 30.9092 22.1433 31.382C20.3043 32.3198 16.9401 33.0127 13.5707 32.4461C9.69204 31.7936 6.83189 29.7136 5.06969 26.2608L0.138672 28.7784C1.50362 31.4536 3.38434 33.6118 5.72742 35.1942C7.75271 36.5618 10.0828 37.4748 12.6538 37.9059C13.8338 38.1039 14.9903 38.1911 16.1013 38.1911C19.6283 38.1911 22.7034 37.3107 24.6609 36.313C28.0955 34.5613 31.2369 31.5005 33.0643 28.1272C34.3927 25.676 35.5832 22.0852 35.0114 17.5554C37.1018 16.3428 39.0138 14.8854 40.6444 13.4722C40.9205 14.0518 41.2748 14.647 41.7255 15.2513C43.9735 18.2652 47.6203 20.2045 52.2713 20.8609C56.1096 21.4027 60.4962 21.0276 65.0807 19.776C65.0977 21.7922 64.621 23.7015 63.652 25.4911C61.7035 29.0871 58.5282 30.9092 57.6008 31.382C55.7618 32.3198 52.3976 33.0127 49.0282 32.4461C45.1496 31.7936 42.2894 29.7136 40.5272 26.2608L35.5962 28.7784C36.9611 31.4536 38.8419 33.6118 41.1849 35.1942C43.2102 36.5618 45.5403 37.4748 48.1113 37.9059C49.2913 38.1039 50.4479 38.1911 51.5588 38.1911C55.0858 38.1911 58.1609 37.3107 60.1185 36.313C63.553 34.5613 66.6945 31.5005 68.5218 28.1272C69.862 25.6526 71.0641 22.0175 70.452 17.4251C74.1118 14.8984 76.7167 11.1122 78.2718 8.34583V16.8025H78.3343C78.3265 16.8169 78.3174 16.8312 78.3096 16.8455L83.1911 19.4582C84.0247 17.8992 86.5084 16.8885 88.9674 17.1047C90.7257 17.2597 93.888 18.174 95.3168 22.5515C96.6062 26.5031 93.1573 30.3531 91.1138 31.4458C88.7082 32.7313 85.6879 33.0022 83.0348 32.17C81.1736 31.5865 78.5948 30.1838 76.8756 26.8157L71.9446 29.3333C73.9673 33.2966 77.3171 36.1802 81.3768 37.454C82.9515 37.9476 84.5847 38.1924 86.2115 38.1924C88.8228 38.1924 91.416 37.5634 93.7239 36.33C95.9472 35.1421 98.091 32.9593 99.4572 30.4924C101.217 27.3132 101.606 23.9738 100.581 20.8349H100.58ZM17.5874 15.379C14.4759 14.9401 12.0312 13.7184 10.7053 11.9419C10.226 11.2997 9.63343 10.3047 10.0137 9.09082C10.4344 7.75061 11.8697 6.55498 13.0146 6.17206C13.5108 6.00665 14.554 5.83212 15.8851 5.83212C17.1316 5.83212 18.6294 5.98581 20.1675 6.44297C24.0253 7.59172 26.8021 10.1979 28.4237 14.1925C28.4445 14.2446 28.4654 14.2954 28.4862 14.3474C24.5112 15.4728 20.7758 15.8296 17.59 15.3803L17.5874 15.379ZM53.0449 15.379C49.9334 14.9401 47.4887 13.7184 46.1629 11.9419C45.6836 11.2997 45.0909 10.3047 45.4713 9.09082C45.8919 7.75061 47.3272 6.55498 48.4721 6.17206C48.9683 6.00665 50.0116 5.83212 51.3426 5.83212C52.5891 5.83212 54.0869 5.98581 55.625 6.44297C59.4829 7.59172 62.2597 10.1979 63.8812 14.1925C63.902 14.2446 63.9229 14.2954 63.9437 14.3474C59.9687 15.4728 56.2333 15.8296 53.0475 15.3803L53.0449 15.379Z" fill="white"></path>
</svg><style>@media (prefers-color-scheme: light) { :root { filter: contrast(1) brightness(0.1); } }
@media (prefers-color-scheme: dark) { :root { filter: none; } }
</style></svg>